<?xml version="1.0" encoding="UTF-8" standalone="no"?>
<!DOCTYPE svg PUBLIC "-//W3C//DTD SVG 1.1//EN"
 "http://www.w3.org/Graphics/SVG/1.1/DTD/svg11.dtd">
<!-- Generated by graphviz version 2.40.1 (20161225.0304)
 -->
<!-- Title: dependencies Pages: 1 -->
<svg width="1256pt" height="211pt"
 viewBox="0.00 0.00 1256.00 211.00" xmlns="http://www.w3.org/2000/svg" xmlns:xlink="http://www.w3.org/1999/xlink">
<g id="graph0" class="graph" transform="scale(1 1) rotate(0) translate(4 207)">
<title>dependencies</title>
<polygon fill="#ffffff" stroke="transparent" points="-4,4 -4,-207 1252,-207 1252,4 -4,4"/>
<text text-anchor="start" x="603.0091" y="-42.4" font-family="sans-serif" font-weight="bold" font-size="14.00" fill="#000000">Legend</text>
<polygon fill="#ffffb3" stroke="transparent" points="390,-10 390,-30 410,-30 410,-10 390,-10"/>
<text text-anchor="start" x="413.629" y="-15.4" font-family="sans-serif" font-size="14.00" fill="#000000"> &#160;Declarations</text>
<polygon fill="#8dd3c7" stroke="transparent" points="503,-10 503,-30 523,-30 523,-10 503,-10"/>
<text text-anchor="start" x="526.7251" y="-15.4" font-family="sans-serif" font-size="14.00" fill="#000000"> &#160;Module</text>
<polygon fill="#80b1d3" stroke="transparent" points="589,-10 589,-30 609,-30 609,-10 589,-10"/>
<text text-anchor="start" x="612.7812" y="-15.4" font-family="sans-serif" font-size="14.00" fill="#000000"> &#160;Bootstrap</text>
<polygon fill="#fdb462" stroke="transparent" points="686,-10 686,-30 706,-30 706,-10 686,-10"/>
<text text-anchor="start" x="709.6732" y="-15.4" font-family="sans-serif" font-size="14.00" fill="#000000"> &#160;Providers</text>
<polygon fill="#fb8072" stroke="transparent" points="782,-10 782,-30 802,-30 802,-10 782,-10"/>
<text text-anchor="start" x="805.7258" y="-15.4" font-family="sans-serif" font-size="14.00" fill="#000000"> &#160;Exports</text>
<g id="clust1" class="cluster">
<title>cluster_ManageUserModule</title>
<polygon fill="none" stroke="#000000" stroke-dasharray="1,5" points="8,-70 8,-195 1240,-195 1240,-70 8,-70"/>
</g>
<g id="clust2" class="cluster">
<title>cluster_ManageUserModule_declarations</title>
<polygon fill="none" stroke="#000000" points="450,-78 450,-130 1232,-130 1232,-78 450,-78"/>
</g>
<g id="clust7" class="cluster">
<title>cluster_ManageUserModule_imports</title>
<polygon fill="none" stroke="#000000" points="16,-78 16,-130 442,-130 442,-78 16,-78"/>
</g>
<!-- ManageUserAddEditComponent -->
<g id="node1" class="node">
<title>ManageUserAddEditComponent</title>
<polygon fill="#ffffb3" stroke="#000000" points="1224.2878,-122 1023.7122,-122 1023.7122,-86 1224.2878,-86 1224.2878,-122"/>
<text text-anchor="middle" x="1124" y="-99.8" font-family="Times,serif" font-size="14.00" fill="#000000">ManageUserAddEditComponent</text>
</g>
<!-- ManageUserModule -->
<g id="node5" class="node">
<title>ManageUserModule</title>
<polygon fill="#8dd3c7" stroke="#000000" points="615.5646,-187 612.5646,-191 591.5646,-191 588.5646,-187 484.4354,-187 484.4354,-151 615.5646,-151 615.5646,-187"/>
<text text-anchor="middle" x="550" y="-164.8" font-family="Times,serif" font-size="14.00" fill="#000000">ManageUserModule</text>
</g>
<!-- ManageUserAddEditComponent&#45;&gt;ManageUserModule -->
<g id="edge1" class="edge">
<title>ManageUserAddEditComponent&#45;&gt;ManageUserModule</title>
<path fill="none" stroke="#000000" d="M1124,-122.2921C1124,-144.2057 1124,-178 1124,-178 1124,-178 625.5654,-178 625.5654,-178"/>
<polygon fill="#000000" stroke="#000000" points="625.5655,-174.5001 615.5654,-178 625.5654,-181.5001 625.5655,-174.5001"/>
</g>
<!-- ManageUserComponent -->
<g id="node2" class="node">
<title>ManageUserComponent</title>
<polygon fill="#ffffb3" stroke="#000000" points="1005.3473,-122 852.6527,-122 852.6527,-86 1005.3473,-86 1005.3473,-122"/>
<text text-anchor="middle" x="929" y="-99.8" font-family="Times,serif" font-size="14.00" fill="#000000">ManageUserComponent</text>
</g>
<!-- ManageUserComponent&#45;&gt;ManageUserModule -->
<g id="edge2" class="edge">
<title>ManageUserComponent&#45;&gt;ManageUserModule</title>
<path fill="none" stroke="#000000" d="M929,-122.1061C929,-141.3391 929,-169 929,-169 929,-169 625.5841,-169 625.5841,-169"/>
<polygon fill="#000000" stroke="#000000" points="625.5841,-165.5001 615.5841,-169 625.584,-172.5001 625.5841,-165.5001"/>
</g>
<!-- ManageUserListComponent -->
<g id="node3" class="node">
<title>ManageUserListComponent</title>
<polygon fill="#ffffb3" stroke="#000000" points="834.126,-122 659.874,-122 659.874,-86 834.126,-86 834.126,-122"/>
<text text-anchor="middle" x="747" y="-99.8" font-family="Times,serif" font-size="14.00" fill="#000000">ManageUserListComponent</text>
</g>
<!-- ManageUserListComponent&#45;&gt;ManageUserModule -->
<g id="edge3" class="edge">
<title>ManageUserListComponent&#45;&gt;ManageUserModule</title>
<path fill="none" stroke="#000000" d="M747,-122.027C747,-138.3976 747,-160 747,-160 747,-160 625.5981,-160 625.5981,-160"/>
<polygon fill="#000000" stroke="#000000" points="625.5982,-156.5001 615.5981,-160 625.5981,-163.5001 625.5982,-156.5001"/>
</g>
<!-- ManageUserViewComponent -->
<g id="node4" class="node">
<title>ManageUserViewComponent</title>
<polygon fill="#ffffb3" stroke="#000000" points="641.6657,-122 458.3343,-122 458.3343,-86 641.6657,-86 641.6657,-122"/>
<text text-anchor="middle" x="550" y="-99.8" font-family="Times,serif" font-size="14.00" fill="#000000">ManageUserViewComponent</text>
</g>
<!-- ManageUserViewComponent&#45;&gt;ManageUserModule -->
<g id="edge4" class="edge">
<title>ManageUserViewComponent&#45;&gt;ManageUserModule</title>
<path fill="none" stroke="#000000" d="M550,-122.1061C550,-122.1061 550,-140.991 550,-140.991"/>
<polygon fill="#000000" stroke="#000000" points="546.5001,-140.9909 550,-150.991 553.5001,-140.991 546.5001,-140.9909"/>
</g>
<!-- LoaderModule -->
<g id="node6" class="node">
<title>LoaderModule</title>
<polygon fill="#8dd3c7" stroke="#000000" points="433.6924,-122 430.6924,-126 409.6924,-126 406.6924,-122 334.3076,-122 334.3076,-86 433.6924,-86 433.6924,-122"/>
<text text-anchor="middle" x="384" y="-99.8" font-family="Times,serif" font-size="14.00" fill="#000000">LoaderModule</text>
</g>
<!-- LoaderModule&#45;&gt;ManageUserModule -->
<g id="edge5" class="edge">
<title>LoaderModule&#45;&gt;ManageUserModule</title>
<path fill="none" stroke="#000000" d="M384,-122.027C384,-138.3976 384,-160 384,-160 384,-160 474.3924,-160 474.3924,-160"/>
<polygon fill="#000000" stroke="#000000" points="474.3924,-163.5001 484.3924,-160 474.3924,-156.5001 474.3924,-163.5001"/>
</g>
<!-- ManageUserRoutingModule -->
<g id="node7" class="node">
<title>ManageUserRoutingModule</title>
<polygon fill="#8dd3c7" stroke="#000000" points="316.1825,-122 313.1825,-126 292.1825,-126 289.1825,-122 139.8175,-122 139.8175,-86 316.1825,-86 316.1825,-122"/>
<text text-anchor="middle" x="228" y="-99.8" font-family="Times,serif" font-size="14.00" fill="#000000">ManageUserRoutingModule</text>
</g>
<!-- ManageUserRoutingModule&#45;&gt;ManageUserModule -->
<g id="edge6" class="edge">
<title>ManageUserRoutingModule&#45;&gt;ManageUserModule</title>
<path fill="none" stroke="#000000" d="M228,-122.1061C228,-141.3391 228,-169 228,-169 228,-169 474.4504,-169 474.4504,-169"/>
<polygon fill="#000000" stroke="#000000" points="474.4504,-172.5001 484.4504,-169 474.4503,-165.5001 474.4504,-172.5001"/>
</g>
<!-- SharedModule -->
<g id="node8" class="node">
<title>SharedModule</title>
<polygon fill="#8dd3c7" stroke="#000000" points="122.4231,-122 119.4231,-126 98.4231,-126 95.4231,-122 23.5769,-122 23.5769,-86 122.4231,-86 122.4231,-122"/>
<text text-anchor="middle" x="73" y="-99.8" font-family="Times,serif" font-size="14.00" fill="#000000">SharedModule</text>
</g>
<!-- SharedModule&#45;&gt;ManageUserModule -->
<g id="edge7" class="edge">
<title>SharedModule&#45;&gt;ManageUserModule</title>
<path fill="none" stroke="#000000" d="M73,-122.2921C73,-144.2057 73,-178 73,-178 73,-178 474.176,-178 474.176,-178"/>
<polygon fill="#000000" stroke="#000000" points="474.176,-181.5001 484.176,-178 474.176,-174.5001 474.176,-181.5001"/>
</g>
</g>
</svg>
