<?xml version="1.0" encoding="UTF-8" standalone="no"?>
<!DOCTYPE svg PUBLIC "-//W3C//DTD SVG 1.1//EN"
 "http://www.w3.org/Graphics/SVG/1.1/DTD/svg11.dtd">
<!-- Generated by graphviz version 2.40.1 (20161225.0304)
 -->
<!-- Title: dependencies Pages: 1 -->
<svg width="1177pt" height="211pt"
 viewBox="0.00 0.00 1177.00 211.00" xmlns="http://www.w3.org/2000/svg" xmlns:xlink="http://www.w3.org/1999/xlink">
<g id="graph0" class="graph" transform="scale(1 1) rotate(0) translate(4 207)">
<title>dependencies</title>
<polygon fill="#ffffff" stroke="transparent" points="-4,4 -4,-207 1173,-207 1173,4 -4,4"/>
<text text-anchor="start" x="563.5091" y="-42.4" font-family="sans-serif" font-weight="bold" font-size="14.00" fill="#000000">Legend</text>
<polygon fill="#ffffb3" stroke="transparent" points="350.5,-10 350.5,-30 370.5,-30 370.5,-10 350.5,-10"/>
<text text-anchor="start" x="374.129" y="-15.4" font-family="sans-serif" font-size="14.00" fill="#000000"> &#160;Declarations</text>
<polygon fill="#8dd3c7" stroke="transparent" points="463.5,-10 463.5,-30 483.5,-30 483.5,-10 463.5,-10"/>
<text text-anchor="start" x="487.2251" y="-15.4" font-family="sans-serif" font-size="14.00" fill="#000000"> &#160;Module</text>
<polygon fill="#80b1d3" stroke="transparent" points="549.5,-10 549.5,-30 569.5,-30 569.5,-10 549.5,-10"/>
<text text-anchor="start" x="573.2812" y="-15.4" font-family="sans-serif" font-size="14.00" fill="#000000"> &#160;Bootstrap</text>
<polygon fill="#fdb462" stroke="transparent" points="646.5,-10 646.5,-30 666.5,-30 666.5,-10 646.5,-10"/>
<text text-anchor="start" x="670.1732" y="-15.4" font-family="sans-serif" font-size="14.00" fill="#000000"> &#160;Providers</text>
<polygon fill="#fb8072" stroke="transparent" points="742.5,-10 742.5,-30 762.5,-30 762.5,-10 742.5,-10"/>
<text text-anchor="start" x="766.2258" y="-15.4" font-family="sans-serif" font-size="14.00" fill="#000000"> &#160;Exports</text>
<g id="clust1" class="cluster">
<title>cluster_CategoryModule</title>
<polygon fill="none" stroke="#000000" stroke-dasharray="1,5" points="8,-70 8,-195 1161,-195 1161,-70 8,-70"/>
</g>
<g id="clust2" class="cluster">
<title>cluster_CategoryModule_declarations</title>
<polygon fill="none" stroke="#000000" points="430,-78 430,-130 1153,-130 1153,-78 430,-78"/>
</g>
<g id="clust7" class="cluster">
<title>cluster_CategoryModule_imports</title>
<polygon fill="none" stroke="#000000" points="16,-78 16,-130 422,-130 422,-78 16,-78"/>
</g>
<!-- CategoryAddEditComponent -->
<g id="node1" class="node">
<title>CategoryAddEditComponent</title>
<polygon fill="#ffffb3" stroke="#000000" points="1145.0898,-122 964.9102,-122 964.9102,-86 1145.0898,-86 1145.0898,-122"/>
<text text-anchor="middle" x="1055" y="-99.8" font-family="Times,serif" font-size="14.00" fill="#000000">CategoryAddEditComponent</text>
</g>
<!-- CategoryModule -->
<g id="node5" class="node">
<title>CategoryModule</title>
<polygon fill="#8dd3c7" stroke="#000000" points="586.3669,-187 583.3669,-191 562.3669,-191 559.3669,-187 475.6331,-187 475.6331,-151 586.3669,-151 586.3669,-187"/>
<text text-anchor="middle" x="531" y="-164.8" font-family="Times,serif" font-size="14.00" fill="#000000">CategoryModule</text>
</g>
<!-- CategoryAddEditComponent&#45;&gt;CategoryModule -->
<g id="edge1" class="edge">
<title>CategoryAddEditComponent&#45;&gt;CategoryModule</title>
<path fill="none" stroke="#000000" d="M1055,-122.2921C1055,-144.2057 1055,-178 1055,-178 1055,-178 596.5811,-178 596.5811,-178"/>
<polygon fill="#000000" stroke="#000000" points="596.5811,-174.5001 586.5811,-178 596.5811,-181.5001 596.5811,-174.5001"/>
</g>
<!-- CategoryComponent -->
<g id="node2" class="node">
<title>CategoryComponent</title>
<polygon fill="#ffffb3" stroke="#000000" points="947.1499,-122 814.8501,-122 814.8501,-86 947.1499,-86 947.1499,-122"/>
<text text-anchor="middle" x="881" y="-99.8" font-family="Times,serif" font-size="14.00" fill="#000000">CategoryComponent</text>
</g>
<!-- CategoryComponent&#45;&gt;CategoryModule -->
<g id="edge2" class="edge">
<title>CategoryComponent&#45;&gt;CategoryModule</title>
<path fill="none" stroke="#000000" d="M881,-122.1061C881,-141.3391 881,-169 881,-169 881,-169 596.4585,-169 596.4585,-169"/>
<polygon fill="#000000" stroke="#000000" points="596.4586,-165.5001 586.4585,-169 596.4585,-172.5001 596.4586,-165.5001"/>
</g>
<!-- CategoryListComponent -->
<g id="node3" class="node">
<title>CategoryListComponent</title>
<polygon fill="#ffffb3" stroke="#000000" points="796.4284,-122 641.5716,-122 641.5716,-86 796.4284,-86 796.4284,-122"/>
<text text-anchor="middle" x="719" y="-99.8" font-family="Times,serif" font-size="14.00" fill="#000000">CategoryListComponent</text>
</g>
<!-- CategoryListComponent&#45;&gt;CategoryModule -->
<g id="edge3" class="edge">
<title>CategoryListComponent&#45;&gt;CategoryModule</title>
<path fill="none" stroke="#000000" d="M719,-122.027C719,-138.3976 719,-160 719,-160 719,-160 596.3894,-160 596.3894,-160"/>
<polygon fill="#000000" stroke="#000000" points="596.3894,-156.5001 586.3894,-160 596.3893,-163.5001 596.3894,-156.5001"/>
</g>
<!-- CategoryTreeviewComponent -->
<g id="node4" class="node">
<title>CategoryTreeviewComponent</title>
<polygon fill="#ffffb3" stroke="#000000" points="623.5043,-122 438.4957,-122 438.4957,-86 623.5043,-86 623.5043,-122"/>
<text text-anchor="middle" x="531" y="-99.8" font-family="Times,serif" font-size="14.00" fill="#000000">CategoryTreeviewComponent</text>
</g>
<!-- CategoryTreeviewComponent&#45;&gt;CategoryModule -->
<g id="edge4" class="edge">
<title>CategoryTreeviewComponent&#45;&gt;CategoryModule</title>
<path fill="none" stroke="#000000" d="M531,-122.1061C531,-122.1061 531,-140.991 531,-140.991"/>
<polygon fill="#000000" stroke="#000000" points="527.5001,-140.9909 531,-150.991 534.5001,-140.991 527.5001,-140.9909"/>
</g>
<!-- CategoryRoutingModule -->
<g id="node6" class="node">
<title>CategoryRoutingModule</title>
<polygon fill="#8dd3c7" stroke="#000000" points="413.9846,-122 410.9846,-126 389.9846,-126 386.9846,-122 258.0154,-122 258.0154,-86 413.9846,-86 413.9846,-122"/>
<text text-anchor="middle" x="336" y="-99.8" font-family="Times,serif" font-size="14.00" fill="#000000">CategoryRoutingModule</text>
</g>
<!-- CategoryRoutingModule&#45;&gt;CategoryModule -->
<g id="edge5" class="edge">
<title>CategoryRoutingModule&#45;&gt;CategoryModule</title>
<path fill="none" stroke="#000000" d="M336,-122.027C336,-138.3976 336,-160 336,-160 336,-160 465.3818,-160 465.3818,-160"/>
<polygon fill="#000000" stroke="#000000" points="465.3818,-163.5001 475.3818,-160 465.3818,-156.5001 465.3818,-163.5001"/>
</g>
<!-- LoaderModule -->
<g id="node7" class="node">
<title>LoaderModule</title>
<polygon fill="#8dd3c7" stroke="#000000" points="239.6924,-122 236.6924,-126 215.6924,-126 212.6924,-122 140.3076,-122 140.3076,-86 239.6924,-86 239.6924,-122"/>
<text text-anchor="middle" x="190" y="-99.8" font-family="Times,serif" font-size="14.00" fill="#000000">LoaderModule</text>
</g>
<!-- LoaderModule&#45;&gt;CategoryModule -->
<g id="edge6" class="edge">
<title>LoaderModule&#45;&gt;CategoryModule</title>
<path fill="none" stroke="#000000" d="M190,-122.1061C190,-141.3391 190,-169 190,-169 190,-169 465.4535,-169 465.4535,-169"/>
<polygon fill="#000000" stroke="#000000" points="465.4536,-172.5001 475.4535,-169 465.4535,-165.5001 465.4536,-172.5001"/>
</g>
<!-- SharedModule -->
<g id="node8" class="node">
<title>SharedModule</title>
<polygon fill="#8dd3c7" stroke="#000000" points="122.4231,-122 119.4231,-126 98.4231,-126 95.4231,-122 23.5769,-122 23.5769,-86 122.4231,-86 122.4231,-122"/>
<text text-anchor="middle" x="73" y="-99.8" font-family="Times,serif" font-size="14.00" fill="#000000">SharedModule</text>
</g>
<!-- SharedModule&#45;&gt;CategoryModule -->
<g id="edge7" class="edge">
<title>SharedModule&#45;&gt;CategoryModule</title>
<path fill="none" stroke="#000000" d="M73,-122.2921C73,-144.2057 73,-178 73,-178 73,-178 465.2981,-178 465.2981,-178"/>
<polygon fill="#000000" stroke="#000000" points="465.2981,-181.5001 475.2981,-178 465.2981,-174.5001 465.2981,-181.5001"/>
</g>
</g>
</svg>
