<svg xmlns="http://www.w3.org/2000/svg" width="20" height="20" viewBox="0 0 20 20">
  <path id="copy" d="M2.344,20H12.969a2.346,2.346,0,0,0,2.344-2.344V7.031a2.346,2.346,0,0,0-2.344-2.344H2.344A2.346,2.346,0,0,0,0,7.031V17.656A2.346,2.346,0,0,0,2.344,20ZM12.969,6.25a.782.782,0,0,1,.781.781V17.656a.782.782,0,0,1-.781.781H2.344a.782.782,0,0,1-.781-.781V7.031a.782.782,0,0,1,.781-.781Zm3.906,7.5h.781a.782.782,0,0,0,.781-.781V2.344a.782.782,0,0,0-.781-.781H7.031a.782.782,0,0,0-.781.781v.742H4.688V2.344A2.346,2.346,0,0,1,7.031,0H17.656A2.346,2.346,0,0,1,20,2.344V12.969a2.346,2.346,0,0,1-2.344,2.344h-.781Zm0,0" fill="#fff"/>
</svg>
