<svg xmlns="http://www.w3.org/2000/svg" width="26.05" height="29.803" viewBox="0 0 26.05 29.803">
  <g id="Drupal_" data-name="Drupal " transform="translate(-1.9 -2.4)">
    <path id="Path_53108" data-name="Path 53108" d="M21.409,8.026c-1.514-.95-2.948-1.321-4.382-2.271A19.77,19.77,0,0,1,13.87,2.5a4.339,4.339,0,0,1-1.5,3.351A20.357,20.357,0,0,1,8.731,8.026,13.048,13.048,0,0,0,1.9,19.415,13.023,13.023,0,0,0,15.046,32.271c6.911,0,12.9-5.026,12.9-12.614A13.531,13.531,0,0,0,21.409,8.026Z" transform="translate(0 -0.084)" fill="#005a8f"/>
    <path id="Path_53109" data-name="Path 53109" d="M93.815,147.391a2.409,2.409,0,0,1,1.289.258,2.263,2.263,0,0,1,.66,1.031.415.415,0,0,1-.226.58c-.193.113-.226.064-.435-.322-.193-.371-.371-.741-1.369-.741a2.306,2.306,0,0,0-1.8.741c-.483.4-.66.548-.838.322s-.113-.467.193-.741a5.558,5.558,0,0,1,1.321-.95,2.515,2.515,0,0,1,1.208-.177Z" transform="translate(-74.742 -121.631)" fill="#fff"/>
    <path id="Path_53110" data-name="Path 53110" d="M74.98,166.644a4.833,4.833,0,0,0,3.27.838,6.486,6.486,0,0,0,3.705-.95c.258-.193.371-.032.4.081a.433.433,0,0,1-.113.483,6.24,6.24,0,0,1-3.013,1.208c-1.547.145-3.641.226-4.9-.918a.411.411,0,0,1,0-.6.672.672,0,0,1,.435-.193c.177,0,.129-.016.209.048Z" transform="translate(-60.66 -137.614)" fill="#fff"/>
    <path id="Path_53111" data-name="Path 53111" d="M7.3,26.939c2.175-.032,2.578-.4,4.511-1.257,10.391-4.64,12.308-8.893,12.678-9.875a6.259,6.259,0,0,0,.338-4.3c-.113-.338-.193-.612-.258-.822a14.561,14.561,0,0,0-3.158-2.642c-1.5-.95-2.948-1.321-4.382-2.271A19.324,19.324,0,0,1,13.87,2.5c-.193,1.982-.773,2.819-1.5,3.351A20.357,20.357,0,0,1,8.731,8.026,13.1,13.1,0,0,0,1.9,19.415a12.428,12.428,0,0,0,1.724,6.379l.29-.016A4.551,4.551,0,0,0,7.3,26.939Z" transform="translate(0 -0.084)" fill="#0e78be"/>
    <path id="Path_53112" data-name="Path 53112" d="M21.409,7.942c-1.5-.95-2.948-1.321-4.382-2.271A19.324,19.324,0,0,1,13.87,2.4c-.193,1.982-.773,2.819-1.5,3.351A20.357,20.357,0,0,1,8.731,7.926,13.1,13.1,0,0,0,1.9,19.315a12.428,12.428,0,0,0,1.724,6.379,13.311,13.311,0,0,0,11.422,6.476c6.911,0,12.9-5.026,12.9-12.614a13.1,13.1,0,0,0-3.383-8.973A15.094,15.094,0,0,0,21.409,7.942Zm3.48,3.367a12.892,12.892,0,0,1,2.835,8.264,12.451,12.451,0,0,1-1.031,5.091,11.721,11.721,0,0,1-2.771,3.915,13.223,13.223,0,0,1-13.774,2.449,13.187,13.187,0,0,1-4.124-2.642,12.361,12.361,0,0,1-3.915-9.038,12.22,12.22,0,0,1,2.964-8.119A13.365,13.365,0,0,1,8.827,8.151c.306-.161.6-.306.87-.451a16.373,16.373,0,0,0,2.8-1.74,4.109,4.109,0,0,0,1.514-3.013A16.623,16.623,0,0,0,16.9,5.88a15.117,15.117,0,0,0,2.255,1.176,19.291,19.291,0,0,1,2.143,1.1l.032.016A13.527,13.527,0,0,1,24.889,11.309Z" transform="translate(0)" fill="#044a75"/>
    <path id="Path_53113" data-name="Path 53113" d="M24.373,6a5.071,5.071,0,0,1,.338,2.03,1.828,1.828,0,0,1-.6,1.289c-.193.145-.258.258-.258.29,0,.113.258.193.258.451,0,.322-.145.95-1.659,2.465a21.814,21.814,0,0,1-5.4,3.705c-1.692.838-2.5.773-2.723.371s.081-1.289,1.144-2.465a21.7,21.7,0,0,1,4.414-2.868l4.189-2.932.226-1.112" transform="translate(-10.375 -3.02)" fill="#8acbf0"/>
    <path id="Path_53114" data-name="Path 53114" d="M27.6,5.8a3.881,3.881,0,0,1-1.611,3.077A17.1,17.1,0,0,1,23.157,10.6a13.636,13.636,0,0,0-4.849,4.011c-.435.661,0,.918.081.983s1.063.177,3.158-1.1a17.335,17.335,0,0,0,4.189-3.238c.628-.661.725-1.031.725-1.208,0-.193-.145-.29-.371-.338-.113-.032-.145-.081,0-.177.145-.081.741-.371.886-.483a1.84,1.84,0,0,0,.854-1.321A5.07,5.07,0,0,0,27.6,5.8Z" transform="translate(-13.605 -2.852)" fill="#fff"/>
    <path id="Path_53115" data-name="Path 53115" d="M36.991,112.565A4.738,4.738,0,0,1,41.76,108.2c3.351-.032,5.687,3.335,7.378,3.3,1.434-.032,4.189-2.835,5.542-2.835,1.434,0,1.837,1.5,1.837,2.384a7,7,0,0,1-.983,3.5c-.693,1-1.112,1.369-1.917,1.321-1.031-.081-3.093-3.3-4.414-3.351-1.659-.064-5.284,3.464-8.119,3.464a4.358,4.358,0,0,1-2.819-.628,3.072,3.072,0,0,1-1.273-2.787Z" transform="translate(-29.437 -88.755)" fill="#fff"/>
    <path id="Path_53116" data-name="Path 53116" d="M33.8,54.205a6.248,6.248,0,0,1-.338,4.3c-.371.967-2.288,5.22-12.678,9.875-1.917.854-2.32,1.24-4.511,1.257a4.489,4.489,0,0,1-3.383-1.144l-.29.016a13.311,13.311,0,0,0,11.422,6.476c6.911,0,12.9-5.026,12.9-12.614A13.1,13.1,0,0,0,33.543,53.4C33.607,53.593,33.688,53.867,33.8,54.205Z" transform="translate(-8.976 -42.784)" fill="none"/>
  </g>
</svg>
