<?xml version="1.0" encoding="UTF-8" standalone="no"?>
<!DOCTYPE svg PUBLIC "-//W3C//DTD SVG 1.1//EN"
 "http://www.w3.org/Graphics/SVG/1.1/DTD/svg11.dtd">
<!-- Generated by graphviz version 2.40.1 (20161225.0304)
 -->
<!-- Title: dependencies Pages: 1 -->
<svg width="1334pt" height="211pt"
 viewBox="0.00 0.00 1334.00 211.00" xmlns="http://www.w3.org/2000/svg" xmlns:xlink="http://www.w3.org/1999/xlink">
<g id="graph0" class="graph" transform="scale(1 1) rotate(0) translate(4 207)">
<title>dependencies</title>
<polygon fill="#ffffff" stroke="transparent" points="-4,4 -4,-207 1330,-207 1330,4 -4,4"/>
<text text-anchor="start" x="642.0091" y="-42.4" font-family="sans-serif" font-weight="bold" font-size="14.00" fill="#000000">Legend</text>
<polygon fill="#ffffb3" stroke="transparent" points="429,-10 429,-30 449,-30 449,-10 429,-10"/>
<text text-anchor="start" x="452.629" y="-15.4" font-family="sans-serif" font-size="14.00" fill="#000000"> &#160;Declarations</text>
<polygon fill="#8dd3c7" stroke="transparent" points="542,-10 542,-30 562,-30 562,-10 542,-10"/>
<text text-anchor="start" x="565.7251" y="-15.4" font-family="sans-serif" font-size="14.00" fill="#000000"> &#160;Module</text>
<polygon fill="#80b1d3" stroke="transparent" points="628,-10 628,-30 648,-30 648,-10 628,-10"/>
<text text-anchor="start" x="651.7812" y="-15.4" font-family="sans-serif" font-size="14.00" fill="#000000"> &#160;Bootstrap</text>
<polygon fill="#fdb462" stroke="transparent" points="725,-10 725,-30 745,-30 745,-10 725,-10"/>
<text text-anchor="start" x="748.6732" y="-15.4" font-family="sans-serif" font-size="14.00" fill="#000000"> &#160;Providers</text>
<polygon fill="#fb8072" stroke="transparent" points="821,-10 821,-30 841,-30 841,-10 821,-10"/>
<text text-anchor="start" x="844.7258" y="-15.4" font-family="sans-serif" font-size="14.00" fill="#000000"> &#160;Exports</text>
<g id="clust1" class="cluster">
<title>cluster_CmsModule</title>
<polygon fill="none" stroke="#000000" stroke-dasharray="1,5" points="8,-70 8,-195 1318,-195 1318,-70 8,-70"/>
</g>
<g id="clust2" class="cluster">
<title>cluster_CmsModule_declarations</title>
<polygon fill="none" stroke="#000000" points="404,-78 404,-130 1310,-130 1310,-78 404,-78"/>
</g>
<g id="clust9" class="cluster">
<title>cluster_CmsModule_imports</title>
<polygon fill="none" stroke="#000000" points="16,-78 16,-130 396,-130 396,-78 16,-78"/>
</g>
<!-- CmsAddEditComponent -->
<g id="node1" class="node">
<title>CmsAddEditComponent</title>
<polygon fill="#ffffb3" stroke="#000000" points="1302.4452,-122 1147.5548,-122 1147.5548,-86 1302.4452,-86 1302.4452,-122"/>
<text text-anchor="middle" x="1225" y="-99.8" font-family="Times,serif" font-size="14.00" fill="#000000">CmsAddEditComponent</text>
</g>
<!-- CmsModule -->
<g id="node7" class="node">
<title>CmsModule</title>
<polygon fill="#8dd3c7" stroke="#000000" points="624.7219,-187 621.7219,-191 600.7219,-191 597.7219,-187 539.2781,-187 539.2781,-151 624.7219,-151 624.7219,-187"/>
<text text-anchor="middle" x="582" y="-164.8" font-family="Times,serif" font-size="14.00" fill="#000000">CmsModule</text>
</g>
<!-- CmsAddEditComponent&#45;&gt;CmsModule -->
<g id="edge1" class="edge">
<title>CmsAddEditComponent&#45;&gt;CmsModule</title>
<path fill="none" stroke="#000000" d="M1225,-122.0109C1225,-144.4852 1225,-180 1225,-180 1225,-180 634.687,-180 634.687,-180"/>
<polygon fill="#000000" stroke="#000000" points="634.687,-176.5001 624.687,-180 634.687,-183.5001 634.687,-176.5001"/>
</g>
<!-- CmsComponent -->
<g id="node2" class="node">
<title>CmsComponent</title>
<polygon fill="#ffffb3" stroke="#000000" points="1129.5042,-122 1022.4958,-122 1022.4958,-86 1129.5042,-86 1129.5042,-122"/>
<text text-anchor="middle" x="1076" y="-99.8" font-family="Times,serif" font-size="14.00" fill="#000000">CmsComponent</text>
</g>
<!-- CmsComponent&#45;&gt;CmsModule -->
<g id="edge2" class="edge">
<title>CmsComponent&#45;&gt;CmsModule</title>
<path fill="none" stroke="#000000" d="M1076,-122.1289C1076,-142.5724 1076,-173 1076,-173 1076,-173 634.9751,-173 634.9751,-173"/>
<polygon fill="#000000" stroke="#000000" points="634.9751,-169.5001 624.9751,-173 634.975,-176.5001 634.9751,-169.5001"/>
</g>
<!-- CmsListComponent -->
<g id="node3" class="node">
<title>CmsListComponent</title>
<polygon fill="#ffffb3" stroke="#000000" points="1004.2828,-122 875.7172,-122 875.7172,-86 1004.2828,-86 1004.2828,-122"/>
<text text-anchor="middle" x="940" y="-99.8" font-family="Times,serif" font-size="14.00" fill="#000000">CmsListComponent</text>
</g>
<!-- CmsListComponent&#45;&gt;CmsModule -->
<g id="edge3" class="edge">
<title>CmsListComponent&#45;&gt;CmsModule</title>
<path fill="none" stroke="#000000" d="M940,-122.2667C940,-140.5552 940,-166 940,-166 940,-166 634.8276,-166 634.8276,-166"/>
<polygon fill="#000000" stroke="#000000" points="634.8276,-162.5001 624.8276,-166 634.8275,-169.5001 634.8276,-162.5001"/>
</g>
<!-- CmsPageBuilderComponent -->
<g id="node4" class="node">
<title>CmsPageBuilderComponent</title>
<polygon fill="#ffffb3" stroke="#000000" points="858.2091,-122 681.7909,-122 681.7909,-86 858.2091,-86 858.2091,-122"/>
<text text-anchor="middle" x="770" y="-99.8" font-family="Times,serif" font-size="14.00" fill="#000000">CmsPageBuilderComponent</text>
</g>
<!-- CmsPageBuilderComponent&#45;&gt;CmsModule -->
<g id="edge4" class="edge">
<title>CmsPageBuilderComponent&#45;&gt;CmsModule</title>
<path fill="none" stroke="#000000" d="M770,-122.0091C770,-138.0494 770,-159 770,-159 770,-159 634.6601,-159 634.6601,-159"/>
<polygon fill="#000000" stroke="#000000" points="634.6601,-155.5001 624.6601,-159 634.6601,-162.5001 634.6601,-155.5001"/>
</g>
<!-- CmsPageViewComponent -->
<g id="node5" class="node">
<title>CmsPageViewComponent</title>
<polygon fill="#ffffb3" stroke="#000000" points="664.0351,-122 499.9649,-122 499.9649,-86 664.0351,-86 664.0351,-122"/>
<text text-anchor="middle" x="582" y="-99.8" font-family="Times,serif" font-size="14.00" fill="#000000">CmsPageViewComponent</text>
</g>
<!-- CmsPageViewComponent&#45;&gt;CmsModule -->
<g id="edge5" class="edge">
<title>CmsPageViewComponent&#45;&gt;CmsModule</title>
<path fill="none" stroke="#000000" d="M582,-122.1061C582,-122.1061 582,-140.991 582,-140.991"/>
<polygon fill="#000000" stroke="#000000" points="578.5001,-140.9909 582,-150.991 585.5001,-140.991 578.5001,-140.9909"/>
</g>
<!-- SafeHtml -->
<g id="node6" class="node">
<title>SafeHtml</title>
<polygon fill="#ffffb3" stroke="#000000" points="481.6517,-122 412.3483,-122 412.3483,-86 481.6517,-86 481.6517,-122"/>
<text text-anchor="middle" x="447" y="-99.8" font-family="Times,serif" font-size="14.00" fill="#000000">SafeHtml</text>
</g>
<!-- SafeHtml&#45;&gt;CmsModule -->
<g id="edge6" class="edge">
<title>SafeHtml&#45;&gt;CmsModule</title>
<path fill="none" stroke="#000000" d="M447,-122.0091C447,-138.0494 447,-159 447,-159 447,-159 529.2852,-159 529.2852,-159"/>
<polygon fill="#000000" stroke="#000000" points="529.2852,-162.5001 539.2852,-159 529.2851,-155.5001 529.2852,-162.5001"/>
</g>
<!-- CmsRoutingModule -->
<g id="node8" class="node">
<title>CmsRoutingModule</title>
<polygon fill="#8dd3c7" stroke="#000000" points="388.3398,-122 385.3398,-126 364.3398,-126 361.3398,-122 257.6602,-122 257.6602,-86 388.3398,-86 388.3398,-122"/>
<text text-anchor="middle" x="323" y="-99.8" font-family="Times,serif" font-size="14.00" fill="#000000">CmsRoutingModule</text>
</g>
<!-- CmsRoutingModule&#45;&gt;CmsModule -->
<g id="edge7" class="edge">
<title>CmsRoutingModule&#45;&gt;CmsModule</title>
<path fill="none" stroke="#000000" d="M323,-122.2667C323,-140.5552 323,-166 323,-166 323,-166 529.2314,-166 529.2314,-166"/>
<polygon fill="#000000" stroke="#000000" points="529.2315,-169.5001 539.2314,-166 529.2314,-162.5001 529.2315,-169.5001"/>
</g>
<!-- LoaderModule -->
<g id="node9" class="node">
<title>LoaderModule</title>
<polygon fill="#8dd3c7" stroke="#000000" points="239.6924,-122 236.6924,-126 215.6924,-126 212.6924,-122 140.3076,-122 140.3076,-86 239.6924,-86 239.6924,-122"/>
<text text-anchor="middle" x="190" y="-99.8" font-family="Times,serif" font-size="14.00" fill="#000000">LoaderModule</text>
</g>
<!-- LoaderModule&#45;&gt;CmsModule -->
<g id="edge8" class="edge">
<title>LoaderModule&#45;&gt;CmsModule</title>
<path fill="none" stroke="#000000" d="M190,-122.1289C190,-142.5724 190,-173 190,-173 190,-173 529.3029,-173 529.3029,-173"/>
<polygon fill="#000000" stroke="#000000" points="529.3029,-176.5001 539.3029,-173 529.3029,-169.5001 529.3029,-176.5001"/>
</g>
<!-- SharedModule -->
<g id="node10" class="node">
<title>SharedModule</title>
<polygon fill="#8dd3c7" stroke="#000000" points="122.4231,-122 119.4231,-126 98.4231,-126 95.4231,-122 23.5769,-122 23.5769,-86 122.4231,-86 122.4231,-122"/>
<text text-anchor="middle" x="73" y="-99.8" font-family="Times,serif" font-size="14.00" fill="#000000">SharedModule</text>
</g>
<!-- SharedModule&#45;&gt;CmsModule -->
<g id="edge9" class="edge">
<title>SharedModule&#45;&gt;CmsModule</title>
<path fill="none" stroke="#000000" d="M73,-122.0109C73,-144.4852 73,-180 73,-180 73,-180 529.0416,-180 529.0416,-180"/>
<polygon fill="#000000" stroke="#000000" points="529.0417,-183.5001 539.0416,-180 529.0416,-176.5001 529.0417,-183.5001"/>
</g>
</g>
</svg>
