<?xml version="1.0" encoding="UTF-8" standalone="no"?>
<!DOCTYPE svg PUBLIC "-//W3C//DTD SVG 1.1//EN"
 "http://www.w3.org/Graphics/SVG/1.1/DTD/svg11.dtd">
<!-- Generated by graphviz version 2.40.1 (20161225.0304)
 -->
<!-- Title: dependencies Pages: 1 -->
<svg width="1026pt" height="211pt"
 viewBox="0.00 0.00 1026.00 211.00" xmlns="http://www.w3.org/2000/svg" xmlns:xlink="http://www.w3.org/1999/xlink">
<g id="graph0" class="graph" transform="scale(1 1) rotate(0) translate(4 207)">
<title>dependencies</title>
<polygon fill="#ffffff" stroke="transparent" points="-4,4 -4,-207 1022,-207 1022,4 -4,4"/>
<text text-anchor="start" x="488.0091" y="-42.4" font-family="sans-serif" font-weight="bold" font-size="14.00" fill="#000000">Legend</text>
<polygon fill="#ffffb3" stroke="transparent" points="275,-10 275,-30 295,-30 295,-10 275,-10"/>
<text text-anchor="start" x="298.629" y="-15.4" font-family="sans-serif" font-size="14.00" fill="#000000"> &#160;Declarations</text>
<polygon fill="#8dd3c7" stroke="transparent" points="388,-10 388,-30 408,-30 408,-10 388,-10"/>
<text text-anchor="start" x="411.7251" y="-15.4" font-family="sans-serif" font-size="14.00" fill="#000000"> &#160;Module</text>
<polygon fill="#80b1d3" stroke="transparent" points="474,-10 474,-30 494,-30 494,-10 474,-10"/>
<text text-anchor="start" x="497.7812" y="-15.4" font-family="sans-serif" font-size="14.00" fill="#000000"> &#160;Bootstrap</text>
<polygon fill="#fdb462" stroke="transparent" points="571,-10 571,-30 591,-30 591,-10 571,-10"/>
<text text-anchor="start" x="594.6732" y="-15.4" font-family="sans-serif" font-size="14.00" fill="#000000"> &#160;Providers</text>
<polygon fill="#fb8072" stroke="transparent" points="667,-10 667,-30 687,-30 687,-10 667,-10"/>
<text text-anchor="start" x="690.7258" y="-15.4" font-family="sans-serif" font-size="14.00" fill="#000000"> &#160;Exports</text>
<g id="clust1" class="cluster">
<title>cluster_ManageRulesetModule</title>
<polygon fill="none" stroke="#000000" stroke-dasharray="1,5" points="8,-70 8,-195 1010,-195 1010,-70 8,-70"/>
</g>
<g id="clust2" class="cluster">
<title>cluster_ManageRulesetModule_declarations</title>
<polygon fill="none" stroke="#000000" points="465,-78 465,-130 1002,-130 1002,-78 465,-78"/>
</g>
<g id="clust6" class="cluster">
<title>cluster_ManageRulesetModule_imports</title>
<polygon fill="none" stroke="#000000" points="16,-78 16,-130 457,-130 457,-78 16,-78"/>
</g>
<!-- ManageRulesetComponent -->
<g id="node1" class="node">
<title>ManageRulesetComponent</title>
<polygon fill="#ffffb3" stroke="#000000" points="994.4129,-122 825.5871,-122 825.5871,-86 994.4129,-86 994.4129,-122"/>
<text text-anchor="middle" x="910" y="-99.8" font-family="Times,serif" font-size="14.00" fill="#000000">ManageRulesetComponent</text>
</g>
<!-- ManageRulesetModule -->
<g id="node4" class="node">
<title>ManageRulesetModule</title>
<polygon fill="#8dd3c7" stroke="#000000" points="545.1303,-187 542.1303,-191 521.1303,-191 518.1303,-187 398.8697,-187 398.8697,-151 545.1303,-151 545.1303,-187"/>
<text text-anchor="middle" x="472" y="-164.8" font-family="Times,serif" font-size="14.00" fill="#000000">ManageRulesetModule</text>
</g>
<!-- ManageRulesetComponent&#45;&gt;ManageRulesetModule -->
<g id="edge1" class="edge">
<title>ManageRulesetComponent&#45;&gt;ManageRulesetModule</title>
<path fill="none" stroke="#000000" d="M910,-122.2843C910,-143.3211 910,-175 910,-175 910,-175 555.3114,-175 555.3114,-175"/>
<polygon fill="#000000" stroke="#000000" points="555.3114,-171.5001 545.3114,-175 555.3113,-178.5001 555.3114,-171.5001"/>
</g>
<!-- RulesetAddEditComponent -->
<g id="node2" class="node">
<title>RulesetAddEditComponent</title>
<polygon fill="#ffffb3" stroke="#000000" points="807.2646,-122 636.7354,-122 636.7354,-86 807.2646,-86 807.2646,-122"/>
<text text-anchor="middle" x="722" y="-99.8" font-family="Times,serif" font-size="14.00" fill="#000000">RulesetAddEditComponent</text>
</g>
<!-- RulesetAddEditComponent&#45;&gt;ManageRulesetModule -->
<g id="edge2" class="edge">
<title>RulesetAddEditComponent&#45;&gt;ManageRulesetModule</title>
<path fill="none" stroke="#000000" d="M722,-122.0225C722,-139.3734 722,-163 722,-163 722,-163 555.319,-163 555.319,-163"/>
<polygon fill="#000000" stroke="#000000" points="555.3191,-159.5001 545.319,-163 555.319,-166.5001 555.3191,-159.5001"/>
</g>
<!-- RulesetListComponent -->
<g id="node3" class="node">
<title>RulesetListComponent</title>
<polygon fill="#ffffb3" stroke="#000000" points="618.6024,-122 473.3976,-122 473.3976,-86 618.6024,-86 618.6024,-122"/>
<text text-anchor="middle" x="546" y="-99.8" font-family="Times,serif" font-size="14.00" fill="#000000">RulesetListComponent</text>
</g>
<!-- RulesetListComponent&#45;&gt;ManageRulesetModule -->
<g id="edge3" class="edge">
<title>RulesetListComponent&#45;&gt;ManageRulesetModule</title>
<path fill="none" stroke="#000000" d="M509.3819,-122.1061C509.3819,-122.1061 509.3819,-140.991 509.3819,-140.991"/>
<polygon fill="#000000" stroke="#000000" points="505.8819,-140.9909 509.3819,-150.991 512.8819,-140.991 505.8819,-140.9909"/>
</g>
<!-- LoaderModule -->
<g id="node5" class="node">
<title>LoaderModule</title>
<polygon fill="#8dd3c7" stroke="#000000" points="448.6924,-122 445.6924,-126 424.6924,-126 421.6924,-122 349.3076,-122 349.3076,-86 448.6924,-86 448.6924,-122"/>
<text text-anchor="middle" x="399" y="-99.8" font-family="Times,serif" font-size="14.00" fill="#000000">LoaderModule</text>
</g>
<!-- LoaderModule&#45;&gt;ManageRulesetModule -->
<g id="edge4" class="edge">
<title>LoaderModule&#45;&gt;ManageRulesetModule</title>
<path fill="none" stroke="#000000" d="M423.6406,-122.1061C423.6406,-122.1061 423.6406,-140.991 423.6406,-140.991"/>
<polygon fill="#000000" stroke="#000000" points="420.1407,-140.9909 423.6406,-150.991 427.1407,-140.991 420.1407,-140.9909"/>
</g>
<!-- ManageRulesetRoutingModule -->
<g id="node6" class="node">
<title>ManageRulesetRoutingModule</title>
<polygon fill="#8dd3c7" stroke="#000000" points="331.7478,-122 328.7478,-126 307.7478,-126 304.7478,-122 140.2522,-122 140.2522,-86 331.7478,-86 331.7478,-122"/>
<text text-anchor="middle" x="236" y="-99.8" font-family="Times,serif" font-size="14.00" fill="#000000">ManageRulesetRoutingModule</text>
</g>
<!-- ManageRulesetRoutingModule&#45;&gt;ManageRulesetModule -->
<g id="edge5" class="edge">
<title>ManageRulesetRoutingModule&#45;&gt;ManageRulesetModule</title>
<path fill="none" stroke="#000000" d="M236,-122.0225C236,-139.3734 236,-163 236,-163 236,-163 388.6218,-163 388.6218,-163"/>
<polygon fill="#000000" stroke="#000000" points="388.6218,-166.5001 398.6218,-163 388.6217,-159.5001 388.6218,-166.5001"/>
</g>
<!-- SharedModule -->
<g id="node7" class="node">
<title>SharedModule</title>
<polygon fill="#8dd3c7" stroke="#000000" points="122.4231,-122 119.4231,-126 98.4231,-126 95.4231,-122 23.5769,-122 23.5769,-86 122.4231,-86 122.4231,-122"/>
<text text-anchor="middle" x="73" y="-99.8" font-family="Times,serif" font-size="14.00" fill="#000000">SharedModule</text>
</g>
<!-- SharedModule&#45;&gt;ManageRulesetModule -->
<g id="edge6" class="edge">
<title>SharedModule&#45;&gt;ManageRulesetModule</title>
<path fill="none" stroke="#000000" d="M73,-122.2843C73,-143.3211 73,-175 73,-175 73,-175 388.8173,-175 388.8173,-175"/>
<polygon fill="#000000" stroke="#000000" points="388.8173,-178.5001 398.8173,-175 388.8172,-171.5001 388.8173,-178.5001"/>
</g>
</g>
</svg>
