<svg id="bubble-chart-line" xmlns="http://www.w3.org/2000/svg" width="24" height="24" viewBox="0 0 24 24">
  <path id="Path_48886" data-name="Path 48886" d="M0,0H24V24H0Z" fill="none"/>
  <path id="Path_48887" data-name="Path 48887" d="M16,16a3,3,0,1,1-3,3A3,3,0,0,1,16,16ZM6,12a4,4,0,1,1-4,4A4,4,0,0,1,6,12Zm10,6a1,1,0,1,0,1,1A1,1,0,0,0,16,18ZM6,14a2,2,0,1,0,2,2A2,2,0,0,0,6,14ZM14.5,2A5.5,5.5,0,1,1,9,7.5,5.5,5.5,0,0,1,14.5,2Zm0,2A3.5,3.5,0,1,0,18,7.5,3.5,3.5,0,0,0,14.5,4Z" fill="#9e55fa"/>
</svg>
