<svg xmlns="http://www.w3.org/2000/svg" width="24.631" height="32.008" viewBox="0 0 24.631 32.008">
  <g id="driving-instructor" transform="translate(-59)">
    <path id="Path_52961" data-name="Path 52961" d="M132.678,27.189a7.192,7.192,0,0,1,4.97-6.84,7.189,7.189,0,1,0,0,13.679A7.192,7.192,0,0,1,132.678,27.189Z" transform="translate(-64.91 -18.75)" fill="rgba(158,85,250,0.17)"/>
    <path id="Path_52962" data-name="Path 52962" d="M127.44,16.879a8.44,8.44,0,1,1,8.44-8.44A8.449,8.449,0,0,1,127.44,16.879Zm0-14.379a5.939,5.939,0,1,0,5.939,5.939A5.946,5.946,0,0,0,127.44,2.5Zm7.439,28.257a1.25,1.25,0,0,0-1.25-1.25h-3.313a1.25,1.25,0,1,0,0,2.5h3.313A1.25,1.25,0,0,0,134.879,30.758Z" transform="translate(-56.249)" fill="#9e55fa"/>
    <path id="Path_52963" data-name="Path 52963" d="M82.381,336.595a1.25,1.25,0,0,1-1.25-1.25,8.815,8.815,0,0,0-3.582-7.16,3.566,3.566,0,0,1-.906,1.386l-.006.006-.787.761a2.677,2.677,0,0,1-3.738,0l-.765-.74-.765.74a2.677,2.677,0,0,1-3.738,0l-.793-.767a3.556,3.556,0,0,1-.9-1.392,8.937,8.937,0,0,0-3.655,7.166,1.25,1.25,0,0,1-2.5,0,11.281,11.281,0,0,1,1.8-6.134,10.9,10.9,0,0,1,4.956-4.236,1.25,1.25,0,0,1,1.682,1.174c0,.086,0,.173,0,.26-.009.7,0,1.021.362,1.375l.783.757a.187.187,0,0,0,.261,0l.783-.758a1.685,1.685,0,0,0,.5-.843,1.25,1.25,0,0,1,2.438,0,1.687,1.687,0,0,0,.5.843l.783.757a.187.187,0,0,0,.261,0l.784-.758c.358-.352.37-.57.362-1.339,0-.1,0-.195,0-.295a1.25,1.25,0,0,1,1.681-1.174,10.044,10.044,0,0,1,4.93,4.243,11.341,11.341,0,0,1,1.766,6.126A1.25,1.25,0,0,1,82.381,336.595Z" transform="translate(0 -304.587)" fill="#9e55fa"/>
  </g>
</svg>
