<svg id="eye-line" xmlns="http://www.w3.org/2000/svg" width="18.006" height="18.006" viewBox="0 0 18.006 18.006">
  <path id="Path_49234" data-name="Path 49234" d="M0,0H18.006V18.006H0Z" fill="none"/>
  <path id="Path_49235" data-name="Path 49235" d="M9.3,3a8.256,8.256,0,0,1,8.117,6.752,8.255,8.255,0,0,1-16.234,0A8.255,8.255,0,0,1,9.3,3Zm0,12a6.756,6.756,0,0,0,6.585-5.25,6.756,6.756,0,0,0-13.17,0A6.756,6.756,0,0,0,9.3,15Zm0-1.876a3.376,3.376,0,1,1,3.376-3.376A3.376,3.376,0,0,1,9.3,13.128Zm0-1.5A1.876,1.876,0,1,0,7.422,9.752,1.876,1.876,0,0,0,9.3,11.628Z" transform="translate(-0.295 -0.749)" fill="#9999a9"/>
</svg>
