<svg id="happy-face" xmlns="http://www.w3.org/2000/svg" width="30.032" height="30.032" viewBox="0 0 30.032 30.032">
  <path id="Path_52967" data-name="Path 52967" d="M23.519,125.34a11.088,11.088,0,0,1,9.326-10.946,11.086,11.086,0,1,0,0,21.893A11.088,11.088,0,0,1,23.519,125.34Z" transform="translate(-18.827 -107.552)" fill="#00deca" opacity="0.104"/>
  <g id="Group_49332" data-name="Group 49332" transform="translate(0 0)">
    <path id="Path_52968" data-name="Path 52968" d="M316.654,4.633a1.172,1.172,0,0,0,1.569-.54l1.173-2.4A1.173,1.173,0,1,0,317.287.659l-1.173,2.4A1.173,1.173,0,0,0,316.654,4.633Z" transform="translate(-297.46 0)" fill="#00deca"/>
    <path id="Path_52969" data-name="Path 52969" d="M20.363,97.042a12.267,12.267,0,1,0-3.108,20.42,1.173,1.173,0,1,0-.957-2.142,9.913,9.913,0,1,1,5.787-10.426,1.173,1.173,0,1,0,2.326-.31,12.169,12.169,0,0,0-4.047-7.541Z" transform="translate(0 -88.49)" fill="#00deca"/>
    <path id="Path_52970" data-name="Path 52970" d="M381.173,64.286a1.169,1.169,0,0,0,.83-.344l1.936-1.936a1.173,1.173,0,1,0-1.659-1.659l-1.936,1.936a1.173,1.173,0,0,0,.829,2Z" transform="translate(-357.71 -56.485)" fill="#00deca"/>
    <path id="Path_52971" data-name="Path 52971" d="M436.565,135.649a1.173,1.173,0,0,0-1.574-.525l-2.346,1.173a1.173,1.173,0,1,0,1.049,2.1l2.346-1.173A1.173,1.173,0,0,0,436.565,135.649Z" transform="translate(-406.657 -127.081)" fill="#00deca"/>
    <path id="Path_52972" data-name="Path 52972" d="M132.019,332.077a1.172,1.172,0,0,0-.988.547,3.314,3.314,0,0,1-5.766,0,1.172,1.172,0,1,0-1.934,1.322,5.641,5.641,0,0,0,9.633,0,1.172,1.172,0,0,0-.945-1.866Z" transform="translate(-115.882 -312.599)" fill="#00deca"/>
  </g>
  <path id="Path_52973" data-name="Path 52973" d="M104.609,244.288a1.168,1.168,0,0,1-.738-.262,2.515,2.515,0,0,0-1.58-.676h-1.2a1.173,1.173,0,0,1,0-2.346h1.161a4.753,4.753,0,0,1,3.1,1.2,1.173,1.173,0,0,1-.739,2.085Zm-11.437,0a1.173,1.173,0,0,1-.756-2.071A4.609,4.609,0,0,1,95.429,241h1.263a1.173,1.173,0,1,1,0,2.346H95.4a2.373,2.373,0,0,0-1.474.663A1.168,1.168,0,0,1,93.173,244.288Zm15.543,9.092v-3.285a1.174,1.174,0,0,1,1.173-1.173h3.343a1.173,1.173,0,1,0,0-2.346h-3.343a3.523,3.523,0,0,0-3.519,3.519v3.285a1.173,1.173,0,1,0,2.346,0Zm7.575,3.176a1.173,1.173,0,0,0,0-1.659l-3.871-3.871a1.173,1.173,0,0,0-1.659,1.659l3.871,3.871a1.173,1.173,0,0,0,1.659,0Z" transform="translate(-86.603 -226.867)" fill="#00deca"/>
</svg>
