<?xml version="1.0" encoding="utf-8"?>
<!-- Generator: Adobe Illustrator 25.2.1, SVG Export Plug-In . SVG Version: 6.00 Build 0)  -->
<svg version="1.1" xmlns="http://www.w3.org/2000/svg" xmlns:xlink="http://www.w3.org/1999/xlink" x="0px" y="0px"
	 viewBox="0 0 5198.8 833.3" style="enable-background:new 0 0 5198.8 833.3;" xml:space="preserve">
<style type="text/css">
	.st0{fill:url(#Path_42_1_);}
	.st1{fill:#FFFFFF;}
</style>
<g id="Layer_1">
	<g>
		
			<linearGradient id="Path_42_1_" gradientUnits="userSpaceOnUse" x1="2144.8589" y1="-156.8637" x2="2144.8589" y2="-155.8634" gradientTransform="matrix(812.9175 0 0 812.9395 -1743186.875 127520.5312)">
			<stop  offset="0" style="stop-color:#2EE1F0"/>
			<stop  offset="0.319" style="stop-color:#8347EB"/>
			<stop  offset="0.649" style="stop-color:#D300FD"/>
			<stop  offset="1" style="stop-color:#00DECA"/>
		</linearGradient>
		<path id="Path_42" class="st0" d="M769.8,345.9l30.8,30.8c16.4,16.4,16.4,43,0,59.5l-1.1,1.1c-16.5,16.4-43,16.4-59.5,0
			l-30.8-30.8L648.6,346l-60.5-60.6l-60.6-60.6L467,164.2l-60.6-60.6l-30.8-30.8c-16.4-16.4-16.4-43,0-59.5l1.1-1.1
			c16.4-16.4,43-16.4,59.5,0L467,43.1l60.6,60.5l30.3,30.3c16.7,16.6,43.8,16.6,60.5,0l0.1-0.1c16.7-16.7,16.7-43.7,0-60.5l-0.6-0.6
			c-16.4-16.4-16.4-43,0-59.5l1.1-1.1c16.4-16.4,43-16.4,59.5,0l30.8,30.8l30,30l0.8,0.8l0.6,0.6l29.2,29.2l30.8,30.8
			c16.4,16.4,16.4,43,0,59.5l-1.1,1.1c-16.5,16.4-43,16.4-59.5,0l-0.6-0.6c-16.7-16.6-43.8-16.6-60.5,0l-0.1,0.1
			c-16.7,16.7-16.7,43.7,0,60.5l30.3,30.3L769.8,345.9L769.8,345.9z M648.7,709.3l30.8,30.8c16.4,16.4,16.4,43,0,59.5l-1.1,1.1
			c-16.4,16.4-43,16.4-59.5,0l-30.8-30.8l-60.6-60.6L467,648.7l-60.6-60.6l-30.8-30.8c-16.4-16.4-16.4-43,0-59.5l122.2-122.2
			c16.5-16.4,43-16.4,59.5,0l30.8,30.8l60.5,60.5l60.6,60.6l60.5,60.6l30.8,30.8c16.4,16.4,16.4,43,0,59.5l-1.1,1.1
			c-16.4,16.4-43,16.4-59.5,0l-30.8-30.8l-60.6-60.5l-60.6-60.6l-30.8-30.8c-16.5-16.4-43.1-16.4-59.5,0l-1.1,1.1
			c-16.4,16.4-16.4,43,0,59.5l30.8,30.8l60.6,60.5L648.7,709.3L648.7,709.3z M406.5,224.8l30.8,30.8c16.4,16.4,16.4,43,0,59.5
			L315.1,437.3c-16.5,16.4-43,16.4-59.5,0l-30.8-30.8L164.2,346l-60.6-60.6L43,224.8L12.3,194c-16.4-16.4-16.4-43,0-59.5l1.1-1.1
			c16.5-16.4,43-16.4,59.5,0l30.8,30.8l60.6,60.6l60.6,60.6l30.8,30.8c16.4,16.4,43,16.4,59.5,0l1.1-1.1c16.4-16.4,16.4-43,0-59.5
			l-30.8-30.8l-60.6-60.6l-60.6-60.6l-30.8-30.8c-16.4-16.4-16.4-43,0-59.5l1.1-1.1c16.4-16.4,43-16.4,59.5,0L224.9,43l60.6,60.5
			l60.6,60.6L406.5,224.8L406.5,224.8z M43.1,467l-30.8-30.8c-16.4-16.4-16.4-43,0-59.5l1.1-1.1c16.4-16.4,43.1-16.4,59.5,0
			l30.8,30.8l60.6,60.6l60.6,60.6l60.6,60.6l60.6,60.6l60.6,60.5l30.8,30.8c16.4,16.4,16.4,43,0,59.5l-1.1,1.1
			c-16.4,16.4-43,16.4-59.5,0l-30.8-30.8l-60.6-60.6L255,678.9c-16.7-16.7-43.8-16.7-60.5,0l-0.1,0.1c-16.7,16.7-16.7,43.7,0,60.5
			l0.6,0.6c16.4,16.4,16.4,43,0,59.5l-1.1,1.1c-16.4,16.4-43,16.4-59.5,0l-30.8-30.8L43,709.3l-30.8-30.8c-16.4-16.4-16.4-43,0-59.5
			l1.1-1.1c16.4-16.4,43.1-16.4,59.5,0l0.6,0.6c16.7,16.7,43.8,16.7,60.5,0l0.1-0.1c16.7-16.7,16.7-43.8,0-60.5l-30.3-30.3L43.1,467
			L43.1,467z"/>
		<path class="st1" d="M1305.9,9.2v475.6H1241V277.6h-229.8v207.1H947V9.2h64.2v209.9H1241V9.2H1305.9z"/>
		<path class="st1" d="M1643.4,336.3v-174h62.7v322.3h-62.7v-48.3c-9.2,17.9-23.2,31.6-42.1,41.1c-18.8,9.5-38.2,14.1-58,14.1
			c-40.1,0-70.8-12.4-92.5-37.3c-21.6-24.8-32.3-60.1-31.8-105.6V162.3h62.7v182.2c0,26.6,6.3,47.6,18.7,62.7
			c12.4,15.2,29.7,22.8,51.7,22.8c25.7,0,47.4-7.6,64.9-22.8C1634.6,392.2,1643.4,368.5,1643.4,336.3z"/>
		<path class="st1" d="M2181.7,216.9c-26.2-0.5-47,8.2-62.5,25.9c-15.4,17.7-23.2,40.3-23.2,68v173.9h-62.7V301.8
			c0-26.2-6.3-47-19-62.1c-12.7-15.2-29.6-22.8-50.7-22.8c-24.8,0-46,7.8-63.5,23.4c-17.5,15.6-26.2,39.1-26.2,70.4v173.9h-62.7
			V162.3h62.7v48.3c7.8-16.1,20.6-28.8,38.3-37.9c17.7-9.2,34.6-14.5,50.7-15.9c12.4-0.5,24.2,0.3,35.2,2c41,6.4,69,27.4,84.3,62.7
			c23-44.2,60.3-66.2,111.8-66.2c40.1,0,70.7,12.4,92.2,37.3c21.5,24.8,32.1,60.1,32.1,105.6v186.3h-62.7V302.5
			c0-26.6-6.5-47.6-19.7-62.7C2222.8,224.4,2204.8,216.9,2181.7,216.9z"/>
		<path class="st1" d="M2674.5,484.6v-49.7c-10.6,17.9-26.2,31.9-47,41.7c-20.7,9.9-42.8,14.9-66.2,14.9c-45.6,0-84.3-15.6-116-47
			c-31.8-31.2-47.6-71.8-47.6-121.5c0-50.2,15.9-90.7,47.6-121.5s70.4-46.2,116-46.2c23.4,0,45.7,4.9,66.6,14.5
			c20.9,9.6,36.5,23.2,46.6,40.7v-48.1h62.1v322.3H2674.5z M2673.8,322.5c0-32.7-10.8-58.4-32.4-77.3
			c-21.6-18.8-46.5-28.3-74.5-28.3c-30,0-54.8,9.7-74.9,29.3c-20,19.6-30,44.9-30,76.3c0,31.2,10.1,57.1,30.3,77.3
			c20.2,20.2,45.1,30.3,74.5,30.3c30,0,55.2-9.6,75.9-28.9S2673.8,355.7,2673.8,322.5z"/>
		<path class="st1" d="M2841.8,72.7c-8.6-7.8-12.8-17.5-12.8-28.9c0-11.5,4.2-21.1,12.8-28.9C2850.3,7,2860.5,3,2872.6,3
			c11.9,0,22.2,4,30.7,11.8c8.5,7.8,12.8,17.5,12.8,28.9c0,11.5-4.2,21.1-12.8,28.9s-18.7,11.8-30.7,11.8
			C2860.7,84.3,2850.4,80.5,2841.8,72.7z M2903.7,484.6V162.3h-62.1v322.3H2903.7z"/>
		<path class="st1" d="M3071.4,310.7v173.9h-62.7V162.3h62.7v48.3c9.2-17.9,23.3-31.6,42.4-41.1c19.1-9.5,38.5-14.1,58.3-14.1
			c40.1,0,70.7,12.4,92.2,37.3s32.1,60.1,32.1,105.6v186.3h-62.7V302.5c0-26.6-6.3-47.6-19-62.7c-12.7-15.2-30-22.8-52.1-22.8
			c-25.4,0-46.9,7.7-64.5,23.2C3080.3,255.4,3071.4,279,3071.4,310.7z"/>
		<path class="st1" d="M3700.8,322.5c0,11.9-0.3,20.2-0.6,24.8h-261.6c3.7,26.6,15.1,48,34.2,63.9c19.1,15.9,42.4,23.8,70,23.8
			c19.7,0,37.9-4.4,54.5-13.1c16.5-8.7,29.2-20.9,37.9-36.6c6,2.3,15.2,5.9,27.7,10.8c12.4,4.9,21.1,8.2,26.2,10
			c-13.3,27.7-33.4,48.8-60.1,63.5c-26.6,14.7-56.1,22-88.4,22c-47,0-86.2-15.6-117.7-47c-31.5-31.2-47.2-72-47.2-122.2
			s15.8-90.5,47.2-121.1c31.5-30.6,70.7-45.8,117.7-45.8c46.5,0,84.8,15.4,114.9,45.8C3685.7,232,3700.8,272.3,3700.8,322.5z
			 M3438.5,298.3h200.1c-3.7-26.6-14.3-47.8-32.1-63.1c-17.7-15.4-39.7-23.2-65.9-23.2c-27.1,0-50.1,7.7-68.6,23.2
			C3453.4,250.6,3442.3,271.7,3438.5,298.3z"/>
		<path class="st1" d="M4210.2,363.9h-201.5l-46.2,120.7H3894L4074.8,9.1h69L4324,484.6h-67.6L4210.2,363.9z M4030.8,305.9h157.4
			l-78.6-211.2L4030.8,305.9z"/>
		<path class="st1" d="M4396.5,9.2h64.2v475.6h-64.2V9.2z"/>
		<g>
			<path class="st1" d="M1014.4,778.1h-49.9V649.3h49.9c17.8,0,31.9,6.1,42.3,18.2c10.4,12.1,15.6,27.6,15.6,46.4
				c0,18.7-5.2,34-15.5,46.1C1046.5,772.1,1032.4,778.1,1014.4,778.1z M981.9,761.8h32.5c13,0,23-4.5,30-13.4
				c7-8.9,10.6-20.4,10.6-34.5c0-14.2-3.5-25.8-10.6-34.9c-7-9-17-13.5-30-13.5h-32.5V761.8z"/>
			<path class="st1" d="M1178.7,734.2c0,3.2-0.1,5.5-0.2,6.7h-70.8c1,7.2,4.1,13,9.2,17.3c5.2,4.3,11.5,6.4,19,6.4
				c5.4,0,10.3-1.2,14.8-3.6c4.5-2.4,7.9-5.7,10.3-9.9c1.6,0.6,4.1,1.6,7.5,2.9c3.4,1.3,5.7,2.2,7.1,2.7c-3.6,7.5-9,13.2-16.3,17.2
				c-7.2,4-15.2,6-23.9,6c-12.7,0-23.3-4.2-31.9-12.7c-8.5-8.5-12.8-19.5-12.8-33.1c0-13.6,4.3-24.5,12.8-32.8
				c8.5-8.3,19.2-12.4,31.9-12.4c12.6,0,23,4.1,31.1,12.4C1174.6,709.7,1178.7,720.6,1178.7,734.2z M1107.7,727.6h54.2
				c-1-7.2-3.9-12.9-8.7-17.1c-4.8-4.2-10.7-6.3-17.8-6.3c-7.4,0-13.5,2.1-18.6,6.3C1111.7,714.7,1108.7,720.4,1107.7,727.6z"/>
			<path class="st1" d="M1208,767.2c-9-8.5-13.5-19.5-13.5-33c0-13.5,4.5-24.4,13.5-32.7c9-8.3,19.9-12.5,32.7-12.5
				c13.8,0,25,4.7,33.6,14l-12.9,10.8c-5.5-5.5-12.4-8.2-20.7-8.2c-8.1,0-15,2.6-20.7,7.9c-5.7,5.3-8.6,12.2-8.6,20.6
				c0,8.6,2.9,15.6,8.6,21.1c5.7,5.5,12.6,8.2,20.7,8.2c8.3,0,15.3-2.9,20.7-8.6l13.1,10.8c-8.7,9.5-20,14.2-33.8,14.2
				C1227.9,780,1217,775.7,1208,767.2z"/>
			<path class="st1" d="M1366,767.2c-8.9,8.5-19.7,12.8-32.4,12.8c-12.7,0-23.5-4.2-32.3-12.7c-8.8-8.5-13.3-19.5-13.3-33.1
				c0-13.5,4.4-24.4,13.2-32.7c8.8-8.3,19.6-12.5,32.4-12.5c12.8,0,23.7,4.2,32.5,12.5c8.8,8.3,13.3,19.2,13.3,32.7
				C1379.4,747.6,1374.9,758.6,1366,767.2z M1313.1,755.4c5.5,5.4,12.4,8.1,20.5,8.1c8.1,0,14.9-2.7,20.5-8.1
				c5.5-5.4,8.3-12.5,8.3-21.2c0-8.6-2.8-15.5-8.3-20.7c-5.5-5.2-12.4-7.8-20.5-7.8c-8.1,0-14.9,2.6-20.5,7.8
				c-5.5,5.2-8.3,12.1-8.3,20.7C1304.8,742.9,1307.6,750,1313.1,755.4z"/>
			<path class="st1" d="M1470.9,778.1v-13.5c-2.9,4.9-7.1,8.6-12.7,11.3c-5.6,2.7-11.6,4-17.9,4c-12.3,0-22.8-4.2-31.3-12.7
				c-8.5-8.5-12.8-19.4-12.8-32.9c0-13.6,4.2-24.5,12.7-32.9c8.5-8.3,18.9-12.5,31.2-12.5c6.6,0,12.7,1.3,18.2,3.8
				c5.5,2.6,9.7,6.3,12.6,11.1v-60.5h17v134.7H1470.9z M1462.3,755.4c5.7-5.3,8.5-12.4,8.5-21.2c0-8.8-2.9-15.8-8.8-20.9
				c-5.9-5.1-12.6-7.7-20.2-7.7c-8,0-14.7,2.6-20.1,7.9c-5.4,5.3-8.1,12.2-8.1,20.6c0,8.5,2.7,15.4,8.1,20.9
				c5.4,5.5,12.1,8.2,20.1,8.2C1449.8,763.3,1456.6,760.7,1462.3,755.4z"/>
			<path class="st1" d="M1516.5,666.5c-2.3-2.1-3.5-4.7-3.5-7.8c0-3.1,1.2-5.7,3.5-7.8c2.3-2.1,5.1-3.2,8.3-3.2c3.2,0,6,1.1,8.3,3.2
				c2.3,2.1,3.5,4.7,3.5,7.8c0,3.1-1.2,5.7-3.5,7.8c-2.3,2.1-5.1,3.2-8.3,3.2C1521.5,669.7,1518.8,668.7,1516.5,666.5z
				 M1533.2,778.1v-87.3h-16.8v87.3H1533.2z"/>
			<path class="st1" d="M1578.6,731v47.1h-17v-87.3h17v13.1c2.5-4.9,6.3-8.6,11.5-11.1c5.2-2.6,10.4-3.8,15.8-3.8
				c10.8,0,19.2,3.4,24.9,10.1c5.8,6.7,8.7,16.3,8.7,28.6v50.5h-17v-49.3c0-7.2-1.7-12.9-5.1-17c-3.4-4.1-8.1-6.2-14.1-6.2
				c-6.9,0-12.7,2.1-17.5,6.3C1581,716,1578.6,722.4,1578.6,731z"/>
			<path class="st1" d="M1679.9,790.6c2.5,4.7,6.1,8.4,10.7,11s9.5,3.9,14.5,3.9c20.7,0,31-13.2,31-39.6c0-0.2,0-0.6-0.1-1
				c-0.1-0.4-0.1-0.8-0.1-1c-2.5,5-6.6,8.9-12.4,11.8s-11.9,4.3-18.2,4.3c-12.3,0-22.8-4.2-31.4-12.5c-8.6-8.3-12.9-19.2-12.9-32.7
				c0-13.6,4.3-24.6,12.9-33.1c8.6-8.5,19.1-12.7,31.4-12.7c6.4,0,12.4,1.4,18,4.1c5.7,2.7,9.9,6.5,12.6,11.4v-13.6h16.8v74
				c0,37.9-15.9,56.8-47.7,56.8c-8.2,0-15.8-2.1-22.8-6.2c-7-4.1-12.5-9.9-16.6-17.4c0.9-0.4,3.4-1.7,7.5-3.9
				C1677.2,791.9,1679.5,790.7,1679.9,790.6z M1735.7,734.6c0-9-2.8-16-8.4-21.2c-5.6-5.2-12.5-7.8-20.6-7.8c-8,0-14.7,2.7-20.2,8.2
				c-5.5,5.5-8.2,12.4-8.2,20.7c0,8.7,2.7,15.7,8.1,20.9c5.4,5.2,12.2,7.8,20.3,7.8c7.6,0,14.3-2.6,20.2-7.8
				C1732.8,750.3,1735.7,743.3,1735.7,734.6z"/>
			<path class="st1" d="M1930.1,649.3v128.8h-17.6V722h-62.2v56.1h-17.4V649.3h17.4v56.8h62.2v-56.8H1930.1z"/>
			<path class="st1" d="M2021.5,737.9v-47.1h17v87.3h-17V765c-2.5,4.9-6.3,8.6-11.4,11.1c-5.1,2.6-10.3,3.8-15.7,3.8
				c-10.8,0-19.2-3.4-25-10.1c-5.9-6.7-8.7-16.3-8.6-28.6v-50.5h17v49.3c0,7.2,1.7,12.9,5,17c3.4,4.1,8,6.2,14,6.2
				c7,0,12.8-2.1,17.6-6.2C2019.1,753.1,2021.5,746.6,2021.5,737.9z"/>
			<path class="st1" d="M2167.2,705.6c-7.1-0.1-12.7,2.2-16.9,7c-4.2,4.8-6.3,10.9-6.3,18.4v47.1h-17v-49.5c0-7.1-1.7-12.7-5.1-16.8
				c-3.4-4.1-8-6.2-13.7-6.2c-6.7,0-12.5,2.1-17.2,6.4c-4.7,4.2-7.1,10.6-7.1,19.1v47.1h-17v-87.3h17v13.1
				c2.1-4.4,5.6-7.8,10.4-10.3c4.8-2.5,9.4-3.9,13.7-4.3c3.4-0.1,6.5,0.1,9.5,0.6c11.1,1.7,18.7,7.4,22.8,17
				c6.2-12,16.3-17.9,30.3-17.9c10.8,0,19.2,3.4,24.9,10.1c5.8,6.7,8.7,16.3,8.7,28.6v50.5h-17v-49.3c0-7.2-1.8-12.9-5.3-17
				C2178.3,707.6,2173.4,705.6,2167.2,705.6z"/>
			<path class="st1" d="M2300.6,778.1v-13.5c-2.9,4.9-7.1,8.6-12.7,11.3c-5.6,2.7-11.6,4-17.9,4c-12.3,0-22.8-4.2-31.4-12.7
				c-8.6-8.5-12.9-19.4-12.9-32.9c0-13.6,4.3-24.5,12.9-32.9c8.6-8.3,19.1-12.5,31.4-12.5c6.4,0,12.4,1.3,18,3.9
				c5.7,2.6,9.9,6.3,12.6,11v-13.1h16.8v87.3H2300.6z M2300.5,734.2c0-8.8-2.9-15.8-8.8-20.9c-5.9-5.1-12.6-7.7-20.2-7.7
				c-8.1,0-14.9,2.6-20.3,7.9c-5.4,5.3-8.1,12.2-8.1,20.6c0,8.5,2.7,15.4,8.2,20.9c5.5,5.5,12.2,8.2,20.2,8.2
				c8.1,0,14.9-2.6,20.6-7.8C2297.6,750.3,2300.5,743.2,2300.5,734.2z"/>
			<path class="st1" d="M2362.9,731v47.1h-17v-87.3h17v13.1c2.5-4.9,6.3-8.6,11.5-11.1c5.2-2.6,10.4-3.8,15.8-3.8
				c10.8,0,19.2,3.4,24.9,10.1c5.8,6.7,8.7,16.3,8.7,28.6v50.5h-17v-49.3c0-7.2-1.7-12.9-5.1-17c-3.4-4.1-8.1-6.2-14.1-6.2
				c-6.9,0-12.7,2.1-17.5,6.3C2365.3,716,2362.9,722.4,2362.9,731z"/>
			<path class="st1" d="M2451.2,666.5c-2.3-2.1-3.5-4.7-3.5-7.8c0-3.1,1.2-5.7,3.5-7.8c2.3-2.1,5.1-3.2,8.3-3.2c3.2,0,6,1.1,8.3,3.2
				c2.3,2.1,3.5,4.7,3.5,7.8c0,3.1-1.2,5.7-3.5,7.8c-2.3,2.1-5.1,3.2-8.3,3.2C2456.2,669.7,2453.5,668.7,2451.2,666.5z
				 M2467.9,778.1v-87.3h-16.8v87.3H2467.9z"/>
			<path class="st1" d="M2519.8,690.8h18.5v14.4h-18.5v72.9h-17v-72.9h-15.7v-14.4h15.7v-32.9h17V690.8z"/>
			<path class="st1" d="M2581.1,820.5h-17.8l18.3-45l-34.9-84.7h18.1L2591,754l26.2-63.2h18.1L2581.1,820.5z"/>
			<path class="st1" d="M2682.2,649.3h95.7v16.4h-39.1v112.3h-17.6V665.8h-39.1V649.3z"/>
			<path class="st1" d="M2814.3,731v47.1h-17V643.4h17v60.5c2.4-4.9,6.4-8.6,12.1-11.1c5.7-2.6,11.2-3.8,16.7-3.8
				c11,0,19.6,3.4,26,10.2c6.4,6.8,9.5,16.3,9.3,28.5v50.5h-17v-49.3c0-7.1-1.9-12.7-5.7-16.9c-3.8-4.2-8.8-6.3-14.9-6.3
				c-7,0-13.1,2.1-18.5,6.3C2817,716,2814.3,722.4,2814.3,731z"/>
			<path class="st1" d="M2922.7,746.3v31.8h-17v-87.3h17v19.6c4.2-14.3,12.3-21.5,24.3-21.5c6.8,0,11.9,1.1,15.1,3.4l-2.6,15.9
				c-4.1-2-8.4-3-12.9-3c-8,0-14,3.8-17.9,11.3C2924.7,724.1,2922.7,734,2922.7,746.3z"/>
			<path class="st1" d="M3049.5,767.2c-8.9,8.5-19.7,12.8-32.4,12.8s-23.5-4.2-32.3-12.7c-8.8-8.5-13.3-19.5-13.3-33.1
				c0-13.5,4.4-24.4,13.2-32.7c8.8-8.3,19.6-12.5,32.4-12.5c12.8,0,23.7,4.2,32.5,12.5c8.8,8.3,13.3,19.2,13.3,32.7
				C3062.9,747.6,3058.4,758.6,3049.5,767.2z M2996.6,755.4c5.5,5.4,12.4,8.1,20.5,8.1c8.1,0,14.9-2.7,20.5-8.1
				c5.5-5.4,8.3-12.5,8.3-21.2c0-8.6-2.8-15.5-8.3-20.7c-5.5-5.2-12.4-7.8-20.5-7.8c-8.1,0-14.9,2.6-20.5,7.8
				c-5.5,5.2-8.3,12.1-8.3,20.7C2988.3,742.9,2991.1,750,2996.6,755.4z"/>
			<path class="st1" d="M3145.1,737.9v-47.1h17v87.3h-17V765c-2.5,4.9-6.3,8.6-11.4,11.1c-5.1,2.6-10.3,3.8-15.7,3.8
				c-10.8,0-19.2-3.4-25-10.1c-5.9-6.7-8.7-16.3-8.6-28.6v-50.5h17v49.3c0,7.2,1.7,12.9,5,17c3.4,4.1,8,6.2,14,6.2
				c7,0,12.8-2.1,17.6-6.2C3142.7,753.1,3145.1,746.6,3145.1,737.9z"/>
			<path class="st1" d="M3203.6,790.6c2.5,4.7,6.1,8.4,10.7,11c4.7,2.6,9.5,3.9,14.5,3.9c20.7,0,31-13.2,31-39.6c0-0.2,0-0.6-0.1-1
				c-0.1-0.4-0.1-0.8-0.1-1c-2.5,5-6.6,8.9-12.4,11.8s-11.9,4.3-18.2,4.3c-12.3,0-22.8-4.2-31.4-12.5c-8.6-8.3-12.9-19.2-12.9-32.7
				c0-13.6,4.3-24.6,12.9-33.1c8.6-8.5,19.1-12.7,31.4-12.7c6.4,0,12.4,1.4,18,4.1c5.7,2.7,9.9,6.5,12.6,11.4v-13.6h16.8v74
				c0,37.9-15.9,56.8-47.7,56.8c-8.2,0-15.8-2.1-22.8-6.2c-7-4.1-12.5-9.9-16.6-17.4c0.9-0.4,3.4-1.7,7.5-3.9
				C3201,791.9,3203.2,790.7,3203.6,790.6z M3259.4,734.6c0-9-2.8-16-8.4-21.2c-5.6-5.2-12.5-7.8-20.6-7.8c-8,0-14.7,2.7-20.2,8.2
				c-5.5,5.5-8.2,12.4-8.2,20.7c0,8.7,2.7,15.7,8.1,20.9c5.4,5.2,12.2,7.8,20.3,7.8c7.6,0,14.3-2.6,20.2-7.8
				C3256.5,750.3,3259.4,743.3,3259.4,734.6z"/>
			<path class="st1" d="M3321.7,731v47.1h-17V643.4h17v60.5c2.4-4.9,6.4-8.6,12.1-11.1c5.7-2.6,11.2-3.8,16.7-3.8
				c11,0,19.6,3.4,26,10.2c6.4,6.8,9.5,16.3,9.3,28.5v50.5h-17v-49.3c0-7.1-1.9-12.7-5.7-16.9c-3.8-4.2-8.8-6.3-14.9-6.3
				c-7,0-13.1,2.1-18.5,6.3C3324.4,716,3321.7,722.4,3321.7,731z"/>
			<path class="st1" d="M3529.3,745.4h-54.6l-12.5,32.7h-18.5l49-128.8h18.7l48.8,128.8h-18.3L3529.3,745.4z M3480.7,729.7h42.6
				l-21.3-57.2L3480.7,729.7z"/>
			<path class="st1" d="M3593.4,746.3v31.8h-17v-87.3h17v19.6c4.2-14.3,12.3-21.5,24.3-21.5c6.8,0,11.9,1.1,15.1,3.4l-2.6,15.9
				c-4.1-2-8.4-3-12.9-3c-8,0-14,3.8-17.9,11.3C3595.4,724.1,3593.4,734,3593.4,746.3z"/>
			<path class="st1" d="M3673.7,690.8h18.5v14.4h-18.5v72.9h-17v-72.9H3641v-14.4h15.7v-32.9h17V690.8z"/>
			<path class="st1" d="M3711.6,666.5c-2.3-2.1-3.5-4.7-3.5-7.8c0-3.1,1.2-5.7,3.5-7.8c2.3-2.1,5.1-3.2,8.3-3.2c3.2,0,6,1.1,8.3,3.2
				c2.3,2.1,3.5,4.7,3.5,7.8c0,3.1-1.2,5.7-3.5,7.8c-2.3,2.1-5.1,3.2-8.3,3.2C3716.6,669.7,3713.9,668.7,3711.6,666.5z
				 M3728.3,778.1v-87.3h-16.8v87.3H3728.3z"/>
			<path class="st1" d="M3829.8,778.1v-72.9h-48.2v72.9h-17.2v-72.9h-16.8v-14.4h16.8V682c0-12.1,2.7-21.6,8.2-28.4
				c5.5-6.8,13.9-10.3,25.2-10.3h9.5v16.3h-9.5c-11.1,0-16.5,7.5-16.3,22.4v8.8h65v87.3H3829.8z M3829.9,666.5
				c-2.3-2.1-3.5-4.7-3.5-7.8c0-3.1,1.2-5.7,3.5-7.8c2.3-2.1,5.1-3.2,8.3-3.2c3.2,0,6,1.1,8.3,3.2c2.3,2.1,3.5,4.7,3.5,7.8
				c0,3.1-1.2,5.7-3.5,7.8c-2.3,2.1-5.1,3.2-8.3,3.2C3834.9,669.7,3832.2,668.7,3829.9,666.5z"/>
			<path class="st1" d="M3882.3,767.2c-9-8.5-13.5-19.5-13.5-33c0-13.5,4.5-24.4,13.5-32.7c9-8.3,19.9-12.5,32.7-12.5
				c13.8,0,25,4.7,33.6,14l-12.9,10.8c-5.5-5.5-12.4-8.2-20.7-8.2c-8.1,0-15,2.6-20.7,7.9c-5.7,5.3-8.6,12.2-8.6,20.6
				c0,8.6,2.9,15.6,8.6,21.1c5.7,5.5,12.6,8.2,20.7,8.2c8.3,0,15.3-2.9,20.7-8.6l13.1,10.8c-8.7,9.5-20,14.2-33.8,14.2
				C3902.1,780,3891.2,775.7,3882.3,767.2z"/>
			<path class="st1" d="M3970.4,666.5c-2.3-2.1-3.5-4.7-3.5-7.8c0-3.1,1.2-5.7,3.5-7.8c2.3-2.1,5.1-3.2,8.3-3.2c3.2,0,6,1.1,8.3,3.2
				c2.3,2.1,3.5,4.7,3.5,7.8c0,3.1-1.2,5.7-3.5,7.8c-2.3,2.1-5.1,3.2-8.3,3.2C3975.5,669.7,3972.7,668.7,3970.4,666.5z
				 M3987.1,778.1v-87.3h-16.8v87.3H3987.1z"/>
			<path class="st1" d="M4084.6,778.1v-13.5c-2.9,4.9-7.1,8.6-12.7,11.3c-5.6,2.7-11.6,4-17.9,4c-12.3,0-22.8-4.2-31.4-12.7
				c-8.6-8.5-12.9-19.4-12.9-32.9c0-13.6,4.3-24.5,12.9-32.9c8.6-8.3,19.1-12.5,31.4-12.5c6.4,0,12.4,1.3,18,3.9
				c5.7,2.6,9.9,6.3,12.6,11v-13.1h16.8v87.3H4084.6z M4084.5,734.2c0-8.8-2.9-15.8-8.8-20.9c-5.9-5.1-12.6-7.7-20.2-7.7
				c-8.1,0-14.9,2.6-20.3,7.9c-5.4,5.3-8.1,12.2-8.1,20.6c0,8.5,2.7,15.4,8.2,20.9c5.5,5.5,12.2,8.2,20.2,8.2
				c8.1,0,14.9-2.6,20.6-7.8C4081.7,750.3,4084.5,743.2,4084.5,734.2z"/>
			<path class="st1" d="M4129.9,643.4h17v134.7h-17V643.4z"/>
			<path class="st1" d="M4227.2,649.3h17.4v128.8h-17.4V649.3z"/>
			<path class="st1" d="M4293.4,731v47.1h-17v-87.3h17v13.1c2.5-4.9,6.3-8.6,11.5-11.1c5.2-2.6,10.4-3.8,15.8-3.8
				c10.8,0,19.2,3.4,24.9,10.1c5.8,6.7,8.7,16.3,8.7,28.6v50.5h-17v-49.3c0-7.2-1.7-12.9-5.1-17c-3.4-4.1-8.1-6.2-14.1-6.2
				c-6.9,0-12.7,2.1-17.5,6.3C4295.8,716,4293.4,722.4,4293.4,731z"/>
			<path class="st1" d="M4405.1,690.8h18.5v14.4h-18.5v72.9h-17v-72.9h-15.7v-14.4h15.7v-32.9h17V690.8z"/>
			<path class="st1" d="M4523.8,734.2c0,3.2-0.1,5.5-0.2,6.7h-70.8c1,7.2,4.1,13,9.2,17.3c5.2,4.3,11.5,6.4,19,6.4
				c5.4,0,10.3-1.2,14.8-3.6c4.5-2.4,7.9-5.7,10.3-9.9c1.6,0.6,4.1,1.6,7.5,2.9c3.4,1.3,5.7,2.2,7.1,2.7c-3.6,7.5-9,13.2-16.3,17.2
				c-7.2,4-15.2,6-23.9,6c-12.7,0-23.3-4.2-31.9-12.7c-8.5-8.5-12.8-19.5-12.8-33.1c0-13.6,4.3-24.5,12.8-32.8
				c8.5-8.3,19.2-12.4,31.9-12.4c12.6,0,23,4.1,31.1,12.4C4519.7,709.7,4523.8,720.6,4523.8,734.2z M4452.8,727.6h54.2
				c-1-7.2-3.9-12.9-8.7-17.1c-4.8-4.2-10.7-6.3-17.8-6.3c-7.4,0-13.5,2.1-18.6,6.3C4456.8,714.7,4453.8,720.4,4452.8,727.6z"/>
			<path class="st1" d="M4545.5,643.4h17v134.7h-17V643.4z"/>
			<path class="st1" d="M4590.9,643.4h17v134.7h-17V643.4z"/>
			<path class="st1" d="M4636.4,666.5c-2.3-2.1-3.5-4.7-3.5-7.8c0-3.1,1.2-5.7,3.5-7.8c2.3-2.1,5.1-3.2,8.3-3.2c3.2,0,6,1.1,8.3,3.2
				c2.3,2.1,3.5,4.7,3.5,7.8c0,3.1-1.2,5.7-3.5,7.8c-2.3,2.1-5.1,3.2-8.3,3.2C4641.4,669.7,4638.7,668.7,4636.4,666.5z
				 M4653.1,778.1v-87.3h-16.8v87.3H4653.1z"/>
			<path class="st1" d="M4694.6,790.6c2.5,4.7,6.1,8.4,10.7,11c4.7,2.6,9.5,3.9,14.5,3.9c20.7,0,31-13.2,31-39.6c0-0.2,0-0.6-0.1-1
				c-0.1-0.4-0.1-0.8-0.1-1c-2.5,5-6.6,8.9-12.4,11.8s-11.9,4.3-18.2,4.3c-12.3,0-22.8-4.2-31.4-12.5c-8.6-8.3-12.9-19.2-12.9-32.7
				c0-13.6,4.3-24.6,12.9-33.1c8.6-8.5,19.1-12.7,31.4-12.7c6.4,0,12.4,1.4,18,4.1c5.7,2.7,9.9,6.5,12.6,11.4v-13.6h16.8v74
				c0,37.9-15.9,56.8-47.7,56.8c-8.2,0-15.8-2.1-22.8-6.2c-7-4.1-12.5-9.9-16.6-17.4c0.9-0.4,3.4-1.7,7.5-3.9
				C4692,791.9,4694.2,790.7,4694.6,790.6z M4750.5,734.6c0-9-2.8-16-8.4-21.2c-5.6-5.2-12.5-7.8-20.6-7.8c-8,0-14.7,2.7-20.2,8.2
				c-5.5,5.5-8.2,12.4-8.2,20.7c0,8.7,2.7,15.7,8.1,20.9c5.4,5.2,12.2,7.8,20.3,7.8c7.6,0,14.3-2.6,20.2-7.8
				C4747.5,750.3,4750.5,743.3,4750.5,734.6z"/>
			<path class="st1" d="M4877.9,734.2c0,3.2-0.1,5.5-0.2,6.7h-70.8c1,7.2,4.1,13,9.2,17.3c5.2,4.3,11.5,6.4,19,6.4
				c5.4,0,10.3-1.2,14.8-3.6c4.5-2.4,7.9-5.7,10.3-9.9c1.6,0.6,4.1,1.6,7.5,2.9c3.4,1.3,5.7,2.2,7.1,2.7c-3.6,7.5-9,13.2-16.3,17.2
				c-7.2,4-15.2,6-23.9,6c-12.7,0-23.3-4.2-31.9-12.7c-8.5-8.5-12.8-19.5-12.8-33.1c0-13.6,4.3-24.5,12.8-32.8
				c8.5-8.3,19.2-12.4,31.9-12.4c12.6,0,23,4.1,31.1,12.4C4873.8,709.7,4877.9,720.6,4877.9,734.2z M4806.9,727.6h54.2
				c-1-7.2-3.9-12.9-8.7-17.1c-4.8-4.2-10.7-6.3-17.8-6.3c-7.4,0-13.5,2.1-18.6,6.3C4810.9,714.7,4807.9,720.4,4806.9,727.6z"/>
			<path class="st1" d="M4916.6,731v47.1h-17v-87.3h17v13.1c2.5-4.9,6.3-8.6,11.5-11.1c5.2-2.6,10.4-3.8,15.8-3.8
				c10.8,0,19.2,3.4,24.9,10.1c5.8,6.7,8.7,16.3,8.7,28.6v50.5h-17v-49.3c0-7.2-1.7-12.9-5.1-17c-3.4-4.1-8.1-6.2-14.1-6.2
				c-6.9,0-12.7,2.1-17.5,6.3C4919,716,4916.6,722.4,4916.6,731z"/>
			<path class="st1" d="M5012.4,767.2c-9-8.5-13.5-19.5-13.5-33c0-13.5,4.5-24.4,13.5-32.7c9-8.3,19.9-12.5,32.7-12.5
				c13.8,0,25,4.7,33.6,14l-12.9,10.8c-5.5-5.5-12.4-8.2-20.7-8.2c-8.1,0-15,2.6-20.7,7.9c-5.7,5.3-8.6,12.2-8.6,20.6
				c0,8.6,2.9,15.6,8.6,21.1c5.7,5.5,12.6,8.2,20.7,8.2c8.3,0,15.3-2.9,20.7-8.6l13.1,10.8c-8.7,9.5-20,14.2-33.8,14.2
				C5032.3,780,5021.4,775.7,5012.4,767.2z"/>
			<path class="st1" d="M5180.4,734.2c0,3.2-0.1,5.5-0.2,6.7h-70.8c1,7.2,4.1,13,9.2,17.3c5.2,4.3,11.5,6.4,19,6.4
				c5.4,0,10.3-1.2,14.8-3.6c4.5-2.4,7.9-5.7,10.3-9.9c1.6,0.6,4.1,1.6,7.5,2.9c3.4,1.3,5.7,2.2,7.1,2.7c-3.6,7.5-9,13.2-16.3,17.2
				c-7.2,4-15.2,6-23.9,6c-12.7,0-23.3-4.2-31.9-12.7c-8.5-8.5-12.8-19.5-12.8-33.1c0-13.6,4.3-24.5,12.8-32.8
				c8.5-8.3,19.2-12.4,31.9-12.4c12.6,0,23,4.1,31.1,12.4C5176.3,709.7,5180.4,720.6,5180.4,734.2z M5109.4,727.6h54.2
				c-1-7.2-3.9-12.9-8.7-17.1c-4.8-4.2-10.7-6.3-17.8-6.3c-7.4,0-13.5,2.1-18.6,6.3C5113.4,714.7,5110.4,720.4,5109.4,727.6z"/>
		</g>
	</g>
</g>
<g id="Layer_2">
</g>
</svg>
