<svg xmlns="http://www.w3.org/2000/svg" width="31.731" height="31.723" viewBox="0 0 31.731 31.723">
  <g id="interest-2" transform="translate(0 0)">
    <path id="Path_52974" data-name="Path 52974" d="M25.217,157.32l-1.483-12.2a4.072,4.072,0,0,1,1.033-3.209l-.688-.848a4.089,4.089,0,0,0-4.063,4.552l1.333,11.7a6.2,6.2,0,0,0,6.156,5.494h3.867a6.2,6.2,0,0,1-6.156-5.494Z" transform="translate(-18.752 -132.332)" fill="rgba(0,222,202,0.11)"/>
    <path id="Path_52975" data-name="Path 52975" d="M22.976,31.791H8.755A7.431,7.431,0,0,1,1.368,25.2L.034,13.5A5.328,5.328,0,0,1,5.328,7.565a1.239,1.239,0,1,1,0,2.478A2.85,2.85,0,0,0,2.5,13.216l1.333,11.7a4.954,4.954,0,0,0,4.925,4.4H22.976a4.954,4.954,0,0,0,4.925-4.4l1.333-11.7A2.85,2.85,0,0,0,26.4,10.043a1.239,1.239,0,1,1,0-2.478A5.328,5.328,0,0,1,31.7,13.5L30.363,25.2a7.431,7.431,0,0,1-7.387,6.593ZM11.347,17.664V7.069a4.523,4.523,0,0,1,9.046,0v.5H15.065a1.239,1.239,0,1,0,0,2.478h6.568A1.239,1.239,0,0,0,22.872,8.8V7.069a7,7,0,0,0-14,0V17.664a1.239,1.239,0,0,0,2.478,0Z" transform="translate(0 -0.068)" fill="#00deca"/>
    <path id="Path_52976" data-name="Path 52976" d="M246.695,265.068a1.549,1.549,0,1,1-1.549,1.549A1.549,1.549,0,0,1,246.695,265.068Zm5.2,8.55a1.549,1.549,0,1,0,1.549-1.549A1.549,1.549,0,0,0,251.9,273.618Zm-4.558,1.168,7.311-7.621a1.239,1.239,0,1,0-1.788-1.716l-7.311,7.621a1.239,1.239,0,0,0,1.788,1.716Z" transform="translate(-229.957 -248.649)" fill="#00deca"/>
  </g>
</svg>
