<svg xmlns="http://www.w3.org/2000/svg" xmlns:xlink="http://www.w3.org/1999/xlink" width="222.19" height="35.252" viewBox="0 0 222.19 35.252">
  <defs>
    <linearGradient id="linear-gradient" x1="0.5" x2="0.5" y2="1" gradientUnits="objectBoundingBox">
      <stop offset="0" stop-color="#2ee1f0"/>
      <stop offset="0.319" stop-color="#8347eb"/>
      <stop offset="0.649" stop-color="#d300fd"/>
      <stop offset="1" stop-color="#00deca"/>
    </linearGradient>
  </defs>
  <g id="Layer_1" transform="translate(0.1 0.199)">
    <g id="Group_67" data-name="Group 67" transform="translate(-0.1 -0.2)">
      <path id="Path_42" d="M32.921,14.644l1.321,1.321a1.807,1.807,0,0,1,0,2.552l-.047.047a1.807,1.807,0,0,1-2.552,0l-1.321-1.321-2.6-2.595-2.595-2.6-2.6-2.6-2.595-2.6-2.6-2.6L16.014,2.931a1.807,1.807,0,0,1,0-2.552l.047-.047a1.807,1.807,0,0,1,2.552,0l1.321,1.325,2.6,2.595,1.3,1.3a1.843,1.843,0,0,0,2.595,0l0,0a1.835,1.835,0,0,0,0-2.595l-.026-.026a1.807,1.807,0,0,1,0-2.552l.047-.047a1.807,1.807,0,0,1,2.552,0l1.321,1.321,1.287,1.287.034.034L31.673,3l1.252,1.252,1.321,1.321a1.807,1.807,0,0,1,0,2.552l-.047.047a1.807,1.807,0,0,1-2.552,0l-.026-.026a1.843,1.843,0,0,0-2.595,0l0,0a1.835,1.835,0,0,0,0,2.595l1.3,1.3,2.6,2.6ZM27.727,30.23l1.321,1.321a1.807,1.807,0,0,1,0,2.552L29,34.15a1.807,1.807,0,0,1-2.552,0l-1.321-1.321-2.6-2.6-2.595-2.6-2.6-2.6-1.321-1.321a1.807,1.807,0,0,1,0-2.552l5.241-5.241a1.807,1.807,0,0,1,2.552,0l1.321,1.321,2.595,2.595,2.6,2.6,2.595,2.6,1.321,1.321a1.807,1.807,0,0,1,0,2.552l-.047.047a1.807,1.807,0,0,1-2.552,0l-1.321-1.321-2.6-2.595-2.6-2.6L23.8,21.116a1.807,1.807,0,0,0-2.552,0l-.047.047a1.807,1.807,0,0,0,0,2.552l1.321,1.321,2.6,2.595,2.608,2.6ZM17.339,9.45l1.321,1.321a1.807,1.807,0,0,1,0,2.552l-5.241,5.241a1.807,1.807,0,0,1-2.552,0L9.546,17.243l-2.6-2.595-2.6-2.6-2.6-2.6L.432,8.129a1.807,1.807,0,0,1,0-2.552L.479,5.53a1.807,1.807,0,0,1,2.552,0L4.352,6.851l2.6,2.6,2.6,2.6,1.321,1.321a1.807,1.807,0,0,0,2.552,0l.047-.047a1.807,1.807,0,0,0,0-2.552L12.149,9.45l-2.6-2.6-2.6-2.6L5.63,2.931a1.807,1.807,0,0,1,0-2.552L5.677.332a1.807,1.807,0,0,1,2.552,0L9.55,1.653l2.6,2.595,2.6,2.6,2.591,2.6ZM1.753,19.838.432,18.517a1.807,1.807,0,0,1,0-2.552l.047-.047a1.807,1.807,0,0,1,2.552,0l1.321,1.321,2.6,2.6,2.6,2.6,2.6,2.6,2.6,2.6,2.6,2.595,1.321,1.321a1.807,1.807,0,0,1,0,2.552l-.047.047a1.807,1.807,0,0,1-2.552,0l-1.321-1.321-2.6-2.6-1.308-1.3a1.835,1.835,0,0,0-2.595,0l0,0a1.835,1.835,0,0,0,0,2.595l.026.026a1.807,1.807,0,0,1,0,2.552l-.047.047a1.807,1.807,0,0,1-2.552,0L4.348,32.829l-2.6-2.6L.428,28.909a1.807,1.807,0,0,1,0-2.552l.047-.047a1.807,1.807,0,0,1,2.552,0l.026.026a1.835,1.835,0,0,0,2.595,0l0,0a1.835,1.835,0,0,0,0-2.595l-1.3-1.3-2.6-2.6Z" transform="translate(0.1 0.2)" fill="url(#linear-gradient)"/>
      <path id="Path_84" data-name="Path 84" d="M962.393,9.2V29.6H959.61V20.712h-9.856v8.882H947V9.2h2.754v9h9.856v-9Z" transform="translate(-906.379 -8.797)" fill="#fff"/>
      <path id="Path_85" data-name="Path 85" d="M1428.608,169.763V162.3h2.689v13.823h-2.689v-2.072a3.972,3.972,0,0,1-1.806,1.763,5.455,5.455,0,0,1-2.488.6,4.971,4.971,0,0,1-3.967-1.6,6.577,6.577,0,0,1-1.364-4.529V162.3h2.689v7.815a4.129,4.129,0,0,0,.8,2.689,2.707,2.707,0,0,0,2.217.978,4.1,4.1,0,0,0,2.784-.978A3.787,3.787,0,0,0,1428.608,169.763Z" transform="translate(-1358.119 -155.33)" fill="#fff"/>
      <path id="Path_86" data-name="Path 86" d="M1827.091,157.942a3.3,3.3,0,0,0-2.681,1.111,4.28,4.28,0,0,0-.995,2.917v7.459h-2.689v-7.845a4.018,4.018,0,0,0-.815-2.663,2.691,2.691,0,0,0-2.175-.978,3.952,3.952,0,0,0-2.723,1,3.839,3.839,0,0,0-1.124,3.019v7.459H1811.2V155.6h2.689v2.072a3.57,3.57,0,0,1,1.643-1.626,5.836,5.836,0,0,1,2.175-.682,7.821,7.821,0,0,1,1.51.086,4.4,4.4,0,0,1,3.616,2.689,5.014,5.014,0,0,1,4.795-2.839,4.932,4.932,0,0,1,3.955,1.6,6.711,6.711,0,0,1,1.377,4.529v7.99h-2.689v-7.806a3.956,3.956,0,0,0-.845-2.689A2.908,2.908,0,0,0,1827.091,157.942Z" transform="translate(-1733.514 -148.631)" fill="#fff"/>
      <path id="Path_87" data-name="Path 87" d="M2409.572,169.424v-2.132a4.5,4.5,0,0,1-2.016,1.788,6.5,6.5,0,0,1-2.839.639,6.8,6.8,0,0,1-4.975-2.016,7.671,7.671,0,0,1,0-10.422,6.873,6.873,0,0,1,4.975-1.982,6.78,6.78,0,0,1,2.856.622,4.291,4.291,0,0,1,2,1.746V155.6h2.664v13.823h-2.664Zm-.03-6.952a4.175,4.175,0,0,0-1.39-3.315,4.734,4.734,0,0,0-3.2-1.214,4.352,4.352,0,0,0-4.5,4.529,4.5,4.5,0,0,0,1.3,3.315,4.348,4.348,0,0,0,3.2,1.3,4.588,4.588,0,0,0,3.255-1.24A4.391,4.391,0,0,0,2409.542,162.471Z" transform="translate(-2294.859 -148.631)" fill="#fff"/>
      <path id="Path_88" data-name="Path 88" d="M2829.549,5.989A1.607,1.607,0,0,1,2829,4.75a1.6,1.6,0,0,1,.549-1.24A1.868,1.868,0,0,1,2830.87,3a1.888,1.888,0,0,1,1.317.506,1.622,1.622,0,0,1,.549,1.24,1.6,1.6,0,0,1-.549,1.24,1.888,1.888,0,0,1-1.317.506A1.922,1.922,0,0,1,2829.549,5.989Zm2.655,17.666V9.832h-2.664V23.656h2.664Z" transform="translate(-2707.661 -2.863)" fill="#fff"/>
      <path id="Path_89" data-name="Path 89" d="M3011.389,162.061v7.459H3008.7V155.7h2.689v2.072a3.961,3.961,0,0,1,1.819-1.763,5.545,5.545,0,0,1,2.5-.6,4.932,4.932,0,0,1,3.955,1.6,6.719,6.719,0,0,1,1.377,4.529v7.99h-2.689v-7.81a4.059,4.059,0,0,0-.815-2.689,2.752,2.752,0,0,0-2.234-.978,4.037,4.037,0,0,0-2.767,1A3.767,3.767,0,0,0,3011.389,162.061Z" transform="translate(-2879.653 -148.726)" fill="#fff"/>
      <path id="Path_90" data-name="Path 90" d="M3389.643,162.663c0,.51-.013.866-.026,1.064H3378.4a4.179,4.179,0,0,0,1.467,2.741,4.532,4.532,0,0,0,3,1.021,4.964,4.964,0,0,0,2.338-.562,3.88,3.88,0,0,0,1.625-1.57c.257.1.652.253,1.188.463s.9.352,1.124.429a6,6,0,0,1-2.578,2.723,7.708,7.708,0,0,1-3.792.944,6.857,6.857,0,0,1-5.048-2.016,7.055,7.055,0,0,1-2.024-5.241,6.831,6.831,0,0,1,7.072-7.158,6.647,6.647,0,0,1,4.928,1.964A7.085,7.085,0,0,1,3389.643,162.663Zm-11.25-1.038h8.582a4.057,4.057,0,0,0-4.2-3.7,4.435,4.435,0,0,0-2.942,1A4.126,4.126,0,0,0,3378.393,161.625Z" transform="translate(-3230.912 -148.822)" fill="#fff"/>
      <path id="Path_91" data-name="Path 91" d="M3907.562,24.317h-8.643l-1.981,5.177H3894L3901.754,9.1h2.959l7.729,20.394h-2.9Zm-7.695-2.488h6.751l-3.371-9.058Z" transform="translate(-3726.983 -8.701)" fill="#fff"/>
      <path id="Path_92" data-name="Path 92" d="M4396.5,9.2h2.754V29.6H4396.5Z" transform="translate(-4207.931 -8.797)" fill="#fff"/>
      <g id="Group_66" data-name="Group 66" transform="translate(41.371 27.6)">
        <path id="Path_93" data-name="Path 93" d="M966.64,654.824H964.5V649.3h2.14a2.27,2.27,0,0,1,1.814.781,3.284,3.284,0,0,1,0,3.967A2.258,2.258,0,0,1,966.64,654.824Zm-1.394-.7h1.394a1.542,1.542,0,0,0,1.287-.575,2.324,2.324,0,0,0,.455-1.48,2.357,2.357,0,0,0-.455-1.5,1.534,1.534,0,0,0-1.287-.579h-1.394Z" transform="translate(-964.5 -649.043)" fill="#fff"/>
        <path id="Path_94" data-name="Path 94" d="M1094.474,690.843c0,.137,0,.236-.009.287h-3.037a1.142,1.142,0,0,0,.395.742,1.233,1.233,0,0,0,.815.275,1.324,1.324,0,0,0,.635-.154,1.081,1.081,0,0,0,.442-.425l.322.124c.146.056.245.094.3.116a1.617,1.617,0,0,1-.7.738,2.079,2.079,0,0,1-1.025.257,1.866,1.866,0,0,1-1.368-.545,1.92,1.92,0,0,1-.549-1.42,1.851,1.851,0,0,1,1.917-1.939,1.784,1.784,0,0,1,1.334.532A1.944,1.944,0,0,1,1094.474,690.843Zm-3.045-.283h2.325a1.146,1.146,0,0,0-.373-.733,1.116,1.116,0,0,0-.764-.27,1.205,1.205,0,0,0-.8.27A1.107,1.107,0,0,0,1091.429,690.56Z" transform="translate(-1085.287 -686.944)" fill="#fff"/>
        <path id="Path_95" data-name="Path 95" d="M1195.079,692.354a1.859,1.859,0,0,1-.579-1.415,1.818,1.818,0,0,1,.579-1.4,2,2,0,0,1,1.4-.536,1.874,1.874,0,0,1,1.441.6l-.553.463a1.2,1.2,0,0,0-.888-.352,1.255,1.255,0,0,0-.888.339,1.155,1.155,0,0,0-.369.884,1.2,1.2,0,0,0,.369.9,1.23,1.23,0,0,0,.888.352,1.178,1.178,0,0,0,.888-.369l.562.463a1.876,1.876,0,0,1-1.45.609A1.927,1.927,0,0,1,1195.079,692.354Z" transform="translate(-1184.635 -687.04)" fill="#fff"/>
        <path id="Path_96" data-name="Path 96" d="M1291.345,692.354a1.94,1.94,0,0,1-1.39.549,1.919,1.919,0,0,1-1.385-.545,1.887,1.887,0,0,1-.57-1.42,1.839,1.839,0,0,1,.566-1.4,2.075,2.075,0,0,1,2.784,0,1.842,1.842,0,0,1,.57,1.4A1.884,1.884,0,0,1,1291.345,692.354Zm-2.269-.506a1.236,1.236,0,0,0,2.115-.909,1.166,1.166,0,0,0-.356-.888,1.323,1.323,0,0,0-1.759,0,1.166,1.166,0,0,0-.356.888A1.221,1.221,0,0,0,1289.076,691.848Z" transform="translate(-1274.125 -687.04)" fill="#fff"/>
        <path id="Path_97" data-name="Path 97" d="M1399.4,649.081V648.5a1.229,1.229,0,0,1-.545.485,1.748,1.748,0,0,1-.768.172,1.828,1.828,0,0,1-1.343-.545,2.094,2.094,0,0,1,0-2.822,1.845,1.845,0,0,1,1.338-.536,1.869,1.869,0,0,1,.781.163,1.222,1.222,0,0,1,.54.476V643.3h.729v5.777h-.729Zm-.369-.974a1.183,1.183,0,0,0,.365-.909,1.124,1.124,0,0,0-.377-.9,1.287,1.287,0,0,0-.866-.33,1.174,1.174,0,0,0-1.209,1.222,1.222,1.222,0,0,0,.347.9,1.158,1.158,0,0,0,.862.352A1.22,1.22,0,0,0,1399.035,648.108Z" transform="translate(-1377.684 -643.3)" fill="#fff"/>
        <path id="Path_98" data-name="Path 98" d="M1513.15,648.506a.448.448,0,0,1,0-.669.53.53,0,0,1,.712,0,.448.448,0,0,1,0,.669.514.514,0,0,1-.356.137A.488.488,0,0,1,1513.15,648.506Zm.716,4.786v-3.744h-.721v3.744Z" transform="translate(-1489.475 -647.511)" fill="#fff"/>
        <path id="Path_99" data-name="Path 99" d="M1562.329,690.8v2.02h-.729v-3.744h.729v.562a1.043,1.043,0,0,1,.493-.476,1.487,1.487,0,0,1,.678-.163,1.331,1.331,0,0,1,1.068.433,1.823,1.823,0,0,1,.373,1.227v2.166h-.729v-2.115a1.112,1.112,0,0,0-.219-.729.744.744,0,0,0-.6-.266,1.1,1.1,0,0,0-.75.27A1.006,1.006,0,0,0,1562.329,690.8Z" transform="translate(-1535.99 -687.04)" fill="#fff"/>
        <path id="Path_100" data-name="Path 100" d="M1661.811,693.358a1.158,1.158,0,0,0,.459.472,1.253,1.253,0,0,0,.622.167q1.332,0,1.33-1.7a.183.183,0,0,0,0-.043.174.174,0,0,1,0-.043,1.132,1.132,0,0,1-.532.506,1.727,1.727,0,0,1-.781.184,1.863,1.863,0,0,1-1.9-1.939,1.907,1.907,0,0,1,.553-1.42A1.845,1.845,0,0,1,1662.9,689a1.757,1.757,0,0,1,.772.176,1.161,1.161,0,0,1,.54.489v-.583h.721v3.174q0,2.438-2.046,2.436a1.905,1.905,0,0,1-1.69-1.012q.058-.026.322-.167A3.269,3.269,0,0,1,1661.811,693.358Zm2.393-2.4a1.176,1.176,0,0,0-.36-.909,1.253,1.253,0,0,0-.884-.335,1.174,1.174,0,0,0-.866.352,1.2,1.2,0,0,0-.352.888,1.189,1.189,0,0,0,.347.9,1.208,1.208,0,0,0,.871.335,1.27,1.27,0,0,0,.866-.335A1.12,1.12,0,0,0,1664.2,690.956Z" transform="translate(-1631.127 -687.04)" fill="#fff"/>
        <path id="Path_101" data-name="Path 101" d="M1837.069,649.3v5.524h-.755v-2.406h-2.668v2.406h-.746V649.3h.746v2.436h2.668V649.3Z" transform="translate(-1795.655 -649.043)" fill="#fff"/>
        <path id="Path_102" data-name="Path 102" d="M1963.4,692.724V690.7h.729v3.744h-.729v-.562a1.053,1.053,0,0,1-.489.476,1.457,1.457,0,0,1-.673.163,1.347,1.347,0,0,1-1.072-.433,1.779,1.779,0,0,1-.369-1.227V690.7h.729v2.114a1.135,1.135,0,0,0,.214.729.736.736,0,0,0,.6.266,1.118,1.118,0,0,0,.755-.266A1.015,1.015,0,0,0,1963.4,692.724Z" transform="translate(-1918.067 -688.667)" fill="#fff"/>
        <path id="Path_103" data-name="Path 103" d="M2071.2,689.808a.893.893,0,0,0-.725.3,1.152,1.152,0,0,0-.27.789v2.02h-.729v-2.123a1.094,1.094,0,0,0-.219-.721.727.727,0,0,0-.587-.266,1.057,1.057,0,0,0-.738.274,1.046,1.046,0,0,0-.3.819v2.02h-.729v-3.744h.729v.562a.969.969,0,0,1,.446-.442,1.6,1.6,0,0,1,.587-.184,2.085,2.085,0,0,1,.408.026,1.184,1.184,0,0,1,.978.729,1.353,1.353,0,0,1,1.3-.768,1.331,1.331,0,0,1,1.068.433,1.823,1.823,0,0,1,.373,1.227v2.166h-.729v-2.114a1.091,1.091,0,0,0-.227-.729A.765.765,0,0,0,2071.2,689.808Z" transform="translate(-2019.618 -687.136)" fill="#fff"/>
        <path id="Path_104" data-name="Path 104" d="M2228.913,692.726v-.579a1.228,1.228,0,0,1-.545.485,1.748,1.748,0,0,1-.768.172,1.844,1.844,0,0,1-1.347-.545,2.076,2.076,0,0,1,0-2.822,1.871,1.871,0,0,1,1.347-.536,1.812,1.812,0,0,1,.772.167,1.152,1.152,0,0,1,.54.472v-.562h.721v3.744h-.721Zm0-1.883a1.124,1.124,0,0,0-.377-.9,1.288,1.288,0,0,0-.866-.33,1.175,1.175,0,0,0-1.218,1.222,1.209,1.209,0,0,0,.352.9,1.175,1.175,0,0,0,.866.352,1.26,1.26,0,0,0,.884-.335A1.185,1.185,0,0,0,2228.909,690.843Z" transform="translate(-2171.608 -686.944)" fill="#fff"/>
        <path id="Path_105" data-name="Path 105" d="M2346.629,690.8v2.02h-.729v-3.744h.729v.562a1.043,1.043,0,0,1,.493-.476,1.486,1.486,0,0,1,.678-.163,1.331,1.331,0,0,1,1.068.433,1.823,1.823,0,0,1,.373,1.227v2.166h-.729v-2.115a1.112,1.112,0,0,0-.219-.729.744.744,0,0,0-.6-.266,1.1,1.1,0,0,0-.75.27A1,1,0,0,0,2346.629,690.8Z" transform="translate(-2286.652 -687.04)" fill="#fff"/>
        <path id="Path_106" data-name="Path 106" d="M2447.85,648.506a.448.448,0,0,1,0-.669.53.53,0,0,1,.712,0,.448.448,0,0,1,0,.669.514.514,0,0,1-.356.137A.488.488,0,0,1,2447.85,648.506Zm.716,4.786v-3.744h-.721v3.744Z" transform="translate(-2384.086 -647.511)" fill="#fff"/>
        <path id="Path_107" data-name="Path 107" d="M2488.5,659.311h.793v.618h-.793v3.127h-.729v-3.127h-.673v-.618h.673V657.9h.729Z" transform="translate(-2421.796 -657.274)" fill="#fff"/>
        <path id="Path_108" data-name="Path 108" d="M2548.176,696.363h-.763l.785-1.93-1.5-3.633h.776l1.124,2.711,1.124-2.711h.776Z" transform="translate(-2478.84 -688.763)" fill="#fff"/>
        <path id="Path_109" data-name="Path 109" d="M2682.1,649.3h4.1v.7h-1.677v4.817h-.755v-4.812H2682.1V649.3Z" transform="translate(-2608.432 -649.043)" fill="#fff"/>
        <path id="Path_110" data-name="Path 110" d="M2798.029,647.157v2.02h-.729V643.4h.729v2.595a1,1,0,0,1,.519-.476,1.7,1.7,0,0,1,.716-.163,1.453,1.453,0,0,1,1.115.437,1.671,1.671,0,0,1,.4,1.222v2.166h-.729v-2.114a1.038,1.038,0,0,0-.244-.725.824.824,0,0,0-.639-.27,1.251,1.251,0,0,0-.793.27A.959.959,0,0,0,2798.029,647.157Z" transform="translate(-2718.692 -643.396)" fill="#fff"/>
        <path id="Path_111" data-name="Path 111" d="M2906.429,691.362v1.364h-.729v-3.744h.729v.841c.18-.613.528-.922,1.042-.922a1.13,1.13,0,0,1,.648.146l-.112.682a1.245,1.245,0,0,0-.553-.129.819.819,0,0,0-.768.485A2.739,2.739,0,0,0,2906.429,691.362Z" transform="translate(-2822.442 -686.944)" fill="#fff"/>
        <path id="Path_112" data-name="Path 112" d="M2974.845,692.354a1.939,1.939,0,0,1-1.39.549,1.919,1.919,0,0,1-1.385-.545,1.887,1.887,0,0,1-.57-1.42,1.839,1.839,0,0,1,.566-1.4,2.074,2.074,0,0,1,2.783,0,1.842,1.842,0,0,1,.571,1.4A1.884,1.884,0,0,1,2974.845,692.354Zm-2.269-.506a1.236,1.236,0,0,0,2.114-.909,1.166,1.166,0,0,0-.356-.888,1.322,1.322,0,0,0-1.758,0,1.166,1.166,0,0,0-.356.888A1.222,1.222,0,0,0,2972.577,691.848Z" transform="translate(-2885.42 -687.04)" fill="#fff"/>
        <path id="Path_113" data-name="Path 113" d="M3087,692.724V690.7h.729v3.744H3087v-.562a1.052,1.052,0,0,1-.489.476,1.457,1.457,0,0,1-.673.163,1.346,1.346,0,0,1-1.072-.433,1.779,1.779,0,0,1-.369-1.227V690.7h.729v2.114a1.135,1.135,0,0,0,.215.729.736.736,0,0,0,.6.266,1.118,1.118,0,0,0,.755-.266A1.016,1.016,0,0,0,3087,692.724Z" transform="translate(-2993.476 -688.667)" fill="#fff"/>
        <path id="Path_114" data-name="Path 114" d="M3185.511,693.358a1.157,1.157,0,0,0,.459.472,1.265,1.265,0,0,0,.622.167q1.332,0,1.33-1.7a.173.173,0,0,0,0-.043.174.174,0,0,1,0-.043,1.133,1.133,0,0,1-.532.506,1.728,1.728,0,0,1-.781.184,1.863,1.863,0,0,1-1.9-1.939,1.907,1.907,0,0,1,.553-1.42A1.845,1.845,0,0,1,3186.6,689a1.757,1.757,0,0,1,.772.176,1.16,1.16,0,0,1,.541.489v-.583h.721v3.174q0,2.438-2.046,2.436a1.9,1.9,0,0,1-1.69-1.012q.058-.026.322-.167C3185.4,693.413,3185.494,693.362,3185.511,693.358Zm2.393-2.4a1.177,1.177,0,0,0-.36-.909,1.253,1.253,0,0,0-.884-.335,1.173,1.173,0,0,0-.866.352,1.2,1.2,0,0,0-.352.888,1.189,1.189,0,0,0,.347.9,1.208,1.208,0,0,0,.871.335,1.271,1.271,0,0,0,.866-.335A1.12,1.12,0,0,0,3187.9,690.956Z" transform="translate(-3089.476 -687.04)" fill="#fff"/>
        <path id="Path_115" data-name="Path 115" d="M3305.429,647.157v2.02h-.729V643.4h.729v2.595a.994.994,0,0,1,.519-.476,1.7,1.7,0,0,1,.716-.163,1.453,1.453,0,0,1,1.115.437,1.67,1.67,0,0,1,.4,1.222v2.166h-.729v-2.114a1.037,1.037,0,0,0-.245-.725.823.823,0,0,0-.639-.27,1.252,1.252,0,0,0-.793.27A.959.959,0,0,0,3305.429,647.157Z" transform="translate(-3204.329 -643.396)" fill="#fff"/>
        <path id="Path_116" data-name="Path 116" d="M3447.371,653.422h-2.342l-.536,1.4h-.793l2.1-5.524h.8l2.093,5.524h-.785Zm-2.084-.673h1.827l-.914-2.453Z" transform="translate(-3337.368 -649.043)" fill="#fff"/>
        <path id="Path_117" data-name="Path 117" d="M3577.129,691.362v1.364h-.729v-3.744h.729v.841c.18-.613.528-.922,1.042-.922a1.131,1.131,0,0,1,.648.146l-.112.682a1.246,1.246,0,0,0-.553-.129.819.819,0,0,0-.768.485A2.739,2.739,0,0,0,3577.129,691.362Z" transform="translate(-3464.376 -686.944)" fill="#fff"/>
        <path id="Path_118" data-name="Path 118" d="M3642.4,659.311h.793v.618h-.793v3.127h-.729v-3.127H3641v-.618h.673V657.9h.729Z" transform="translate(-3526.206 -657.274)" fill="#fff"/>
        <path id="Path_119" data-name="Path 119" d="M3708.25,648.506a.448.448,0,0,1,0-.669.53.53,0,0,1,.712,0,.448.448,0,0,1,0,.669.514.514,0,0,1-.356.137A.488.488,0,0,1,3708.25,648.506Zm.716,4.786v-3.744h-.72v3.744Z" transform="translate(-3590.428 -647.511)" fill="#fff"/>
        <path id="Path_120" data-name="Path 120" d="M3751.125,649.082v-3.127h-2.067v3.127h-.738v-3.127h-.72v-.618h.72v-.377a1.889,1.889,0,0,1,.352-1.218,1.309,1.309,0,0,1,1.081-.442h.408v.7h-.408c-.476,0-.708.322-.7.961v.377h2.788v3.744Zm0-4.786a.448.448,0,0,1,0-.669.53.53,0,0,1,.712,0,.448.448,0,0,1,0,.669.514.514,0,0,1-.356.137A.488.488,0,0,1,3751.13,644.3Z" transform="translate(-3628.234 -643.3)" fill="#fff"/>
        <path id="Path_121" data-name="Path 121" d="M3869.379,692.354a1.859,1.859,0,0,1-.579-1.415,1.818,1.818,0,0,1,.579-1.4,2,2,0,0,1,1.4-.536,1.873,1.873,0,0,1,1.441.6l-.553.463a1.2,1.2,0,0,0-.888-.352,1.254,1.254,0,0,0-.888.339,1.155,1.155,0,0,0-.369.884,1.2,1.2,0,0,0,.369.9,1.229,1.229,0,0,0,.888.352,1.177,1.177,0,0,0,.888-.369l.562.463a1.876,1.876,0,0,1-1.45.609A1.914,1.914,0,0,1,3869.379,692.354Z" transform="translate(-3744.236 -687.04)" fill="#fff"/>
        <path id="Path_122" data-name="Path 122" d="M3967.05,648.506a.448.448,0,0,1,0-.669.53.53,0,0,1,.712,0,.448.448,0,0,1,0,.669.514.514,0,0,1-.356.137A.5.5,0,0,1,3967.05,648.506Zm.716,4.786v-3.744h-.72v3.744Z" transform="translate(-3838.128 -647.511)" fill="#fff"/>
        <path id="Path_123" data-name="Path 123" d="M4012.913,692.726v-.579a1.228,1.228,0,0,1-.545.485,1.748,1.748,0,0,1-.768.172,1.844,1.844,0,0,1-1.347-.545,2.076,2.076,0,0,1,0-2.822,1.871,1.871,0,0,1,1.347-.536,1.812,1.812,0,0,1,.772.167,1.153,1.153,0,0,1,.54.472v-.562h.72v3.744h-.72Zm0-1.883a1.124,1.124,0,0,0-.377-.9,1.288,1.288,0,0,0-.867-.33,1.174,1.174,0,0,0-1.218,1.222,1.209,1.209,0,0,0,.352.9,1.174,1.174,0,0,0,.866.352,1.26,1.26,0,0,0,.884-.335A1.17,1.17,0,0,0,4012.909,690.843Z" transform="translate(-3879.093 -686.944)" fill="#fff"/>
        <path id="Path_124" data-name="Path 124" d="M4129.9,643.4h.729v5.777h-.729Z" transform="translate(-3994.136 -643.396)" fill="#fff"/>
        <path id="Path_125" data-name="Path 125" d="M4227.2,649.3h.746v5.524h-.746Z" transform="translate(-4087.264 -649.043)" fill="#fff"/>
        <path id="Path_126" data-name="Path 126" d="M4277.129,690.8v2.02h-.729v-3.744h.729v.562a1.045,1.045,0,0,1,.493-.476,1.488,1.488,0,0,1,.678-.163,1.332,1.332,0,0,1,1.068.433,1.825,1.825,0,0,1,.373,1.227v2.166h-.729v-2.115a1.111,1.111,0,0,0-.219-.729.744.744,0,0,0-.6-.266,1.1,1.1,0,0,0-.751.27A1.007,1.007,0,0,0,4277.129,690.8Z" transform="translate(-4134.353 -687.04)" fill="#fff"/>
        <path id="Path_127" data-name="Path 127" d="M4373.8,659.311h.793v.618h-.793v3.127h-.729v-3.127h-.673v-.618h.673V657.9h.729Z" transform="translate(-4226.236 -657.274)" fill="#fff"/>
        <path id="Path_128" data-name="Path 128" d="M4439.575,690.843c0,.137,0,.236-.009.287h-3.036a1.141,1.141,0,0,0,.394.742,1.235,1.235,0,0,0,.815.275,1.325,1.325,0,0,0,.635-.154,1.079,1.079,0,0,0,.441-.425l.322.124c.146.056.245.094.3.116a1.616,1.616,0,0,1-.7.738,2.079,2.079,0,0,1-1.025.257,1.865,1.865,0,0,1-1.368-.545,1.919,1.919,0,0,1-.549-1.42,1.851,1.851,0,0,1,1.917-1.939,1.783,1.783,0,0,1,1.333.532A1.944,1.944,0,0,1,4439.575,690.843Zm-3.045-.283h2.325a1.145,1.145,0,0,0-.374-.733,1.115,1.115,0,0,0-.763-.27,1.206,1.206,0,0,0-.8.27A1.1,1.1,0,0,0,4436.53,690.56Z" transform="translate(-4286.917 -686.944)" fill="#fff"/>
        <path id="Path_129" data-name="Path 129" d="M4545.5,643.4h.729v5.777h-.729Z" transform="translate(-4391.912 -643.396)" fill="#fff"/>
        <path id="Path_130" data-name="Path 130" d="M4590.9,643.4h.729v5.777h-.729Z" transform="translate(-4435.364 -643.396)" fill="#fff"/>
        <path id="Path_131" data-name="Path 131" d="M4633.05,648.506a.448.448,0,0,1,0-.669.53.53,0,0,1,.712,0,.447.447,0,0,1,0,.669.512.512,0,0,1-.355.137A.49.49,0,0,1,4633.05,648.506Zm.717,4.786v-3.744h-.721v3.744Z" transform="translate(-4475.563 -647.511)" fill="#fff"/>
        <path id="Path_132" data-name="Path 132" d="M4676.511,693.358a1.159,1.159,0,0,0,.459.472,1.265,1.265,0,0,0,.622.167q1.332,0,1.33-1.7a.173.173,0,0,0,0-.043.174.174,0,0,1,0-.043,1.13,1.13,0,0,1-.532.506,1.725,1.725,0,0,1-.781.184,1.864,1.864,0,0,1-1.9-1.939,1.906,1.906,0,0,1,.554-1.42A1.843,1.843,0,0,1,4677.6,689a1.754,1.754,0,0,1,.772.176,1.16,1.16,0,0,1,.541.489v-.583h.721v3.174q0,2.438-2.046,2.436a1.9,1.9,0,0,1-1.69-1.012q.058-.026.322-.167C4676.4,693.413,4676.494,693.362,4676.511,693.358Zm2.4-2.4a1.176,1.176,0,0,0-.36-.909,1.251,1.251,0,0,0-.883-.335,1.173,1.173,0,0,0-.866.352,1.2,1.2,0,0,0-.352.888,1.19,1.19,0,0,0,.348.9,1.208,1.208,0,0,0,.871.335,1.272,1.272,0,0,0,.867-.335A1.135,1.135,0,0,0,4678.908,690.956Z" transform="translate(-4516.528 -687.04)" fill="#fff"/>
        <path id="Path_133" data-name="Path 133" d="M4793.675,690.843c0,.137,0,.236-.009.287h-3.037a1.142,1.142,0,0,0,.4.742,1.231,1.231,0,0,0,.814.275,1.323,1.323,0,0,0,.635-.154,1.081,1.081,0,0,0,.442-.425l.322.124c.146.056.245.094.3.116a1.62,1.62,0,0,1-.7.738,2.081,2.081,0,0,1-1.025.257,1.867,1.867,0,0,1-1.368-.545,1.921,1.921,0,0,1-.549-1.42,1.851,1.851,0,0,1,1.917-1.939,1.784,1.784,0,0,1,1.334.532A1.944,1.944,0,0,1,4793.675,690.843Zm-3.045-.283h2.325a1.145,1.145,0,0,0-.373-.733,1.116,1.116,0,0,0-.764-.27,1.206,1.206,0,0,0-.8.27A1.106,1.106,0,0,0,4790.629,690.56Z" transform="translate(-4625.83 -686.944)" fill="#fff"/>
        <path id="Path_134" data-name="Path 134" d="M4900.329,690.8v2.02h-.729v-3.744h.729v.562a1.045,1.045,0,0,1,.493-.476,1.488,1.488,0,0,1,.678-.163,1.332,1.332,0,0,1,1.068.433,1.825,1.825,0,0,1,.373,1.227v2.166h-.729v-2.115a1.111,1.111,0,0,0-.219-.729.744.744,0,0,0-.6-.266,1.1,1.1,0,0,0-.751.27A1.007,1.007,0,0,0,4900.329,690.8Z" transform="translate(-4730.825 -687.04)" fill="#fff"/>
        <path id="Path_135" data-name="Path 135" d="M4999.479,692.354a1.858,1.858,0,0,1-.579-1.415,1.817,1.817,0,0,1,.579-1.4,2,2,0,0,1,1.4-.536,1.874,1.874,0,0,1,1.441.6l-.553.463a1.2,1.2,0,0,0-.888-.352,1.255,1.255,0,0,0-.888.339,1.155,1.155,0,0,0-.369.884,1.2,1.2,0,0,0,.369.9,1.23,1.23,0,0,0,.888.352,1.179,1.179,0,0,0,.888-.369l.562.463a1.875,1.875,0,0,1-1.45.609A1.928,1.928,0,0,1,4999.479,692.354Z" transform="translate(-4825.865 -687.04)" fill="#fff"/>
        <path id="Path_136" data-name="Path 136" d="M5096.175,690.843c0,.137,0,.236-.009.287h-3.037a1.141,1.141,0,0,0,.395.742,1.233,1.233,0,0,0,.815.275,1.325,1.325,0,0,0,.635-.154,1.084,1.084,0,0,0,.442-.425l.322.124c.146.056.244.094.3.116a1.619,1.619,0,0,1-.7.738,2.081,2.081,0,0,1-1.025.257,1.867,1.867,0,0,1-1.368-.545,1.919,1.919,0,0,1-.549-1.42,1.851,1.851,0,0,1,1.917-1.939,1.784,1.784,0,0,1,1.334.532A1.946,1.946,0,0,1,5096.175,690.843Zm-3.045-.283h2.325a1.145,1.145,0,0,0-.373-.733,1.116,1.116,0,0,0-.764-.27,1.206,1.206,0,0,0-.8.27A1.106,1.106,0,0,0,5093.129,690.56Z" transform="translate(-4915.356 -686.944)" fill="#fff"/>
      </g>
    </g>
  </g>
</svg>
