<svg id="thumbs-up" xmlns="http://www.w3.org/2000/svg" width="28.005" height="28.006" viewBox="0 0 28.005 28.006">
  <path id="Path_52980" data-name="Path 52980" d="M23.179,211.929V221.5a2.951,2.951,0,0,0,1.313,2.456,2.6,2.6,0,0,1-1.532.5,2.954,2.954,0,0,1-2.954-2.954v-9.572a2.954,2.954,0,0,1,2.954-2.954,2.6,2.6,0,0,1,1.532.5A2.951,2.951,0,0,0,23.179,211.929Z" transform="translate(-18.913 -207.879)" fill="rgba(158,85,250,0.11)"/>
  <g id="Group_49334" data-name="Group 49334" transform="translate(0 0)">
    <path id="Path_52981" data-name="Path 52981" d="M4.055,204.454H7.008a1.094,1.094,0,1,1,0,2.188H4.055a4.052,4.052,0,0,1-4.048-4.048v-9.572a4.052,4.052,0,0,1,4.048-4.048H7.008a1.094,1.094,0,1,1,0,2.188H4.055a1.862,1.862,0,0,0-1.86,1.86v9.572A1.862,1.862,0,0,0,4.055,204.454Z" transform="translate(-0.007 -188.973)" fill="#9e55fa"/>
    <g id="Group_49333" data-name="Group 49333" transform="translate(9.423)">
      <path id="Path_52982" data-name="Path 52982" d="M190.866,11.4a3.142,3.142,0,0,1-1.254,2.511,3.143,3.143,0,0,1-2.711,4.736l-5.494,0a18.358,18.358,0,0,1,1.657,4.559c.463,2.125-.3,3.817-2.034,4.526a3.246,3.246,0,0,1-2.663-.037,3.492,3.492,0,0,1-1.485-1.415,4.1,4.1,0,0,1-.328-.732,26.519,26.519,0,0,0-1.15-2.89,13.667,13.667,0,0,0-2.743-3.3,1.094,1.094,0,0,1,1.434-1.652,15.662,15.662,0,0,1,3.243,3.925,28.8,28.8,0,0,1,1.323,3.32,1.452,1.452,0,0,0,.654.767,1.064,1.064,0,0,0,.888-.017c.293-.12,1.071-.437.723-2.035a21.015,21.015,0,0,0-2.251-5.628,1.094,1.094,0,0,1,.978-1.583l7.248,0a.958.958,0,0,0,.957-.941.978.978,0,0,0-.982-.973H184.22A1.111,1.111,0,0,1,183.1,13.5a1.094,1.094,0,0,1,1.093-1.134h3.5a.978.978,0,0,0,.982-.973.958.958,0,0,0-.957-.941h-3.5A1.111,1.111,0,0,1,183.1,9.393a1.094,1.094,0,0,1,1.093-1.134h3.339a.978.978,0,0,0,.982-.973.958.958,0,0,0-.957-.941H186.11l-.084,0-.042,0H184.22A1.111,1.111,0,0,1,183.1,5.291a1.094,1.094,0,0,1,1.093-1.134h1.869a1.016,1.016,0,0,0,.92-1.012.958.958,0,0,0-.957-.957l-11.787,0h0a1.094,1.094,0,0,1,0-2.188l11.787,0a3.149,3.149,0,0,1,3.145,3.145,3.2,3.2,0,0,1-.28,1.31,3.141,3.141,0,0,1,1.126,4.8,3.133,3.133,0,0,1,.849,2.146Z" transform="translate(-172.284 0)" fill="#9e55fa"/>
    </g>
  </g>
  <path id="Path_52983" data-name="Path 52983" d="M109.1,263.975a1.094,1.094,0,0,0-1.094,1.094v7.275a1.094,1.094,0,0,0,2.188,0v-7.275A1.094,1.094,0,0,0,109.1,263.975Z" transform="translate(-102.1 -259.871)" fill="#9e55fa"/>
</svg>
