<?xml version="1.0" encoding="UTF-8" standalone="no"?>
<!DOCTYPE svg PUBLIC "-//W3C//DTD SVG 1.1//EN"
 "http://www.w3.org/Graphics/SVG/1.1/DTD/svg11.dtd">
<!-- Generated by graphviz version 2.40.1 (20161225.0304)
 -->
<!-- Title: dependencies Pages: 1 -->
<svg width="656pt" height="284pt"
 viewBox="0.00 0.00 656.00 284.00" xmlns="http://www.w3.org/2000/svg" xmlns:xlink="http://www.w3.org/1999/xlink">
<g id="graph0" class="graph" transform="scale(1 1) rotate(0) translate(4 280)">
<title>dependencies</title>
<polygon fill="#ffffff" stroke="transparent" points="-4,4 -4,-280 652,-280 652,4 -4,4"/>
<text text-anchor="start" x="303.0091" y="-42.4" font-family="sans-serif" font-weight="bold" font-size="14.00" fill="#000000">Legend</text>
<polygon fill="#ffffb3" stroke="transparent" points="90,-10 90,-30 110,-30 110,-10 90,-10"/>
<text text-anchor="start" x="113.629" y="-15.4" font-family="sans-serif" font-size="14.00" fill="#000000"> &#160;Declarations</text>
<polygon fill="#8dd3c7" stroke="transparent" points="203,-10 203,-30 223,-30 223,-10 203,-10"/>
<text text-anchor="start" x="226.7251" y="-15.4" font-family="sans-serif" font-size="14.00" fill="#000000"> &#160;Module</text>
<polygon fill="#80b1d3" stroke="transparent" points="289,-10 289,-30 309,-30 309,-10 289,-10"/>
<text text-anchor="start" x="312.7812" y="-15.4" font-family="sans-serif" font-size="14.00" fill="#000000"> &#160;Bootstrap</text>
<polygon fill="#fdb462" stroke="transparent" points="386,-10 386,-30 406,-30 406,-10 386,-10"/>
<text text-anchor="start" x="409.6732" y="-15.4" font-family="sans-serif" font-size="14.00" fill="#000000"> &#160;Providers</text>
<polygon fill="#fb8072" stroke="transparent" points="482,-10 482,-30 502,-30 502,-10 482,-10"/>
<text text-anchor="start" x="505.7258" y="-15.4" font-family="sans-serif" font-size="14.00" fill="#000000"> &#160;Exports</text>
<g id="clust1" class="cluster">
<title>cluster_SharedModule</title>
<polygon fill="none" stroke="#000000" stroke-dasharray="1,5" points="8,-70 8,-268 640,-268 640,-70 8,-70"/>
</g>
<g id="clust2" class="cluster">
<title>cluster_SharedModule_declarations</title>
<polygon fill="none" stroke="#000000" points="24,-78 24,-130 626,-130 626,-78 24,-78"/>
</g>
<g id="clust8" class="cluster">
<title>cluster_SharedModule_exports</title>
<polygon fill="none" stroke="#000000" points="16,-208 16,-260 632,-260 632,-208 16,-208"/>
</g>
<!-- CustomDate -->
<g id="node1" class="node">
<title>CustomDate</title>
<polygon fill="#ffffb3" stroke="#000000" points="617.9888,-122 532.0112,-122 532.0112,-86 617.9888,-86 617.9888,-122"/>
<text text-anchor="middle" x="575" y="-99.8" font-family="Times,serif" font-size="14.00" fill="#000000">CustomDate</text>
</g>
<!-- SharedModule -->
<g id="node5" class="node">
<title>SharedModule</title>
<polygon fill="#8dd3c7" stroke="#000000" points="307.4231,-187 304.4231,-191 283.4231,-191 280.4231,-187 208.5769,-187 208.5769,-151 307.4231,-151 307.4231,-187"/>
<text text-anchor="middle" x="258" y="-164.8" font-family="Times,serif" font-size="14.00" fill="#000000">SharedModule</text>
</g>
<!-- CustomDate&#45;&gt;SharedModule -->
<g id="edge1" class="edge">
<title>CustomDate&#45;&gt;SharedModule</title>
<path fill="none" stroke="#000000" d="M590.0815,-122.2667C590.0815,-140.5552 590.0815,-166 590.0815,-166 590.0815,-166 317.3574,-166 317.3574,-166"/>
<polygon fill="#000000" stroke="#000000" points="317.3574,-162.5001 307.3574,-166 317.3573,-169.5001 317.3574,-162.5001"/>
</g>
<!-- FormatCkEditorObjectPipe -->
<g id="node2" class="node">
<title>FormatCkEditorObjectPipe</title>
<polygon fill="#ffffb3" stroke="#000000" points="513.9748,-122 344.0252,-122 344.0252,-86 513.9748,-86 513.9748,-122"/>
<text text-anchor="middle" x="429" y="-99.8" font-family="Times,serif" font-size="14.00" fill="#000000">FormatCkEditorObjectPipe</text>
</g>
<!-- FormatCkEditorObjectPipe&#45;&gt;SharedModule -->
<g id="edge2" class="edge">
<title>FormatCkEditorObjectPipe&#45;&gt;SharedModule</title>
<path fill="none" stroke="#000000" d="M457.3291,-122.0091C457.3291,-138.0494 457.3291,-159 457.3291,-159 457.3291,-159 317.2724,-159 317.2724,-159"/>
<polygon fill="#000000" stroke="#000000" points="317.2724,-155.5001 307.2724,-159 317.2723,-162.5001 317.2724,-155.5001"/>
</g>
<!-- NumberOnlyDirective -->
<g id="node3" class="node">
<title>NumberOnlyDirective</title>
<polygon fill="#ffffb3" stroke="#000000" points="325.9524,-122 184.0476,-122 184.0476,-86 325.9524,-86 325.9524,-122"/>
<text text-anchor="middle" x="255" y="-99.8" font-family="Times,serif" font-size="14.00" fill="#000000">NumberOnlyDirective</text>
</g>
<!-- NumberOnlyDirective&#45;&gt;SharedModule -->
<g id="edge3" class="edge">
<title>NumberOnlyDirective&#45;&gt;SharedModule</title>
<path fill="none" stroke="#000000" d="M258,-122.1061C258,-122.1061 258,-140.991 258,-140.991"/>
<polygon fill="#000000" stroke="#000000" points="254.5001,-140.9909 258,-150.991 261.5001,-140.991 254.5001,-140.9909"/>
</g>
<!-- PhoneMaskDirective -->
<g id="node4" class="node">
<title>PhoneMaskDirective</title>
<polygon fill="#ffffb3" stroke="#000000" points="166.1839,-122 31.8161,-122 31.8161,-86 166.1839,-86 166.1839,-122"/>
<text text-anchor="middle" x="99" y="-99.8" font-family="Times,serif" font-size="14.00" fill="#000000">PhoneMaskDirective</text>
</g>
<!-- PhoneMaskDirective&#45;&gt;SharedModule -->
<g id="edge4" class="edge">
<title>PhoneMaskDirective&#45;&gt;SharedModule</title>
<path fill="none" stroke="#000000" d="M118.5306,-122.0225C118.5306,-139.3734 118.5306,-163 118.5306,-163 118.5306,-163 198.4356,-163 198.4356,-163"/>
<polygon fill="#000000" stroke="#000000" points="198.4357,-166.5001 208.4356,-163 198.4356,-159.5001 198.4357,-166.5001"/>
</g>
<!-- CustomDate  -->
<g id="node6" class="node">
<title>CustomDate </title>
<polygon fill="#fb8072" stroke="#000000" points="623.9901,-252 534.0099,-252 534.0099,-216 623.9901,-216 623.9901,-252"/>
<text text-anchor="middle" x="579" y="-229.8" font-family="Times,serif" font-size="14.00" fill="#000000">CustomDate </text>
</g>
<!-- SharedModule&#45;&gt;CustomDate  -->
<g id="edge5" class="edge">
<title>SharedModule&#45;&gt;CustomDate </title>
<path fill="none" stroke="#000000" stroke-dasharray="5,2" d="M307.5469,-173C393.7366,-173 562.1685,-173 562.1685,-173 562.1685,-173 562.1685,-205.698 562.1685,-205.698"/>
<polygon fill="#000000" stroke="#000000" points="558.6686,-205.698 562.1685,-215.698 565.6686,-205.698 558.6686,-205.698"/>
</g>
<!-- FormatCkEditorObjectPipe  -->
<g id="node7" class="node">
<title>FormatCkEditorObjectPipe </title>
<polygon fill="#fb8072" stroke="#000000" points="516.9755,-252 343.0245,-252 343.0245,-216 516.9755,-216 516.9755,-252"/>
<text text-anchor="middle" x="430" y="-229.8" font-family="Times,serif" font-size="14.00" fill="#000000">FormatCkEditorObjectPipe </text>
</g>
<!-- SharedModule&#45;&gt;FormatCkEditorObjectPipe  -->
<g id="edge6" class="edge">
<title>SharedModule&#45;&gt;FormatCkEditorObjectPipe </title>
<path fill="none" stroke="#000000" stroke-dasharray="5,2" d="M307.4989,-180C348.7057,-180 400.6709,-180 400.6709,-180 400.6709,-180 400.6709,-205.7181 400.6709,-205.7181"/>
<polygon fill="#000000" stroke="#000000" points="397.171,-205.718 400.6709,-215.7181 404.171,-205.7181 397.171,-205.718"/>
</g>
<!-- NumberOnlyDirective  -->
<g id="node8" class="node">
<title>NumberOnlyDirective </title>
<polygon fill="#fb8072" stroke="#000000" points="325.9531,-252 180.0469,-252 180.0469,-216 325.9531,-216 325.9531,-252"/>
<text text-anchor="middle" x="253" y="-229.8" font-family="Times,serif" font-size="14.00" fill="#000000">NumberOnlyDirective </text>
</g>
<!-- SharedModule&#45;&gt;NumberOnlyDirective  -->
<g id="edge7" class="edge">
<title>SharedModule&#45;&gt;NumberOnlyDirective </title>
<path fill="none" stroke="#000000" stroke-dasharray="5,2" d="M258,-187.1061C258,-187.1061 258,-205.991 258,-205.991"/>
<polygon fill="#000000" stroke="#000000" points="254.5001,-205.9909 258,-215.991 261.5001,-205.991 254.5001,-205.9909"/>
</g>
<!-- PhoneMaskDirective  -->
<g id="node9" class="node">
<title>PhoneMaskDirective </title>
<polygon fill="#fb8072" stroke="#000000" points="161.6842,-252 24.3158,-252 24.3158,-216 161.6842,-216 161.6842,-252"/>
<text text-anchor="middle" x="93" y="-229.8" font-family="Times,serif" font-size="14.00" fill="#000000">PhoneMaskDirective </text>
</g>
<!-- SharedModule&#45;&gt;PhoneMaskDirective  -->
<g id="edge8" class="edge">
<title>SharedModule&#45;&gt;PhoneMaskDirective </title>
<path fill="none" stroke="#000000" stroke-dasharray="5,2" d="M208.5369,-175C154.4057,-175 75.2194,-175 75.2194,-175 75.2194,-175 75.2194,-205.9775 75.2194,-205.9775"/>
<polygon fill="#000000" stroke="#000000" points="71.7195,-205.9774 75.2194,-215.9775 78.7195,-205.9775 71.7195,-205.9774"/>
</g>
</g>
</svg>
