<svg xmlns="http://www.w3.org/2000/svg" width="28.993" height="28.992" viewBox="0 0 28.993 28.992">
  <g id="chrome-line" transform="translate(-2.899 -2.899)">
    <path id="Path_48865" data-name="Path 48865" d="M14.126,27.851l2.8-4.845a6.522,6.522,0,0,1-6.138-3.356l-4.736-8.2a11.6,11.6,0,0,0,8.075,16.4Zm3.225.212A11.6,11.6,0,0,0,27.517,12.872h-5.6a6.528,6.528,0,0,1,.168,6.984l-4.737,8.2Zm2.251-9.7.032-.055a3.624,3.624,0,1,0-6.312-.061l.035.061a3.623,3.623,0,0,0,6.245.055ZM7.849,8.767l2.8,4.842A6.523,6.523,0,0,1,16.5,9.973h9.589a11.6,11.6,0,0,0-18.237-1.2ZM16.5,30.992a14.5,14.5,0,1,1,14.5-14.5A14.5,14.5,0,0,1,16.5,30.992Z" transform="translate(0.899 0.899)" fill="#01002a"/>
  </g>
</svg>
