<svg xmlns="http://www.w3.org/2000/svg" width="28.993" height="28.992" viewBox="0 0 28.993 28.992">
  <g id="firefox-line" transform="translate(-2.9 -2.899)">
    <path id="Path_48867" data-name="Path 48867" d="M16.5,2A14.489,14.489,0,1,1,3.276,10.544a7.8,7.8,0,0,1,2.682-3.18,13.948,13.948,0,0,0-1.508,4.9A10.076,10.076,0,0,1,8.1,6.985c2.995-2.2,7.028-2.3,8.634-.9-2.98,1.025-6.228,5.143-5.513,9.968a7.747,7.747,0,0,0,.709,2.293,5.7,5.7,0,0,1,.293-4.868,3.311,3.311,0,0,1,3.2-1.647c-.3-.064-.968,1.212-1.067,1.437a4.306,4.306,0,0,0-.364,1.812,4.921,4.921,0,0,0,1.493,3.45c2.786,2.712,7.282,1.645,9.3-1.453a8.472,8.472,0,0,0-.225-8.628,10.024,10.024,0,0,0-1.571-1.913,12.231,12.231,0,0,0-10.121-3.2A11.565,11.565,0,0,0,8.77,4.727,11.691,11.691,0,0,1,16.5,2ZM9.067,10.27C5.8,11.4,3.992,14.865,5.328,19.635a11.6,11.6,0,0,0,10.807,8.453l.361.006A11.6,11.6,0,0,0,28.072,17.215l.013-.307a8.944,8.944,0,0,1-.671,1.421l-.2.329c-3.05,4.7-9.685,5.907-13.743,1.954a7.816,7.816,0,0,1-1.395-1.822L11.92,18.5q-3.775-.842-3.686-4.084a12.561,12.561,0,0,1,.834-4.146Z" transform="translate(0.9 0.899)" fill="#01002a"/>
  </g>
</svg>
