<svg xmlns="http://www.w3.org/2000/svg" width="28.993" height="28.517" viewBox="0 0 28.993 28.517">
  <g id="ie-line" transform="translate(-2.174 -2.558)">
    <path id="Path_48869" data-name="Path 48869" d="M25.65,13.7a8.7,8.7,0,0,0-16.409,0h16.41ZM8.869,18.052a8.7,8.7,0,0,0,16.062,2.982h4.79a13.051,13.051,0,0,1-17.91,7.339c-3.978,2.161-7.412,2.609-9.31.712-1.948-1.942-.91-7.032,1.9-12.138a34.246,34.246,0,0,1,3.623-5.313c.52-.628,1.065-1.235,1.631-1.815a12.833,12.833,0,0,0-4.946,3.934A13.053,13.053,0,0,1,18.436,3.593c4.487-2.032,8.66-2.5,10.426-.739,1.631,1.628,1.54,4.342.181,7.6-.014.03-.026.062-.039.093A12.988,12.988,0,0,1,30.493,16.6a13.289,13.289,0,0,1-.08,1.45Zm2.061,9.856a13.09,13.09,0,0,1-5.758-6.874c-1.683,3.308-2.116,6.074-.68,7.509,1.179,1.177,3.534.9,6.434-.632l0,0ZM28.568,9.777l.022-.049c1.087-2.351,1.179-4.34.181-5.517-1.26-1.258-3.682-1.087-6.555.244a13.093,13.093,0,0,1,6.352,5.323Z" transform="translate(0.674 0.793)" fill="#01002a"/>
  </g>
</svg>
