<svg xmlns="http://www.w3.org/2000/svg" width="28.993" height="28.992" viewBox="0 0 28.993 28.992">
  <g id="opera-line" transform="translate(-2.899 -2.899)">
    <path id="Path_48871" data-name="Path 48871" d="M20.506,27.383a11.6,11.6,0,0,0,0-21.773c2.818,2.156,4.688,6.444,4.688,10.887S23.326,25.229,20.506,27.383ZM12.487,5.61a11.6,11.6,0,0,0,0,21.773C9.669,25.227,7.8,20.939,7.8,16.5S9.667,7.764,12.487,5.61ZM16.5,30.992a14.5,14.5,0,1,1,14.5-14.5A14.5,14.5,0,0,1,16.5,30.992Zm0-5.074c2.9,0,5.8-4.4,5.8-9.423s-2.9-9.423-5.8-9.423-5.8,4.4-5.8,9.423S13.6,25.919,16.5,25.919Z" transform="translate(0.899 0.899)" fill="#01002a"/>
  </g>
</svg>
