<svg xmlns="http://www.w3.org/2000/svg" width="20" height="20" viewBox="0 0 20 20">
  <g id="noun_Question_1603478" transform="translate(-2 -2)">
    <g id="Group_11237" data-name="Group 11237">
      <path id="Path_12222" data-name="Path 12222" d="M12,2A10,10,0,1,0,22,12,10,10,0,0,0,12,2Zm1.229,16H10.922V15.777h2.306V18Zm1.47-6.568L13.462,13.07a1.547,1.547,0,0,0-.3.853v.351H10.989v-.5a2.567,2.567,0,0,1,.635-1.738l1.237-1.588a2.008,2.008,0,0,0,.485-1.12,1.294,1.294,0,0,0-1.354-1.37,1.276,1.276,0,0,0-1.337,1.387H8.482A3.292,3.292,0,0,1,11.992,6a3.3,3.3,0,0,1,3.526,3.343A3.353,3.353,0,0,1,14.7,11.432Z"/>
    </g>
  </g>
</svg>
