<svg xmlns="http://www.w3.org/2000/svg" width="28.993" height="28.992" viewBox="0 0 28.993 28.992">
  <g id="safari-line" transform="translate(-2.899 -2.899)">
    <path id="Path_48873" data-name="Path 48873" d="M24.922,8.528,18.546,18.546,8.528,24.921A11.558,11.558,0,0,0,15.047,28V25.194h2.9V28a11.539,11.539,0,0,0,5.662-2.345l-1.986-1.986,2.05-2.05,1.986,1.986A11.539,11.539,0,0,0,28,17.946H25.194v-2.9H28a11.558,11.558,0,0,0-3.082-6.519Zm-.457-.457a11.558,11.558,0,0,0-6.519-3.082V7.8h-2.9V4.989A11.539,11.539,0,0,0,9.385,7.335l1.986,1.986-2.05,2.05L7.335,9.384a11.539,11.539,0,0,0-2.346,5.662H7.8v2.9H4.989a11.558,11.558,0,0,0,3.082,6.519l6.376-10.018L24.465,8.071ZM16.5,30.992a14.5,14.5,0,1,1,14.5-14.5A14.5,14.5,0,0,1,16.5,30.992Z" transform="translate(0.899 0.899)" fill="#01002a"/>
  </g>
</svg>
