<?xml version="1.0" encoding="UTF-8" standalone="no"?>
<!DOCTYPE svg PUBLIC "-//W3C//DTD SVG 1.1//EN"
 "http://www.w3.org/Graphics/SVG/1.1/DTD/svg11.dtd">
<!-- Generated by graphviz version 2.40.1 (20161225.0304)
 -->
<!-- Title: dependencies Pages: 1 -->
<svg width="1152pt" height="211pt"
 viewBox="0.00 0.00 1152.00 211.00" xmlns="http://www.w3.org/2000/svg" xmlns:xlink="http://www.w3.org/1999/xlink">
<g id="graph0" class="graph" transform="scale(1 1) rotate(0) translate(4 207)">
<title>dependencies</title>
<polygon fill="#ffffff" stroke="transparent" points="-4,4 -4,-207 1148,-207 1148,4 -4,4"/>
<text text-anchor="start" x="551.0091" y="-42.4" font-family="sans-serif" font-weight="bold" font-size="14.00" fill="#000000">Legend</text>
<polygon fill="#ffffb3" stroke="transparent" points="338,-10 338,-30 358,-30 358,-10 338,-10"/>
<text text-anchor="start" x="361.629" y="-15.4" font-family="sans-serif" font-size="14.00" fill="#000000"> &#160;Declarations</text>
<polygon fill="#8dd3c7" stroke="transparent" points="451,-10 451,-30 471,-30 471,-10 451,-10"/>
<text text-anchor="start" x="474.7251" y="-15.4" font-family="sans-serif" font-size="14.00" fill="#000000"> &#160;Module</text>
<polygon fill="#80b1d3" stroke="transparent" points="537,-10 537,-30 557,-30 557,-10 537,-10"/>
<text text-anchor="start" x="560.7812" y="-15.4" font-family="sans-serif" font-size="14.00" fill="#000000"> &#160;Bootstrap</text>
<polygon fill="#fdb462" stroke="transparent" points="634,-10 634,-30 654,-30 654,-10 634,-10"/>
<text text-anchor="start" x="657.6732" y="-15.4" font-family="sans-serif" font-size="14.00" fill="#000000"> &#160;Providers</text>
<polygon fill="#fb8072" stroke="transparent" points="730,-10 730,-30 750,-30 750,-10 730,-10"/>
<text text-anchor="start" x="753.7258" y="-15.4" font-family="sans-serif" font-size="14.00" fill="#000000"> &#160;Exports</text>
<g id="clust1" class="cluster">
<title>cluster_ManageEventModule</title>
<polygon fill="none" stroke="#000000" stroke-dasharray="1,5" points="8,-70 8,-195 1136,-195 1136,-70 8,-70"/>
</g>
<g id="clust2" class="cluster">
<title>cluster_ManageEventModule_declarations</title>
<polygon fill="none" stroke="#000000" points="456,-78 456,-130 1128,-130 1128,-78 456,-78"/>
</g>
<g id="clust7" class="cluster">
<title>cluster_ManageEventModule_imports</title>
<polygon fill="none" stroke="#000000" points="16,-78 16,-130 448,-130 448,-78 16,-78"/>
</g>
<!-- EventAddEditComponent -->
<g id="node1" class="node">
<title>EventAddEditComponent</title>
<polygon fill="#ffffb3" stroke="#000000" points="1119.9312,-122 958.0688,-122 958.0688,-86 1119.9312,-86 1119.9312,-122"/>
<text text-anchor="middle" x="1039" y="-99.8" font-family="Times,serif" font-size="14.00" fill="#000000">EventAddEditComponent</text>
</g>
<!-- ManageEventModule -->
<g id="node5" class="node">
<title>ManageEventModule</title>
<polygon fill="#8dd3c7" stroke="#000000" points="612.7963,-187 609.7963,-191 588.7963,-191 585.7963,-187 475.2037,-187 475.2037,-151 612.7963,-151 612.7963,-187"/>
<text text-anchor="middle" x="544" y="-164.8" font-family="Times,serif" font-size="14.00" fill="#000000">ManageEventModule</text>
</g>
<!-- EventAddEditComponent&#45;&gt;ManageEventModule -->
<g id="edge1" class="edge">
<title>EventAddEditComponent&#45;&gt;ManageEventModule</title>
<path fill="none" stroke="#000000" d="M1039,-122.2921C1039,-144.2057 1039,-178 1039,-178 1039,-178 622.8276,-178 622.8276,-178"/>
<polygon fill="#000000" stroke="#000000" points="622.8277,-174.5001 612.8276,-178 622.8276,-181.5001 622.8277,-174.5001"/>
</g>
<!-- EventListComponent -->
<g id="node2" class="node">
<title>EventListComponent</title>
<polygon fill="#ffffb3" stroke="#000000" points="939.7688,-122 804.2312,-122 804.2312,-86 939.7688,-86 939.7688,-122"/>
<text text-anchor="middle" x="872" y="-99.8" font-family="Times,serif" font-size="14.00" fill="#000000">EventListComponent</text>
</g>
<!-- EventListComponent&#45;&gt;ManageEventModule -->
<g id="edge2" class="edge">
<title>EventListComponent&#45;&gt;ManageEventModule</title>
<path fill="none" stroke="#000000" d="M872,-122.1061C872,-141.3391 872,-169 872,-169 872,-169 622.7595,-169 622.7595,-169"/>
<polygon fill="#000000" stroke="#000000" points="622.7596,-165.5001 612.7595,-169 622.7595,-172.5001 622.7596,-165.5001"/>
</g>
<!-- EventViewComponent -->
<g id="node3" class="node">
<title>EventViewComponent</title>
<polygon fill="#ffffb3" stroke="#000000" points="786.3089,-122 641.6911,-122 641.6911,-86 786.3089,-86 786.3089,-122"/>
<text text-anchor="middle" x="714" y="-99.8" font-family="Times,serif" font-size="14.00" fill="#000000">EventViewComponent</text>
</g>
<!-- EventViewComponent&#45;&gt;ManageEventModule -->
<g id="edge3" class="edge">
<title>EventViewComponent&#45;&gt;ManageEventModule</title>
<path fill="none" stroke="#000000" d="M714,-122.027C714,-138.3976 714,-160 714,-160 714,-160 622.6555,-160 622.6555,-160"/>
<polygon fill="#000000" stroke="#000000" points="622.6555,-156.5001 612.6555,-160 622.6555,-163.5001 622.6555,-156.5001"/>
</g>
<!-- ManageEventComponent -->
<g id="node4" class="node">
<title>ManageEventComponent</title>
<polygon fill="#ffffb3" stroke="#000000" points="623.5786,-122 464.4214,-122 464.4214,-86 623.5786,-86 623.5786,-122"/>
<text text-anchor="middle" x="544" y="-99.8" font-family="Times,serif" font-size="14.00" fill="#000000">ManageEventComponent</text>
</g>
<!-- ManageEventComponent&#45;&gt;ManageEventModule -->
<g id="edge4" class="edge">
<title>ManageEventComponent&#45;&gt;ManageEventModule</title>
<path fill="none" stroke="#000000" d="M544,-122.1061C544,-122.1061 544,-140.991 544,-140.991"/>
<polygon fill="#000000" stroke="#000000" points="540.5001,-140.9909 544,-150.991 547.5001,-140.991 540.5001,-140.9909"/>
</g>
<!-- LoaderModule -->
<g id="node6" class="node">
<title>LoaderModule</title>
<polygon fill="#8dd3c7" stroke="#000000" points="439.6924,-122 436.6924,-126 415.6924,-126 412.6924,-122 340.3076,-122 340.3076,-86 439.6924,-86 439.6924,-122"/>
<text text-anchor="middle" x="390" y="-99.8" font-family="Times,serif" font-size="14.00" fill="#000000">LoaderModule</text>
</g>
<!-- LoaderModule&#45;&gt;ManageEventModule -->
<g id="edge5" class="edge">
<title>LoaderModule&#45;&gt;ManageEventModule</title>
<path fill="none" stroke="#000000" d="M390,-122.027C390,-138.3976 390,-160 390,-160 390,-160 465.1077,-160 465.1077,-160"/>
<polygon fill="#000000" stroke="#000000" points="465.1077,-163.5001 475.1077,-160 465.1077,-156.5001 465.1077,-163.5001"/>
</g>
<!-- ManageEventRoutingModule -->
<g id="node7" class="node">
<title>ManageEventRoutingModule</title>
<polygon fill="#8dd3c7" stroke="#000000" points="322.4143,-122 319.4143,-126 298.4143,-126 295.4143,-122 139.5857,-122 139.5857,-86 322.4143,-86 322.4143,-122"/>
<text text-anchor="middle" x="231" y="-99.8" font-family="Times,serif" font-size="14.00" fill="#000000">ManageEventRoutingModule</text>
</g>
<!-- ManageEventRoutingModule&#45;&gt;ManageEventModule -->
<g id="edge6" class="edge">
<title>ManageEventRoutingModule&#45;&gt;ManageEventModule</title>
<path fill="none" stroke="#000000" d="M231,-122.1061C231,-141.3391 231,-169 231,-169 231,-169 465.3108,-169 465.3108,-169"/>
<polygon fill="#000000" stroke="#000000" points="465.3109,-172.5001 475.3108,-169 465.3108,-165.5001 465.3109,-172.5001"/>
</g>
<!-- SharedModule -->
<g id="node8" class="node">
<title>SharedModule</title>
<polygon fill="#8dd3c7" stroke="#000000" points="122.4231,-122 119.4231,-126 98.4231,-126 95.4231,-122 23.5769,-122 23.5769,-86 122.4231,-86 122.4231,-122"/>
<text text-anchor="middle" x="73" y="-99.8" font-family="Times,serif" font-size="14.00" fill="#000000">SharedModule</text>
</g>
<!-- SharedModule&#45;&gt;ManageEventModule -->
<g id="edge7" class="edge">
<title>SharedModule&#45;&gt;ManageEventModule</title>
<path fill="none" stroke="#000000" d="M73,-122.2921C73,-144.2057 73,-178 73,-178 73,-178 465.2605,-178 465.2605,-178"/>
<polygon fill="#000000" stroke="#000000" points="465.2606,-181.5001 475.2605,-178 465.2605,-174.5001 465.2606,-181.5001"/>
</g>
</g>
</svg>
