<svg xmlns="http://www.w3.org/2000/svg" width="362.624" height="230.711" viewBox="0 0 362.624 230.711"><defs><style>.a{fill:#2ee1f0;}.b{fill:#fefefe;}.c{fill:#1a1a1a;}.d{fill:#b5b5b5;}.e{fill:#fff;}</style></defs><g transform="translate(-2924.211 -97.744)"><rect class="a" width="70.92" height="70.92" transform="translate(3153.853 125.492)"/><path class="b" d="M5.03,0H187.808a5.03,5.03,0,0,1,5.03,5.03v120a5.031,5.031,0,0,1-5.031,5.031H5.031A5.031,5.031,0,0,1,0,125.028V5.03A5.03,5.03,0,0,1,5.03,0Z" transform="translate(2988.431 165.494)"/><path class="b" d="M2951.01,185.079V171.624s-5.384,1.4-6.047-3.539,4.338-5.332,5.246-4.973,2.62,1.212,2.62,1.212a14.931,14.931,0,0,0,3.524-3.859,25.713,25.713,0,0,0,1.519-6.06s3.551,3.565,6.609,3.65a28.908,28.908,0,0,0,5.125-.27l.123,1.214a6.081,6.081,0,0,1,2.477,5.159c-.061,3.556-1.133,5.18-2.058,5.583l-.126,5.5a5.136,5.136,0,0,1-4.91,4.448l.674,5.808-3.026,11.541Z" transform="translate(12.522 34.291)"/><path class="c" d="M2959.665,176.488s-10.606,1.785-15.238,7.822-9.4,12.72-12.666,21.582-3.1,8.495-4.468,12.837a87.685,87.685,0,0,0-2.839,17c-.233,4.432,1.173,11.813,7.1,15.1s9.124,3.483,9.124,3.483-.05,5.483-.1,7.6.1,5.044.1,5.044h62.986s-1.82-7.2-2.152-9.976-.832-9.291-.832-9.291l-5.427.212s-6.766-2.337-6.962-7.6,0-15.813,0-15.813l2.622-2.706a25.029,25.029,0,0,0-6.1-9.469c-4.572-4.478-4.942-4.894-4.942-4.894s3.7-6.443,4.506-8.164,1.475-5.183,3.821-4.674l-.058-15.564-6.987-2.406Z" transform="translate(0.132 47.655)"/><path class="b" d="M2950.115,173.92l-3.736,4.354,8.461,18.454,1.514-1.834,5.379,15.224,2.483-1.979,2.214,1.254,2.1-3.49-1.209-12.335.473.657.074-15.833-3.312-4.856Z" transform="translate(13.417 45.869)"/><path class="b" d="M3120.07,184.6s-8.629.422-11-7.7,1.644-11.517,3.375-12.278,3.308-4.1,4.007-5.345,2.411-4.48,6.235-4.9,6.767.388,8.273,2.234c0,0,3.973-1,6.842.467a14,14,0,0,1,7.314,7.716,14.228,14.228,0,0,1,.562,5.713c-.479,2.384-1.293,3.7-.486,5.371s1.547,2.533.346,4.241-5.543,4.34-8.268,4.48Z" transform="translate(111.433 34.206)"/><path class="c" d="M3114.708,187.863s3.353-4.692,8.254-6.427,10.606-3.114,12.837-3.214l12.485-.217s8.084-.355,11.506,1.265,6.346,2.006,10.721,11.443c0,0,4.721,8.748,5.828,11.232s5.151,12.235,5.907,17.267,2.463,14-2.462,21.782c0,0-3.113,4.835-4.907,5.2l-.054,19.76H3111.43a38.149,38.149,0,0,0,2.564-10.387c.485-5.543.653-8.543.653-8.543s-8.605.424-13.116-7.082c0,0-4.682-6.117-5.612-10.013a27.682,27.682,0,0,0-1.809-5.6Z" transform="translate(102.822 48.554)"/><path class="b" d="M3113.393,166.844s1.717,8.814,2.446,11.609,2.341,7.419,6.918,6.607c.3.385,1.631,5.753,1.631,5.753s-1.179,8.952,1.28,9.2,9.1-7.414,10.543-9.538l-3.754-14.636s4.6-1.165,3.565-5.082c0,0-.676-3.485-5.36-2.212a7.782,7.782,0,0,1-3.292-4.809c-.753-3.34-1.118-4.851-1.118-4.851a11.064,11.064,0,0,1-5.917,3.833C3116.663,163.52,3113.823,165.754,3113.393,166.844Z" transform="translate(114.492 37.005)"/><path class="b" d="M3119.372,193.659l-2.646,3.323-.828-2.414S3118.657,193.211,3119.372,193.659Z" transform="translate(116.007 57.992)"/><path class="b" d="M3123.981,193.777l-4,4.751-3.018.884,4.26,12.423s3.073-.213,4-.4a15.879,15.879,0,0,1,4.064,5.263,31.042,31.042,0,0,0,5.371-3.944,67.846,67.846,0,0,0,4.963-5.739s-4.483-6.01-6.69-8.272S3129.072,194.589,3123.981,193.777Z" transform="translate(116.652 58.119)"/><path class="b" d="M3094.855,193.24l1.843,5.052a35.17,35.17,0,0,0,6.5.49c2.072-.226,4.994.2,4.742,2.4a6.2,6.2,0,0,1-.958,3.061s1.939,1.336,1.732,2.727a7.974,7.974,0,0,1-.948,2.612A1.871,1.871,0,0,1,3109,211.4a3.1,3.1,0,0,1-2.426,3.376c-1.88.645-6.8,1.735-10.861.263s-5.127-9.244-5.356-11.986S3091.276,195.364,3094.855,193.24Z" transform="translate(100.531 57.794)"/><path class="b" d="M3034.2,168.514a10.123,10.123,0,0,0-6.035-2.692c-3.927-.417-4.106.311-4.106.311s-2.032-.955-3.3-.311-1,2.543-1,2.543-1.867,1.136-.909,4.676a10.8,10.8,0,0,0,1.988,6.4c2.2,3.04,3.091,4.043,3.7,5.308a26.85,26.85,0,0,1,1.238,3.506s4.449-2.188,7.579-2.284a48.526,48.526,0,0,1,6.44.31s-.973-4.217-.971-4.991a24.213,24.213,0,0,0-.443-4.743c-.34-1.1-1.414-3.5-1.414-3.5l-6.769-.385-4.111-4.291Z" transform="translate(57.104 41.066)"/><path class="b" d="M3057.918,179.22c-.014.23-.091,1.544-.091,1.544l2-.074Z" transform="translate(80.863 49.309)"/><path class="b" d="M3068.107,178.219s3.159,2.069,5.233-.541a3.856,3.856,0,0,0-.641-5.721c-1.016-.563-3.35-1.25-4.994.133a7.274,7.274,0,0,1-5.02-4.583A26.084,26.084,0,0,1,3061,159.9s-2.528.274-4.379,4.952l-1.16,7.418s-3.706.7-3.982,1.856,2.415,3.478,2.415,3.478-1.3,7.71,5.918,8.268c0,0,1.446-2.968,3.513-3.8s3.873-1.291,4.379-1.817S3068.833,179.224,3068.107,178.219Z" transform="translate(77.01 37.614)"/><path class="a" d="M3116.414,198.9l7.172-8.513,3.1,2.614-6.378,7.571-2.774.813Z" transform="translate(116.32 56.07)"/><path class="b" d="M3120.882,190.918l1.175-1.4,3.042,2.362-1.115,1.415Z" transform="translate(119.024 55.544)"/><path class="b" d="M3096.448,202.6l-5.839-17.022h33.052l16.418,48.064-32.837.07Z" transform="translate(100.704 53.159)"/><path class="a" d="M3092.475,185.967l-.544-1.587,32.8-.1,16.773,48.281h-2.8l-15.84-46.19Z" transform="translate(101.503 52.371)"/><path class="c" d="M3067.009,180.3a2.385,2.385,0,0,1-2.14,2.071c-1.985.276-5.771,2.36-6.417,4.782s.4,6.347,7.331,7.641,11.586.319,13.069-.422,4.775-2.119,4.4-5.443-3.534-5.113-4.17-5.65-.444-1.737-.185-2.978,2.506-9.191,2.583-9.979.546-4.536-1.451-7.328-7.235-4.05-7.235-4.05-5.242-1.788-8.712-1.673-7.079.193-8.4,2.472-2.547,4.466-.93,8.05a8.156,8.156,0,0,1,4.665-6.469s.648,6.922,2.271,8.9,2.717,3.329,4.241,3.422a3.725,3.725,0,0,1,2.658-.994,4.491,4.491,0,0,1,4.206,3.769s-.353,3.759-2.637,4.153S3067.009,180.3,3067.009,180.3Z" transform="translate(78.538 36.019)"/><path class="a" d="M3082.309,181.309s-7.112.9-9.785,3.9a36.952,36.952,0,0,0-6.423,9.8c-1.454,3.416-3.586,8.931-4.269,10.2s-2.316,5.318-6.373,4.671-4.431-3.787-5.08-5.772-7.666-23.42-7.666-23.42-4.376-3.395-11.626-2.25a15.646,15.646,0,0,0-10.413,6.021s1.978,11.965,3.215,16.8,3.547,13.174,6.04,18.1,8.119,13.506,17.153,15.2,15.049,0,17.322-.925c.281.125-.89,32.211-.89,32.211l51.068.079-1.017-26.94s5.384,3.326,9.6.758,4.356-6.459,4.209-8.8a55.975,55.975,0,0,0-2.172-11.389,91.9,91.9,0,0,0-7.156-16.688c-3.886-6.793-8.7-13.927-8.7-13.927a18.087,18.087,0,0,0-5.914-5.674c-3.619-1.958-4.189-1.422-4.189-1.422a24.619,24.619,0,0,1-8.765.978A37.955,37.955,0,0,1,3082.309,181.309Z" transform="translate(58.38 48.69)"/><path class="c" d="M3023.247,167.323l14.794.832-.229,4.051-10.454-.593Z" transform="translate(59.936 42.109)"/><rect class="b" width="4.057" height="1.975" transform="translate(3097.748 214.313) rotate(-86.766)"/><path class="b" d="M3020.845,166.959l-4.867,2.024,3.852,2.024S3020.068,167.664,3020.845,166.959Z" transform="translate(55.537 41.889)"/><path class="b" d="M3053.138,242.613l17.827-1.8-14.288-6.333-15.034,1.23,2.436,1.624-4.386-.13-14.231,6.306,17.769,1.826,7.291-4.248Z" transform="translate(61.276 82.753)"/><path class="c" d="M3070.317,196.011S3067.369,219.7,3048,228.327l-.087-5.479s5.751-1.263,11.939-8.007S3070.317,196.011,3070.317,196.011Z" transform="translate(74.867 59.471)"/><path class="d" d="M3104.2,205.379s-.9,4.583-5.276,5.088L3097.9,208.3S3102.125,208.512,3104.2,205.379Z" transform="translate(105.116 65.14)"/><rect class="b" width="17.181" height="17.181" transform="translate(3172.132 204.915)"/><path class="a" d="M3085.8,166.592a1.254,1.254,0,1,1-1.252-1.254A1.253,1.253,0,0,1,3085.8,166.592Z" transform="translate(96.273 40.908)"/><path class="a" d="M3040.359,150.884a.914.914,0,1,1-.913-.915A.914.914,0,0,1,3040.359,150.884Z" transform="translate(69.186 31.606)"/><rect class="c" width="13.445" height="28.745" transform="translate(3156.746 136.66)"/><path class="e" d="M3082.95,131.631v16.025l2.112,3.128.374,6.568h10.88V131.631Z" transform="translate(96.068 20.508)"/><rect class="e" width="13.267" height="16.335" transform="translate(3201.314 161.526)"/><path class="b" d="M2958.872,200.818s2.711-4.406,3.813-6.538,1.86-4.519,2.309-5.281a2.022,2.022,0,0,1,2.358-1.212c1.176.345,1.35,1.35,1.28,2.666s-1.3,4.365-1.189,5.265.456,2.294,2.294,1.788,4-2.348,4.981-3.246,4.859-4.708,4.859-4.708a2.49,2.49,0,0,1,2.806-.207,2.277,2.277,0,0,1,.9,2.633,2.822,2.822,0,0,1,1.766.8c.623.727.9,2.055.379,2.43a1.193,1.193,0,0,0,.624.963,2.109,2.109,0,0,1,.278,2.564,34.9,34.9,0,0,1-6.822,7.448c-3.083,2.459-8.106,5.74-10.185,6.334,0,0-3.047-4.393-4.745-6.438A53.314,53.314,0,0,0,2958.872,200.818Z" transform="translate(20.977 54.443)"/><path class="c" d="M2949.458,165.328l-.146,2.407-1.838-2.395Z" transform="translate(14.079 40.902)"/><path class="a" d="M2952.315,166.972s3.376-2.485,4.291-5.377a20.13,20.13,0,0,0,1-4.716,9.084,9.084,0,0,0,7.2,3.661c5.058.238,4.616-.456,4.616-.456l.01,1.034.95.562a13.124,13.124,0,0,0-.141-4.8c-.586-2.2-2.26-3.966-4.991-5.35a11.892,11.892,0,0,0-6.783-1.08c-.641.228-3.692,1.035-4.219,1.7-.441.329-4.1.539-5.7,2.1a8.25,8.25,0,0,0-3,5.422c-.314,2.563-.3,5.535.51,6.854a4.3,4.3,0,0,1,2.9-1.032A5.47,5.47,0,0,1,2952.315,166.972Z" transform="translate(12.792 31.817)"/><path class="c" d="M2954.163,165.985a4.972,4.972,0,0,1,2.236,1.867,3.464,3.464,0,0,1,.2,2.161,4.9,4.9,0,0,0,2.947-.225c1.379-.637,1.469-1.921,1.026-2.461s-1.589-.132-2.235-.095-1.438-.006-1.679-.61-.8-1.875-1.718-1.766S2954.163,165.985,2954.163,165.985Z" transform="translate(18.122 40.612)"/><path class="a" d="M2953.482,187.868l3.326,4.611-.684,8.176,1.312,4.82,2.886-1.836,1.811,1.11,2.1-3.49-.6-4.3-2.656-4.875.436-5.4-3.942-5.475Z" transform="translate(17.715 50.512)"/><path class="a" d="M3122.831,178.194l.26,1.042s-1.374,9.076,1.138,9.146,6.88-4.907,7.664-5.795,3.021-3.686,3.021-3.686l-.345-.883,2.149.077a31.573,31.573,0,0,1-1.213,8.971c-1.35,4.434-2.84,7.585-5.334,7.62a5.768,5.768,0,0,1-4.778-2.633,10.545,10.545,0,0,1-.972-3.016s-4.329,3.952-6.268,3.779-3.4-1.894-2.149-4.983a88.878,88.878,0,0,1,5.128-9.288Z" transform="translate(115.79 48.582)"/><path class="c" d="M2971.493,153.554h31.115V122.441a30.373,30.373,0,0,0-22.579,9.707C2970.226,142.722,2971.493,153.554,2971.493,153.554Z" transform="translate(28.582 14.936)"/><path class="a" d="M3008.073,127.139v31.483H2976.59a31.482,31.482,0,1,0,31.482-31.483Z" transform="translate(31.699 17.79)"/><path class="a" d="M3050.521,240.062l-5.854-3.468-4.976-.415-14.231,6.306,17.769,1.826Z" transform="translate(61.276 83.779)"/><path class="e" d="M2959.212,151.492a11.847,11.847,0,0,0-3.9-1.114c-.056.032,8.707,4.647,6.067,10.162,1.644-.055,1.959-.287,2-.413l.01.954.95.562a13.1,13.1,0,0,0-.143-4.8C2963.617,154.646,2961.943,152.876,2959.212,151.492Z" transform="translate(18.822 31.854)"/><path class="e" d="M2955.524,154.288s-3.359,8.228-6.719,8.894l1.6,1.249c.7-.554,3.323-2.742,4.111-5.239a20.114,20.114,0,0,0,1-4.716C2955.6,154.614,2955.524,154.288,2955.524,154.288Z" transform="translate(14.884 34.22)"/><path class="e" d="M3059.419,161.263s.648,6.922,2.271,8.9,2.717,3.329,4.241,3.422c-5.408-3.483-4.878-14.8-4.788-16.229-2.4.2-4.514.7-5.458,2.329-1.32,2.278-2.547,4.466-.93,8.05A8.156,8.156,0,0,1,3059.419,161.263Z" transform="translate(78.538 36.075)"/><path class="e" d="M3062.655,185.751a3.32,3.32,0,0,1-1.5-1.316,5.361,5.361,0,0,1-.793-1.878,7.589,7.589,0,0,1,.348-4.686,4.9,4.9,0,0,1,1.573-1.873,18.81,18.81,0,0,1,2.018-1.117,5.086,5.086,0,0,0,1.436-1.077,4.585,4.585,0,0,0,1.024-1.416s-.28-.2-.723-.514a2.022,2.022,0,0,1-.655-.263,2.386,2.386,0,0,1-2.14,2.071c-1.985.276-5.771,2.36-6.417,4.782C3056.23,180.7,3057.083,184.2,3062.655,185.751Z" transform="translate(80.161 44.704)"/><path class="e" d="M2955.128,183.55l2.731,3.326-.17,5.265,5.254,9.415-.043-3.79-2.927-5.778.729-5.4-4.256-5.217Z" transform="translate(18.711 50.609)"/><g transform="translate(3071.204 206.323)"><g transform="translate(0 2.183)"><g transform="translate(11.957 0.991)"><path class="c" d="M3037.821,172.546c-.021,0-10.166-.57-10.166-.57.042-.73,9.821-.181,9.821-.181l.187-3.32-14.43-.812c.042-.73,14.837.1,14.837.1.345.384.116,4.435.116,4.435A.364.364,0,0,1,3037.821,172.546Z" transform="translate(-3023.233 -167.363)"/></g><g transform="translate(26.521 1.498)"><path class="c" d="M3034.3,172.466c-.021,0-2-.111-2-.111.044-.73,1.65-.64,1.65-.64l.188-3.321-1.61-.091c.043-.729,2.016-.616,2.016-.616.345.385.117,4.435.117,4.435A.367.367,0,0,1,3034.3,172.466Z" transform="translate(-3032.306 -167.679)"/></g><path class="c" d="M3020.285,171.68c-.17-.043-4.5-2.318-4.5-2.318.037-.665,5.045-2.616,5.045-2.616.265.682-4,2.342-4,2.342l3.622,1.9C3020.542,171.61,3020.417,171.68,3020.285,171.68Z" transform="translate(-3015.784 -166.746)"/></g><g transform="translate(5.225)"><path class="c" d="M3027.722,177.855c-6.951-4.49-8.381-7.793-8.633-9.37a2.839,2.839,0,0,1,.484-2.275c1.509-1.9,4.356.059,4.477.146.127.13,5.771,6.771,8.956,7.861-3.515-.43-8.89-6.674-9.411-7.284-.3-.2-2.435-1.536-3.451-.266a2.128,2.128,0,0,0-.331,1.7c.186,1.173,1.352,4.379,8.109,8.814C3027.958,177.8,3027.841,177.855,3027.722,177.855Z" transform="translate(-3019.039 -165.386)"/></g><g transform="translate(3.997 2.121)"><path class="c" d="M3025.555,180.812c-.514-.315-7.047-5.817-7.275-10.6a4.491,4.491,0,0,1,1.337-3.5,13.17,13.17,0,0,0-.607,3.466c.214,4.47,6.713,9.938,6.779,9.992C3025.764,180.767,3025.659,180.812,3025.555,180.812Z" transform="translate(-3018.274 -166.707)"/></g><g transform="translate(9.545 0.21)"><path class="c" d="M3032.605,169.254c-.289-.141-2.372-2.377-4.533-2.846-2.2-.477-6.3.2-6.342.205.053-.75,4.149-1.429,6.5-.92a10.721,10.721,0,0,1,4.646,2.947C3032.783,169.222,3032.7,169.254,3032.605,169.254Z" transform="translate(-3021.73 -165.517)"/></g><g transform="translate(22.547 7.961)"><path class="c" d="M3032.971,183.77a13.784,13.784,0,0,1-1.332-6.154,14.382,14.382,0,0,0-1.809-7.26c.716-.226,2.785,3.292,2.54,7.307a20.4,20.4,0,0,0,.948,5.633C3033.046,183.764,3033.007,183.77,3032.971,183.77Z" transform="translate(-3029.83 -170.346)"/></g><g transform="translate(4.378 7.737)"><path class="c" d="M3026.112,185.651c-.9-1.525-2.111-4.17-2.61-4.835-1.7-2.095-5.871-7.207-4.824-10.61-.232,3.244,3.748,8.129,5.056,9.731a36.29,36.29,0,0,1,2.713,5.2C3026.213,185.642,3026.161,185.651,3026.112,185.651Z" transform="translate(-3018.511 -170.206)"/></g></g><g transform="translate(3231.906 244.713)"><g transform="translate(1.076)"><g transform="translate(0 1.512)"><path class="c" d="M3120.051,201.228c-.279-.6,6.033-8.09,6.033-8.09l-2.546-2.143-6.938,8.233c-.56-.469,6.614-8.983,6.614-8.983.517-.045,3.619,2.57,3.619,2.57.045.512-6.5,8.283-6.5,8.283A.37.37,0,0,1,3120.051,201.228Z" transform="translate(-3116.568 -190.245)"/></g><g transform="translate(7.06)"><path class="c" d="M3123.933,194.027c-.279-.6.759-1.832.759-1.832l-2.544-2.141-1.04,1.23c-.558-.469.716-1.981.716-1.981.517-.045,3.618,2.57,3.618,2.57.045.514-1.228,2.024-1.228,2.024A.363.363,0,0,1,3123.933,194.027Z" transform="translate(-3120.967 -189.303)"/></g></g><g transform="translate(3.474 16.592)"><path class="c" d="M3118.062,201.385a7.61,7.61,0,0,1,3.21-1.746,5.446,5.446,0,0,1-3.121,1.737A.431.431,0,0,1,3118.062,201.385Z" transform="translate(-3118.062 -199.639)"/></g><g transform="translate(1.708 10.746)"><path class="c" d="M3116.962,198.434c1.9-1.042,4.315-1.525,5.656-2.437-1.048,1.6-3.567,2.1-5.6,2.432A.236.236,0,0,1,3116.962,198.434Z" transform="translate(-3116.962 -195.997)"/></g><g transform="translate(4.798 20.94)"><path class="c" d="M3118.887,203.608a21.389,21.389,0,0,1,3.345-1.26c.128.721-1.17,1.047-3.308,1.26Z" transform="translate(-3118.887 -202.348)"/></g><g transform="translate(0 6.246)"><path class="c" d="M3115.9,195.16a6.242,6.242,0,0,1,3.876-1.966c.029.732-1.987.881-3.685,1.915A.363.363,0,0,1,3115.9,195.16Z" transform="translate(-3115.898 -193.194)"/></g><g transform="translate(8.687 7.246)"><path class="c" d="M3136.983,207.359c-.357-.226-7.091-8.9-8.778-10.328a14.4,14.4,0,0,0-6.894-2.915c.248-.708,4.3-.249,7.369,2.356,1.742,1.483,8.313,9.938,8.593,10.3C3137.141,207.334,3137.062,207.359,3136.983,207.359Z" transform="translate(-3121.31 -193.817)"/></g><g transform="translate(5.951 24.478)"><path class="c" d="M3127.871,210.544c-1.955-2.91-3.759-5.236-4.253-5.262a18.074,18.074,0,0,1-4.013.4,11.19,11.19,0,0,1,3.231-1.016,5.311,5.311,0,0,1,.782-.112c1.171,0,3.584,3.8,4.566,5.438C3128,210.528,3127.936,210.544,3127.871,210.544Z" transform="translate(-3119.605 -204.552)"/></g></g><g transform="translate(3130.719 214.928)"><path class="c" d="M3053.811,175.075c-.11-.708.084-.711.5-.782a2.654,2.654,0,0,0,1.894-1.414,1.459,1.459,0,0,0,.219-1.1c-.941-.133-1.085.047-1.253.254a2.266,2.266,0,0,1-.693.647,1.674,1.674,0,0,1-1.616-.18,6.9,6.9,0,0,1,1.274-.467c.662-.7.883-.976,1.236-1.145a1.352,1.352,0,0,1,1.021-.064,1.223,1.223,0,0,1,.691.648,2.049,2.049,0,0,1-.236,1.754,3.388,3.388,0,0,1-2.427,1.795A3.93,3.93,0,0,1,3053.811,175.075Z" transform="translate(-3052.861 -170.747)"/></g><g transform="translate(2924.211 224.023)"><path class="c" d="M2943.936,254.946c-8.145,0-17.322-4.865-19.155-13.061-2.384-10.662,3.368-27.192,5.188-32,3.583-9.477,5.413-12.984,9.453-19.383,6.421-10.167,12.768-12.984,20.323-14.087-7.459,1.827-13.414,4.514-19.705,14.477-4.008,6.352-5.825,9.837-9.389,19.253-1.8,4.761-7.495,21.118-5.156,31.581,1.945,8.715,12.622,13.492,20.986,12.318,15.463-2.157,41.94-29.99,44.166-32.356a25.755,25.755,0,0,0-4.71-7.572c-4.452-5.254-7.207-6.828-7.873-7.159-2.339,1.454-28.5,17.916-37.563,31.749,8.918-14.952,37.062-32.3,37.346-32.476.445.019,3.366,1.185,8.649,7.411,3.879,4.583,4.878,7.9,4.918,8.037-1.236,1.591-28.507,30.813-44.83,33.09A18.949,18.949,0,0,1,2943.936,254.946Z" transform="translate(-2924.211 -176.413)"/></g><g transform="translate(2971.581 205.13)"><path class="c" d="M2957.908,170.6a4.137,4.137,0,0,1-4.04-3.17,2.562,2.562,0,0,1,.182-2.178,1.4,1.4,0,0,1,1.31-.592,2.062,2.062,0,0,1,1.55,1.252c.419.894.523.936.753,1.024s.338.135,1.253-.238a2.06,2.06,0,0,1,1.986.138,1.425,1.425,0,0,1,.555,1.327,2.689,2.689,0,0,1-1.38,1.819A4.113,4.113,0,0,1,2957.908,170.6Zm-2.706-5.218a1.5,1.5,0,0,0-.629,1.854,3.524,3.524,0,0,0,2.037,2.382,3.42,3.42,0,0,0,3.081-.258,2.037,2.037,0,0,0,1.037-1.265.7.7,0,0,0-.263-.671,1.349,1.349,0,0,0-1.276-.048c-1.08.435-1.35.417-1.793.242s-.653-.339-1.151-1.4a1.362,1.362,0,0,0-.968-.833A.588.588,0,0,0,2955.2,165.378Z" transform="translate(-2953.721 -164.643)"/><g transform="translate(0.298 1.738)"><path class="c" d="M2956.853,169.821c.331-3.157-2.812-4.008-2.946-4.042a2.928,2.928,0,0,1,3.3,3.767A.367.367,0,0,1,2956.853,169.821Z" transform="translate(-2953.907 -165.726)"/></g></g><g transform="translate(2948.139 246.056)"><path class="c" d="M2939.118,221.3c6.435-13.763,8.1-30.993,8.115-31.165.711.242-.965,17.611-7.79,30.967A.363.363,0,0,1,2939.118,221.3Z" transform="translate(-2939.118 -190.139)"/></g><g transform="translate(2968.954 204.159)"><path class="c" d="M2958.151,174.4c-.769,0-1.6-.037-2.5-.108a15.074,15.074,0,0,1-3.562-.677,9.6,9.6,0,0,1,3.62-.051c4.122.323,6.708-.091,8.137-1.318a4.52,4.52,0,0,0,1.44-3.283c.073-.981.14-3.1.156-4.928a12.116,12.116,0,0,1,.574,4.981,5.208,5.208,0,0,1-1.695,3.785C2963.063,173.883,2961.074,174.4,2958.151,174.4Z" transform="translate(-2952.085 -164.038)"/></g><g transform="translate(2981.841 192.064)"><path class="c" d="M2960.526,157.849a2.573,2.573,0,0,1-.413-1.345c.729-.035.777.965.777.965A4.6,4.6,0,0,1,2960.526,157.849Z" transform="translate(-2960.113 -156.503)"/></g><g transform="translate(2963.166 205.915)"><path class="c" d="M2948.845,179.25c-.366-.364-.366-14.118-.366-14.118.732,0,.732,13.753.732,13.753A.365.365,0,0,1,2948.845,179.25Z" transform="translate(-2948.479 -165.132)"/></g><g transform="translate(2957.12 197.032)"><path class="c" d="M2949.492,169.17a4.785,4.785,0,0,1-.573-9.535,4.707,4.707,0,0,1,3.521.989,4.779,4.779,0,0,1,1.48,1.963,6.785,6.785,0,0,1-1.931-1.39,3.951,3.951,0,0,0-2.983-.833,4,4,0,0,0-2.7,1.519,4.049,4.049,0,0,0,5.715,5.662A2.394,2.394,0,0,1,2949.492,169.17Z" transform="translate(-2944.713 -159.598)"/></g><g transform="translate(2977.271 214.022)"><path class="c" d="M2958.3,176.314c-.362-.323-1.035-6.13-1.035-6.13.729-.083,1.4,5.724,1.4,5.724C2958.328,176.314,2958.314,176.314,2958.3,176.314Z" transform="translate(-2957.266 -170.182)"/></g><g transform="translate(2965.108 188.693)"><path class="c" d="M2949.689,164.864a15.444,15.444,0,0,0,4.918-10.461c.817-.01,4.689,4.905,12.087,3a10.384,10.384,0,0,1-11.417-2.132,13.5,13.5,0,0,1-5.377,9.528A.375.375,0,0,1,2949.689,164.864Z" transform="translate(-2949.689 -154.403)"/></g><g transform="translate(2960.498 199.453)"><path class="c" d="M2946.869,166.159c-.169-.689,2.775-2.23,2.775-2.23l-2.827-2.764c.512-.522,3.7,2.6,3.7,2.6-.087.583-3.477,2.356-3.477,2.356A.379.379,0,0,1,2946.869,166.159Z" transform="translate(-2946.817 -161.106)"/></g><g transform="translate(2966.752 184.452)"><path class="c" d="M2952.837,154.146a27.576,27.576,0,0,1-2.124-2.32c.562-.469,2.4,1.721,2.4,1.721C2953,154.117,2952.92,154.146,2952.837,154.146Z" transform="translate(-2950.713 -151.761)"/></g><g transform="translate(2957.659 181.887)"><path class="c" d="M2946.057,166.831c-.43-.507-2.3-6.533.5-10.771,1.456-2.2,3.9-3.5,7.276-3.843.7-.567,5.074-3.73,11.856-.88,5.721,2.4,5.746,7.759,5.249,10.742-.161-3.5-.538-7.971-5.533-10.071-6.814-2.86-11.007.684-11.183.836-3.406.393-5.71,1.583-7.055,3.618-2.608,3.949-.781,9.833-.764,9.893C2946.131,166.825,2946.092,166.831,2946.057,166.831Z" transform="translate(-2945.049 -150.163)"/></g><g transform="translate(2961.018 206.38)"><path class="c" d="M2949.658,168.16a10.5,10.5,0,0,1-2.516-2.681c.63-.374,1.6,1.156,2.738,2.024C2949.878,168.111,2949.767,168.16,2949.658,168.16Z" transform="translate(-2947.141 -165.422)"/></g><g transform="translate(2977.479 197.008)"><path class="c" d="M2958.677,168.407c.537-.949.805-1.045,1.046-1.18a1.239,1.239,0,0,0,.646-.746.921.921,0,0,0-.151-.685,1.6,1.6,0,0,0-1.09-.64c-.082-.011-.688-.059-.831-.063-.408-.339-.9-5.443-.9-5.443l.728-.066.46,4.777c1.357.191,1.917.533,2.244,1.034a1.644,1.644,0,0,1,.255,1.241,1.919,1.919,0,0,1-1,1.228,5.726,5.726,0,0,1-.909.385A1.79,1.79,0,0,1,2958.677,168.407Z" transform="translate(-2957.396 -159.583)"/></g><g transform="translate(3135.352 204.177)"><path class="c" d="M3058.869,165.6a2.624,2.624,0,0,0-3.122-.616c.343-1.047,2.043-1.441,3.39,0C3059.047,165.574,3058.96,165.6,3058.869,165.6Z" transform="translate(-3055.747 -164.049)"/></g><path class="c" d="M3056.373,166.127c-.292-.048-.488.077-.576,1.128-.1,1.172.207,1.38.469,1.371s.528-.369.518-1.207S3056.755,166.19,3056.373,166.127Z" transform="translate(79.624 41.38)"/><g transform="translate(3144.23 208.388)"><path class="c" d="M3064.343,175.37a4.337,4.337,0,0,1-2.5-.788,11.092,11.092,0,0,1,2.483.058,3.618,3.618,0,1,0-3.052-5.543,2.8,2.8,0,0,1,3.066-2.424,4.348,4.348,0,1,1,0,8.7Z" transform="translate(-3061.278 -166.673)"/></g><g transform="translate(3145.344 210.39)"><path class="c" d="M3064.914,172.435c-.2-.058-2.942-1.87-2.942-1.87-.018-.6,2.74-2.645,2.74-2.645.435.589-1.9,2.323-1.9,2.323l2.308,1.525C3065.148,172.379,3065.034,172.435,3064.914,172.435Z" transform="translate(-3061.972 -167.92)"/></g><g transform="translate(3138.406 228.51)"><path class="c" d="M3057.934,181.136c-.364-.387-.274-1.928-.274-1.928.732.04.639,1.584.639,1.584A.362.362,0,0,1,3057.934,181.136Z" transform="translate(-3057.65 -179.208)"/></g><g transform="translate(3121.798 282.022)"><path class="c" d="M3047.4,245.418c-.455-7.4.811-32.621.825-32.873.716.289-.549,25.481-.459,32.5C3047.406,245.418,3047.4,245.418,3047.4,245.418Z" transform="translate(-3047.303 -212.545)"/></g><g transform="translate(3002.584 140.034)"><g transform="translate(0.366 0.366)"><path class="c" d="M3004.727,156.144h-31.463c0-.729,31.1-.729,31.1-.729v-31.1c.732,0,.732,31.462.732,31.462A.366.366,0,0,1,3004.727,156.144Z" transform="translate(-2973.264 -124.318)"/></g><path class="c" d="M3004.865,187.747a31.831,31.831,0,1,1,21.463-8.325,34.969,34.969,0,0,0,9.634-23.5,31.066,31.066,0,1,0-25.736,30.638A9.81,9.81,0,0,1,3004.865,187.747Z" transform="translate(-2973.036 -124.09)"/></g><g transform="translate(2981.228 224.55)"><path class="c" d="M2966.924,179.673a18.68,18.68,0,0,0-7.192-2.86c2.6-.34,4.841.555,7.389,2.188C2967.162,179.612,2967.042,179.673,2966.924,179.673Z" transform="translate(-2959.731 -176.741)"/></g><g transform="translate(3000.445 295.825)"><path class="c" d="M2975.053,240.292c-1.853-4.743-2.865-11.1-3.351-19.148,1.212,7.939,2.211,14.232,3.7,18.665C2975.132,240.286,2975.092,240.292,2975.053,240.292Z" transform="translate(-2971.703 -221.144)"/></g><g transform="translate(2940.321 301.936)"><path class="c" d="M2934.734,237.988a77.885,77.885,0,0,1-.365-13.037c.723.116.292,6.523.729,12.646A2.846,2.846,0,0,1,2934.734,237.988Z" transform="translate(-2934.247 -224.951)"/></g><g transform="translate(2978.16 192.776)"><path class="c" d="M2961.361,168.972a2.2,2.2,0,0,1-1.033-.225c.539-.544.765-.509,1.074-.5,1.483-.03,2.69-2.475,2.632-5.337s-1.369-5.244-2.845-5.228c-.692.013-1.347.547-1.847,1.5a8.082,8.082,0,0,0-.787,3.833,7.017,7.017,0,0,0,.666,3.129c-1.118-.546-1.368-1.708-1.4-3.112a8.851,8.851,0,0,1,.872-4.191,3.018,3.018,0,0,1,2.478-1.893c1.971,0,3.527,2.6,3.594,5.942.068,3.369-1.4,6.042-3.35,6.082Z" transform="translate(-2957.82 -156.947)"/></g><g transform="translate(2969.302 192.603)"><path class="c" d="M2955.854,168.86c-1.926,0-3.483-2.6-3.551-5.942a8.846,8.846,0,0,1,.872-4.188,3.014,3.014,0,0,1,2.478-1.891,2.512,2.512,0,0,1,1.769.766,7.613,7.613,0,0,1,1.825,5.174,8.811,8.811,0,0,1-.872,4.191,3.012,3.012,0,0,1-2.478,1.891Zm-.154-11.293a2.343,2.343,0,0,0-1.877,1.5,8.071,8.071,0,0,0-.786,3.835c.054,2.846,1.344,5.228,2.819,5.228a2.341,2.341,0,0,0,1.873-1.5,8.075,8.075,0,0,0,.787-3.833,6.885,6.885,0,0,0-1.6-4.663A1.763,1.763,0,0,0,2955.7,157.568Z" transform="translate(-2952.302 -156.839)"/></g><g transform="translate(3257.101 262.291)"><path class="c" d="M3149.43,218.413c-4.662-7.787-14.823-16.139-17.835-18.16,3.456,1.44,13.743,9.9,18.153,17.612C3149.551,218.4,3149.49,218.413,3149.43,218.413Z" transform="translate(-3131.594 -200.253)"/></g><g transform="translate(3196.433 272.932)"><path class="c" d="M3113.916,229.9a14.666,14.666,0,0,1-3.072-.332c-7.767-1.677-14.155-12.6-17.044-22.683,3.53,9.671,9.728,20.357,17.2,21.969a13.926,13.926,0,0,0,3.67.294C3114.445,229.889,3114.18,229.9,3113.916,229.9Z" transform="translate(-3093.799 -206.882)"/></g><g transform="translate(3241.595 226.421)"><path class="c" d="M3152.207,248.284c-11.214,0-25.886-15.606-30.272-20.577,12.65,13.236,24.3,20.8,31.741,19.744,7.487-1.059,11.911-9.989,12.271-17.85.363-7.933-2.069-17.5-7.228-28.425-1.043-2.214-2.228-4.4-3.373-6.511-.672-1.244-1.349-2.486-2-3.743q-.3-.583-.6-1.17c-1.4-2.747-2.841-5.588-5.262-7.565-5.265-4.3-13.352-3.926-16.588-3.565,3.246-1.1,11.571-1.48,17.052,3,2.54,2.077,4.018,4.987,5.448,7.8.2.388.4.777.6,1.162.65,1.254,1.321,2.494,1.993,3.732,1.148,2.124,2.337,4.318,3.391,6.548,5.21,11.037,7.667,20.717,7.3,28.77-.372,8.154-5.021,17.424-12.9,18.543A11.283,11.283,0,0,1,3152.207,248.284Z" transform="translate(-3121.934 -177.907)"/></g><g transform="translate(3217.53 226.407)"><path class="c" d="M3106.942,188.274c4.108-6.307,10.358-8.323,15.31-9.439.166-.035,3.885-.793,5.774-.937a32.315,32.315,0,0,1-5.62,1.652c-4.825,1.088-10.92,3.048-15.175,8.583A.365.365,0,0,1,3106.942,188.274Z" transform="translate(-3106.942 -177.898)"/></g><g transform="translate(3227.532 203.733)"><path class="c" d="M3121.622,182.47a5.485,5.485,0,0,1-.79-.053,4.9,4.9,0,0,1-3.745-2.88,18.369,18.369,0,0,1-1.722-5.076c-.172-.844-.391-1.968-.625-3.172-.563-2.878-1.261-6.458-1.566-7.517,1.016.889,1.689,4.334,2.283,7.376.236,1.2.454,2.321.626,3.165a17.656,17.656,0,0,0,1.65,4.88,4.228,4.228,0,0,0,3.195,2.5,7.769,7.769,0,0,0,2.942-.292c1.176-.311,2.88-.825,4.034-1.276a7.635,7.635,0,0,1-3.848,1.984A9.758,9.758,0,0,1,3121.622,182.47Z" transform="translate(-3113.173 -163.773)"/></g><g transform="translate(3244.353 204.766)"><path class="c" d="M3126.19,172.771a4.136,4.136,0,0,1-1.259-.2,5.412,5.412,0,0,1,2.063-.631,3.446,3.446,0,1,0-3.342-5.681,1.74,1.74,0,0,1,1.565-1.73,4.175,4.175,0,1,1,1.946,8.121A4.077,4.077,0,0,1,3126.19,172.771Z" transform="translate(-3123.652 -164.416)"/></g><g transform="translate(3245 206.379)"><path class="c" d="M3127.1,170.113c-.171-.043-3.045-1.559-3.045-1.559-.093-.576,2.345-3.133,2.345-3.133.528.506-1.574,2.714-1.574,2.714l2.446,1.289C3127.363,170.041,3127.233,170.113,3127.1,170.113Z" transform="translate(-3124.056 -165.421)"/></g><g transform="translate(3257.267 245.204)"><path class="c" d="M3135.981,209.906a65.077,65.077,0,0,0-4.284-20.294c.713-.188,4.652,9.32,4.652,19.93A.367.367,0,0,1,3135.981,209.906Z" transform="translate(-3131.697 -189.608)"/></g><g transform="translate(3236.487 213.642)"><path class="c" d="M3118.752,173.144c.453-.673,1.1-.841,1.532-1.263a2.757,2.757,0,0,0,.646-1.934c.732.008.836,1.5-.131,2.453A2.8,2.8,0,0,1,3118.752,173.144Z" transform="translate(-3118.752 -169.946)"/></g><g transform="translate(3214.553 287.104)"><path class="c" d="M3105.088,242.925c2.93-7.623,2.729-27.019,2.726-27.214.742.793.936,19.749-2.393,27A.363.363,0,0,1,3105.088,242.925Z" transform="translate(-3105.088 -215.711)"/></g><g transform="translate(3190.679 250.745)"><path class="c" d="M3101.235,216.154c-3.809,0-6.843-.909-8.1-2.517a12.548,12.548,0,0,1-2.141-4.766,26.243,26.243,0,0,1-.607-9.325c.4-3.421,4.152-6.365,4.312-6.487.412.608-3.223,3.458-3.585,6.572a25.829,25.829,0,0,0,.589,9.063,11.828,11.828,0,0,0,2.008,4.495c1.169,1.493,4.87,2.7,10.5,2.058,1.685-.2,4.734-1.48,4.491-3.7a1.966,1.966,0,0,0-1.042-1.53c1.142-.212,1.671.57,1.769,1.451.287,2.637-2.895,4.249-5.137,4.506A26.677,26.677,0,0,1,3101.235,216.154Z" transform="translate(-3090.214 -193.06)"/></g><g transform="translate(3194.673 255.201)"><path class="c" d="M3102.551,203.611a54.119,54.119,0,0,1-8.565-.848c.875-.446,7.848.31,9.413.075.948-.125,1.976-.26,2.334-.833a2.939,2.939,0,0,0,.342-2.539,3.166,3.166,0,0,0-1.568-1.66,3.965,3.965,0,0,0-2.148-.258c-8.137.217-9.522-1.458-9.655-1.65.631-.382,2,1.122,9.047.945a5.581,5.581,0,0,1,3.1.318,3.862,3.862,0,0,1,1.907,2.059,3.645,3.645,0,0,1-.409,3.17c-.538.867-1.772,1.029-2.59,1.136A7.991,7.991,0,0,1,3102.551,203.611Z" transform="translate(-3092.703 -195.836)"/></g><g transform="translate(3195.817 262.342)"><path class="c" d="M3100.8,206.544a61.114,61.114,0,0,1-7.384-.522c.16-.714,5.949.1,10.151-.337,1.514-.154,3.071-1.14,2.913-2.944a3.616,3.616,0,0,0-1.576-2.456,2.505,2.505,0,0,1,2.3,2.392c.2,2.3-1.707,3.549-3.567,3.738C3102.741,206.507,3101.77,206.544,3100.8,206.544Z" transform="translate(-3093.415 -200.285)"/></g><g transform="translate(3237.189 212.938)"><path class="c" d="M3122.374,193.949c-2.782-.868-2.026-7.809-1.825-9.368l-1.359-5.944c.713-.161,2.087,5.843,2.087,5.843-.423,3.421-.457,8.254.817,8.7,1.9.681,7.229-5.231,10.212-9.2l-3.711-14.466c.709-.183,4.462,14.453,4.462,14.453C3132.222,185.31,3125.677,193.949,3122.374,193.949Z" transform="translate(-3119.189 -169.507)"/></g><g transform="translate(2959.466 219.434)"><path class="c" d="M2955.147,197.476c-.332-.213-8.973-19.062-8.973-19.062.052-.385,3.786-4.861,3.786-4.861.543-.019,11.737,11.565,11.737,11.565l2.963-11.305c.657-.112,3.6,4.242,3.6,4.242.064.207.064,16.214.064,16.214-.663.213-6.408-7.763-6.408-7.763L2955.46,197.3A.368.368,0,0,1,2955.147,197.476Zm-8.212-19.156,8.255,18.007,6.239-10.432-11.17-11.559Zm15.35,7.45,5.306,7.366v-14.76l-2.429-3.6Z" transform="translate(-2946.174 -173.554)"/><g transform="translate(9.968 21.461)"><path class="c" d="M2958.1,202.379c-2.663-7.8-5.689-15.376-5.718-15.452.708-.2,3.745,7.4,6.067,14.981C2958.172,202.374,2958.135,202.379,2958.1,202.379Z" transform="translate(-2952.384 -186.924)"/></g><g transform="translate(20.911 20.071)"><path class="c" d="M2960.77,198.487c-.9-8.771-1.562-12.394-1.569-12.427.726-.1,1.392,3.555,1.933,12.037C2960.785,198.487,2960.778,198.487,2960.77,198.487Z" transform="translate(-2959.201 -186.058)"/></g><g transform="translate(11.435 17.733)"><path class="c" d="M2956.921,190.791c-.3-.151-3.623-4.763-3.623-4.763.592-.425,3.8,4.015,3.8,4.015l3.648-.347.411-5.095c.73.056.294,5.461.294,5.461-.331.336-4.495.729-4.495.729Z" transform="translate(-2953.298 -184.601)"/></g><g transform="translate(14.266 23.529)"><path class="c" d="M2955.168,197.562c-.364-.393.319-9.35.319-9.35.73.056.046,9.015.046,9.015A.366.366,0,0,1,2955.168,197.562Z" transform="translate(-2955.062 -188.212)"/></g><g transform="translate(18.892 23.315)"><path class="c" d="M2961.239,194.248c-.326-.2-3.3-6.156-3.3-6.156.655-.329,3.624,5.626,3.624,5.626C2961.351,194.237,2961.295,194.248,2961.239,194.248Z" transform="translate(-2957.943 -188.079)"/></g></g><g transform="translate(2927.934 314.243)"><path class="c" d="M3285.214,233.348H2926.53c0-.73,358.684-.73,358.684-.73C3285.58,233.183,3285.416,233.348,3285.214,233.348Z" transform="translate(-2926.53 -232.618)"/></g><path class="c" d="M3114.969,165.8c.276-.106.495-.022.792.99.334,1.128.078,1.392-.181,1.437s-.593-.257-.751-1.079S3114.608,165.942,3114.969,165.8Z" transform="translate(115.284 41.169)"/><path class="c" d="M3120.075,164.578c.28-.1.5-.01.768,1.011.3,1.136.038,1.393-.222,1.43s-.585-.271-.722-1.1S3119.711,164.707,3120.075,164.578Z" transform="translate(118.367 40.43)"/><g transform="translate(3277.279 295.099)"><path class="c" d="M3144.53,240.468c-.122-5.406-.363-19.632-.366-19.776.734.133.976,14.383.732,19.431A.366.366,0,0,1,3144.53,240.468Z" transform="translate(-3144.164 -220.692)"/></g><g transform="translate(3078.722 226.557)"><path class="c" d="M3053.779,235.81a24.44,24.44,0,0,1-17.869-7.164c-5.84-5.958-8.716-14.18-10.761-21.439a198.64,198.64,0,0,1-4.681-22.392c.092-.71,2.668-5.9,11.7-6.711,8.123-.727,10.842,2.336,10.952,2.466.069.122,7.822,23.813,7.822,23.813.613,1.9,1.193,3.7,2.92,4.684a4.693,4.693,0,0,0,5.366-.578,12.606,12.606,0,0,0,3.184-5.08c.4-.957.785-1.925,1.176-2.893a87.641,87.641,0,0,1,4.192-9.361c2.336-4.286,5.217-7.209,8.562-8.687a18.259,18.259,0,0,1,6.748-1.441c-2.284.864-4.28,1.149-6.454,2.109-3.194,1.411-5.957,4.226-8.215,8.368a87.507,87.507,0,0,0-4.155,9.286c-.391.97-.778,1.939-1.178,2.9a13.411,13.411,0,0,1-3.392,5.36,5.417,5.417,0,0,1-6.2.652c-1.974-1.13-2.623-3.146-3.252-5.095l-2.694-8.244L3042.517,181c-.369-.368-3.117-2.82-10.288-2.165-7.922.711-10.667,5.011-11.063,5.711a199.417,199.417,0,0,0,4.686,22.465c2.021,7.169,4.857,15.285,10.58,21.126,8.907,9.087,22.556,8.217,32.126,3.323A25.692,25.692,0,0,1,3053.779,235.81Z" transform="translate(-3020.468 -177.992)"/></g><g transform="translate(3157.544 230.879)"><path class="c" d="M3084.993,264.778c-.382-.517-2.211-19.229-1.3-32.955.912-13.673.01-32.2,0-32.383-.139-2.827-1.588-6.251-3.13-9.532a18.191,18.191,0,0,0-4.3-6.064,13.864,13.864,0,0,0-6.7-3.156,9.8,9.8,0,0,1,7.177,2.608,18.815,18.815,0,0,1,4.476,6.3c1.576,3.348,3.052,6.857,3.2,9.806.01.186.915,18.752,0,32.468-.91,13.668.915,32.319.933,32.507C3085.016,264.778,3085,264.778,3084.993,264.778Z" transform="translate(-3069.572 -180.684)"/></g><g transform="translate(3109.378 251.982)"><path class="c" d="M3042.621,226.253c-.992,0-2.007-.042-3.055-.128,29.3,1.746,36.285-31.955,36.352-32.293C3076.569,194.306,3069.949,226.253,3042.621,226.253Z" transform="translate(-3039.566 -193.831)"/></g><g transform="translate(3165.208 234.996)"><path class="c" d="M3086.833,238.065a11.706,11.706,0,0,1-6.109-1.949c.69-.408,6.933,3.992,11.915-1.509,6.821-7.54-6.384-36.907-18.291-51.358,12.913,14.517,26.009,43.917,18.834,51.848A8.32,8.32,0,0,1,3086.833,238.065Z" transform="translate(-3074.347 -183.249)"/></g><g transform="translate(3128.125 196.98)"><path class="c" d="M3059.743,186.434a6.471,6.471,0,0,1-4.886-2.438,8.49,8.49,0,0,1-1.2-6.042c-.58-.552-2.427-2.411-2.411-3.637.015-1.352,2.8-1.966,4.022-2.169l.88-6.527c.091-.284,1.866-5.357,4.892-6.055.451.456.822,11.323,6.857,12.365-6.046-.3-6.976-9.286-7.117-11.514-2.387.987-3.909,5.328-3.925,5.374l-.9,6.723c-2.076.576-3.973,1.241-3.979,1.812-.011.788,1.418,2.4,2.321,3.23.1.376-.552,3.719,1.146,6.01a5.774,5.774,0,0,0,4.331,2.14C3060.087,186.294,3059.929,186.434,3059.743,186.434Z" transform="translate(-3051.245 -159.566)"/></g><g transform="translate(3132.089 192.922)"><path class="c" d="M3072.416,196.054a32.241,32.241,0,0,1-7.989-1.12,10.627,10.627,0,0,1-4.413-2.1,5.411,5.411,0,0,1-2.013-4.49c.241-2.607,2.66-4.495,4.657-5.32.358-.146.772-.268,1.209-.4,1.687-.5,2.887-.947,2.939-2.212.653,1.913-1.225,2.469-2.731,2.912a11.528,11.528,0,0,0-1.138.376c-1.809.746-4,2.429-4.21,4.71a4.759,4.759,0,0,0,1.766,3.87,9.961,9.961,0,0,0,4.12,1.944c4.172,1.1,10.135,1.929,14.831-.315a6.942,6.942,0,0,0,2.989-2.458c1.716-2.729-.411-5.119-2.453-6.9-.8-.663-1.668-1.382-1.573-2.287a70.948,70.948,0,0,1,2.722-11.172c.573-3.6.013-6.236-1.558-8.2a10.633,10.633,0,0,0-6.74-3.469,15.119,15.119,0,0,0-3.664-1.008c-9.245-1.575-13.051-.371-14.546,4.6-.612,2.035.507,5.732.517,5.767-.747.055-1.893-3.734-1.217-5.976,1.843-6.124,7.247-6.5,15.368-5.113a14.925,14.925,0,0,1,3.663,1,11.141,11.141,0,0,1,7.187,3.732c1.706,2.127,2.317,4.957,1.823,8.413-2.074,6.88-2.669,10.005-2.827,11.5-.054.512.636,1.082,1.092,1.461,2.319,2.011,4.859,4.8,2.826,8.034a7.65,7.65,0,0,1-3.292,2.729A17.062,17.062,0,0,1,3072.416,196.054Z" transform="translate(-3053.714 -157.038)"/></g><g transform="translate(3056.85 210.703)"><path class="c" d="M3006.845,183.856c-.257-.621,14.863-15.741,14.863-15.741.515.515-14.6,15.635-14.6,15.635A.363.363,0,0,1,3006.845,183.856Z" transform="translate(-3006.842 -168.115)"/></g><g transform="translate(3047.209 221.185)"><path class="c" d="M3006.209,179.9c-.257-.106-5.373-5.222-5.373-5.222.515-.517,5.633,4.6,5.633,4.6C3006.4,179.87,3006.3,179.9,3006.209,179.9Z" transform="translate(-3000.836 -174.645)"/></g><g transform="translate(3029.436 220.649)"><path class="c" d="M2989.768,189.233c-.259-.621,14.043-14.922,14.043-14.922.517.515-13.785,14.816-13.785,14.816A.36.36,0,0,1,2989.768,189.233Z" transform="translate(-2989.764 -174.311)"/></g><g transform="translate(3013.865 224.625)"><path class="c" d="M2991.405,188c-.258-.108-11.342-11.19-11.342-11.19.517-.515,11.6,10.567,11.6,10.567C2991.593,187.96,2991.5,188,2991.405,188Z" transform="translate(-2980.063 -176.788)"/></g><g transform="translate(3042.494 215.732)"><path class="c" d="M3001.042,177.536a3.144,3.144,0,1,1,3.143-3.143A3.147,3.147,0,0,1,3001.042,177.536Zm0-5.557a2.413,2.413,0,1,0,2.411,2.414A2.415,2.415,0,0,0,3001.042,171.978Z" transform="translate(-2997.899 -171.248)"/></g><g transform="translate(3051.707 225.017)"><path class="c" d="M3006.783,183.315a3.141,3.141,0,1,1,3.143-3.14A3.146,3.146,0,0,1,3006.783,183.315Zm0-5.554a2.413,2.413,0,1,0,2.411,2.414A2.416,2.416,0,0,0,3006.783,177.761Z" transform="translate(-3003.638 -177.032)"/></g><g transform="translate(3024.136 234.312)"><path class="c" d="M2989.606,189.106a3.141,3.141,0,1,1,3.141-3.138A3.144,3.144,0,0,1,2989.606,189.106Zm0-5.552a2.412,2.412,0,1,0,2.41,2.414A2.416,2.416,0,0,0,2989.606,183.553Z" transform="translate(-2986.462 -182.823)"/></g><g transform="translate(3008.994 219.041)"><path class="c" d="M2980.172,179.595a3.143,3.143,0,1,1,3.145-3.145A3.146,3.146,0,0,1,2980.172,179.595Zm0-5.557a2.413,2.413,0,1,0,2.411,2.413A2.415,2.415,0,0,0,2980.172,174.038Z" transform="translate(-2977.029 -173.309)"/></g><g transform="translate(3190.969 238.377)"><path class="c" d="M3140.317,234.27h-33.05c-.347-.246-4.891-13.495-4.891-13.495.692-.239,5.151,12.766,5.151,12.766H3139.8l-16.275-47.458h-32.278l5.68,16.562c-.69.239-6.537-16.808-6.537-16.808.345-.483,33.4-.483,33.4-.483.345.244,16.872,48.43,16.872,48.43C3140.546,234.212,3140.436,234.27,3140.317,234.27Z" transform="translate(-3090.395 -185.355)"/></g><g transform="translate(3193.089 236.386)"><path class="c" d="M3141.637,233.03h-2.8c0-.73,2.291-.73,2.291-.73l-16.274-47.454h-32.279l.378,1.1c-.69.239-1.235-1.345-1.235-1.345.346-.486,33.4-.486,33.4-.486.345.246,16.87,48.43,16.87,48.43C3141.867,232.972,3141.756,233.03,3141.637,233.03Z" transform="translate(-3091.716 -184.115)"/></g><g transform="translate(3226.781 195.483)"><path class="c" d="M3112.831,169.73c-.368-.538-.341-4.7,6.083-6.6,5.983-1.775,7.577-4.469,7.591-4.495.689.234,1.278,8.193,4.724,9.739-3.423-.735-4.406-6.363-4.676-8.613-.919,1-3.051,2.774-7.43,4.072-5.865,1.737-5.927,5.379-5.926,5.532C3112.832,169.73,3112.832,169.73,3112.831,169.73Z" transform="translate(-3112.705 -158.633)"/></g><g transform="translate(3219.441 188)"><path class="c" d="M3137.192,185.235c2.188-1.128,7.165-2.958,8.469-5.358a2.188,2.188,0,0,0,.122-2.01c-.1-.23-.217-.449-.337-.673a7.083,7.083,0,0,1-.422-.864,6.747,6.747,0,0,1,.1-4.04,14.667,14.667,0,0,0,.318-1.649,13.567,13.567,0,0,0-.892-6.533,11.106,11.106,0,0,0-8.026-6.87,13.871,13.871,0,0,0-3.811-.278c-1.517.257-1.716.263-1.889.075a8.856,8.856,0,0,0-8.825-1.893,8.385,8.385,0,0,0-4.6,3.549c-.308.526-.583,1.09-.849,1.634-.292.6-.592,1.22-.947,1.807a12.025,12.025,0,0,1-3.522,3.483c-.346.255-.7.518-1.061.8a4.952,4.952,0,0,0-1.374,1.95,11.836,11.836,0,0,0-.63,6.225c.836,5.88,5.147,9.912,10.542,9.912-5.591.933-10.362-3.43-11.267-9.808a12.546,12.546,0,0,1,.684-6.62,5.634,5.634,0,0,1,1.594-2.234c.366-.286.726-.555,1.079-.815a11.274,11.274,0,0,0,3.329-3.276c.339-.555.631-1.159.915-1.743.273-.56.553-1.136.876-1.687a9.127,9.127,0,0,1,5-3.872,9.626,9.626,0,0,1,9.491,1.989c.223-.013.739-.1.976-.141a14.5,14.5,0,0,1,4.44.226,11.828,11.828,0,0,1,8.549,7.313,14.29,14.29,0,0,1,.94,6.883,15.066,15.066,0,0,1-.33,1.734,6.118,6.118,0,0,0-.129,3.615,6.413,6.413,0,0,0,.382.777,7.85,7.85,0,0,1,.371.74,2.928,2.928,0,0,1-.154,2.641c-1.552,2.859-7.175,4.668-9.047,5A.315.315,0,0,1,3137.192,185.235Z" transform="translate(-3108.133 -153.971)"/></g><g transform="translate(3228.295 204.079)"><path class="c" d="M3113.668,165.76c-.181-.689.886-1.515,2.211-1.772-1.009.939-1.975,1.689-1.984,1.693A.366.366,0,0,1,3113.668,165.76Z" transform="translate(-3113.648 -163.988)"/></g><g transform="translate(3235.427 202.025)"><path class="c" d="M3118.1,164.368c-.156-.716,1.941-2.506,5.127-1.188a6.31,6.31,0,0,0-4.886,1.1A.35.35,0,0,1,3118.1,164.368Z" transform="translate(-3118.092 -162.708)"/></g><g transform="translate(3241.289 261.337)"><path class="c" d="M3123.04,214.92a1.269,1.269,0,0,1-.987-.374c-.755-.83-.125-2.511,1.863-5-1.356,2.865-1.651,4.145-1.322,4.509.237.263,1.173.217,3.029-.787a36.279,36.279,0,0,0,10.787-9.776c1.179-1.746,1.318-2.674,1.079-2.938-.345-.379-1.215-.185-2.661.594.965-1.35,2.409-1.954,3.2-1.084.6.66.257,1.952-1.014,3.835a37.031,37.031,0,0,1-11.045,10.012A6.808,6.808,0,0,1,3123.04,214.92Z" transform="translate(-3121.744 -199.659)"/></g><g transform="translate(3231.567 205.732)"><path class="c" d="M3118.049,173.579a2.6,2.6,0,0,1-2.1-.815,1.335,1.335,0,0,1-.117-1.414c.417-.931.731-4.886.819-6.331.7.591.4,5.411-.153,6.631a.624.624,0,0,0,.031.674,2.384,2.384,0,0,0,2.092.478C3118.5,173.559,3118.27,173.579,3118.049,173.579Z" transform="translate(-3115.687 -165.018)"/></g><g transform="translate(3194.604 232.608)"><path class="c" d="M3096.771,191.793a2.915,2.915,0,0,1-2.007-1A7.566,7.566,0,0,1,3093,187.6c-.8-2.772-.166-5.305,1.438-5.766,1.494-.422,3.252,1.133,4.124,3.621-1.42-1.843-2.848-3.223-3.92-2.918-1.172.336-1.6,2.562-.937,4.861a6.812,6.812,0,0,0,1.576,2.881,1.923,1.923,0,0,0,1.8.74C3097.118,191.766,3096.948,191.793,3096.771,191.793Z" transform="translate(-3092.659 -181.761)"/></g><g transform="translate(3204.735 232.608)"><path class="c" d="M3103.082,191.793a2.915,2.915,0,0,1-2.007-1,7.569,7.569,0,0,1-1.761-3.193c-.8-2.772-.165-5.305,1.438-5.766,1.494-.422,3.252,1.133,4.124,3.621-1.419-1.843-2.846-3.223-3.92-2.918-1.17.336-1.6,2.562-.937,4.861a6.8,6.8,0,0,0,1.576,2.881,1.924,1.924,0,0,0,1.8.74C3103.429,191.766,3103.259,191.793,3103.082,191.793Z" transform="translate(-3098.971 -181.761)"/></g><g transform="translate(3214.945 232.608)"><path class="c" d="M3109.442,191.793a2.91,2.91,0,0,1-2.008-1,8.211,8.211,0,0,1-1.967-6.833,2.594,2.594,0,0,1,1.644-2.125c1.5-.422,3.252,1.133,4.123,3.621-1.419-1.843-2.84-3.223-3.919-2.918-.538.152-.938.716-1.133,1.584a7.5,7.5,0,0,0,1.772,6.158,1.926,1.926,0,0,0,1.8.74C3109.786,191.766,3109.616,191.793,3109.442,191.793Z" transform="translate(-3105.331 -181.761)"/></g><g transform="translate(3086.465 319.621)"><path class="c" d="M3043.333,244.8c-.035,0-18.041-1.721-18.041-1.721-.114-.7,14.355-7.113,14.355-7.113.183-.031,5.16.446,5.16.446-.07.729-4.953.26-4.953.26l-13.1,5.809,16.5,1.578,7.19-4.19c.368.632-6.925,4.88-6.925,4.88A.348.348,0,0,1,3043.333,244.8Z" transform="translate(-3025.292 -235.968)"/></g><g transform="translate(3102.736 316.868)"><path class="c" d="M3047.105,243.117c-.182-.05-11.677-6.747-11.677-6.747.149-.681,15.182-2.117,15.182-2.117.183.032,14.651,6.445,14.651,6.445-.114.7-18.119,2.419-18.119,2.419Zm-10.329-6.808,10.411,6.068,16.5-1.576-13.1-5.811Z" transform="translate(-3035.428 -234.253)"/></g><g transform="translate(3199.484 246.289)"><path class="c" d="M3116.719,191.013H3095.7c0-.729,21.019-.729,21.019-.729C3117.085,190.849,3116.919,191.013,3116.719,191.013Z" transform="translate(-3095.7 -190.284)"/></g><g transform="translate(3201.378 251.899)"><path class="c" d="M3117.9,194.509H3096.88c0-.73,21.016-.73,21.016-.73C3118.263,194.346,3118.1,194.509,3117.9,194.509Z" transform="translate(-3096.88 -193.779)"/></g><g transform="translate(3208.292 262.374)"><path class="c" d="M3118.916,201.034h-17.729c0-.729,17.729-.729,17.729-.729C3119.282,200.87,3119.12,201.034,3118.916,201.034Z" transform="translate(-3101.187 -200.305)"/></g><g transform="translate(3207.825 257.398)"><path class="c" d="M3117.405,197.935H3100.9c0-.73,16.509-.73,16.509-.73C3117.771,197.77,3117.608,197.935,3117.405,197.935Z" transform="translate(-3100.896 -197.205)"/></g><g transform="translate(3209.257 267.869)"><path class="c" d="M3120.4,204.46h-18.616c0-.732,18.616-.732,18.616-.732C3120.771,204.295,3120.606,204.46,3120.4,204.46Z" transform="translate(-3101.788 -203.728)"/></g><g transform="translate(3208.708 273.37)"><path class="c" d="M3122.465,207.884h-21.019c0-.729,21.019-.729,21.019-.729C3122.831,207.72,3122.665,207.884,3122.465,207.884Z" transform="translate(-3101.446 -207.155)"/></g><g transform="translate(3171.768 204.552)"><path class="c" d="M3095.979,182.191H3078.8c-.366-.364-.366-17.543-.366-17.543.366-.364,17.546-.364,17.546-.364.366.364.366,17.543.366,17.543A.367.367,0,0,1,3095.979,182.191Zm-16.814-.729h16.448v-16.45h-16.448Z" transform="translate(-3078.433 -164.283)"/></g><g transform="translate(3099.582 179.415)"><path class="c" d="M3051.011,166.534h-17.182c-.366-.364-.366-17.546-.366-17.546.366-.364,17.548-.364,17.548-.364.366.364.366,17.546.366,17.546A.368.368,0,0,1,3051.011,166.534Zm-16.816-.73h16.448v-16.45H3034.2Z" transform="translate(-3033.463 -148.623)"/></g><g transform="translate(3106.972 180.832)"><path class="c" d="M3039.727,152.821a1.657,1.657,0,1,1,1.659-1.657A1.659,1.659,0,0,1,3039.727,152.821Zm0-2.584a.928.928,0,1,0,.926.928A.928.928,0,0,0,3039.727,150.236Z" transform="translate(-3038.067 -149.506)"/></g><g transform="translate(3111.958 186.986)"><path class="c" d="M3043.11,154.069h-1.937c0-.729,1.937-.729,1.937-.729C3043.476,153.905,3043.313,154.069,3043.11,154.069Z" transform="translate(-3041.173 -153.34)"/></g><g transform="translate(3103.365 186.986)"><path class="c" d="M3040.347,154.069h-4.526c0-.729,4.526-.729,4.526-.729C3040.713,153.905,3040.549,154.069,3040.347,154.069Z" transform="translate(-3035.82 -153.34)"/></g><g transform="translate(3103.365 190.553)"><path class="c" d="M3046.35,156.292h-10.53c0-.73,10.53-.73,10.53-.73C3046.716,156.129,3046.552,156.292,3046.35,156.292Z" transform="translate(-3035.82 -155.562)"/></g><g transform="translate(3179.156 205.966)"><path class="c" d="M3084.7,168.479a1.657,1.657,0,1,1,1.658-1.657A1.66,1.66,0,0,1,3084.7,168.479Zm0-2.583a.927.927,0,1,0,.926.926A.927.927,0,0,0,3084.7,165.9Z" transform="translate(-3083.036 -165.164)"/></g><g transform="translate(3175.551 212.121)"><path class="c" d="M3091.321,169.727H3080.79c0-.729,10.531-.729,10.531-.729C3091.686,169.563,3091.523,169.727,3091.321,169.727Z" transform="translate(-3080.79 -168.998)"/></g><g transform="translate(3175.551 215.689)"><path class="c" d="M3085.823,171.95h-5.032c0-.729,5.032-.729,5.032-.729C3086.188,171.786,3086.025,171.95,3085.823,171.95Z" transform="translate(-3080.79 -171.221)"/></g><g transform="translate(3041.798 263.875)"><path class="c" d="M3005.616,201.969h-8.151c0-.729,8.151-.729,8.151-.729C3005.982,201.805,3005.818,201.969,3005.616,201.969Z" transform="translate(-2997.465 -201.24)"/></g><g transform="translate(3007.235 263.875)"><path class="c" d="M3006.656,201.969h-30.723c0-.729,30.723-.729,30.723-.729C3007.023,201.805,3006.857,201.969,3006.656,201.969Z" transform="translate(-2975.933 -201.24)"/></g><g transform="translate(3007.235 270.383)"><path class="c" d="M3008.891,206.024h-32.958c0-.73,32.958-.73,32.958-.73C3009.257,205.861,3009.092,206.024,3008.891,206.024Z" transform="translate(-2975.933 -205.294)"/></g><g transform="translate(3030.438 276.89)"><path class="c" d="M3009.9,210.078h-19.511c0-.73,19.511-.73,19.511-.73C3010.266,209.913,3010.1,210.078,3009.9,210.078Z" transform="translate(-2990.388 -209.348)"/></g><g transform="translate(3007.235 276.89)"><path class="c" d="M2984.633,210.078h-8.7c0-.73,8.7-.73,8.7-.73C2985,209.913,2984.835,210.078,2984.633,210.078Z" transform="translate(-2975.933 -209.348)"/></g><g transform="translate(3071.515 263.875)"><path class="c" d="M3026.945,201.969h-10.967c0-.729,10.967-.729,10.967-.729C3027.311,201.805,3027.146,201.969,3026.945,201.969Z" transform="translate(-3015.978 -201.24)"/></g><g transform="translate(3071.515 270.383)"><path class="c" d="M3034.194,206.024h-18.216c0-.73,18.216-.73,18.216-.73C3034.56,205.861,3034.395,206.024,3034.194,206.024Z" transform="translate(-3015.978 -205.294)"/></g><g transform="translate(3071.515 276.89)"><path class="c" d="M3036.6,210.078h-20.622c0-.73,20.622-.73,20.622-.73C3036.966,209.913,3036.8,210.078,3036.6,210.078Z" transform="translate(-3015.978 -209.348)"/></g><g transform="translate(3172.732 288.732)"><path class="c" d="M3079.034,223.911c4.158-.729,7.443-3.326,8.179-7.186C3087.129,221.08,3083.553,223.911,3079.034,223.911Z" transform="translate(-3079.034 -216.725)"/></g><g transform="translate(3181.14 225.744)"><path class="c" d="M3084.638,214.5c-.366-.364-.366-37.017-.366-37.017.732,0,.732,36.653.732,36.653A.366.366,0,0,1,3084.638,214.5Z" transform="translate(-3084.272 -177.485)"/></g><g transform="translate(3065.232 165.13)"><path class="c" d="M3128.338,175.9c-.366-.364-.366-27.035-.366-27.035a8.241,8.241,0,0,0-8.037-8.41H3012.064c0-.73,107.871-.73,107.871-.73a8.97,8.97,0,0,1,8.769,9.14v26.67A.367.367,0,0,1,3128.338,175.9Z" transform="translate(-3012.064 -139.724)"/></g><g transform="translate(2988.054 165.13)"><path class="c" d="M2964.35,216.96c-.366-.364-.366-68.1-.366-68.1a8.97,8.97,0,0,1,8.77-9.14h6.772c0,.73-6.772.73-6.772.73a8.24,8.24,0,0,0-8.038,8.41V216.6A.367.367,0,0,1,2964.35,216.96Z" transform="translate(-2963.984 -139.724)"/></g><g transform="translate(2988.054 272.14)"><path class="c" d="M3098.59,230.167H2972.754a8.968,8.968,0,0,1-8.77-9.138V206.389c.732,0,.732,14.639.732,14.639a8.24,8.24,0,0,0,8.038,8.41H3098.59C3098.956,230,3098.79,230.167,3098.59,230.167Z" transform="translate(-2963.984 -206.389)"/></g><g transform="translate(3149.927 121.437)"><path class="c" d="M3136.112,184.152h-10.2c0-.73,9.837-.73,9.837-.73V113.234h-70.186v42.875c-.732,0-.732-43.241-.732-43.241.366-.364,71.285-.364,71.285-.364.366.364.366,71.282.366,71.282A.366.366,0,0,1,3136.112,184.152Z" transform="translate(-3064.827 -112.504)"/><g transform="translate(32.104 70.918)"><path class="c" d="M3113.8,157.414h-28.977c0-.73,28.977-.73,28.977-.73C3114.172,157.251,3114.008,157.414,3113.8,157.414Z" transform="translate(-3084.827 -156.684)"/></g><g transform="translate(6.633 14.858)"><path class="c" d="M3082.59,150.872c-.366-.364-.366-28.381-.366-28.381h-12.533v28.017c-.732,0-.732-28.381-.732-28.381.366-.366,13.631-.366,13.631-.366.366.366.366,28.747.366,28.747A.366.366,0,0,1,3082.59,150.872Z" transform="translate(-3068.959 -121.76)"/></g><g transform="translate(28.826 30.418)"><path class="c" d="M3096.418,157.826h-10.356c0-.729,9.99-.729,9.99-.729V132.186h-12.534v15.686c-.733,0-.733-16.052-.733-16.052.366-.366,13.633-.366,13.633-.366.366.366.366,26.007.366,26.007A.367.367,0,0,1,3096.418,157.826Z" transform="translate(-3082.785 -131.454)"/></g><g transform="translate(51.021 39.732)"><path class="c" d="M3110.244,154.314h-13.266c-.366-.364-.366-16.692-.366-16.692.366-.366,13.631-.366,13.631-.366.366.366.366,16.694.366,16.694A.368.368,0,0,1,3110.244,154.314Zm-12.9-.729h12.533v-15.6h-12.533Z" transform="translate(-3096.612 -137.256)"/></g></g><g transform="translate(2975.786 198.083)"><path class="c" d="M2956.425,161.845c-.289-.592.2-1.358,1.087-1.549a2.275,2.275,0,0,1,1.775.422,5.973,5.973,0,0,1-1.616.292,1.655,1.655,0,0,0-.936.665A.363.363,0,0,1,2956.425,161.845Z" transform="translate(-2956.341 -160.253)"/></g><g transform="translate(2979.849 241.822)"><g transform="translate(10.137 4.477)"><path class="c" d="M2965.192,211.311c-.3-.57,13.394-20.529,13.394-20.529a2.234,2.234,0,0,1,2.081-.368,2.633,2.633,0,0,1,.942.668,2.146,2.146,0,0,1,.363,2.671,2.723,2.723,0,0,1,1.107,3.156c-.929,3.172-12.559,13.545-17.829,14.4A.234.234,0,0,1,2965.192,211.311Zm13.946-20.044-13.106,19.1c5.536-1.729,15.612-11.156,16.346-13.662a2.047,2.047,0,0,0-1.092-2.5c.426-1.215.4-1.981-.208-2.623a1.932,1.932,0,0,0-.681-.486A1.466,1.466,0,0,0,2979.138,191.267Z" transform="translate(-2965.187 -190.291)"/></g><path class="c" d="M2958.872,201.305c1.085-2.408,4.31-8.519,5.028-10.159.12-.276.223-.578.329-.889.465-1.36,1.061-3.034,3.245-2.716a1.618,1.618,0,0,1,1.153.812c.615,1.037.548,2.95-.18,4.992-1.013,2.84-.76,3.586.061,3.979,1.154.552,4.037-1.661,4.986-2.389a52.341,52.341,0,0,0,3.986-3.729c.365-.366.671-.673.879-.873,1.122-1.077,2.812-2.706,4.665-.989a2.257,2.257,0,0,1,.828,1.669c0,1.193-1.13,2.23-1.955,2.986a67.667,67.667,0,0,1-6.85,5.734c-.159.055-16.142,1.571-16.142,1.571Zm8.062-13.076c-1.149,0-1.541.881-2.013,2.263-.112.331-.223.653-.349.945a93.673,93.673,0,0,1-4.947,9.065l15.108-1.433a66.172,66.172,0,0,0,6.2-5.169c1.2-1.1,2.186-2.013,2.188-2.889a1.539,1.539,0,0,0-.593-1.128c-1.138-1.055-2.125-.493-3.662.978-.207.2-.508.5-.868.862a53.036,53.036,0,0,1-4.06,3.8c-2.077,1.581-4.384,3.109-5.743,2.464-1.559-.742-1.34-2.352-.436-4.883.635-1.788.732-3.544.239-4.373a.879.879,0,0,0-.636-.462A3.011,3.011,0,0,0,2966.934,188.229Z" transform="translate(-2958.872 -187.502)"/><g transform="translate(18.441 7.824)"><path class="c" d="M2970.379,200.307c-.229-.649,1.673-2.185,3.793-3.923a35.244,35.244,0,0,0,3.85-4.008c.8.082.873.3.78.48-.937.848-2.661,2.862-4.166,4.095-2.125,1.742-4.027,3.276-4.027,3.276A.36.36,0,0,1,2970.379,200.307Z" transform="translate(-2970.36 -192.376)"/></g></g><g transform="translate(3231.056 226.575)"><path class="c" d="M3130.237,195.063a6.024,6.024,0,0,1-6.159-5.227c-1.087,1.082-3.656,3.374-5.874,3.374a2.786,2.786,0,0,1-2.249-1.13c-2.7-3.507,4.792-13.484,5.112-13.909-1.505,3.2-6.494,10.919-4.534,13.461a1.99,1.99,0,0,0,1.579.844c2.6,0,5.914-3.639,5.948-3.674.647.443.987,5.53,6.177,5.53,4.323,0,6.077-11.787,6.387-16.33C3137.306,178.748,3136.123,195.063,3130.237,195.063Z" transform="translate(-3115.369 -178.003)"/></g><g transform="translate(3106.308 103.968)"><path class="c" d="M3076.873,134.54a37.906,37.906,0,0,1-1.324-4.365,8.78,8.78,0,0,1,1.688,3.947C3076.906,134.54,3076.889,134.54,3076.873,134.54Zm-2.462-8.048c-.894-1.483-1.532-2.73-2.227-3.928a7.075,7.075,0,0,1,2.563,3.416C3074.512,126.48,3074.46,126.492,3074.411,126.492Zm-4.225-7.264c-1.123-1.268-2.018-2.347-2.95-3.356a7.043,7.043,0,0,1,3.244,2.775C3070.34,119.2,3070.261,119.228,3070.186,119.228Zm-5.7-6.169c-1.288-1-2.39-1.86-3.522-2.653a7.118,7.118,0,0,1,3.761,2.013C3064.691,113.018,3064.588,113.059,3064.487,113.059Zm-6.871-4.822c-1.356-.708-2.607-1.339-3.9-1.92a7.353,7.353,0,0,1,4.082,1.238C3057.867,108.173,3057.744,108.237,3057.617,108.237Zm-7.657-3.442c-1.4-.469-2.736-.88-4.11-1.244a7.537,7.537,0,0,1,4.232.533C3050.25,104.7,3050.109,104.8,3049.96,104.8Zm-8.112-2.172c-1.387-.263-2.774-.49-4.194-.676a7.777,7.777,0,0,1,4.265-.05C3042.171,102.505,3042.02,102.624,3041.848,102.624Z" transform="translate(-3037.653 -101.621)"/></g><g transform="translate(3045.242 102.975)"><path class="c" d="M2999.719,135.052c-.334-.531.12-2.051,1.192-4.454a32.005,32.005,0,0,1-.844,4.194A.362.362,0,0,1,2999.719,135.052Zm3.4-7.718a11.3,11.3,0,0,1,1.859-4.18,10.136,10.136,0,0,1-1.54,3.989A.359.359,0,0,1,3003.122,127.335Zm4.605-7.045a10.269,10.269,0,0,1,2.44-3.832,10.258,10.258,0,0,1-2.151,3.692A.361.361,0,0,1,3007.727,120.289Zm5.679-6.2a9.351,9.351,0,0,1,3-3.36,10.313,10.313,0,0,1-2.753,3.262A.358.358,0,0,1,3013.406,114.089Zm6.673-5.109a8.6,8.6,0,0,1,3.495-2.756,10.435,10.435,0,0,1-3.3,2.7A.362.362,0,0,1,3020.079,108.979Zm7.493-3.787a8.081,8.081,0,0,1,3.871-2.076,10.407,10.407,0,0,1-3.737,2.053A.455.455,0,0,1,3027.572,105.193Zm8.055-2.364a7.739,7.739,0,0,1,4.107-1.384,10.232,10.232,0,0,1-4.035,1.379C3035.675,102.825,3035.651,102.828,3035.627,102.828Zm8.344-1.006a2.184,2.184,0,0,1,1.9-.819,2.184,2.184,0,0,1-1.875.819Z" transform="translate(-2999.611 -101.003)"/></g><g transform="translate(3226.905 153.834)"><path class="c" d="M3160.925,202.738a15.9,15.9,0,0,1,2.013-4.066,7.633,7.633,0,0,1-1.718,3.915A.358.358,0,0,1,3160.925,202.738Zm4.408-7.172a18.2,18.2,0,0,1,1.492-4.3,7.486,7.486,0,0,1-1.17,4.108A.364.364,0,0,1,3165.333,195.566Zm3.377-7.71a21.83,21.83,0,0,1,.887-4.477,7.356,7.356,0,0,1-.542,4.234A.365.365,0,0,1,3168.71,187.856Zm2.136-8.132a28.8,28.8,0,0,1,.144-4.567,7.193,7.193,0,0,1,.217,4.262A.367.367,0,0,1,3170.846,179.724Zm.6-8.376a44.539,44.539,0,0,1-.716-4.506,7.05,7.05,0,0,1,1.08,4.13A4.417,4.417,0,0,1,3171.445,171.348Zm-1.162-8.323c-.7-1.61-1.114-2.947-1.6-4.247a7.081,7.081,0,0,1,1.955,3.793C3170.344,163.024,3170.313,163.025,3170.283,163.025Zm-2.943-7.862c-.937-1.424-1.626-2.644-2.374-3.833a7.283,7.283,0,0,1,2.7,3.305C3167.451,155.153,3167.395,155.163,3167.34,155.163Zm-4.469-7.114c-1.138-1.244-2.058-2.3-3.018-3.284a6.967,6.967,0,0,1,3.307,2.694C3163.029,148.025,3162.95,148.049,3162.872,148.049Zm-5.87-6c-1.3-.942-2.44-1.753-3.621-2.49a6.985,6.985,0,0,1,3.851,1.84C3157.213,142,3157.107,142.05,3157,142.05Zm-7.117-4.453c-1.392-.623-2.689-1.157-4.01-1.623a7.164,7.164,0,0,1,4.165.928C3150.151,137.522,3150.02,137.6,3149.884,137.6Zm-37.1-2.249c-.04-.735,1.479-1.173,4.044-1.645a26.9,26.9,0,0,1-3.943,1.632A.317.317,0,0,1,3112.783,135.348Zm29.181-.552c-1.393-.334-2.769-.61-4.181-.831a7.429,7.429,0,0,1,4.27.112C3142.279,134.687,3142.128,134.8,3141.964,134.8Zm-20.909-1a7.909,7.909,0,0,1,4.17-1.109,9.7,9.7,0,0,1-4.125,1.106A.219.219,0,0,1,3121.055,133.8Zm12.6-.315c-1.4-.106-2.809-.165-4.207-.173a7.575,7.575,0,0,1,4.236-.555C3134.007,133.337,3133.848,133.482,3133.659,133.482Z" transform="translate(-3112.782 -132.687)"/></g><g transform="translate(3092.704 97.744)"><path class="c" d="M3035.156,109.7a5.976,5.976,0,1,1,5.976-5.975A5.984,5.984,0,0,1,3035.156,109.7Zm0-11.219a5.243,5.243,0,1,0,5.244,5.244A5.249,5.249,0,0,0,3035.156,98.478Z" transform="translate(-3029.178 -97.744)"/></g></g></svg>