<svg xmlns="http://www.w3.org/2000/svg" width="31.779" height="31.722" viewBox="0 0 31.779 31.722">
  <path id="coin-2" d="M14.654,8.775a19.745,19.745,0,0,0,6.84,1.1,19.745,19.745,0,0,0,6.84-1.1c3-1.15,3.445-2.755,3.445-3.61s-.448-2.461-3.445-3.61a19.744,19.744,0,0,0-6.84-1.1,19.745,19.745,0,0,0-6.84,1.1c-3,1.15-3.445,2.755-3.445,3.61s.448,2.461,3.445,3.61Zm.888-4.907a17.5,17.5,0,0,1,5.953-.934,17.5,17.5,0,0,1,5.953.934c1.4.537,1.854,1.105,1.854,1.3s-.453.759-1.854,1.3a17.5,17.5,0,0,1-5.953.934,17.5,17.5,0,0,1-5.953-.934c-1.4-.537-1.854-1.105-1.854-1.3s.453-.759,1.854-1.3ZM31.615,28.761a1.239,1.239,0,0,1-.626,1.637,24.006,24.006,0,0,1-9.541,1.781l-.4,0a1.239,1.239,0,1,1,.032-2.478,22.1,22.1,0,0,0,8.9-1.563,1.239,1.239,0,0,1,1.637.626Zm0-5.514a1.239,1.239,0,0,1-.626,1.637,21.965,21.965,0,0,1-6.777,1.651c-.04,0-.079.006-.118.006a1.239,1.239,0,0,1-.115-2.473,19.484,19.484,0,0,0,6-1.447,1.239,1.239,0,0,1,1.637.626Zm0-5.576a1.239,1.239,0,0,1-.626,1.637,21.654,21.654,0,0,1-6.381,1.611,1.239,1.239,0,1,1-.268-2.464,19.173,19.173,0,0,0,5.638-1.41,1.239,1.239,0,0,1,1.637.626Zm-.626-4A23.421,23.421,0,0,1,22.6,15.427h-.049a1.239,1.239,0,0,1-.047-2.477,20.913,20.913,0,0,0,7.474-1.545,1.239,1.239,0,0,1,1.01,2.263ZM10.533,11.113A10.533,10.533,0,1,0,21.065,21.645,10.545,10.545,0,0,0,10.533,11.113Zm0,18.587a8.054,8.054,0,1,1,8.054-8.054A8.064,8.064,0,0,1,10.533,29.7ZM14,23.5a3.1,3.1,0,0,1-2.045,2.906V26.6a1.239,1.239,0,0,1-2.478,0V26.44a9.661,9.661,0,0,1-1.635-.484,1.239,1.239,0,1,1,.915-2.3,6.576,6.576,0,0,0,2.114.47.644.644,0,0,0,.651-.62c0-.336-.4-.62-.867-.62a3.262,3.262,0,0,1-3.532-3.1A3.1,3.1,0,0,1,9.479,16.78v-.091a1.239,1.239,0,0,1,2.478,0v.228a9.942,9.942,0,0,1,1.069.352,1.239,1.239,0,1,1-.9,2.31,4.885,4.885,0,0,0-1.905-.411.62.62,0,0,0-.62.62c0,.353.453.62,1.053.62a3.48,3.48,0,0,1,2.317.856A3.008,3.008,0,0,1,14,23.5Z" transform="translate(0 -0.456)" fill="#8347eb"/>
</svg>
