<svg xmlns="http://www.w3.org/2000/svg" width="148" height="139.674" viewBox="0 0 148 139.674">
  <g id="Group_49399" data-name="Group 49399" transform="translate(-1633 -633.32)">
    <text id="Coming_Soon" data-name="Coming Soon" transform="translate(1707 766.994)" fill="#01002a" font-size="24" font-family="SofiaProSemiBold, Sofia Pro"><tspan x="-73.008" y="0">Coming Soon</tspan></text>
    <g id="Group_49433" data-name="Group 49433" transform="translate(14.435 30.597)">
      <g id="soon" transform="translate(1649.729 602.723)">
        <path id="Union_3" data-name="Union 3" d="M12.324,72.9A42.834,42.834,0,1,1,42.837,85.674C33.716,85.674,17.447,75.719,12.324,72.9Z" fill="rgba(158,85,250,0.1)"/>
      </g>
      <g id="wall-clock" transform="translate(1649.729 602.723)">
        <g id="Group_49404" data-name="Group 49404" transform="translate(41.314 9.034)">
          <g id="Group_49403" data-name="Group 49403">
            <path id="Path_53038" data-name="Path 53038" d="M250.023,89.5a1.523,1.523,0,0,0-1.523,1.523V96.91a1.523,1.523,0,1,0,3.045,0V91.023A1.523,1.523,0,0,0,250.023,89.5Z" transform="translate(-248.5 -89.5)" fill="#9e55fa"/>
          </g>
        </g>
        <g id="Group_49406" data-name="Group 49406" transform="translate(41.314 67.706)">
          <g id="Group_49405" data-name="Group 49405">
            <path id="Path_53039" data-name="Path 53039" d="M250.023,378.5a1.523,1.523,0,0,0-1.523,1.523v5.888a1.523,1.523,0,1,0,3.045,0v-5.888A1.523,1.523,0,0,0,250.023,378.5Z" transform="translate(-248.5 -378.5)" fill="#9e55fa"/>
          </g>
        </g>
        <g id="Group_49408" data-name="Group 49408" transform="translate(67.706 41.314)">
          <g id="Group_49407" data-name="Group 49407">
            <path id="Path_53040" data-name="Path 53040" d="M385.91,248.5h-5.888a1.523,1.523,0,1,0,0,3.045h5.888a1.523,1.523,0,1,0,0-3.045Z" transform="translate(-378.5 -248.5)" fill="#9e55fa"/>
          </g>
        </g>
        <g id="Group_49410" data-name="Group 49410" transform="translate(9.034 41.314)">
          <g id="Group_49409" data-name="Group 49409">
            <path id="Path_53041" data-name="Path 53041" d="M96.91,248.5H91.023a1.523,1.523,0,0,0,0,3.045H96.91a1.523,1.523,0,1,0,0-3.045Z" transform="translate(-89.5 -248.5)" fill="#9e55fa"/>
          </g>
        </g>
        <g id="Group_49412" data-name="Group 49412" transform="translate(25.174 13.359)">
          <g id="Group_49411" data-name="Group 49411">
            <path id="Path_53042" data-name="Path 53042" d="M173.769,114.9l-1.929-3.341a1.523,1.523,0,0,0-2.637,1.523l1.929,3.341a1.523,1.523,0,1,0,2.637-1.523Z" transform="translate(-168.999 -110.801)" fill="#9e55fa"/>
          </g>
        </g>
        <g id="Group_49414" data-name="Group 49414" transform="translate(55.525 65.928)">
          <g id="Group_49413" data-name="Group 49413">
            <path id="Path_53043" data-name="Path 53043" d="M323.269,373.845,321.34,370.5a1.523,1.523,0,0,0-2.637,1.523l1.929,3.341a1.523,1.523,0,0,0,2.637-1.523Z" transform="translate(-318.499 -369.743)" fill="#9e55fa"/>
          </g>
        </g>
        <g id="Group_49416" data-name="Group 49416" transform="translate(65.928 25.174)">
          <g id="Group_49415" data-name="Group 49415">
            <path id="Path_53044" data-name="Path 53044" d="M375.924,169.76a1.523,1.523,0,0,0-2.08-.557l-3.341,1.929a1.523,1.523,0,1,0,1.523,2.637l3.341-1.929A1.523,1.523,0,0,0,375.924,169.76Z" transform="translate(-369.742 -168.999)" fill="#9e55fa"/>
          </g>
        </g>
        <g id="Group_49418" data-name="Group 49418" transform="translate(13.359 55.525)">
          <g id="Group_49417" data-name="Group 49417">
            <path id="Path_53045" data-name="Path 53045" d="M116.982,319.26a1.523,1.523,0,0,0-2.08-.557l-3.341,1.929a1.523,1.523,0,1,0,1.523,2.637l3.341-1.929A1.523,1.523,0,0,0,116.982,319.26Z" transform="translate(-110.8 -318.499)" fill="#9e55fa"/>
          </g>
        </g>
        <g id="Group_49420" data-name="Group 49420" transform="translate(13.358 25.174)">
          <g id="Group_49419" data-name="Group 49419">
            <path id="Path_53046" data-name="Path 53046" d="M116.425,171.131l-3.341-1.929a1.523,1.523,0,0,0-1.523,2.637l3.341,1.929a1.523,1.523,0,1,0,1.523-2.637Z" transform="translate(-110.8 -168.998)" fill="#9e55fa"/>
          </g>
        </g>
        <g id="Group_49422" data-name="Group 49422" transform="translate(65.928 55.525)">
          <g id="Group_49421" data-name="Group 49421">
            <path id="Path_53047" data-name="Path 53047" d="M375.367,320.632l-3.341-1.929a1.523,1.523,0,0,0-1.523,2.637l3.341,1.929a1.523,1.523,0,1,0,1.523-2.637Z" transform="translate(-369.742 -318.499)" fill="#9e55fa"/>
          </g>
        </g>
        <g id="Group_49424" data-name="Group 49424" transform="translate(55.525 13.358)">
          <g id="Group_49423" data-name="Group 49423">
            <path id="Path_53048" data-name="Path 53048" d="M322.712,111a1.522,1.522,0,0,0-2.08.557L318.7,114.9a1.523,1.523,0,1,0,2.637,1.523l1.929-3.341A1.523,1.523,0,0,0,322.712,111Z" transform="translate(-318.499 -110.8)" fill="#9e55fa"/>
          </g>
        </g>
        <g id="Group_49426" data-name="Group 49426" transform="translate(25.174 65.928)">
          <g id="Group_49425" data-name="Group 49425">
            <path id="Path_53049" data-name="Path 53049" d="M173.212,369.947a1.522,1.522,0,0,0-2.08.557l-1.929,3.341a1.523,1.523,0,1,0,2.637,1.523l1.929-3.341A1.523,1.523,0,0,0,173.212,369.947Z" transform="translate(-168.999 -369.742)" fill="#9e55fa"/>
          </g>
        </g>
        <g id="Group_49428" data-name="Group 49428" transform="translate(37.254 28.169)">
          <g id="Group_49427" data-name="Group 49427">
            <path id="Path_53050" data-name="Path 53050" d="M254.427,196.9H239.453a5.6,5.6,0,0,0-3.848-3.848v-7.775a1.523,1.523,0,1,0-3.045,0v7.775a5.582,5.582,0,1,0,6.893,6.893h14.974a1.523,1.523,0,1,0,0-3.045Zm-20.344,4.06a2.538,2.538,0,1,1,2.538-2.538A2.54,2.54,0,0,1,234.083,200.956Z" transform="translate(-228.5 -183.75)" fill="#9e55fa"/>
          </g>
        </g>
        <g id="Group_49432" data-name="Group 49432" transform="translate(0 0)">
          <g id="Group_49431" data-name="Group 49431">
            <path id="Path_53052" data-name="Path 53052" d="M87.837,45a42.837,42.837,0,1,0,42.837,42.837A42.885,42.885,0,0,0,87.837,45Zm0,82.628a39.791,39.791,0,1,1,39.791-39.791A39.836,39.836,0,0,1,87.837,127.628Z" transform="translate(-45 -45)" fill="#9e55fa"/>
          </g>
        </g>
      </g>
    </g>
  </g>
</svg>
