<svg xmlns="http://www.w3.org/2000/svg" width="31.726" height="31.722" viewBox="0 0 31.726 31.722">
  <path id="growth-2" d="M25.163,8.77A1.239,1.239,0,0,1,26.4,7.531a5.33,5.33,0,0,1,5.308,4.846,1.239,1.239,0,0,1-1.124,1.345q-.056.005-.112.005A1.239,1.239,0,0,1,29.242,12.6,2.867,2.867,0,0,0,26.4,10.009,1.239,1.239,0,0,1,25.163,8.77Zm3.865,17.37a1.239,1.239,0,0,0-1.676.511,4.949,4.949,0,0,1-4.376,2.627H8.755a4.954,4.954,0,0,1-4.925-4.4L2.5,13.182a2.85,2.85,0,0,1,2.832-3.173,1.239,1.239,0,1,0,0-2.478A5.328,5.328,0,0,0,.034,13.462l1.333,11.7a7.431,7.431,0,0,0,7.387,6.593H22.976a7.423,7.423,0,0,0,6.564-3.94,1.239,1.239,0,0,0-.511-1.676ZM19.961,23.9l-1.884-1.541-.016-.013a4.327,4.327,0,0,0-5.59.177c-.028.025-2.162,2.328-2.162,2.328a1.239,1.239,0,0,0,1.819,1.683l2.037-2.2a1.854,1.854,0,0,1,2.351-.049L18.4,25.824l.016.013a4.346,4.346,0,0,0,5.914-.5l.014-.016,2.8-3.222a1.239,1.239,0,0,0-1.87-1.627l-2.8,3.213a1.862,1.862,0,0,1-2.521.213Zm7.975-8.251H24.663a1.239,1.239,0,1,0,0,2.478h3.273a1.314,1.314,0,0,1,1.312,1.312V22.71a1.239,1.239,0,0,0,2.478,0V19.437A3.8,3.8,0,0,0,27.936,15.647ZM10.108,18.869a1.239,1.239,0,0,0,1.239-1.239V7.035a4.523,4.523,0,0,1,9.046,0v.5H15.065a1.239,1.239,0,1,0,0,2.478h6.567A1.239,1.239,0,0,0,22.871,8.77V7.035a7,7,0,0,0-14,0V17.63A1.239,1.239,0,0,0,10.108,18.869Z" transform="translate(0 -0.034)" fill="#8347eb"/>
</svg>
