<svg xmlns="http://www.w3.org/2000/svg" width="20.187" height="28.103" viewBox="0 0 20.187 28.103">
  <g id="tablet" transform="translate(0 0)">
    <path id="Path_53080" data-name="Path 53080" d="M33.884,8.81H20.642a3.46,3.46,0,0,0-3.472,3.437V33.472a3.46,3.46,0,0,0,3.472,3.44H33.884a3.46,3.46,0,0,0,3.472-3.44V12.247A3.46,3.46,0,0,0,33.884,8.81ZM18.853,12.247a1.751,1.751,0,0,1,1.789-1.754H33.884a1.773,1.773,0,0,1,1.789,1.754V33.472a1.754,1.754,0,0,1-1.789,1.757H20.642a1.776,1.776,0,0,1-1.789-1.757Z" transform="translate(-17.17 -8.81)" fill="#9999a9"/>
    <path id="Path_53081" data-name="Path 53081" d="M34.523,19.99h7.919a.843.843,0,1,0,0-1.683H34.523a.843.843,0,0,0,0,1.683Z" transform="translate(-28.422 -15.26)" fill="#9999a9"/>
    <path id="Path_53082" data-name="Path 53082" d="M45.3,79.27a1.164,1.164,0,0,0-1.161,1.161,1.093,1.093,0,0,0,.346.818A1.157,1.157,0,1,0,45.3,79.27Z" transform="translate(-35.492 -56.678)" fill="#9999a9"/>
  </g>
</svg>
