<?xml version="1.0" encoding="UTF-8" standalone="no"?>
<!DOCTYPE svg PUBLIC "-//W3C//DTD SVG 1.1//EN"
 "http://www.w3.org/Graphics/SVG/1.1/DTD/svg11.dtd">
<!-- Generated by graphviz version 2.40.1 (20161225.0304)
 -->
<!-- Title: dependencies Pages: 1 -->
<svg width="923pt" height="211pt"
 viewBox="0.00 0.00 923.00 211.00" xmlns="http://www.w3.org/2000/svg" xmlns:xlink="http://www.w3.org/1999/xlink">
<g id="graph0" class="graph" transform="scale(1 1) rotate(0) translate(4 207)">
<title>dependencies</title>
<polygon fill="#ffffff" stroke="transparent" points="-4,4 -4,-207 919,-207 919,4 -4,4"/>
<text text-anchor="start" x="436.5091" y="-42.4" font-family="sans-serif" font-weight="bold" font-size="14.00" fill="#000000">Legend</text>
<polygon fill="#ffffb3" stroke="transparent" points="223.5,-10 223.5,-30 243.5,-30 243.5,-10 223.5,-10"/>
<text text-anchor="start" x="247.129" y="-15.4" font-family="sans-serif" font-size="14.00" fill="#000000"> &#160;Declarations</text>
<polygon fill="#8dd3c7" stroke="transparent" points="336.5,-10 336.5,-30 356.5,-30 356.5,-10 336.5,-10"/>
<text text-anchor="start" x="360.2251" y="-15.4" font-family="sans-serif" font-size="14.00" fill="#000000"> &#160;Module</text>
<polygon fill="#80b1d3" stroke="transparent" points="422.5,-10 422.5,-30 442.5,-30 442.5,-10 422.5,-10"/>
<text text-anchor="start" x="446.2812" y="-15.4" font-family="sans-serif" font-size="14.00" fill="#000000"> &#160;Bootstrap</text>
<polygon fill="#fdb462" stroke="transparent" points="519.5,-10 519.5,-30 539.5,-30 539.5,-10 519.5,-10"/>
<text text-anchor="start" x="543.1732" y="-15.4" font-family="sans-serif" font-size="14.00" fill="#000000"> &#160;Providers</text>
<polygon fill="#fb8072" stroke="transparent" points="615.5,-10 615.5,-30 635.5,-30 635.5,-10 615.5,-10"/>
<text text-anchor="start" x="639.2258" y="-15.4" font-family="sans-serif" font-size="14.00" fill="#000000"> &#160;Exports</text>
<g id="clust1" class="cluster">
<title>cluster_AdminSuggestionModule</title>
<polygon fill="none" stroke="#000000" stroke-dasharray="1,5" points="8,-70 8,-195 907,-195 907,-70 8,-70"/>
</g>
<g id="clust2" class="cluster">
<title>cluster_AdminSuggestionModule_declarations</title>
<polygon fill="none" stroke="#000000" points="479,-78 479,-130 899,-130 899,-78 479,-78"/>
</g>
<g id="clust5" class="cluster">
<title>cluster_AdminSuggestionModule_imports</title>
<polygon fill="none" stroke="#000000" points="16,-78 16,-130 471,-130 471,-78 16,-78"/>
</g>
<!-- AdminSuggestionComponent -->
<g id="node1" class="node">
<title>AdminSuggestionComponent</title>
<polygon fill="#ffffb3" stroke="#000000" points="891.4437,-122 708.5563,-122 708.5563,-86 891.4437,-86 891.4437,-122"/>
<text text-anchor="middle" x="800" y="-99.8" font-family="Times,serif" font-size="14.00" fill="#000000">AdminSuggestionComponent</text>
</g>
<!-- AdminSuggestionModule -->
<g id="node3" class="node">
<title>AdminSuggestionModule</title>
<polygon fill="#8dd3c7" stroke="#000000" points="440.161,-187 437.161,-191 416.161,-191 413.161,-187 279.839,-187 279.839,-151 440.161,-151 440.161,-187"/>
<text text-anchor="middle" x="360" y="-164.8" font-family="Times,serif" font-size="14.00" fill="#000000">AdminSuggestionModule</text>
</g>
<!-- AdminSuggestionComponent&#45;&gt;AdminSuggestionModule -->
<g id="edge1" class="edge">
<title>AdminSuggestionComponent&#45;&gt;AdminSuggestionModule</title>
<path fill="none" stroke="#000000" d="M800,-122.2843C800,-143.3211 800,-175 800,-175 800,-175 450.1912,-175 450.1912,-175"/>
<polygon fill="#000000" stroke="#000000" points="450.1912,-171.5001 440.1912,-175 450.1911,-178.5001 450.1912,-171.5001"/>
</g>
<!-- AdminSuggestionListComponent -->
<g id="node2" class="node">
<title>AdminSuggestionListComponent</title>
<polygon fill="#ffffb3" stroke="#000000" points="691.2217,-122 486.7783,-122 486.7783,-86 691.2217,-86 691.2217,-122"/>
<text text-anchor="middle" x="589" y="-99.8" font-family="Times,serif" font-size="14.00" fill="#000000">AdminSuggestionListComponent</text>
</g>
<!-- AdminSuggestionListComponent&#45;&gt;AdminSuggestionModule -->
<g id="edge2" class="edge">
<title>AdminSuggestionListComponent&#45;&gt;AdminSuggestionModule</title>
<path fill="none" stroke="#000000" d="M589,-122.0225C589,-139.3734 589,-163 589,-163 589,-163 450.4148,-163 450.4148,-163"/>
<polygon fill="#000000" stroke="#000000" points="450.4149,-159.5001 440.4148,-163 450.4148,-166.5001 450.4149,-159.5001"/>
</g>
<!-- AdminSuggestionRoutingModule -->
<g id="node4" class="node">
<title>AdminSuggestionRoutingModule</title>
<polygon fill="#8dd3c7" stroke="#000000" points="462.7785,-122 459.7785,-126 438.7785,-126 435.7785,-122 257.2215,-122 257.2215,-86 462.7785,-86 462.7785,-122"/>
<text text-anchor="middle" x="360" y="-99.8" font-family="Times,serif" font-size="14.00" fill="#000000">AdminSuggestionRoutingModule</text>
</g>
<!-- AdminSuggestionRoutingModule&#45;&gt;AdminSuggestionModule -->
<g id="edge3" class="edge">
<title>AdminSuggestionRoutingModule&#45;&gt;AdminSuggestionModule</title>
<path fill="none" stroke="#000000" d="M360,-122.1061C360,-122.1061 360,-140.991 360,-140.991"/>
<polygon fill="#000000" stroke="#000000" points="356.5001,-140.9909 360,-150.991 363.5001,-140.991 356.5001,-140.9909"/>
</g>
<!-- LoaderModule -->
<g id="node5" class="node">
<title>LoaderModule</title>
<polygon fill="#8dd3c7" stroke="#000000" points="239.6924,-122 236.6924,-126 215.6924,-126 212.6924,-122 140.3076,-122 140.3076,-86 239.6924,-86 239.6924,-122"/>
<text text-anchor="middle" x="190" y="-99.8" font-family="Times,serif" font-size="14.00" fill="#000000">LoaderModule</text>
</g>
<!-- LoaderModule&#45;&gt;AdminSuggestionModule -->
<g id="edge4" class="edge">
<title>LoaderModule&#45;&gt;AdminSuggestionModule</title>
<path fill="none" stroke="#000000" d="M190,-122.0225C190,-139.3734 190,-163 190,-163 190,-163 269.4806,-163 269.4806,-163"/>
<polygon fill="#000000" stroke="#000000" points="269.4806,-166.5001 279.4806,-163 269.4805,-159.5001 269.4806,-166.5001"/>
</g>
<!-- SharedModule -->
<g id="node6" class="node">
<title>SharedModule</title>
<polygon fill="#8dd3c7" stroke="#000000" points="122.4231,-122 119.4231,-126 98.4231,-126 95.4231,-122 23.5769,-122 23.5769,-86 122.4231,-86 122.4231,-122"/>
<text text-anchor="middle" x="73" y="-99.8" font-family="Times,serif" font-size="14.00" fill="#000000">SharedModule</text>
</g>
<!-- SharedModule&#45;&gt;AdminSuggestionModule -->
<g id="edge5" class="edge">
<title>SharedModule&#45;&gt;AdminSuggestionModule</title>
<path fill="none" stroke="#000000" d="M73,-122.2843C73,-143.3211 73,-175 73,-175 73,-175 269.6729,-175 269.6729,-175"/>
<polygon fill="#000000" stroke="#000000" points="269.6729,-178.5001 279.6729,-175 269.6728,-171.5001 269.6729,-178.5001"/>
</g>
</g>
</svg>
