<?xml version="1.0" encoding="UTF-8" standalone="no"?>
<!DOCTYPE svg PUBLIC "-//W3C//DTD SVG 1.1//EN"
 "http://www.w3.org/Graphics/SVG/1.1/DTD/svg11.dtd">
<!-- Generated by graphviz version 2.40.1 (20161225.0304)
 -->
<!-- Title: dependencies Pages: 1 -->
<svg width="577pt" height="211pt"
 viewBox="0.00 0.00 577.00 211.00" xmlns="http://www.w3.org/2000/svg" xmlns:xlink="http://www.w3.org/1999/xlink">
<g id="graph0" class="graph" transform="scale(1 1) rotate(0) translate(4 207)">
<title>dependencies</title>
<polygon fill="#ffffff" stroke="transparent" points="-4,4 -4,-207 573,-207 573,4 -4,4"/>
<text text-anchor="start" x="263.5091" y="-42.4" font-family="sans-serif" font-weight="bold" font-size="14.00" fill="#000000">Legend</text>
<polygon fill="#ffffb3" stroke="transparent" points="50.5,-10 50.5,-30 70.5,-30 70.5,-10 50.5,-10"/>
<text text-anchor="start" x="74.129" y="-15.4" font-family="sans-serif" font-size="14.00" fill="#000000"> &#160;Declarations</text>
<polygon fill="#8dd3c7" stroke="transparent" points="163.5,-10 163.5,-30 183.5,-30 183.5,-10 163.5,-10"/>
<text text-anchor="start" x="187.2251" y="-15.4" font-family="sans-serif" font-size="14.00" fill="#000000"> &#160;Module</text>
<polygon fill="#80b1d3" stroke="transparent" points="249.5,-10 249.5,-30 269.5,-30 269.5,-10 249.5,-10"/>
<text text-anchor="start" x="273.2812" y="-15.4" font-family="sans-serif" font-size="14.00" fill="#000000"> &#160;Bootstrap</text>
<polygon fill="#fdb462" stroke="transparent" points="346.5,-10 346.5,-30 366.5,-30 366.5,-10 346.5,-10"/>
<text text-anchor="start" x="370.1732" y="-15.4" font-family="sans-serif" font-size="14.00" fill="#000000"> &#160;Providers</text>
<polygon fill="#fb8072" stroke="transparent" points="442.5,-10 442.5,-30 462.5,-30 462.5,-10 442.5,-10"/>
<text text-anchor="start" x="466.2258" y="-15.4" font-family="sans-serif" font-size="14.00" fill="#000000"> &#160;Exports</text>
<g id="clust1" class="cluster">
<title>cluster_ProfileModule</title>
<polygon fill="none" stroke="#000000" stroke-dasharray="1,5" points="8,-70 8,-195 561,-195 561,-70 8,-70"/>
</g>
<g id="clust2" class="cluster">
<title>cluster_ProfileModule_declarations</title>
<polygon fill="none" stroke="#000000" points="417,-78 417,-130 553,-130 553,-78 417,-78"/>
</g>
<g id="clust4" class="cluster">
<title>cluster_ProfileModule_imports</title>
<polygon fill="none" stroke="#000000" points="16,-78 16,-130 409,-130 409,-78 16,-78"/>
</g>
<!-- ProfileComponent -->
<g id="node1" class="node">
<title>ProfileComponent</title>
<polygon fill="#ffffb3" stroke="#000000" points="544.9328,-122 425.0672,-122 425.0672,-86 544.9328,-86 544.9328,-122"/>
<text text-anchor="middle" x="485" y="-99.8" font-family="Times,serif" font-size="14.00" fill="#000000">ProfileComponent</text>
</g>
<!-- ProfileModule -->
<g id="node2" class="node">
<title>ProfileModule</title>
<polygon fill="#8dd3c7" stroke="#000000" points="329.65,-187 326.65,-191 305.65,-191 302.65,-187 232.35,-187 232.35,-151 329.65,-151 329.65,-187"/>
<text text-anchor="middle" x="281" y="-164.8" font-family="Times,serif" font-size="14.00" fill="#000000">ProfileModule</text>
</g>
<!-- ProfileComponent&#45;&gt;ProfileModule -->
<g id="edge1" class="edge">
<title>ProfileComponent&#45;&gt;ProfileModule</title>
<path fill="none" stroke="#000000" d="M485,-122.1061C485,-141.3391 485,-169 485,-169 485,-169 339.8631,-169 339.8631,-169"/>
<polygon fill="#000000" stroke="#000000" points="339.8631,-165.5001 329.8631,-169 339.863,-172.5001 339.8631,-165.5001"/>
</g>
<!-- LoaderModule -->
<g id="node3" class="node">
<title>LoaderModule</title>
<polygon fill="#8dd3c7" stroke="#000000" points="400.6924,-122 397.6924,-126 376.6924,-126 373.6924,-122 301.3076,-122 301.3076,-86 400.6924,-86 400.6924,-122"/>
<text text-anchor="middle" x="351" y="-99.8" font-family="Times,serif" font-size="14.00" fill="#000000">LoaderModule</text>
</g>
<!-- LoaderModule&#45;&gt;ProfileModule -->
<g id="edge2" class="edge">
<title>LoaderModule&#45;&gt;ProfileModule</title>
<path fill="none" stroke="#000000" d="M315.6143,-122.1061C315.6143,-122.1061 315.6143,-140.991 315.6143,-140.991"/>
<polygon fill="#000000" stroke="#000000" points="312.1144,-140.9909 315.6143,-150.991 319.1144,-140.991 312.1144,-140.9909"/>
</g>
<!-- ProfileRoutingModule -->
<g id="node4" class="node">
<title>ProfileRoutingModule</title>
<polygon fill="#8dd3c7" stroke="#000000" points="283.2674,-122 280.2674,-126 259.2674,-126 256.2674,-122 140.7326,-122 140.7326,-86 283.2674,-86 283.2674,-122"/>
<text text-anchor="middle" x="212" y="-99.8" font-family="Times,serif" font-size="14.00" fill="#000000">ProfileRoutingModule</text>
</g>
<!-- ProfileRoutingModule&#45;&gt;ProfileModule -->
<g id="edge3" class="edge">
<title>ProfileRoutingModule&#45;&gt;ProfileModule</title>
<path fill="none" stroke="#000000" d="M257.7795,-122.1061C257.7795,-122.1061 257.7795,-140.991 257.7795,-140.991"/>
<polygon fill="#000000" stroke="#000000" points="254.2795,-140.9909 257.7795,-150.991 261.2795,-140.991 254.2795,-140.9909"/>
</g>
<!-- SharedModule -->
<g id="node5" class="node">
<title>SharedModule</title>
<polygon fill="#8dd3c7" stroke="#000000" points="122.4231,-122 119.4231,-126 98.4231,-126 95.4231,-122 23.5769,-122 23.5769,-86 122.4231,-86 122.4231,-122"/>
<text text-anchor="middle" x="73" y="-99.8" font-family="Times,serif" font-size="14.00" fill="#000000">SharedModule</text>
</g>
<!-- SharedModule&#45;&gt;ProfileModule -->
<g id="edge4" class="edge">
<title>SharedModule&#45;&gt;ProfileModule</title>
<path fill="none" stroke="#000000" d="M73,-122.1061C73,-141.3391 73,-169 73,-169 73,-169 222.2332,-169 222.2332,-169"/>
<polygon fill="#000000" stroke="#000000" points="222.2333,-172.5001 232.2332,-169 222.2332,-165.5001 222.2333,-172.5001"/>
</g>
</g>
</svg>
