<?xml version="1.0" encoding="UTF-8" standalone="no"?>
<!DOCTYPE svg PUBLIC "-//W3C//DTD SVG 1.1//EN"
 "http://www.w3.org/Graphics/SVG/1.1/DTD/svg11.dtd">
<!-- Generated by graphviz version 2.40.1 (20161225.0304)
 -->
<!-- Title: dependencies Pages: 1 -->
<svg width="585pt" height="211pt"
 viewBox="0.00 0.00 585.00 211.00" xmlns="http://www.w3.org/2000/svg" xmlns:xlink="http://www.w3.org/1999/xlink">
<g id="graph0" class="graph" transform="scale(1 1) rotate(0) translate(4 207)">
<title>dependencies</title>
<polygon fill="#ffffff" stroke="transparent" points="-4,4 -4,-207 581,-207 581,4 -4,4"/>
<text text-anchor="start" x="267.5091" y="-42.4" font-family="sans-serif" font-weight="bold" font-size="14.00" fill="#000000">Legend</text>
<polygon fill="#ffffb3" stroke="transparent" points="54.5,-10 54.5,-30 74.5,-30 74.5,-10 54.5,-10"/>
<text text-anchor="start" x="78.129" y="-15.4" font-family="sans-serif" font-size="14.00" fill="#000000"> &#160;Declarations</text>
<polygon fill="#8dd3c7" stroke="transparent" points="167.5,-10 167.5,-30 187.5,-30 187.5,-10 167.5,-10"/>
<text text-anchor="start" x="191.2251" y="-15.4" font-family="sans-serif" font-size="14.00" fill="#000000"> &#160;Module</text>
<polygon fill="#80b1d3" stroke="transparent" points="253.5,-10 253.5,-30 273.5,-30 273.5,-10 253.5,-10"/>
<text text-anchor="start" x="277.2812" y="-15.4" font-family="sans-serif" font-size="14.00" fill="#000000"> &#160;Bootstrap</text>
<polygon fill="#fdb462" stroke="transparent" points="350.5,-10 350.5,-30 370.5,-30 370.5,-10 350.5,-10"/>
<text text-anchor="start" x="374.1732" y="-15.4" font-family="sans-serif" font-size="14.00" fill="#000000"> &#160;Providers</text>
<polygon fill="#fb8072" stroke="transparent" points="446.5,-10 446.5,-30 466.5,-30 466.5,-10 446.5,-10"/>
<text text-anchor="start" x="470.2258" y="-15.4" font-family="sans-serif" font-size="14.00" fill="#000000"> &#160;Exports</text>
<g id="clust1" class="cluster">
<title>cluster_ReviewModule</title>
<polygon fill="none" stroke="#000000" stroke-dasharray="1,5" points="8,-70 8,-195 569,-195 569,-70 8,-70"/>
</g>
<g id="clust2" class="cluster">
<title>cluster_ReviewModule_declarations</title>
<polygon fill="none" stroke="#000000" points="421,-78 421,-130 561,-130 561,-78 421,-78"/>
</g>
<g id="clust4" class="cluster">
<title>cluster_ReviewModule_imports</title>
<polygon fill="none" stroke="#000000" points="16,-78 16,-130 413,-130 413,-78 16,-78"/>
</g>
<!-- ReviewComponent -->
<g id="node1" class="node">
<title>ReviewComponent</title>
<polygon fill="#ffffb3" stroke="#000000" points="553.0954,-122 428.9046,-122 428.9046,-86 553.0954,-86 553.0954,-122"/>
<text text-anchor="middle" x="491" y="-99.8" font-family="Times,serif" font-size="14.00" fill="#000000">ReviewComponent</text>
</g>
<!-- ReviewModule -->
<g id="node2" class="node">
<title>ReviewModule</title>
<polygon fill="#8dd3c7" stroke="#000000" points="335.3133,-187 332.3133,-191 311.3133,-191 308.3133,-187 232.6867,-187 232.6867,-151 335.3133,-151 335.3133,-187"/>
<text text-anchor="middle" x="284" y="-164.8" font-family="Times,serif" font-size="14.00" fill="#000000">ReviewModule</text>
</g>
<!-- ReviewComponent&#45;&gt;ReviewModule -->
<g id="edge1" class="edge">
<title>ReviewComponent&#45;&gt;ReviewModule</title>
<path fill="none" stroke="#000000" d="M491,-122.1061C491,-141.3391 491,-169 491,-169 491,-169 345.1686,-169 345.1686,-169"/>
<polygon fill="#000000" stroke="#000000" points="345.1686,-165.5001 335.1686,-169 345.1685,-172.5001 345.1686,-165.5001"/>
</g>
<!-- LoaderModule -->
<g id="node3" class="node">
<title>LoaderModule</title>
<polygon fill="#8dd3c7" stroke="#000000" points="404.6924,-122 401.6924,-126 380.6924,-126 377.6924,-122 305.3076,-122 305.3076,-86 404.6924,-86 404.6924,-122"/>
<text text-anchor="middle" x="355" y="-99.8" font-family="Times,serif" font-size="14.00" fill="#000000">LoaderModule</text>
</g>
<!-- LoaderModule&#45;&gt;ReviewModule -->
<g id="edge2" class="edge">
<title>LoaderModule&#45;&gt;ReviewModule</title>
<path fill="none" stroke="#000000" d="M320.2802,-122.1061C320.2802,-122.1061 320.2802,-140.991 320.2802,-140.991"/>
<polygon fill="#000000" stroke="#000000" points="316.7802,-140.9909 320.2802,-150.991 323.7802,-140.991 316.7802,-140.9909"/>
</g>
<!-- ReviewRoutingModule -->
<g id="node4" class="node">
<title>ReviewRoutingModule</title>
<polygon fill="#8dd3c7" stroke="#000000" points="287.9312,-122 284.9312,-126 263.9312,-126 260.9312,-122 140.0688,-122 140.0688,-86 287.9312,-86 287.9312,-122"/>
<text text-anchor="middle" x="214" y="-99.8" font-family="Times,serif" font-size="14.00" fill="#000000">ReviewRoutingModule</text>
</g>
<!-- ReviewRoutingModule&#45;&gt;ReviewModule -->
<g id="edge3" class="edge">
<title>ReviewRoutingModule&#45;&gt;ReviewModule</title>
<path fill="none" stroke="#000000" d="M260.2795,-122.1061C260.2795,-122.1061 260.2795,-140.991 260.2795,-140.991"/>
<polygon fill="#000000" stroke="#000000" points="256.7795,-140.9909 260.2795,-150.991 263.7795,-140.991 256.7795,-140.9909"/>
</g>
<!-- SharedModule -->
<g id="node5" class="node">
<title>SharedModule</title>
<polygon fill="#8dd3c7" stroke="#000000" points="122.4231,-122 119.4231,-126 98.4231,-126 95.4231,-122 23.5769,-122 23.5769,-86 122.4231,-86 122.4231,-122"/>
<text text-anchor="middle" x="73" y="-99.8" font-family="Times,serif" font-size="14.00" fill="#000000">SharedModule</text>
</g>
<!-- SharedModule&#45;&gt;ReviewModule -->
<g id="edge4" class="edge">
<title>SharedModule&#45;&gt;ReviewModule</title>
<path fill="none" stroke="#000000" d="M73,-122.1061C73,-141.3391 73,-169 73,-169 73,-169 222.6534,-169 222.6534,-169"/>
<polygon fill="#000000" stroke="#000000" points="222.6534,-172.5001 232.6534,-169 222.6534,-165.5001 222.6534,-172.5001"/>
</g>
</g>
</svg>
