<?xml version="1.0" encoding="UTF-8" standalone="no"?>
<!DOCTYPE svg PUBLIC "-//W3C//DTD SVG 1.1//EN"
 "http://www.w3.org/Graphics/SVG/1.1/DTD/svg11.dtd">
<!-- Generated by graphviz version 2.40.1 (20161225.0304)
 -->
<!-- Title: dependencies Pages: 1 -->
<svg width="984pt" height="211pt"
 viewBox="0.00 0.00 984.00 211.00" xmlns="http://www.w3.org/2000/svg" xmlns:xlink="http://www.w3.org/1999/xlink">
<g id="graph0" class="graph" transform="scale(1 1) rotate(0) translate(4 207)">
<title>dependencies</title>
<polygon fill="#ffffff" stroke="transparent" points="-4,4 -4,-207 980,-207 980,4 -4,4"/>
<text text-anchor="start" x="467.0091" y="-42.4" font-family="sans-serif" font-weight="bold" font-size="14.00" fill="#000000">Legend</text>
<polygon fill="#ffffb3" stroke="transparent" points="254,-10 254,-30 274,-30 274,-10 254,-10"/>
<text text-anchor="start" x="277.629" y="-15.4" font-family="sans-serif" font-size="14.00" fill="#000000"> &#160;Declarations</text>
<polygon fill="#8dd3c7" stroke="transparent" points="367,-10 367,-30 387,-30 387,-10 367,-10"/>
<text text-anchor="start" x="390.7251" y="-15.4" font-family="sans-serif" font-size="14.00" fill="#000000"> &#160;Module</text>
<polygon fill="#80b1d3" stroke="transparent" points="453,-10 453,-30 473,-30 473,-10 453,-10"/>
<text text-anchor="start" x="476.7812" y="-15.4" font-family="sans-serif" font-size="14.00" fill="#000000"> &#160;Bootstrap</text>
<polygon fill="#fdb462" stroke="transparent" points="550,-10 550,-30 570,-30 570,-10 550,-10"/>
<text text-anchor="start" x="573.6732" y="-15.4" font-family="sans-serif" font-size="14.00" fill="#000000"> &#160;Providers</text>
<polygon fill="#fb8072" stroke="transparent" points="646,-10 646,-30 666,-30 666,-10 646,-10"/>
<text text-anchor="start" x="669.7258" y="-15.4" font-family="sans-serif" font-size="14.00" fill="#000000"> &#160;Exports</text>
<g id="clust1" class="cluster">
<title>cluster_BsMediaModule</title>
<polygon fill="none" stroke="#000000" stroke-dasharray="1,5" points="8,-70 8,-195 968,-195 968,-70 8,-70"/>
</g>
<g id="clust2" class="cluster">
<title>cluster_BsMediaModule_declarations</title>
<polygon fill="none" stroke="#000000" points="429,-78 429,-130 960,-130 960,-78 429,-78"/>
</g>
<g id="clust6" class="cluster">
<title>cluster_BsMediaModule_imports</title>
<polygon fill="none" stroke="#000000" points="16,-78 16,-130 421,-130 421,-78 16,-78"/>
</g>
<!-- BsMediaComponent -->
<g id="node1" class="node">
<title>BsMediaComponent</title>
<polygon fill="#ffffb3" stroke="#000000" points="951.8781,-122 820.1219,-122 820.1219,-86 951.8781,-86 951.8781,-122"/>
<text text-anchor="middle" x="886" y="-99.8" font-family="Times,serif" font-size="14.00" fill="#000000">BsMediaComponent</text>
</g>
<!-- BsMediaModule -->
<g id="node4" class="node">
<title>BsMediaModule</title>
<polygon fill="#8dd3c7" stroke="#000000" points="489.0954,-187 486.0954,-191 465.0954,-191 462.0954,-187 378.9046,-187 378.9046,-151 489.0954,-151 489.0954,-187"/>
<text text-anchor="middle" x="434" y="-164.8" font-family="Times,serif" font-size="14.00" fill="#000000">BsMediaModule</text>
</g>
<!-- BsMediaComponent&#45;&gt;BsMediaModule -->
<g id="edge1" class="edge">
<title>BsMediaComponent&#45;&gt;BsMediaModule</title>
<path fill="none" stroke="#000000" d="M886,-122.2843C886,-143.3211 886,-175 886,-175 886,-175 499.4241,-175 499.4241,-175"/>
<polygon fill="#000000" stroke="#000000" points="499.4241,-171.5001 489.4241,-175 499.424,-178.5001 499.4241,-171.5001"/>
</g>
<!-- BsMediaListComponent -->
<g id="node2" class="node">
<title>BsMediaListComponent</title>
<polygon fill="#ffffb3" stroke="#000000" points="801.6568,-122 648.3432,-122 648.3432,-86 801.6568,-86 801.6568,-122"/>
<text text-anchor="middle" x="725" y="-99.8" font-family="Times,serif" font-size="14.00" fill="#000000">BsMediaListComponent</text>
</g>
<!-- BsMediaListComponent&#45;&gt;BsMediaModule -->
<g id="edge2" class="edge">
<title>BsMediaListComponent&#45;&gt;BsMediaModule</title>
<path fill="none" stroke="#000000" d="M725,-122.0225C725,-139.3734 725,-163 725,-163 725,-163 499.077,-163 499.077,-163"/>
<polygon fill="#000000" stroke="#000000" points="499.077,-159.5001 489.077,-163 499.0769,-166.5001 499.077,-159.5001"/>
</g>
<!-- BsMediaListDetailsComponent -->
<g id="node3" class="node">
<title>BsMediaListDetailsComponent</title>
<polygon fill="#ffffb3" stroke="#000000" points="630.8088,-122 437.1912,-122 437.1912,-86 630.8088,-86 630.8088,-122"/>
<text text-anchor="middle" x="534" y="-99.8" font-family="Times,serif" font-size="14.00" fill="#000000">BsMediaListDetailsComponent</text>
</g>
<!-- BsMediaListDetailsComponent&#45;&gt;BsMediaModule -->
<g id="edge3" class="edge">
<title>BsMediaListDetailsComponent&#45;&gt;BsMediaModule</title>
<path fill="none" stroke="#000000" d="M463.1967,-122.1061C463.1967,-122.1061 463.1967,-140.991 463.1967,-140.991"/>
<polygon fill="#000000" stroke="#000000" points="459.6968,-140.9909 463.1967,-150.991 466.6968,-140.991 459.6968,-140.9909"/>
</g>
<!-- BsMediaRoutingModule -->
<g id="node5" class="node">
<title>BsMediaRoutingModule</title>
<polygon fill="#8dd3c7" stroke="#000000" points="412.7133,-122 409.7133,-126 388.7133,-126 385.7133,-122 257.2867,-122 257.2867,-86 412.7133,-86 412.7133,-122"/>
<text text-anchor="middle" x="335" y="-99.8" font-family="Times,serif" font-size="14.00" fill="#000000">BsMediaRoutingModule</text>
</g>
<!-- BsMediaRoutingModule&#45;&gt;BsMediaModule -->
<g id="edge4" class="edge">
<title>BsMediaRoutingModule&#45;&gt;BsMediaModule</title>
<path fill="none" stroke="#000000" d="M395.7795,-122.1061C395.7795,-122.1061 395.7795,-140.991 395.7795,-140.991"/>
<polygon fill="#000000" stroke="#000000" points="392.2795,-140.9909 395.7795,-150.991 399.2795,-140.991 392.2795,-140.9909"/>
</g>
<!-- LoaderModule -->
<g id="node6" class="node">
<title>LoaderModule</title>
<polygon fill="#8dd3c7" stroke="#000000" points="239.6924,-122 236.6924,-126 215.6924,-126 212.6924,-122 140.3076,-122 140.3076,-86 239.6924,-86 239.6924,-122"/>
<text text-anchor="middle" x="190" y="-99.8" font-family="Times,serif" font-size="14.00" fill="#000000">LoaderModule</text>
</g>
<!-- LoaderModule&#45;&gt;BsMediaModule -->
<g id="edge5" class="edge">
<title>LoaderModule&#45;&gt;BsMediaModule</title>
<path fill="none" stroke="#000000" d="M190,-122.0225C190,-139.3734 190,-163 190,-163 190,-163 368.9374,-163 368.9374,-163"/>
<polygon fill="#000000" stroke="#000000" points="368.9374,-166.5001 378.9374,-163 368.9374,-159.5001 368.9374,-166.5001"/>
</g>
<!-- SharedModule -->
<g id="node7" class="node">
<title>SharedModule</title>
<polygon fill="#8dd3c7" stroke="#000000" points="122.4231,-122 119.4231,-126 98.4231,-126 95.4231,-122 23.5769,-122 23.5769,-86 122.4231,-86 122.4231,-122"/>
<text text-anchor="middle" x="73" y="-99.8" font-family="Times,serif" font-size="14.00" fill="#000000">SharedModule</text>
</g>
<!-- SharedModule&#45;&gt;BsMediaModule -->
<g id="edge6" class="edge">
<title>SharedModule&#45;&gt;BsMediaModule</title>
<path fill="none" stroke="#000000" d="M73,-122.2843C73,-143.3211 73,-175 73,-175 73,-175 368.7789,-175 368.7789,-175"/>
<polygon fill="#000000" stroke="#000000" points="368.7789,-178.5001 378.7789,-175 368.7789,-171.5001 368.7789,-178.5001"/>
</g>
</g>
</svg>
