<svg xmlns="http://www.w3.org/2000/svg" width="31.586" height="24.861" viewBox="0 0 31.586 24.861">
  <g id="drivers-license" transform="translate(0 -54.5)">
    <path id="Path_52958" data-name="Path 52958" d="M23.7,90.725V80.669A6.169,6.169,0,0,1,29.871,74.5h-3.7A6.169,6.169,0,0,0,20,80.669V90.725a6.169,6.169,0,0,0,6.169,6.169h3.7A6.169,6.169,0,0,1,23.7,90.725Z" transform="translate(-18.766 -18.766)" fill="#2ee1f0" opacity="0.21"/>
    <path id="Path_52959" data-name="Path 52959" d="M24.183,79.361H7.4a7.411,7.411,0,0,1-7.4-7.4V61.9a7.411,7.411,0,0,1,7.4-7.4h16.78a7.411,7.411,0,0,1,7.4,7.4V71.958A7.411,7.411,0,0,1,24.183,79.361ZM7.4,56.968A4.941,4.941,0,0,0,2.468,61.9V71.958A4.941,4.941,0,0,0,7.4,76.894h16.78a4.941,4.941,0,0,0,4.935-4.935V61.9a4.941,4.941,0,0,0-4.935-4.935Zm2.653,10.056a3.763,3.763,0,1,1,3.763-3.763A3.767,3.767,0,0,1,10.056,67.023Zm0-5.059a1.3,1.3,0,1,0,1.3,1.3A1.3,1.3,0,0,0,10.056,61.965Zm16.656-1.172a1.234,1.234,0,0,0-1.234-1.234H17.15a1.234,1.234,0,0,0,0,2.468h8.328A1.234,1.234,0,0,0,26.712,60.792Zm0,5a1.234,1.234,0,0,0-1.234-1.234H17.15a1.234,1.234,0,0,0,0,2.468h8.328A1.234,1.234,0,0,0,26.712,65.789Zm0,7.341A1.234,1.234,0,0,0,25.478,71.9H19.371a1.234,1.234,0,0,0,0,2.468h6.107A1.234,1.234,0,0,0,26.712,73.131Z" fill="#2ee1f0"/>
    <path id="Path_52960" data-name="Path 52960" d="M90.129,285.546a1.234,1.234,0,0,1-1.234-1.234,2.355,2.355,0,0,0-2.414-2.344h-.676a2.29,2.29,0,0,0-2.339,2.344,1.234,1.234,0,0,1-2.468,0,4.758,4.758,0,0,1,4.807-4.812h.676a4.9,4.9,0,0,1,3.44,1.383,4.745,4.745,0,0,1,1.442,3.429A1.234,1.234,0,0,1,90.129,285.546Z" transform="translate(-76.002 -211.12)" fill="#2ee1f0"/>
  </g>
</svg>
