<svg id="flag" xmlns="http://www.w3.org/2000/svg" width="31.728" height="31.723" viewBox="0 0 31.728 31.723">
  <path id="Path_52964" data-name="Path 52964" d="M23.719,314.89c0-1.831,2.655-3.523,6.523-4.347-.037-.391-.062-.782-.065-1.174C24.275,310.115,20,312.3,20,314.89c0,3.2,6.548,5.794,14.625,5.794.041,0,3.222-1.126,3.222-1.126-6.159-.159-14.129-2.84-14.129-4.668Z" transform="translate(-18.762 -290.201)" fill="#2ee1f0" opacity="0.115"/>
  <path id="Path_52965" data-name="Path 52965" d="M15.864,303.856c-5.469,0-15.49-1.441-15.864-7.033,0-1.193.594-2.94,3.421-4.485a22.281,22.281,0,0,1,7.5-2.222,1.239,1.239,0,0,1,.336,2.456c-2.916.376-8.476,1.783-8.782,4.251,0,.961,1.341,2.089,3.5,2.945a27.791,27.791,0,0,0,9.885,1.61,27.791,27.791,0,0,0,9.885-1.61c2.159-.855,3.5-1.984,3.5-2.945,0-1.428-2.953-3.385-8.424-4.2a1.239,1.239,0,1,1,.365-2.452c6.5.968,10.538,3.516,10.538,6.652,0,2.091-1.8,3.955-5.066,5.249A30.291,30.291,0,0,1,15.864,303.856Z" transform="translate(0 -272.134)" fill="#2ee1f0"/>
  <path id="Path_52966" data-name="Path 52966" d="M239.472,24.889a1.239,1.239,0,0,1-1.239-1.239V5.622A5.584,5.584,0,0,1,243.81.045h5.244a2.674,2.674,0,0,1,2.433,1.537,2.7,2.7,0,0,1-.346,2.889c-.015.019-.031.037-.047.054L250.025,5.7,251.2,6.939q.035.037.066.076a2.715,2.715,0,0,1,.33,2.895,2.68,2.68,0,0,1-2.43,1.537H244.12a1.239,1.239,0,1,1,0-2.479h5.043a.2.2,0,0,0,.2-.131.243.243,0,0,0-.011-.247l-1.915-2.028a1.239,1.239,0,0,1-.015-1.686l1.811-1.986a.226.226,0,0,0,.02-.242.2.2,0,0,0-.2-.125H243.81a3.1,3.1,0,0,0-3.1,3.1V23.65A1.239,1.239,0,0,1,239.472,24.889Z" transform="translate(-223.47 -0.045)" fill="#2ee1f0"/>
</svg>
