<svg xmlns="http://www.w3.org/2000/svg" width="16" height="16" viewBox="0 0 16 16">
  <g id="Group_9" data-name="Group 9" transform="translate(-1184 -385)" opacity="0.3">
    <circle id="Ellipse_13" data-name="Ellipse 13" cx="8" cy="8" r="8" transform="translate(1184 385)" fill="#020c19"/>
    <path id="Path_2" data-name="Path 2" d="M3.1-2.8l-.024.4H1.644L1.62-2.8a3.138,3.138,0,0,1,.09-.8,2.8,2.8,0,0,1,.2-.546,1.327,1.327,0,0,1,.414-.432,4.154,4.154,0,0,1,.5-.324q.2-.1.7-.354a.76.76,0,0,0,.456-.78.761.761,0,0,0-.306-.618A1.141,1.141,0,0,0,2.94-6.9a.992.992,0,0,0-.732.288,1.022,1.022,0,0,0-.288.756H.468a2.453,2.453,0,0,1,.69-1.824A2.423,2.423,0,0,1,2.94-8.364a2.577,2.577,0,0,1,1.8.642,2.182,2.182,0,0,1,.708,1.7,2.29,2.29,0,0,1-.462,1.44,2.354,2.354,0,0,1-1.194.828,1.066,1.066,0,0,0-.534.33A1.022,1.022,0,0,0,3.1-2.8ZM1.428-.8A.862.862,0,0,1,1.7-1.452a.936.936,0,0,1,.672-.264.936.936,0,0,1,.672.264A.862.862,0,0,1,3.324-.8a.876.876,0,0,1-.276.66A.936.936,0,0,1,2.376.12.936.936,0,0,1,1.7-.144.876.876,0,0,1,1.428-.8Z" transform="translate(1189.532 397.364)" fill="#fff"/>
  </g>
</svg>
