<svg xmlns="http://www.w3.org/2000/svg" width="602.003" height="602.02" viewBox="0 0 602.003 602.02">
  <path id="Path_2" data-name="Path 2" d="M3714.2,778.71l22.783,22.776a31.16,31.16,0,0,1,0,43.982l-.791.8a31.176,31.176,0,0,1-43.98,0l-22.794-22.8-44.767-44.76-44.771-44.782-44.767-44.773-44.782-44.772-44.764-44.772-22.786-22.776a31.151,31.151,0,0,1,0-43.98l.795-.791a31.156,31.156,0,0,1,43.98,0l22.775,22.786,44.785,44.76,22.405,22.429a31.709,31.709,0,0,0,44.721,0l.065-.072a31.668,31.668,0,0,0,0-44.7l-.432-.433a31.151,31.151,0,0,1,0-43.98l.8-.791a31.147,31.147,0,0,1,43.973,0l22.776,22.786,22.189,22.177.608.6.414.432,21.567,21.565,22.783,22.775a31.16,31.16,0,0,1,0,43.982l-.791.8a31.177,31.177,0,0,1-43.98,0l-.428-.431a31.7,31.7,0,0,0-44.72,0l-.058.073a31.655,31.655,0,0,0,0,44.7l22.412,22.427,44.782,44.772Zm-89.549,268.631,22.786,22.789a31.144,31.144,0,0,1,0,43.969l-.8.805a31.148,31.148,0,0,1-43.969,0l-22.786-22.79-44.767-44.774-44.785-44.773L3445.567,957.8l-22.786-22.785a31.138,31.138,0,0,1,0-43.969l90.34-90.346a31.179,31.179,0,0,1,43.98,0l22.782,22.788,44.767,44.771,44.771,44.771L3714.2,957.8l22.783,22.789a31.159,31.159,0,0,1,0,43.981l-.791.791a31.161,31.161,0,0,1-43.98,0l-22.794-22.789-44.767-44.759-44.771-44.784L3557.1,890.239a31.158,31.158,0,0,0-43.98.011l-.8.792a31.172,31.172,0,0,0,0,43.981l22.793,22.786,44.767,44.759,44.768,44.773ZM3445.567,689.156l22.783,22.788a31.152,31.152,0,0,1,0,43.981l-90.336,90.344a31.18,31.18,0,0,1-43.984,0l-22.783-22.8-44.771-44.76-44.767-44.77-44.782-44.784-22.779-22.775a31.16,31.16,0,0,1,0-43.982l.787-.8a31.2,31.2,0,0,1,43.995,0l22.779,22.786,44.767,44.772,44.771,44.773,22.79,22.786a31.156,31.156,0,0,0,43.976,0l.805-.79a31.179,31.179,0,0,0,0-43.981l-22.783-22.788-44.782-44.772-44.778-44.772L3243.7,576.836a31.151,31.151,0,0,1,0-43.98l.787-.8a31.153,31.153,0,0,1,43.976,0l22.786,22.8,44.782,44.76,44.764,44.772,44.775,44.772Zm-268.64,179.087-22.779-22.775a31.16,31.16,0,0,1,0-43.982l.787-.79a31.168,31.168,0,0,1,43.991,0l22.783,22.775,44.767,44.772,44.771,44.784,44.771,44.771,44.782,44.772,44.767,44.761,22.783,22.8a31.138,31.138,0,0,1,0,43.969l-.791.792a31.132,31.132,0,0,1-43.976,0L3400.8,1092.1l-44.778-44.774-22.423-22.418a31.668,31.668,0,0,0-44.706,0l-.068.075a31.67,31.67,0,0,0,0,44.7l.435.443a31.138,31.138,0,0,1,0,43.969l-.795.792a31.136,31.136,0,0,1-43.98,0l-22.783-22.776-44.771-44.785-22.779-22.776a31.158,31.158,0,0,1,0-43.98l.787-.79a31.171,31.171,0,0,1,43.991,0l.421.418a31.673,31.673,0,0,0,44.713,0l.058-.06a31.656,31.656,0,0,0,0-44.7l-22.409-22.415-44.774-44.784Z" transform="translate(-3144.563 -522.468)" fill="#fff" stroke="#754beb" stroke-width="1" opacity="0.194"/>
</svg>
