<svg xmlns="http://www.w3.org/2000/svg" width="19.002" height="19.217" viewBox="0 0 19.002 19.217">
  <path id="Path_1888" data-name="Path 1888" d="M12,13l6,9H6Zm0,3.6L9.74,20h4.52Zm-1.06-6.04a1.5,1.5,0,1,1,2.083-.037,1.5,1.5,0,0,1-2.083.037ZM5.281,2.783,6.7,4.2A7.5,7.5,0,0,0,6.7,14.8L5.281,16.219a9.5,9.5,0,0,1,0-13.436Zm13.436,0a9.5,9.5,0,0,1,0,13.436L17.3,14.8A7.5,7.5,0,0,0,17.3,4.2ZM8.11,5.611,9.524,7.025a3.5,3.5,0,0,0,0,4.95L8.11,13.389a5.5,5.5,0,0,1,0-7.778Zm7.778,0a5.5,5.5,0,0,1,0,7.778l-1.414-1.414a3.5,3.5,0,0,0,0-4.95l1.414-1.414Z" transform="translate(-2.498 -2.783)" fill="#ccccd4"/>
</svg>
