<svg xmlns="http://www.w3.org/2000/svg" width="31.729" height="31.723" viewBox="0 0 31.729 31.723">
  <g id="podium" transform="translate(0 0)">
    <path id="Path_52986" data-name="Path 52986" d="M23.718,271.246v-4.338a4.958,4.958,0,0,1,4.958-4.958H24.958A4.958,4.958,0,0,0,20,266.908v4.338a4.958,4.958,0,0,0,4.958,4.958h3.718A4.958,4.958,0,0,1,23.718,271.246Z" transform="translate(-18.761 -245.72)" fill="#8347eb" opacity="0.101"/>
    <path id="Path_52987" data-name="Path 52987" d="M31.729,198.393v.62a6.2,6.2,0,0,1-6.2,6.2H6.2a6.2,6.2,0,0,1-6.2-6.2v-4.338a6.2,6.2,0,0,1,6.2-6.2H9.729V187.3a6.162,6.162,0,0,1,.162-1.4,1.239,1.239,0,1,1,2.414.563,3.679,3.679,0,0,0-.1.834v11.712a1.239,1.239,0,0,1-2.479,0v-8.056H6.2a3.722,3.722,0,0,0-3.718,3.718v4.338A3.722,3.722,0,0,0,6.2,202.731H25.532a3.722,3.722,0,0,0,3.718-3.718v-.62a3.722,3.722,0,0,0-3.718-3.718H22v4.338a1.239,1.239,0,0,1-2.479,0V187.3a3.679,3.679,0,0,0-.1-.834,1.239,1.239,0,1,1,2.414-.563A6.161,6.161,0,0,1,22,187.3v4.9h3.532A6.2,6.2,0,0,1,31.729,198.393Z" transform="translate(0 -173.487)" fill="#8347eb"/>
    <path id="Path_52988" data-name="Path 52988" d="M178.189,10.205a2.153,2.153,0,0,1-1-.246l-.935-.487-.934.487A2.144,2.144,0,0,1,172.215,7.7l.176-1.018-.748-.723a2.135,2.135,0,0,1,1.187-3.65l1.042-.15.464-.932a2.154,2.154,0,0,1,3.844,0l.464.932,1.042.15a2.135,2.135,0,0,1,1.187,3.65l-.748.723L180.3,7.7a2.152,2.152,0,0,1-2.112,2.5ZM173.87,4.667l.375.362a2.131,2.131,0,0,1,.62,1.9l-.091.524.489-.255a2.153,2.153,0,0,1,1.989,0l.489.255-.091-.524a2.131,2.131,0,0,1,.621-1.9l.375-.362-.528-.076A2.145,2.145,0,0,1,176.5,3.425l-.246-.494-.246.494A2.145,2.145,0,0,1,174.4,4.591Z" transform="translate(-160.394 -0.048)" fill="#8347eb"/>
  </g>
</svg>
