<svg id="settings-4-fill" xmlns="http://www.w3.org/2000/svg" width="24" height="24" viewBox="0 0 24 24">
  <path id="Path_53020" data-name="Path 53020" d="M0,0H24V24H0Z" fill="none"/>
  <path id="Path_53021" data-name="Path 53021" d="M5.334,4.545A9.99,9.99,0,0,1,8.876,2.5a4,4,0,0,0,6.248,0,9.99,9.99,0,0,1,3.542,2.048,4,4,0,0,0,3.125,5.409,10.043,10.043,0,0,1,0,4.09,4,4,0,0,0-3.125,5.41A9.99,9.99,0,0,1,15.124,21.5a4,4,0,0,0-6.248,0,9.99,9.99,0,0,1-3.542-2.047,4,4,0,0,0-3.125-5.409,10.043,10.043,0,0,1,0-4.091A4,4,0,0,0,5.334,4.546ZM13.5,14.6a3,3,0,1,0-4.1-1.1,3,3,0,0,0,4.1,1.1Z" fill="#9e55fa"/>
</svg>
