<svg xmlns="http://www.w3.org/2000/svg" width="512.001" height="440.112" viewBox="0 0 512.001 440.112">
  <g id="success" transform="translate(0.001 -0.501)">
    <path id="Union_9" data-name="Union 9" d="M-10395.1,5956.6a75.155,75.155,0,0,0-70.756,50.013l-28.292-10a104.936,104.936,0,0,1,40.617-52.215,156.365,156.365,0,0,1-22.157-11.855c-12.373,10.366-34.589,25.132-60.726,25.132-39.4,0-69.914-33.571-71.191-35l-8.966-10.013,8.966-10.008c1.277-1.43,31.793-35,71.191-35l.051,0q-5.084-8.728-9.452-18.064c-22.625,2.278-47.228-.927-66.006-14.073-32.362-22.657-37.554-67.783-37.762-69.692l-1.414-13.154,12.876-3.05c1.671-.393,37.645-8.626,68.4,6.525q-.565-7.069-.8-14.247c-14.333-6.285-39.531-20.417-51.333-45.725-16.653-35.709.879-77.553,1.633-79.317l5.285-12.353,12.859,3.9c1.837.556,45.159,14.022,61.812,49.729,14.234,30.529,3.488,65.535-.4,76.158a267,267,0,0,0,7.2,59.914,128.326,128.326,0,0,1,11.1,34.255c8.5,20.441,20.187,39.636,35.688,56.065a122.927,122.927,0,0,1,23.141,20.016c19.954,13.835,43.218,22.063,68.382,22.063h.057c24.252,0,47.617-7.664,68.382-22.063a122.94,122.94,0,0,1,23.141-20.016c15.53-16.461,27.206-35.675,35.688-56.065a128.317,128.317,0,0,1,11.1-34.258,267.277,267.277,0,0,0,7.206-59.916c-3.892-10.618-14.637-45.624-.4-76.153,16.65-35.707,59.978-49.173,61.809-49.729l12.86-3.9,5.285,12.353c.753,1.764,18.286,43.608,1.633,79.317-11.8,25.308-37,39.443-51.333,45.725q-.233,7.177-.8,14.25c30.775-15.148,66.9-6.926,68.58-6.53l12.956,3.053-1.489,13.229c-.214,1.909-5.624,46.984-37.951,69.62-18.773,13.144-43.379,16.349-66.009,14.071q-4.358,9.322-9.449,18.064h.051c39.4,0,69.914,33.576,71.191,35l8.966,10.013-8.966,10.008c-1.275,1.427-31.793,35-71.191,35-26.137,0-48.353-14.771-60.727-25.135a156.622,156.622,0,0,1-22.124,11.842,104.888,104.888,0,0,1,40.641,52.226l-28.294,10A75.15,75.15,0,0,0-10395.1,5956.6Zm110.944-48.973q-2.987,3.055-6.062,5.934c9.11,6.741,22.277,14.105,36.375,14.105,14.724,0,28.444-8.035,37.578-15-9.129-6.963-22.854-15-37.578-15C-10265.063,5897.66-10275.691,5902.325-10284.16,5907.628Zm-289.836,5.041c9.126,6.961,22.852,15,37.578,15,14.095,0,27.265-7.364,36.375-14.105q-3.076-2.875-6.062-5.934c-8.469-5.3-19.1-9.968-30.312-9.968C-10551.142,5897.66-10564.862,5905.7-10574,5912.669Zm361.129-126.315c-6.8,4.764-11.879,11.473-15.64,18.383q-2.013,7.887-4.462,15.525c11.257.23,25.964-1.376,37.313-9.323,12.01-8.412,18.562-22.908,21.976-33.849-1.276-.051-2.606-.081-3.98-.081C-10188.544,5777.008-10202.163,5778.864-10212.867,5786.354Zm-403.614-9.241c3.344,10.914,9.818,25.386,21.868,33.825,11.31,7.917,26.035,9.524,37.308,9.3q-2.458-7.671-4.479-15.605c-3.753-6.864-8.824-13.523-15.613-18.281-10.671-7.473-24.268-9.324-35.127-9.324C-10613.891,5777.033-10615.214,5777.063-10616.481,5777.113Zm393.684-106.3c-6.223,13.344-4.736,29.174-2.285,40.4,10.177-5.333,23.259-14.371,29.481-27.714s4.739-29.182,2.282-40.4C-10203.487,5648.422-10216.574,5657.465-10222.8,5670.809Zm-371.866,12.684c6.2,13.291,19.3,22.349,29.483,27.7,2.454-11.221,3.93-27.043-2.288-40.379-6.2-13.288-19.3-22.347-29.483-27.7C-10599.406,5654.33-10600.887,5670.157-10594.664,5683.493Zm139.544,153.078v-90.023h45.012v-31.521a75.222,75.222,0,0,1-48.778-34.07,105.232,105.232,0,0,1-71.253-99.451v-15h270.069v15a105.234,105.234,0,0,1-71.253,99.451,75.227,75.227,0,0,1-48.777,34.07v31.521h45.011v90.023Zm30.008-30.008h60.015v-30.008h-60.015Zm-15-165.045a45.059,45.059,0,0,0,45.012,45.012,45.06,45.06,0,0,0,45.011-45.012v-45.011h-90.022Zm120.03,0v.005a75.384,75.384,0,0,0,28.492-45.017h-28.492Zm-150.038.005v-45.017h-28.489A75.379,75.379,0,0,0-10470.124,5641.523Z" transform="translate(10651 -5566)" fill="#8347eb"/>
  </g>
</svg>
