<svg id="time-2" xmlns="http://www.w3.org/2000/svg" width="31.725" height="31.723" viewBox="0 0 31.725 31.723">
  <path id="Path_52989" data-name="Path 52989" d="M30.771,45.581c-12-5.749-9.319-23.642,3.919-25.562A13.5,13.5,0,0,0,30.567,46.69C30.634,46.32,30.7,45.951,30.771,45.581Z" transform="translate(-18.134 -18.649)" fill="#8347eb" opacity="0.105"/>
  <path id="Path_52990" data-name="Path 52990" d="M12.307,29.281C12.381,29.294,12.235,29.281,12.307,29.281ZM14.694,2.5A12.23,12.23,0,0,1,26.78,12.642a1.241,1.241,0,0,0,2.445-.425A14.832,14.832,0,0,0,14.694.021C-3.374.633-5.485,25.673,12.307,29.281a1.241,1.241,0,0,0,.217-2.463C-2.057,23.851-.182,2.866,14.694,2.5Zm15.79,22.161a1.241,1.241,0,0,0-1.588.747,5.953,5.953,0,1,1-3.087-7.324,1.241,1.241,0,1,0,1.037-2.255,8.321,8.321,0,0,0-11.872,7.58c.125,9.344,12.979,11.573,16.257,2.84a1.241,1.241,0,0,0-.747-1.588Z" transform="translate(0 -0.019)" fill="#8347eb"/>
  <path id="Path_52991" data-name="Path 52991" d="M165.83,103.63l-4.843,4.888a3.144,3.144,0,0,1-4.485,0l-1.748-1.79a1.241,1.241,0,0,1,1.775-1.734l1.744,1.786a.666.666,0,0,0,.948,0l4.845-4.891a1.241,1.241,0,0,1,1.763,1.747ZM150.369,96.84V90.286a1.241,1.241,0,1,0-2.482,0V96.84a1.86,1.86,0,0,0-.614,1.54l-3.545,3.492a1.241,1.241,0,0,0,1.741,1.768l3.608-3.553A1.865,1.865,0,0,0,150.369,96.84Z" transform="translate(-134.465 -83.522)" fill="#8347eb"/>
</svg>
