<svg xmlns="http://www.w3.org/2000/svg" width="39.411" height="23.855" viewBox="0 0 39.411 23.855">
  <g id="value-chain" transform="translate(0 0)">
    <path id="Path_52992" data-name="Path 52992" d="M52.971,106.279a1.155,1.155,0,0,0,1.633,0l3.266-3.266a1.154,1.154,0,0,0-.04-1.671,1.176,1.176,0,0,0-1.616.062l-2.426,2.426-.816-.816a1.155,1.155,0,0,0-1.633,1.633Z" transform="translate(-47.074 -101.05)" fill="#8347eb"/>
    <path id="Path_52993" data-name="Path 52993" d="M349.332,106.279a1.155,1.155,0,0,0,1.633,0l3.266-3.266a1.155,1.155,0,0,0-.04-1.671,1.176,1.176,0,0,0-1.616.062l-2.426,2.426-.816-.816a1.155,1.155,0,0,0-1.633,1.633Z" transform="translate(-320.623 -101.05)" fill="#8347eb"/>
    <path id="Path_52994" data-name="Path 52994" d="M201.153,106.279a1.155,1.155,0,0,0,1.633,0l3.266-3.266a1.155,1.155,0,0,0-.04-1.671,1.176,1.176,0,0,0-1.616.062l-2.426,2.426-.816-.816a1.155,1.155,0,0,0-1.633,1.633Z" transform="translate(-183.85 -101.049)" fill="#8347eb"/>
    <path id="Path_52995" data-name="Path 52995" d="M39.236,227.651l-3.849-6.158a1.155,1.155,0,0,0-.979-.543H1.155A1.155,1.155,0,0,0,0,222.1v12.316a1.155,1.155,0,0,0,1.155,1.155H34.408a1.155,1.155,0,0,0,.979-.543l3.849-6.158A1.155,1.155,0,0,0,39.236,227.651ZM2.309,233.266V223.259h8.366l3.127,5-3.127,5Zm11.089,0,2.745-4.391a1.155,1.155,0,0,0,0-1.224L13.4,223.259h8.823l3.127,5-3.127,5Zm20.37,0H24.945l2.745-4.391a1.155,1.155,0,0,0,0-1.224l-2.745-4.391h8.823l3.127,5Z" transform="translate(0 -211.721)" fill="#8347eb"/>
  </g>
</svg>
