<?xml version="1.0" encoding="UTF-8" standalone="no"?>
<!DOCTYPE svg PUBLIC "-//W3C//DTD SVG 1.1//EN"
 "http://www.w3.org/Graphics/SVG/1.1/DTD/svg11.dtd">
<!-- Generated by graphviz version 2.40.1 (20161225.0304)
 -->
<!-- Title: dependencies Pages: 1 -->
<svg width="851pt" height="211pt"
 viewBox="0.00 0.00 851.00 211.00" xmlns="http://www.w3.org/2000/svg" xmlns:xlink="http://www.w3.org/1999/xlink">
<g id="graph0" class="graph" transform="scale(1 1) rotate(0) translate(4 207)">
<title>dependencies</title>
<polygon fill="#ffffff" stroke="transparent" points="-4,4 -4,-207 847,-207 847,4 -4,4"/>
<text text-anchor="start" x="400.5091" y="-42.4" font-family="sans-serif" font-weight="bold" font-size="14.00" fill="#000000">Legend</text>
<polygon fill="#ffffb3" stroke="transparent" points="187.5,-10 187.5,-30 207.5,-30 207.5,-10 187.5,-10"/>
<text text-anchor="start" x="211.129" y="-15.4" font-family="sans-serif" font-size="14.00" fill="#000000"> &#160;Declarations</text>
<polygon fill="#8dd3c7" stroke="transparent" points="300.5,-10 300.5,-30 320.5,-30 320.5,-10 300.5,-10"/>
<text text-anchor="start" x="324.2251" y="-15.4" font-family="sans-serif" font-size="14.00" fill="#000000"> &#160;Module</text>
<polygon fill="#80b1d3" stroke="transparent" points="386.5,-10 386.5,-30 406.5,-30 406.5,-10 386.5,-10"/>
<text text-anchor="start" x="410.2812" y="-15.4" font-family="sans-serif" font-size="14.00" fill="#000000"> &#160;Bootstrap</text>
<polygon fill="#fdb462" stroke="transparent" points="483.5,-10 483.5,-30 503.5,-30 503.5,-10 483.5,-10"/>
<text text-anchor="start" x="507.1732" y="-15.4" font-family="sans-serif" font-size="14.00" fill="#000000"> &#160;Providers</text>
<polygon fill="#fb8072" stroke="transparent" points="579.5,-10 579.5,-30 599.5,-30 599.5,-10 579.5,-10"/>
<text text-anchor="start" x="603.2258" y="-15.4" font-family="sans-serif" font-size="14.00" fill="#000000"> &#160;Exports</text>
<g id="clust1" class="cluster">
<title>cluster_FaqModule</title>
<polygon fill="none" stroke="#000000" stroke-dasharray="1,5" points="8,-70 8,-195 835,-195 835,-70 8,-70"/>
</g>
<g id="clust2" class="cluster">
<title>cluster_FaqModule_declarations</title>
<polygon fill="none" stroke="#000000" points="399,-78 399,-130 827,-130 827,-78 399,-78"/>
</g>
<g id="clust6" class="cluster">
<title>cluster_FaqModule_imports</title>
<polygon fill="none" stroke="#000000" points="16,-78 16,-130 391,-130 391,-78 16,-78"/>
</g>
<!-- FaqAddEditComponent -->
<g id="node1" class="node">
<title>FaqAddEditComponent</title>
<polygon fill="#ffffb3" stroke="#000000" points="818.7702,-122 669.2298,-122 669.2298,-86 818.7702,-86 818.7702,-122"/>
<text text-anchor="middle" x="744" y="-99.8" font-family="Times,serif" font-size="14.00" fill="#000000">FaqAddEditComponent</text>
</g>
<!-- FaqModule -->
<g id="node4" class="node">
<title>FaqModule</title>
<polygon fill="#8dd3c7" stroke="#000000" points="434.0483,-187 431.0483,-191 410.0483,-191 407.0483,-187 353.9517,-187 353.9517,-151 434.0483,-151 434.0483,-187"/>
<text text-anchor="middle" x="394" y="-164.8" font-family="Times,serif" font-size="14.00" fill="#000000">FaqModule</text>
</g>
<!-- FaqAddEditComponent&#45;&gt;FaqModule -->
<g id="edge1" class="edge">
<title>FaqAddEditComponent&#45;&gt;FaqModule</title>
<path fill="none" stroke="#000000" d="M744,-122.2843C744,-143.3211 744,-175 744,-175 744,-175 444.1495,-175 444.1495,-175"/>
<polygon fill="#000000" stroke="#000000" points="444.1495,-171.5001 434.1495,-175 444.1494,-178.5001 444.1495,-171.5001"/>
</g>
<!-- FaqComponent -->
<g id="node2" class="node">
<title>FaqComponent</title>
<polygon fill="#ffffb3" stroke="#000000" points="651.3301,-122 548.6699,-122 548.6699,-86 651.3301,-86 651.3301,-122"/>
<text text-anchor="middle" x="600" y="-99.8" font-family="Times,serif" font-size="14.00" fill="#000000">FaqComponent</text>
</g>
<!-- FaqComponent&#45;&gt;FaqModule -->
<g id="edge2" class="edge">
<title>FaqComponent&#45;&gt;FaqModule</title>
<path fill="none" stroke="#000000" d="M600,-122.0225C600,-139.3734 600,-163 600,-163 600,-163 444.2079,-163 444.2079,-163"/>
<polygon fill="#000000" stroke="#000000" points="444.2079,-159.5001 434.2079,-163 444.2079,-166.5001 444.2079,-159.5001"/>
</g>
<!-- FaqListComponent -->
<g id="node3" class="node">
<title>FaqListComponent</title>
<polygon fill="#ffffb3" stroke="#000000" points="531.108,-122 406.892,-122 406.892,-86 531.108,-86 531.108,-122"/>
<text text-anchor="middle" x="469" y="-99.8" font-family="Times,serif" font-size="14.00" fill="#000000">FaqListComponent</text>
</g>
<!-- FaqListComponent&#45;&gt;FaqModule -->
<g id="edge3" class="edge">
<title>FaqListComponent&#45;&gt;FaqModule</title>
<path fill="none" stroke="#000000" d="M420.6098,-122.1061C420.6098,-122.1061 420.6098,-140.991 420.6098,-140.991"/>
<polygon fill="#000000" stroke="#000000" points="417.1098,-140.9909 420.6098,-150.991 424.1098,-140.991 417.1098,-140.9909"/>
</g>
<!-- FaqRoutingModule -->
<g id="node5" class="node">
<title>FaqRoutingModule</title>
<polygon fill="#8dd3c7" stroke="#000000" points="382.6652,-122 379.6652,-126 358.6652,-126 355.6652,-122 257.3348,-122 257.3348,-86 382.6652,-86 382.6652,-122"/>
<text text-anchor="middle" x="320" y="-99.8" font-family="Times,serif" font-size="14.00" fill="#000000">FaqRoutingModule</text>
</g>
<!-- FaqRoutingModule&#45;&gt;FaqModule -->
<g id="edge4" class="edge">
<title>FaqRoutingModule&#45;&gt;FaqModule</title>
<path fill="none" stroke="#000000" d="M368.2795,-122.1061C368.2795,-122.1061 368.2795,-140.991 368.2795,-140.991"/>
<polygon fill="#000000" stroke="#000000" points="364.7795,-140.9909 368.2795,-150.991 371.7795,-140.991 364.7795,-140.9909"/>
</g>
<!-- LoaderModule -->
<g id="node6" class="node">
<title>LoaderModule</title>
<polygon fill="#8dd3c7" stroke="#000000" points="239.6924,-122 236.6924,-126 215.6924,-126 212.6924,-122 140.3076,-122 140.3076,-86 239.6924,-86 239.6924,-122"/>
<text text-anchor="middle" x="190" y="-99.8" font-family="Times,serif" font-size="14.00" fill="#000000">LoaderModule</text>
</g>
<!-- LoaderModule&#45;&gt;FaqModule -->
<g id="edge5" class="edge">
<title>LoaderModule&#45;&gt;FaqModule</title>
<path fill="none" stroke="#000000" d="M190,-122.0225C190,-139.3734 190,-163 190,-163 190,-163 343.6962,-163 343.6962,-163"/>
<polygon fill="#000000" stroke="#000000" points="343.6962,-166.5001 353.6962,-163 343.6961,-159.5001 343.6962,-166.5001"/>
</g>
<!-- SharedModule -->
<g id="node7" class="node">
<title>SharedModule</title>
<polygon fill="#8dd3c7" stroke="#000000" points="122.4231,-122 119.4231,-126 98.4231,-126 95.4231,-122 23.5769,-122 23.5769,-86 122.4231,-86 122.4231,-122"/>
<text text-anchor="middle" x="73" y="-99.8" font-family="Times,serif" font-size="14.00" fill="#000000">SharedModule</text>
</g>
<!-- SharedModule&#45;&gt;FaqModule -->
<g id="edge6" class="edge">
<title>SharedModule&#45;&gt;FaqModule</title>
<path fill="none" stroke="#000000" d="M73,-122.2843C73,-143.3211 73,-175 73,-175 73,-175 343.6702,-175 343.6702,-175"/>
<polygon fill="#000000" stroke="#000000" points="343.6702,-178.5001 353.6702,-175 343.6701,-171.5001 343.6702,-178.5001"/>
</g>
</g>
</svg>
