<svg xmlns="http://www.w3.org/2000/svg" width="26.077" height="29.803" viewBox="0 0 26.077 29.803">
  <g id="_1156660_ecommerce_logo_shopify_icon" data-name="1156660_ecommerce_logo_shopify_icon" transform="translate(-5 -1.142)">
    <g id="Group_49535" data-name="Group 49535" transform="translate(5 1.142)">
      <path id="Path_53101" data-name="Path 53101" d="M27.58,6.7c-.107-.01-2.386-.179-2.386-.179L23.438,4.771a.715.715,0,0,0-.646-.083l-.886.274c-.529-1.529-1.462-2.935-3.1-2.935-.045,0-.092,0-.14,0a2,2,0,0,0-1.545-.89c-3.824,0-5.652,4.805-6.224,7.248-1.486.462-2.543.791-2.676.834-.831.262-.857.288-.964,1.073C7.171,10.891,5,27.761,5,27.761l16.912,3.184,9.165-1.993S27.861,7.1,27.84,6.945A.287.287,0,0,0,27.58,6.7Zm-9.043-.859c0,.057,0,.112,0,.166l-2.956.92c.569-2.207,1.636-3.274,2.569-3.676A7.188,7.188,0,0,1,18.538,5.845ZM17.013,2.173a.856.856,0,0,1,.492.167c-1.226.579-2.539,2.04-3.094,4.955l-2.336.727C12.724,5.8,14.266,2.173,17.013,2.173Zm.659,13a5.178,5.178,0,0,0-2.2-.531c-1.78,0-1.87,1.122-1.87,1.4,0,1.543,4,2.134,4,5.748,0,2.843-1.794,4.674-4.214,4.674A5.853,5.853,0,0,1,9,24.649l.777-2.581a5.545,5.545,0,0,0,2.815,1.318,1.138,1.138,0,0,0,1.183-1.153c0-2.013-3.283-2.1-3.283-5.41,0-2.782,1.988-5.477,6-5.477a4.916,4.916,0,0,1,2.31.446ZM19.54,5.7c0-.1,0-.2,0-.311A7.085,7.085,0,0,0,19.2,3.066c.846.106,1.41,1.074,1.772,2.187C20.547,5.386,20.064,5.536,19.54,5.7Z" transform="translate(-5 -1.142)" fill="#95c675"/>
    </g>
    <g id="Group_49536" data-name="Group 49536" transform="translate(5 1.142)">
      <path id="Path_53102" data-name="Path 53102" d="M27.58,6.7c-.107-.01-2.386-.179-2.386-.179L23.438,4.771a.715.715,0,0,0-.646-.083l-.886.274c-.529-1.529-1.462-2.935-3.1-2.935-.045,0-.092,0-.14,0a2,2,0,0,0-1.545-.89c-3.824,0-4.768,4.805-5.341,7.248-1.486.462-2.627,3-2.762,3.046-.83.262-.856.288-.964,1.074C7.969,13.1,5,27.761,5,27.761l16.912,3.184,9.165-1.993S27.861,7.1,27.84,6.945A.287.287,0,0,0,27.58,6.7Zm-9.043-.859c0,.057,0,.112,0,.166l-2.956.92c.569-2.207,1.636-3.274,2.569-3.676A7.188,7.188,0,0,1,18.538,5.845ZM17.013,2.173a.856.856,0,0,1,.492.167c-1.226.579-2.539,2.04-3.094,4.955l-2.336.727C12.724,5.8,14.266,2.173,17.013,2.173Zm.659,13a5.178,5.178,0,0,0-2.2-.531c-1.78,0-1.87,1.122-1.87,1.4,0,1.543,4,2.134,4,5.748,0,2.843-1.794,4.674-4.214,4.674A5.853,5.853,0,0,1,9,24.649l.777-2.581a5.545,5.545,0,0,0,2.815,1.318,1.138,1.138,0,0,0,1.183-1.153c0-2.013-3.283-2.1-3.283-5.41,0-2.782,1.988-5.477,6-5.477a4.916,4.916,0,0,1,2.31.446ZM19.54,5.7c0-.1,0-.2,0-.311A7.085,7.085,0,0,0,19.2,3.066c.846.106,1.41,1.074,1.772,2.187C20.547,5.386,20.064,5.536,19.54,5.7Z" transform="translate(-5 -1.142)" fill="#79b259"/>
    </g>
    <path id="Path_53103" data-name="Path 53103" d="M39.818,34.7l9.165-1.992S45.766,10.851,45.745,10.7a.286.286,0,0,0-.26-.241c-.107-.01-2.386-.179-2.386-.179L41.343,8.527a.5.5,0,0,0-.362-.121,3.751,3.751,0,0,0-.276,1.708L39.627,34.665Z" transform="translate(-17.905 -3.756)" fill="#55932c"/>
    <path id="Path_53104" data-name="Path 53104" d="M25.122,2.029c-.045,0-.092,0-.14,0a2,2,0,0,0-1.545-.89c-3.809,0-5.637,4.768-6.217,7.218L18.4,7.995c.654-2.226,2.195-5.821,4.93-5.821a.856.856,0,0,1,.492.167c-1.223.577-2.532,2.033-3.09,4.932l1.173-.362c.571-2.193,1.633-3.254,2.563-3.655a7.2,7.2,0,0,1,.388,2.59c0,.052,0,.1,0,.152l1-.311c0-.1,0-.193,0-.3a7.085,7.085,0,0,0-.342-2.321c.843.105,1.406,1.069,1.768,2.177l.936-.29C27.692,3.429,26.76,2.029,25.122,2.029Z" transform="translate(-6.319 -0.001)" fill="#4a7a2b"/>
    <path id="Path_53105" data-name="Path 53105" d="M43.482,10.31l-.383-.029L41.342,8.527a.5.5,0,0,0-.362-.121,3.751,3.751,0,0,0-.276,1.708L39.626,34.665l.191.036,4.876-1.06Z" transform="translate(-17.905 -3.756)" fill="#4c822a"/>
  </g>
</svg>
