<?xml version="1.0" encoding="UTF-8" standalone="no"?>
<!DOCTYPE svg PUBLIC "-//W3C//DTD SVG 1.1//EN"
 "http://www.w3.org/Graphics/SVG/1.1/DTD/svg11.dtd">
<!-- Generated by graphviz version 2.40.1 (20161225.0304)
 -->
<!-- Title: dependencies Pages: 1 -->
<svg width="1069pt" height="211pt"
 viewBox="0.00 0.00 1069.00 211.00" xmlns="http://www.w3.org/2000/svg" xmlns:xlink="http://www.w3.org/1999/xlink">
<g id="graph0" class="graph" transform="scale(1 1) rotate(0) translate(4 207)">
<title>dependencies</title>
<polygon fill="#ffffff" stroke="transparent" points="-4,4 -4,-207 1065,-207 1065,4 -4,4"/>
<text text-anchor="start" x="509.5091" y="-42.4" font-family="sans-serif" font-weight="bold" font-size="14.00" fill="#000000">Legend</text>
<polygon fill="#ffffb3" stroke="transparent" points="296.5,-10 296.5,-30 316.5,-30 316.5,-10 296.5,-10"/>
<text text-anchor="start" x="320.129" y="-15.4" font-family="sans-serif" font-size="14.00" fill="#000000"> &#160;Declarations</text>
<polygon fill="#8dd3c7" stroke="transparent" points="409.5,-10 409.5,-30 429.5,-30 429.5,-10 409.5,-10"/>
<text text-anchor="start" x="433.2251" y="-15.4" font-family="sans-serif" font-size="14.00" fill="#000000"> &#160;Module</text>
<polygon fill="#80b1d3" stroke="transparent" points="495.5,-10 495.5,-30 515.5,-30 515.5,-10 495.5,-10"/>
<text text-anchor="start" x="519.2812" y="-15.4" font-family="sans-serif" font-size="14.00" fill="#000000"> &#160;Bootstrap</text>
<polygon fill="#fdb462" stroke="transparent" points="592.5,-10 592.5,-30 612.5,-30 612.5,-10 592.5,-10"/>
<text text-anchor="start" x="616.1732" y="-15.4" font-family="sans-serif" font-size="14.00" fill="#000000"> &#160;Providers</text>
<polygon fill="#fb8072" stroke="transparent" points="688.5,-10 688.5,-30 708.5,-30 708.5,-10 688.5,-10"/>
<text text-anchor="start" x="712.2258" y="-15.4" font-family="sans-serif" font-size="14.00" fill="#000000"> &#160;Exports</text>
<g id="clust1" class="cluster">
<title>cluster_ManageOfferModule</title>
<polygon fill="none" stroke="#000000" stroke-dasharray="1,5" points="8,-70 8,-195 1053,-195 1053,-70 8,-70"/>
</g>
<g id="clust2" class="cluster">
<title>cluster_ManageOfferModule_declarations</title>
<polygon fill="none" stroke="#000000" points="454,-78 454,-130 1045,-130 1045,-78 454,-78"/>
</g>
<g id="clust6" class="cluster">
<title>cluster_ManageOfferModule_imports</title>
<polygon fill="none" stroke="#000000" points="16,-78 16,-130 446,-130 446,-78 16,-78"/>
</g>
<!-- ManageOfferAddEditComponent -->
<g id="node1" class="node">
<title>ManageOfferAddEditComponent</title>
<polygon fill="#ffffb3" stroke="#000000" points="1037.1643,-122 832.8357,-122 832.8357,-86 1037.1643,-86 1037.1643,-122"/>
<text text-anchor="middle" x="935" y="-99.8" font-family="Times,serif" font-size="14.00" fill="#000000">ManageOfferAddEditComponent</text>
</g>
<!-- ManageOfferModule -->
<g id="node4" class="node">
<title>ManageOfferModule</title>
<polygon fill="#8dd3c7" stroke="#000000" points="536.4412,-187 533.4412,-191 512.4412,-191 509.4412,-187 401.5588,-187 401.5588,-151 536.4412,-151 536.4412,-187"/>
<text text-anchor="middle" x="469" y="-164.8" font-family="Times,serif" font-size="14.00" fill="#000000">ManageOfferModule</text>
</g>
<!-- ManageOfferAddEditComponent&#45;&gt;ManageOfferModule -->
<g id="edge1" class="edge">
<title>ManageOfferAddEditComponent&#45;&gt;ManageOfferModule</title>
<path fill="none" stroke="#000000" d="M935,-122.2843C935,-143.3211 935,-175 935,-175 935,-175 546.7604,-175 546.7604,-175"/>
<polygon fill="#000000" stroke="#000000" points="546.7604,-171.5001 536.7604,-175 546.7604,-178.5001 546.7604,-171.5001"/>
</g>
<!-- ManageOfferComponent -->
<g id="node2" class="node">
<title>ManageOfferComponent</title>
<polygon fill="#ffffb3" stroke="#000000" points="815.224,-122 658.776,-122 658.776,-86 815.224,-86 815.224,-122"/>
<text text-anchor="middle" x="737" y="-99.8" font-family="Times,serif" font-size="14.00" fill="#000000">ManageOfferComponent</text>
</g>
<!-- ManageOfferComponent&#45;&gt;ManageOfferModule -->
<g id="edge2" class="edge">
<title>ManageOfferComponent&#45;&gt;ManageOfferModule</title>
<path fill="none" stroke="#000000" d="M737,-122.0225C737,-139.3734 737,-163 737,-163 737,-163 546.6277,-163 546.6277,-163"/>
<polygon fill="#000000" stroke="#000000" points="546.6278,-159.5001 536.6277,-163 546.6277,-166.5001 546.6278,-159.5001"/>
</g>
<!-- ManageOfferListComponent -->
<g id="node3" class="node">
<title>ManageOfferListComponent</title>
<polygon fill="#ffffb3" stroke="#000000" points="640.0029,-122 461.9971,-122 461.9971,-86 640.0029,-86 640.0029,-122"/>
<text text-anchor="middle" x="551" y="-99.8" font-family="Times,serif" font-size="14.00" fill="#000000">ManageOfferListComponent</text>
</g>
<!-- ManageOfferListComponent&#45;&gt;ManageOfferModule -->
<g id="edge3" class="edge">
<title>ManageOfferListComponent&#45;&gt;ManageOfferModule</title>
<path fill="none" stroke="#000000" d="M499.1098,-122.1061C499.1098,-122.1061 499.1098,-140.991 499.1098,-140.991"/>
<polygon fill="#000000" stroke="#000000" points="495.6098,-140.9909 499.1098,-150.991 502.6098,-140.991 495.6098,-140.9909"/>
</g>
<!-- LoaderModule -->
<g id="node5" class="node">
<title>LoaderModule</title>
<polygon fill="#8dd3c7" stroke="#000000" points="437.6924,-122 434.6924,-126 413.6924,-126 410.6924,-122 338.3076,-122 338.3076,-86 437.6924,-86 437.6924,-122"/>
<text text-anchor="middle" x="388" y="-99.8" font-family="Times,serif" font-size="14.00" fill="#000000">LoaderModule</text>
</g>
<!-- LoaderModule&#45;&gt;ManageOfferModule -->
<g id="edge4" class="edge">
<title>LoaderModule&#45;&gt;ManageOfferModule</title>
<path fill="none" stroke="#000000" d="M419.5628,-122.1061C419.5628,-122.1061 419.5628,-140.991 419.5628,-140.991"/>
<polygon fill="#000000" stroke="#000000" points="416.0628,-140.9909 419.5628,-150.991 423.0628,-140.991 416.0628,-140.9909"/>
</g>
<!-- ManageOfferRoutingModule -->
<g id="node6" class="node">
<title>ManageOfferRoutingModule</title>
<polygon fill="#8dd3c7" stroke="#000000" points="320.059,-122 317.059,-126 296.059,-126 293.059,-122 139.941,-122 139.941,-86 320.059,-86 320.059,-122"/>
<text text-anchor="middle" x="230" y="-99.8" font-family="Times,serif" font-size="14.00" fill="#000000">ManageOfferRoutingModule</text>
</g>
<!-- ManageOfferRoutingModule&#45;&gt;ManageOfferModule -->
<g id="edge5" class="edge">
<title>ManageOfferRoutingModule&#45;&gt;ManageOfferModule</title>
<path fill="none" stroke="#000000" d="M230,-122.0225C230,-139.3734 230,-163 230,-163 230,-163 391.4705,-163 391.4705,-163"/>
<polygon fill="#000000" stroke="#000000" points="391.4706,-166.5001 401.4705,-163 391.4705,-159.5001 391.4706,-166.5001"/>
</g>
<!-- SharedModule -->
<g id="node7" class="node">
<title>SharedModule</title>
<polygon fill="#8dd3c7" stroke="#000000" points="122.4231,-122 119.4231,-126 98.4231,-126 95.4231,-122 23.5769,-122 23.5769,-86 122.4231,-86 122.4231,-122"/>
<text text-anchor="middle" x="73" y="-99.8" font-family="Times,serif" font-size="14.00" fill="#000000">SharedModule</text>
</g>
<!-- SharedModule&#45;&gt;ManageOfferModule -->
<g id="edge6" class="edge">
<title>SharedModule&#45;&gt;ManageOfferModule</title>
<path fill="none" stroke="#000000" d="M73,-122.2843C73,-143.3211 73,-175 73,-175 73,-175 391.3751,-175 391.3751,-175"/>
<polygon fill="#000000" stroke="#000000" points="391.3752,-178.5001 401.3751,-175 391.3751,-171.5001 391.3752,-178.5001"/>
</g>
</g>
</svg>
