<?xml version="1.0" encoding="UTF-8" standalone="no"?>
<!DOCTYPE svg PUBLIC "-//W3C//DTD SVG 1.1//EN"
 "http://www.w3.org/Graphics/SVG/1.1/DTD/svg11.dtd">
<!-- Generated by graphviz version 2.40.1 (20161225.0304)
 -->
<!-- Title: dependencies Pages: 1 -->
<svg width="560pt" height="211pt"
 viewBox="0.00 0.00 560.00 211.00" xmlns="http://www.w3.org/2000/svg" xmlns:xlink="http://www.w3.org/1999/xlink">
<g id="graph0" class="graph" transform="scale(1 1) rotate(0) translate(4 207)">
<title>dependencies</title>
<polygon fill="#ffffff" stroke="transparent" points="-4,4 -4,-207 556,-207 556,4 -4,4"/>
<text text-anchor="start" x="255.0091" y="-42.4" font-family="sans-serif" font-weight="bold" font-size="14.00" fill="#000000">Legend</text>
<polygon fill="#ffffb3" stroke="transparent" points="42,-10 42,-30 62,-30 62,-10 42,-10"/>
<text text-anchor="start" x="65.629" y="-15.4" font-family="sans-serif" font-size="14.00" fill="#000000"> &#160;Declarations</text>
<polygon fill="#8dd3c7" stroke="transparent" points="155,-10 155,-30 175,-30 175,-10 155,-10"/>
<text text-anchor="start" x="178.7251" y="-15.4" font-family="sans-serif" font-size="14.00" fill="#000000"> &#160;Module</text>
<polygon fill="#80b1d3" stroke="transparent" points="241,-10 241,-30 261,-30 261,-10 241,-10"/>
<text text-anchor="start" x="264.7812" y="-15.4" font-family="sans-serif" font-size="14.00" fill="#000000"> &#160;Bootstrap</text>
<polygon fill="#fdb462" stroke="transparent" points="338,-10 338,-30 358,-30 358,-10 338,-10"/>
<text text-anchor="start" x="361.6732" y="-15.4" font-family="sans-serif" font-size="14.00" fill="#000000"> &#160;Providers</text>
<polygon fill="#fb8072" stroke="transparent" points="434,-10 434,-30 454,-30 454,-10 434,-10"/>
<text text-anchor="start" x="457.7258" y="-15.4" font-family="sans-serif" font-size="14.00" fill="#000000"> &#160;Exports</text>
<g id="clust1" class="cluster">
<title>cluster_RolePermissionModule</title>
<polygon fill="none" stroke="#000000" stroke-dasharray="1,5" points="8,-70 8,-195 544,-195 544,-70 8,-70"/>
</g>
<g id="clust2" class="cluster">
<title>cluster_RolePermissionModule_declarations</title>
<polygon fill="none" stroke="#000000" points="350,-78 350,-130 536,-130 536,-78 350,-78"/>
</g>
<g id="clust4" class="cluster">
<title>cluster_RolePermissionModule_imports</title>
<polygon fill="none" stroke="#000000" points="16,-78 16,-130 342,-130 342,-78 16,-78"/>
</g>
<!-- RolePermissionComponent -->
<g id="node1" class="node">
<title>RolePermissionComponent</title>
<polygon fill="#ffffb3" stroke="#000000" points="527.993,-122 358.007,-122 358.007,-86 527.993,-86 527.993,-122"/>
<text text-anchor="middle" x="443" y="-99.8" font-family="Times,serif" font-size="14.00" fill="#000000">RolePermissionComponent</text>
</g>
<!-- RolePermissionModule -->
<g id="node2" class="node">
<title>RolePermissionModule</title>
<polygon fill="#8dd3c7" stroke="#000000" points="311.2105,-187 308.2105,-191 287.2105,-191 284.2105,-187 162.7895,-187 162.7895,-151 311.2105,-151 311.2105,-187"/>
<text text-anchor="middle" x="237" y="-164.8" font-family="Times,serif" font-size="14.00" fill="#000000">RolePermissionModule</text>
</g>
<!-- RolePermissionComponent&#45;&gt;RolePermissionModule -->
<g id="edge1" class="edge">
<title>RolePermissionComponent&#45;&gt;RolePermissionModule</title>
<path fill="none" stroke="#000000" d="M443,-122.1061C443,-141.3391 443,-169 443,-169 443,-169 321.3707,-169 321.3707,-169"/>
<polygon fill="#000000" stroke="#000000" points="321.3708,-165.5001 311.3707,-169 321.3707,-172.5001 321.3708,-165.5001"/>
</g>
<!-- RolePermissionRoutingModule -->
<g id="node3" class="node">
<title>RolePermissionRoutingModule</title>
<polygon fill="#8dd3c7" stroke="#000000" points="333.8285,-122 330.8285,-126 309.8285,-126 306.8285,-122 140.1715,-122 140.1715,-86 333.8285,-86 333.8285,-122"/>
<text text-anchor="middle" x="237" y="-99.8" font-family="Times,serif" font-size="14.00" fill="#000000">RolePermissionRoutingModule</text>
</g>
<!-- RolePermissionRoutingModule&#45;&gt;RolePermissionModule -->
<g id="edge2" class="edge">
<title>RolePermissionRoutingModule&#45;&gt;RolePermissionModule</title>
<path fill="none" stroke="#000000" d="M237,-122.1061C237,-122.1061 237,-140.991 237,-140.991"/>
<polygon fill="#000000" stroke="#000000" points="233.5001,-140.9909 237,-150.991 240.5001,-140.991 233.5001,-140.9909"/>
</g>
<!-- SharedModule -->
<g id="node4" class="node">
<title>SharedModule</title>
<polygon fill="#8dd3c7" stroke="#000000" points="122.4231,-122 119.4231,-126 98.4231,-126 95.4231,-122 23.5769,-122 23.5769,-86 122.4231,-86 122.4231,-122"/>
<text text-anchor="middle" x="73" y="-99.8" font-family="Times,serif" font-size="14.00" fill="#000000">SharedModule</text>
</g>
<!-- SharedModule&#45;&gt;RolePermissionModule -->
<g id="edge3" class="edge">
<title>SharedModule&#45;&gt;RolePermissionModule</title>
<path fill="none" stroke="#000000" d="M73,-122.1061C73,-141.3391 73,-169 73,-169 73,-169 152.6775,-169 152.6775,-169"/>
<polygon fill="#000000" stroke="#000000" points="152.6775,-172.5001 162.6775,-169 152.6775,-165.5001 152.6775,-172.5001"/>
</g>
</g>
</svg>
