<?xml version="1.0" encoding="UTF-8" standalone="no"?>
<!DOCTYPE svg PUBLIC "-//W3C//DTD SVG 1.1//EN"
 "http://www.w3.org/Graphics/SVG/1.1/DTD/svg11.dtd">
<!-- Generated by graphviz version 2.40.1 (20161225.0304)
 -->
<!-- Title: dependencies Pages: 1 -->
<svg width="630pt" height="211pt"
 viewBox="0.00 0.00 630.00 211.00" xmlns="http://www.w3.org/2000/svg" xmlns:xlink="http://www.w3.org/1999/xlink">
<g id="graph0" class="graph" transform="scale(1 1) rotate(0) translate(4 207)">
<title>dependencies</title>
<polygon fill="#ffffff" stroke="transparent" points="-4,4 -4,-207 626,-207 626,4 -4,4"/>
<text text-anchor="start" x="290.0091" y="-42.4" font-family="sans-serif" font-weight="bold" font-size="14.00" fill="#000000">Legend</text>
<polygon fill="#ffffb3" stroke="transparent" points="77,-10 77,-30 97,-30 97,-10 77,-10"/>
<text text-anchor="start" x="100.629" y="-15.4" font-family="sans-serif" font-size="14.00" fill="#000000"> &#160;Declarations</text>
<polygon fill="#8dd3c7" stroke="transparent" points="190,-10 190,-30 210,-30 210,-10 190,-10"/>
<text text-anchor="start" x="213.7251" y="-15.4" font-family="sans-serif" font-size="14.00" fill="#000000"> &#160;Module</text>
<polygon fill="#80b1d3" stroke="transparent" points="276,-10 276,-30 296,-30 296,-10 276,-10"/>
<text text-anchor="start" x="299.7812" y="-15.4" font-family="sans-serif" font-size="14.00" fill="#000000"> &#160;Bootstrap</text>
<polygon fill="#fdb462" stroke="transparent" points="373,-10 373,-30 393,-30 393,-10 373,-10"/>
<text text-anchor="start" x="396.6732" y="-15.4" font-family="sans-serif" font-size="14.00" fill="#000000"> &#160;Providers</text>
<polygon fill="#fb8072" stroke="transparent" points="469,-10 469,-30 489,-30 489,-10 469,-10"/>
<text text-anchor="start" x="492.7258" y="-15.4" font-family="sans-serif" font-size="14.00" fill="#000000"> &#160;Exports</text>
<g id="clust1" class="cluster">
<title>cluster_UserReportModule</title>
<polygon fill="none" stroke="#000000" stroke-dasharray="1,5" points="8,-70 8,-195 614,-195 614,-70 8,-70"/>
</g>
<g id="clust2" class="cluster">
<title>cluster_UserReportModule_declarations</title>
<polygon fill="none" stroke="#000000" points="444,-78 444,-130 606,-130 606,-78 444,-78"/>
</g>
<g id="clust4" class="cluster">
<title>cluster_UserReportModule_imports</title>
<polygon fill="none" stroke="#000000" points="16,-78 16,-130 436,-130 436,-78 16,-78"/>
</g>
<!-- UserReportComponent -->
<g id="node1" class="node">
<title>UserReportComponent</title>
<polygon fill="#ffffb3" stroke="#000000" points="597.8613,-122 452.1387,-122 452.1387,-86 597.8613,-86 597.8613,-122"/>
<text text-anchor="middle" x="525" y="-99.8" font-family="Times,serif" font-size="14.00" fill="#000000">UserReportComponent</text>
</g>
<!-- UserReportModule -->
<g id="node2" class="node">
<title>UserReportModule</title>
<polygon fill="#8dd3c7" stroke="#000000" points="381.0786,-187 378.0786,-191 357.0786,-191 354.0786,-187 256.9214,-187 256.9214,-151 381.0786,-151 381.0786,-187"/>
<text text-anchor="middle" x="319" y="-164.8" font-family="Times,serif" font-size="14.00" fill="#000000">UserReportModule</text>
</g>
<!-- UserReportComponent&#45;&gt;UserReportModule -->
<g id="edge1" class="edge">
<title>UserReportComponent&#45;&gt;UserReportModule</title>
<path fill="none" stroke="#000000" d="M525,-122.1061C525,-141.3391 525,-169 525,-169 525,-169 391.0861,-169 391.0861,-169"/>
<polygon fill="#000000" stroke="#000000" points="391.0862,-165.5001 381.0861,-169 391.0861,-172.5001 391.0862,-165.5001"/>
</g>
<!-- LoaderModule -->
<g id="node3" class="node">
<title>LoaderModule</title>
<polygon fill="#8dd3c7" stroke="#000000" points="427.6924,-122 424.6924,-126 403.6924,-126 400.6924,-122 328.3076,-122 328.3076,-86 427.6924,-86 427.6924,-122"/>
<text text-anchor="middle" x="378" y="-99.8" font-family="Times,serif" font-size="14.00" fill="#000000">LoaderModule</text>
</g>
<!-- LoaderModule&#45;&gt;UserReportModule -->
<g id="edge2" class="edge">
<title>LoaderModule&#45;&gt;UserReportModule</title>
<path fill="none" stroke="#000000" d="M354.7216,-122.1061C354.7216,-122.1061 354.7216,-140.991 354.7216,-140.991"/>
<polygon fill="#000000" stroke="#000000" points="351.2217,-140.9909 354.7216,-150.991 358.2217,-140.991 351.2217,-140.9909"/>
</g>
<!-- SharedModule -->
<g id="node4" class="node">
<title>SharedModule</title>
<polygon fill="#8dd3c7" stroke="#000000" points="310.4231,-122 307.4231,-126 286.4231,-126 283.4231,-122 211.5769,-122 211.5769,-86 310.4231,-86 310.4231,-122"/>
<text text-anchor="middle" x="261" y="-99.8" font-family="Times,serif" font-size="14.00" fill="#000000">SharedModule</text>
</g>
<!-- SharedModule&#45;&gt;UserReportModule -->
<g id="edge3" class="edge">
<title>SharedModule&#45;&gt;UserReportModule</title>
<path fill="none" stroke="#000000" d="M283.5859,-122.1061C283.5859,-122.1061 283.5859,-140.991 283.5859,-140.991"/>
<polygon fill="#000000" stroke="#000000" points="280.086,-140.9909 283.5859,-150.991 287.086,-140.991 280.086,-140.9909"/>
</g>
<!-- UserReportRoutingModule -->
<g id="node5" class="node">
<title>UserReportRoutingModule</title>
<polygon fill="#8dd3c7" stroke="#000000" points="193.6965,-122 190.6965,-126 169.6965,-126 166.6965,-122 24.3035,-122 24.3035,-86 193.6965,-86 193.6965,-122"/>
<text text-anchor="middle" x="109" y="-99.8" font-family="Times,serif" font-size="14.00" fill="#000000">UserReportRoutingModule</text>
</g>
<!-- UserReportRoutingModule&#45;&gt;UserReportModule -->
<g id="edge4" class="edge">
<title>UserReportRoutingModule&#45;&gt;UserReportModule</title>
<path fill="none" stroke="#000000" d="M109,-122.1061C109,-141.3391 109,-169 109,-169 109,-169 246.8454,-169 246.8454,-169"/>
<polygon fill="#000000" stroke="#000000" points="246.8455,-172.5001 256.8454,-169 246.8454,-165.5001 246.8455,-172.5001"/>
</g>
</g>
</svg>
