<?xml version="1.0" encoding="UTF-8" standalone="no"?>
<!DOCTYPE svg PUBLIC "-//W3C//DTD SVG 1.1//EN"
 "http://www.w3.org/Graphics/SVG/1.1/DTD/svg11.dtd">
<!-- Generated by graphviz version 2.40.1 (20161225.0304)
 -->
<!-- Title: dependencies Pages: 1 -->
<svg width="1575pt" height="211pt"
 viewBox="0.00 0.00 1575.00 211.00" xmlns="http://www.w3.org/2000/svg" xmlns:xlink="http://www.w3.org/1999/xlink">
<g id="graph0" class="graph" transform="scale(1 1) rotate(0) translate(4 207)">
<title>dependencies</title>
<polygon fill="#ffffff" stroke="transparent" points="-4,4 -4,-207 1571,-207 1571,4 -4,4"/>
<text text-anchor="start" x="762.5091" y="-42.4" font-family="sans-serif" font-weight="bold" font-size="14.00" fill="#000000">Legend</text>
<polygon fill="#ffffb3" stroke="transparent" points="549.5,-10 549.5,-30 569.5,-30 569.5,-10 549.5,-10"/>
<text text-anchor="start" x="573.129" y="-15.4" font-family="sans-serif" font-size="14.00" fill="#000000"> &#160;Declarations</text>
<polygon fill="#8dd3c7" stroke="transparent" points="662.5,-10 662.5,-30 682.5,-30 682.5,-10 662.5,-10"/>
<text text-anchor="start" x="686.2251" y="-15.4" font-family="sans-serif" font-size="14.00" fill="#000000"> &#160;Module</text>
<polygon fill="#80b1d3" stroke="transparent" points="748.5,-10 748.5,-30 768.5,-30 768.5,-10 748.5,-10"/>
<text text-anchor="start" x="772.2812" y="-15.4" font-family="sans-serif" font-size="14.00" fill="#000000"> &#160;Bootstrap</text>
<polygon fill="#fdb462" stroke="transparent" points="845.5,-10 845.5,-30 865.5,-30 865.5,-10 845.5,-10"/>
<text text-anchor="start" x="869.1732" y="-15.4" font-family="sans-serif" font-size="14.00" fill="#000000"> &#160;Providers</text>
<polygon fill="#fb8072" stroke="transparent" points="941.5,-10 941.5,-30 961.5,-30 961.5,-10 941.5,-10"/>
<text text-anchor="start" x="965.2258" y="-15.4" font-family="sans-serif" font-size="14.00" fill="#000000"> &#160;Exports</text>
<g id="clust1" class="cluster">
<title>cluster_AnnouncementModule</title>
<polygon fill="none" stroke="#000000" stroke-dasharray="1,5" points="8,-70 8,-195 1559,-195 1559,-70 8,-70"/>
</g>
<g id="clust2" class="cluster">
<title>cluster_AnnouncementModule_declarations</title>
<polygon fill="none" stroke="#000000" points="464,-78 464,-130 1551,-130 1551,-78 464,-78"/>
</g>
<g id="clust8" class="cluster">
<title>cluster_AnnouncementModule_imports</title>
<polygon fill="none" stroke="#000000" points="16,-78 16,-130 456,-130 456,-78 16,-78"/>
</g>
<!-- AnnouncementAddEditComponent -->
<g id="node1" class="node">
<title>AnnouncementAddEditComponent</title>
<polygon fill="#ffffb3" stroke="#000000" points="1543.3046,-122 1328.6954,-122 1328.6954,-86 1543.3046,-86 1543.3046,-122"/>
<text text-anchor="middle" x="1436" y="-99.8" font-family="Times,serif" font-size="14.00" fill="#000000">AnnouncementAddEditComponent</text>
</g>
<!-- AnnouncementModule -->
<g id="node6" class="node">
<title>AnnouncementModule</title>
<polygon fill="#8dd3c7" stroke="#000000" points="766.5814,-187 763.5814,-191 742.5814,-191 739.5814,-187 621.4186,-187 621.4186,-151 766.5814,-151 766.5814,-187"/>
<text text-anchor="middle" x="694" y="-164.8" font-family="Times,serif" font-size="14.00" fill="#000000">AnnouncementModule</text>
</g>
<!-- AnnouncementAddEditComponent&#45;&gt;AnnouncementModule -->
<g id="edge1" class="edge">
<title>AnnouncementAddEditComponent&#45;&gt;AnnouncementModule</title>
<path fill="none" stroke="#000000" d="M1436,-122.2921C1436,-144.2057 1436,-178 1436,-178 1436,-178 776.8365,-178 776.8365,-178"/>
<polygon fill="#000000" stroke="#000000" points="776.8365,-174.5001 766.8365,-178 776.8364,-181.5001 776.8365,-174.5001"/>
</g>
<!-- AnnouncementComponent -->
<g id="node2" class="node">
<title>AnnouncementComponent</title>
<polygon fill="#ffffb3" stroke="#000000" points="1310.3641,-122 1143.6359,-122 1143.6359,-86 1310.3641,-86 1310.3641,-122"/>
<text text-anchor="middle" x="1227" y="-99.8" font-family="Times,serif" font-size="14.00" fill="#000000">AnnouncementComponent</text>
</g>
<!-- AnnouncementComponent&#45;&gt;AnnouncementModule -->
<g id="edge2" class="edge">
<title>AnnouncementComponent&#45;&gt;AnnouncementModule</title>
<path fill="none" stroke="#000000" d="M1227,-122.1061C1227,-141.3391 1227,-169 1227,-169 1227,-169 776.7154,-169 776.7154,-169"/>
<polygon fill="#000000" stroke="#000000" points="776.7155,-165.5001 766.7154,-169 776.7154,-172.5001 776.7155,-165.5001"/>
</g>
<!-- AnnouncementDetailsComponent -->
<g id="node3" class="node">
<title>AnnouncementDetailsComponent</title>
<polygon fill="#ffffb3" stroke="#000000" points="1125.0168,-122 918.9832,-122 918.9832,-86 1125.0168,-86 1125.0168,-122"/>
<text text-anchor="middle" x="1022" y="-99.8" font-family="Times,serif" font-size="14.00" fill="#000000">AnnouncementDetailsComponent</text>
</g>
<!-- AnnouncementDetailsComponent&#45;&gt;AnnouncementModule -->
<g id="edge3" class="edge">
<title>AnnouncementDetailsComponent&#45;&gt;AnnouncementModule</title>
<path fill="none" stroke="#000000" d="M1022,-122.027C1022,-138.3976 1022,-160 1022,-160 1022,-160 776.7938,-160 776.7938,-160"/>
<polygon fill="#000000" stroke="#000000" points="776.7939,-156.5001 766.7938,-160 776.7938,-163.5001 776.7939,-156.5001"/>
</g>
<!-- AnnouncementListComponent -->
<g id="node4" class="node">
<title>AnnouncementListComponent</title>
<polygon fill="#ffffb3" stroke="#000000" points="900.1427,-122 711.8573,-122 711.8573,-86 900.1427,-86 900.1427,-122"/>
<text text-anchor="middle" x="806" y="-99.8" font-family="Times,serif" font-size="14.00" fill="#000000">AnnouncementListComponent</text>
</g>
<!-- AnnouncementListComponent&#45;&gt;AnnouncementModule -->
<g id="edge4" class="edge">
<title>AnnouncementListComponent&#45;&gt;AnnouncementModule</title>
<path fill="none" stroke="#000000" d="M739.1098,-122.1061C739.1098,-122.1061 739.1098,-140.991 739.1098,-140.991"/>
<polygon fill="#000000" stroke="#000000" points="735.6098,-140.9909 739.1098,-150.991 742.6098,-140.991 735.6098,-140.9909"/>
</g>
<!-- AnnouncementReceiversComponent -->
<g id="node5" class="node">
<title>AnnouncementReceiversComponent</title>
<polygon fill="#ffffb3" stroke="#000000" points="694.0548,-122 471.9452,-122 471.9452,-86 694.0548,-86 694.0548,-122"/>
<text text-anchor="middle" x="583" y="-99.8" font-family="Times,serif" font-size="14.00" fill="#000000">AnnouncementReceiversComponent</text>
</g>
<!-- AnnouncementReceiversComponent&#45;&gt;AnnouncementModule -->
<g id="edge5" class="edge">
<title>AnnouncementReceiversComponent&#45;&gt;AnnouncementModule</title>
<path fill="none" stroke="#000000" d="M657.7434,-122.1061C657.7434,-122.1061 657.7434,-140.991 657.7434,-140.991"/>
<polygon fill="#000000" stroke="#000000" points="654.2434,-140.9909 657.7434,-150.991 661.2434,-140.991 654.2434,-140.9909"/>
</g>
<!-- AnnouncementRoutingModule -->
<g id="node7" class="node">
<title>AnnouncementRoutingModule</title>
<polygon fill="#8dd3c7" stroke="#000000" points="448.1993,-122 445.1993,-126 424.1993,-126 421.1993,-122 257.8007,-122 257.8007,-86 448.1993,-86 448.1993,-122"/>
<text text-anchor="middle" x="353" y="-99.8" font-family="Times,serif" font-size="14.00" fill="#000000">AnnouncementRoutingModule</text>
</g>
<!-- AnnouncementRoutingModule&#45;&gt;AnnouncementModule -->
<g id="edge6" class="edge">
<title>AnnouncementRoutingModule&#45;&gt;AnnouncementModule</title>
<path fill="none" stroke="#000000" d="M353,-122.027C353,-138.3976 353,-160 353,-160 353,-160 611.2652,-160 611.2652,-160"/>
<polygon fill="#000000" stroke="#000000" points="611.2652,-163.5001 621.2652,-160 611.2652,-156.5001 611.2652,-163.5001"/>
</g>
<!-- LoaderModule -->
<g id="node8" class="node">
<title>LoaderModule</title>
<polygon fill="#8dd3c7" stroke="#000000" points="239.6924,-122 236.6924,-126 215.6924,-126 212.6924,-122 140.3076,-122 140.3076,-86 239.6924,-86 239.6924,-122"/>
<text text-anchor="middle" x="190" y="-99.8" font-family="Times,serif" font-size="14.00" fill="#000000">LoaderModule</text>
</g>
<!-- LoaderModule&#45;&gt;AnnouncementModule -->
<g id="edge7" class="edge">
<title>LoaderModule&#45;&gt;AnnouncementModule</title>
<path fill="none" stroke="#000000" d="M190,-122.1061C190,-141.3391 190,-169 190,-169 190,-169 611.2523,-169 611.2523,-169"/>
<polygon fill="#000000" stroke="#000000" points="611.2524,-172.5001 621.2523,-169 611.2523,-165.5001 611.2524,-172.5001"/>
</g>
<!-- SharedModule -->
<g id="node9" class="node">
<title>SharedModule</title>
<polygon fill="#8dd3c7" stroke="#000000" points="122.4231,-122 119.4231,-126 98.4231,-126 95.4231,-122 23.5769,-122 23.5769,-86 122.4231,-86 122.4231,-122"/>
<text text-anchor="middle" x="73" y="-99.8" font-family="Times,serif" font-size="14.00" fill="#000000">SharedModule</text>
</g>
<!-- SharedModule&#45;&gt;AnnouncementModule -->
<g id="edge8" class="edge">
<title>SharedModule&#45;&gt;AnnouncementModule</title>
<path fill="none" stroke="#000000" d="M73,-122.2921C73,-144.2057 73,-178 73,-178 73,-178 611.2429,-178 611.2429,-178"/>
<polygon fill="#000000" stroke="#000000" points="611.243,-181.5001 621.2429,-178 611.2429,-174.5001 611.243,-181.5001"/>
</g>
</g>
</svg>
