<?xml version="1.0" encoding="UTF-8" standalone="no"?>
<!DOCTYPE svg PUBLIC "-//W3C//DTD SVG 1.1//EN"
 "http://www.w3.org/Graphics/SVG/1.1/DTD/svg11.dtd">
<!-- Generated by graphviz version 2.40.1 (20161225.0304)
 -->
<!-- Title: dependencies Pages: 1 -->
<svg width="1415pt" height="276pt"
 viewBox="0.00 0.00 1415.00 276.00" xmlns="http://www.w3.org/2000/svg" xmlns:xlink="http://www.w3.org/1999/xlink">
<g id="graph0" class="graph" transform="scale(1 1) rotate(0) translate(4 272)">
<title>dependencies</title>
<polygon fill="#ffffff" stroke="transparent" points="-4,4 -4,-272 1411,-272 1411,4 -4,4"/>
<text text-anchor="start" x="682.5091" y="-42.4" font-family="sans-serif" font-weight="bold" font-size="14.00" fill="#000000">Legend</text>
<polygon fill="#ffffb3" stroke="transparent" points="469.5,-10 469.5,-30 489.5,-30 489.5,-10 469.5,-10"/>
<text text-anchor="start" x="493.129" y="-15.4" font-family="sans-serif" font-size="14.00" fill="#000000"> &#160;Declarations</text>
<polygon fill="#8dd3c7" stroke="transparent" points="582.5,-10 582.5,-30 602.5,-30 602.5,-10 582.5,-10"/>
<text text-anchor="start" x="606.2251" y="-15.4" font-family="sans-serif" font-size="14.00" fill="#000000"> &#160;Module</text>
<polygon fill="#80b1d3" stroke="transparent" points="668.5,-10 668.5,-30 688.5,-30 688.5,-10 668.5,-10"/>
<text text-anchor="start" x="692.2812" y="-15.4" font-family="sans-serif" font-size="14.00" fill="#000000"> &#160;Bootstrap</text>
<polygon fill="#fdb462" stroke="transparent" points="765.5,-10 765.5,-30 785.5,-30 785.5,-10 765.5,-10"/>
<text text-anchor="start" x="789.1732" y="-15.4" font-family="sans-serif" font-size="14.00" fill="#000000"> &#160;Providers</text>
<polygon fill="#fb8072" stroke="transparent" points="861.5,-10 861.5,-30 881.5,-30 881.5,-10 861.5,-10"/>
<text text-anchor="start" x="885.2258" y="-15.4" font-family="sans-serif" font-size="14.00" fill="#000000"> &#160;Exports</text>
<g id="clust1" class="cluster">
<title>cluster_UserSurveyModule</title>
<polygon fill="none" stroke="#000000" stroke-dasharray="1,5" points="8,-70 8,-260 1399,-260 1399,-70 8,-70"/>
</g>
<g id="clust2" class="cluster">
<title>cluster_UserSurveyModule_declarations</title>
<polygon fill="none" stroke="#000000" points="445,-143 445,-195 1391,-195 1391,-143 445,-143"/>
</g>
<g id="clust3" class="cluster">
<title>cluster_UserSurveyModule_MultiCheckboxValidationDirective_providers</title>
<polygon fill="none" stroke="#000000" points="619,-78 619,-130 1391,-130 1391,-78 619,-78"/>
</g>
<g id="clust8" class="cluster">
<title>cluster_UserSurveyModule_imports</title>
<polygon fill="none" stroke="#000000" points="16,-143 16,-195 437,-195 437,-143 16,-143"/>
</g>
<!-- MultiCheckboxValidationDirective -->
<g id="node1" class="node">
<title>MultiCheckboxValidationDirective</title>
<polygon fill="#ffffb3" stroke="#000000" points="1382.5632,-187 1167.4368,-187 1167.4368,-151 1382.5632,-151 1382.5632,-187"/>
<text text-anchor="middle" x="1275" y="-164.8" font-family="Times,serif" font-size="14.00" fill="#000000">MultiCheckboxValidationDirective</text>
</g>
<!-- UserSurveyModule -->
<g id="node6" class="node">
<title>UserSurveyModule</title>
<polygon fill="#8dd3c7" stroke="#000000" points="683.6345,-252 680.6345,-256 659.6345,-256 656.6345,-252 558.3655,-252 558.3655,-216 683.6345,-216 683.6345,-252"/>
<text text-anchor="middle" x="621" y="-229.8" font-family="Times,serif" font-size="14.00" fill="#000000">UserSurveyModule</text>
</g>
<!-- MultiCheckboxValidationDirective&#45;&gt;UserSurveyModule -->
<g id="edge1" class="edge">
<title>MultiCheckboxValidationDirective&#45;&gt;UserSurveyModule</title>
<path fill="none" stroke="#000000" d="M1275,-187.2921C1275,-209.2057 1275,-243 1275,-243 1275,-243 693.7083,-243 693.7083,-243"/>
<polygon fill="#000000" stroke="#000000" points="693.7083,-239.5001 683.7083,-243 693.7082,-246.5001 693.7083,-239.5001"/>
</g>
<!-- SurveyAnswersComponent -->
<g id="node2" class="node">
<title>SurveyAnswersComponent</title>
<polygon fill="#ffffb3" stroke="#000000" points="1148.9678,-187 979.0322,-187 979.0322,-151 1148.9678,-151 1148.9678,-187"/>
<text text-anchor="middle" x="1064" y="-164.8" font-family="Times,serif" font-size="14.00" fill="#000000">SurveyAnswersComponent</text>
</g>
<!-- SurveyAnswersComponent&#45;&gt;UserSurveyModule -->
<g id="edge3" class="edge">
<title>SurveyAnswersComponent&#45;&gt;UserSurveyModule</title>
<path fill="none" stroke="#000000" d="M1064,-187.1061C1064,-206.3391 1064,-234 1064,-234 1064,-234 694.0006,-234 694.0006,-234"/>
<polygon fill="#000000" stroke="#000000" points="694.0007,-230.5001 684.0006,-234 694.0006,-237.5001 694.0007,-230.5001"/>
</g>
<!-- UserSurveyComponent -->
<g id="node3" class="node">
<title>UserSurveyComponent</title>
<polygon fill="#ffffb3" stroke="#000000" points="960.9172,-187 813.0828,-187 813.0828,-151 960.9172,-151 960.9172,-187"/>
<text text-anchor="middle" x="887" y="-164.8" font-family="Times,serif" font-size="14.00" fill="#000000">UserSurveyComponent</text>
</g>
<!-- UserSurveyComponent&#45;&gt;UserSurveyModule -->
<g id="edge4" class="edge">
<title>UserSurveyComponent&#45;&gt;UserSurveyModule</title>
<path fill="none" stroke="#000000" d="M887,-187.027C887,-203.3976 887,-225 887,-225 887,-225 693.7015,-225 693.7015,-225"/>
<polygon fill="#000000" stroke="#000000" points="693.7015,-221.5001 683.7015,-225 693.7014,-228.5001 693.7015,-221.5001"/>
</g>
<!-- UserSurveyListComponent -->
<g id="node4" class="node">
<title>UserSurveyListComponent</title>
<polygon fill="#ffffb3" stroke="#000000" points="795.6951,-187 626.3049,-187 626.3049,-151 795.6951,-151 795.6951,-187"/>
<text text-anchor="middle" x="711" y="-164.8" font-family="Times,serif" font-size="14.00" fill="#000000">UserSurveyListComponent</text>
</g>
<!-- UserSurveyListComponent&#45;&gt;UserSurveyModule -->
<g id="edge5" class="edge">
<title>UserSurveyListComponent&#45;&gt;UserSurveyModule</title>
<path fill="none" stroke="#000000" d="M655.1098,-187.1061C655.1098,-187.1061 655.1098,-205.991 655.1098,-205.991"/>
<polygon fill="#000000" stroke="#000000" points="651.6098,-205.9909 655.1098,-215.991 658.6098,-205.991 651.6098,-205.9909"/>
</g>
<!-- ViewAnswerComponent -->
<g id="node5" class="node">
<title>ViewAnswerComponent</title>
<polygon fill="#ffffb3" stroke="#000000" points="608.6839,-187 453.3161,-187 453.3161,-151 608.6839,-151 608.6839,-187"/>
<text text-anchor="middle" x="531" y="-164.8" font-family="Times,serif" font-size="14.00" fill="#000000">ViewAnswerComponent</text>
</g>
<!-- ViewAnswerComponent&#45;&gt;UserSurveyModule -->
<g id="edge6" class="edge">
<title>ViewAnswerComponent&#45;&gt;UserSurveyModule</title>
<path fill="none" stroke="#000000" d="M583.3874,-187.1061C583.3874,-187.1061 583.3874,-205.991 583.3874,-205.991"/>
<polygon fill="#000000" stroke="#000000" points="579.8875,-205.9909 583.3874,-215.991 586.8875,-205.991 579.8875,-205.9909"/>
</g>
<!-- { provide: NG_VALIDATORS, useExisting: MultiCheckboxValidationDirective, multi: true } -->
<g id="node7" class="node">
<title>{ provide: NG_VALIDATORS, useExisting: MultiCheckboxValidationDirective, multi: true }</title>
<ellipse fill="#fdb462" stroke="#000000" cx="1005" cy="-104" rx="377.6223" ry="18"/>
<text text-anchor="middle" x="1005" y="-99.8" font-family="Times,serif" font-size="14.00" fill="#000000">{ provide: NG_VALIDATORS, useExisting: MultiCheckboxValidationDirective, multi: true }</text>
</g>
<!-- { provide: NG_VALIDATORS, useExisting: MultiCheckboxValidationDirective, multi: true }&#45;&gt;MultiCheckboxValidationDirective -->
<g id="edge2" class="edge">
<title>{ provide: NG_VALIDATORS, useExisting: MultiCheckboxValidationDirective, multi: true }&#45;&gt;MultiCheckboxValidationDirective</title>
<path fill="none" stroke="#000000" d="M1275,-116.8419C1275,-116.8419 1275,-140.5231 1275,-140.5231"/>
<polygon fill="#000000" stroke="#000000" points="1271.5001,-140.523 1275,-150.5231 1278.5001,-140.5231 1271.5001,-140.523"/>
</g>
<!-- LoaderModule -->
<g id="node8" class="node">
<title>LoaderModule</title>
<polygon fill="#8dd3c7" stroke="#000000" points="428.6924,-187 425.6924,-191 404.6924,-191 401.6924,-187 329.3076,-187 329.3076,-151 428.6924,-151 428.6924,-187"/>
<text text-anchor="middle" x="379" y="-164.8" font-family="Times,serif" font-size="14.00" fill="#000000">LoaderModule</text>
</g>
<!-- LoaderModule&#45;&gt;UserSurveyModule -->
<g id="edge7" class="edge">
<title>LoaderModule&#45;&gt;UserSurveyModule</title>
<path fill="none" stroke="#000000" d="M379,-187.027C379,-203.3976 379,-225 379,-225 379,-225 548.3643,-225 548.3643,-225"/>
<polygon fill="#000000" stroke="#000000" points="548.3643,-228.5001 558.3643,-225 548.3642,-221.5001 548.3643,-228.5001"/>
</g>
<!-- SharedModule -->
<g id="node9" class="node">
<title>SharedModule</title>
<polygon fill="#8dd3c7" stroke="#000000" points="311.4231,-187 308.4231,-191 287.4231,-191 284.4231,-187 212.5769,-187 212.5769,-151 311.4231,-151 311.4231,-187"/>
<text text-anchor="middle" x="262" y="-164.8" font-family="Times,serif" font-size="14.00" fill="#000000">SharedModule</text>
</g>
<!-- SharedModule&#45;&gt;UserSurveyModule -->
<g id="edge8" class="edge">
<title>SharedModule&#45;&gt;UserSurveyModule</title>
<path fill="none" stroke="#000000" d="M262,-187.1061C262,-206.3391 262,-234 262,-234 262,-234 548.0562,-234 548.0562,-234"/>
<polygon fill="#000000" stroke="#000000" points="548.0562,-237.5001 558.0562,-234 548.0561,-230.5001 548.0562,-237.5001"/>
</g>
<!-- UserSurveyRoutingModule -->
<g id="node10" class="node">
<title>UserSurveyRoutingModule</title>
<polygon fill="#8dd3c7" stroke="#000000" points="194.252,-187 191.252,-191 170.252,-191 167.252,-187 23.748,-187 23.748,-151 194.252,-151 194.252,-187"/>
<text text-anchor="middle" x="109" y="-164.8" font-family="Times,serif" font-size="14.00" fill="#000000">UserSurveyRoutingModule</text>
</g>
<!-- UserSurveyRoutingModule&#45;&gt;UserSurveyModule -->
<g id="edge9" class="edge">
<title>UserSurveyRoutingModule&#45;&gt;UserSurveyModule</title>
<path fill="none" stroke="#000000" d="M109,-187.2921C109,-209.2057 109,-243 109,-243 109,-243 548.2188,-243 548.2188,-243"/>
<polygon fill="#000000" stroke="#000000" points="548.2188,-246.5001 558.2188,-243 548.2187,-239.5001 548.2188,-246.5001"/>
</g>
</g>
</svg>
