<?xml version="1.0" encoding="UTF-8" standalone="no"?>
<!DOCTYPE svg PUBLIC "-//W3C//DTD SVG 1.1//EN"
 "http://www.w3.org/Graphics/SVG/1.1/DTD/svg11.dtd">
<!-- Generated by graphviz version 2.40.1 (20161225.0304)
 -->
<!-- Title: dependencies Pages: 1 -->
<svg width="1100pt" height="211pt"
 viewBox="0.00 0.00 1100.00 211.00" xmlns="http://www.w3.org/2000/svg" xmlns:xlink="http://www.w3.org/1999/xlink">
<g id="graph0" class="graph" transform="scale(1 1) rotate(0) translate(4 207)">
<title>dependencies</title>
<polygon fill="#ffffff" stroke="transparent" points="-4,4 -4,-207 1096,-207 1096,4 -4,4"/>
<text text-anchor="start" x="525.0091" y="-42.4" font-family="sans-serif" font-weight="bold" font-size="14.00" fill="#000000">Legend</text>
<polygon fill="#ffffb3" stroke="transparent" points="312,-10 312,-30 332,-30 332,-10 312,-10"/>
<text text-anchor="start" x="335.629" y="-15.4" font-family="sans-serif" font-size="14.00" fill="#000000"> &#160;Declarations</text>
<polygon fill="#8dd3c7" stroke="transparent" points="425,-10 425,-30 445,-30 445,-10 425,-10"/>
<text text-anchor="start" x="448.7251" y="-15.4" font-family="sans-serif" font-size="14.00" fill="#000000"> &#160;Module</text>
<polygon fill="#80b1d3" stroke="transparent" points="511,-10 511,-30 531,-30 531,-10 511,-10"/>
<text text-anchor="start" x="534.7812" y="-15.4" font-family="sans-serif" font-size="14.00" fill="#000000"> &#160;Bootstrap</text>
<polygon fill="#fdb462" stroke="transparent" points="608,-10 608,-30 628,-30 628,-10 608,-10"/>
<text text-anchor="start" x="631.6732" y="-15.4" font-family="sans-serif" font-size="14.00" fill="#000000"> &#160;Providers</text>
<polygon fill="#fb8072" stroke="transparent" points="704,-10 704,-30 724,-30 724,-10 704,-10"/>
<text text-anchor="start" x="727.7258" y="-15.4" font-family="sans-serif" font-size="14.00" fill="#000000"> &#160;Exports</text>
<g id="clust1" class="cluster">
<title>cluster_UserSuggestionModule</title>
<polygon fill="none" stroke="#000000" stroke-dasharray="1,5" points="8,-70 8,-195 1084,-195 1084,-70 8,-70"/>
</g>
<g id="clust2" class="cluster">
<title>cluster_UserSuggestionModule_declarations</title>
<polygon fill="none" stroke="#000000" points="468,-78 468,-130 1076,-130 1076,-78 468,-78"/>
</g>
<g id="clust6" class="cluster">
<title>cluster_UserSuggestionModule_imports</title>
<polygon fill="none" stroke="#000000" points="16,-78 16,-130 460,-130 460,-78 16,-78"/>
</g>
<!-- UserSuggestionAddComponent -->
<g id="node1" class="node">
<title>UserSuggestionAddComponent</title>
<polygon fill="#ffffb3" stroke="#000000" points="1068.0884,-122 873.9116,-122 873.9116,-86 1068.0884,-86 1068.0884,-122"/>
<text text-anchor="middle" x="971" y="-99.8" font-family="Times,serif" font-size="14.00" fill="#000000">UserSuggestionAddComponent</text>
</g>
<!-- UserSuggestionModule -->
<g id="node4" class="node">
<title>UserSuggestionModule</title>
<polygon fill="#8dd3c7" stroke="#000000" points="561.1993,-187 558.1993,-191 537.1993,-191 534.1993,-187 412.8007,-187 412.8007,-151 561.1993,-151 561.1993,-187"/>
<text text-anchor="middle" x="487" y="-164.8" font-family="Times,serif" font-size="14.00" fill="#000000">UserSuggestionModule</text>
</g>
<!-- UserSuggestionAddComponent&#45;&gt;UserSuggestionModule -->
<g id="edge1" class="edge">
<title>UserSuggestionAddComponent&#45;&gt;UserSuggestionModule</title>
<path fill="none" stroke="#000000" d="M971,-122.2843C971,-143.3211 971,-175 971,-175 971,-175 571.3,-175 571.3,-175"/>
<polygon fill="#000000" stroke="#000000" points="571.3,-171.5001 561.3,-175 571.3,-178.5001 571.3,-171.5001"/>
</g>
<!-- UserSuggestionComponent -->
<g id="node2" class="node">
<title>UserSuggestionComponent</title>
<polygon fill="#ffffb3" stroke="#000000" points="855.9818,-122 686.0182,-122 686.0182,-86 855.9818,-86 855.9818,-122"/>
<text text-anchor="middle" x="771" y="-99.8" font-family="Times,serif" font-size="14.00" fill="#000000">UserSuggestionComponent</text>
</g>
<!-- UserSuggestionComponent&#45;&gt;UserSuggestionModule -->
<g id="edge2" class="edge">
<title>UserSuggestionComponent&#45;&gt;UserSuggestionModule</title>
<path fill="none" stroke="#000000" d="M771,-122.0225C771,-139.3734 771,-163 771,-163 771,-163 571.2467,-163 571.2467,-163"/>
<polygon fill="#000000" stroke="#000000" points="571.2467,-159.5001 561.2467,-163 571.2467,-166.5001 571.2467,-159.5001"/>
</g>
<!-- UserSuggestionListComponent -->
<g id="node3" class="node">
<title>UserSuggestionListComponent</title>
<polygon fill="#ffffb3" stroke="#000000" points="667.7603,-122 476.2397,-122 476.2397,-86 667.7603,-86 667.7603,-122"/>
<text text-anchor="middle" x="572" y="-99.8" font-family="Times,serif" font-size="14.00" fill="#000000">UserSuggestionListComponent</text>
</g>
<!-- UserSuggestionListComponent&#45;&gt;UserSuggestionModule -->
<g id="edge3" class="edge">
<title>UserSuggestionListComponent&#45;&gt;UserSuggestionModule</title>
<path fill="none" stroke="#000000" d="M518.6098,-122.1061C518.6098,-122.1061 518.6098,-140.991 518.6098,-140.991"/>
<polygon fill="#000000" stroke="#000000" points="515.1098,-140.9909 518.6098,-150.991 522.1098,-140.991 515.1098,-140.9909"/>
</g>
<!-- LoaderModule -->
<g id="node5" class="node">
<title>LoaderModule</title>
<polygon fill="#8dd3c7" stroke="#000000" points="451.6924,-122 448.6924,-126 427.6924,-126 424.6924,-122 352.3076,-122 352.3076,-86 451.6924,-86 451.6924,-122"/>
<text text-anchor="middle" x="402" y="-99.8" font-family="Times,serif" font-size="14.00" fill="#000000">LoaderModule</text>
</g>
<!-- LoaderModule&#45;&gt;UserSuggestionModule -->
<g id="edge4" class="edge">
<title>LoaderModule&#45;&gt;UserSuggestionModule</title>
<path fill="none" stroke="#000000" d="M432.2483,-122.1061C432.2483,-122.1061 432.2483,-140.991 432.2483,-140.991"/>
<polygon fill="#000000" stroke="#000000" points="428.7483,-140.9909 432.2483,-150.991 435.7483,-140.991 428.7483,-140.9909"/>
</g>
<!-- SharedModule -->
<g id="node6" class="node">
<title>SharedModule</title>
<polygon fill="#8dd3c7" stroke="#000000" points="334.4231,-122 331.4231,-126 310.4231,-126 307.4231,-122 235.5769,-122 235.5769,-86 334.4231,-86 334.4231,-122"/>
<text text-anchor="middle" x="285" y="-99.8" font-family="Times,serif" font-size="14.00" fill="#000000">SharedModule</text>
</g>
<!-- SharedModule&#45;&gt;UserSuggestionModule -->
<g id="edge5" class="edge">
<title>SharedModule&#45;&gt;UserSuggestionModule</title>
<path fill="none" stroke="#000000" d="M285,-122.0225C285,-139.3734 285,-163 285,-163 285,-163 402.6432,-163 402.6432,-163"/>
<polygon fill="#000000" stroke="#000000" points="402.6433,-166.5001 412.6432,-163 402.6432,-159.5001 402.6433,-166.5001"/>
</g>
<!-- UserSuggestionRoutingModule -->
<g id="node7" class="node">
<title>UserSuggestionRoutingModule</title>
<polygon fill="#8dd3c7" stroke="#000000" points="217.8173,-122 214.8173,-126 193.8173,-126 190.8173,-122 24.1827,-122 24.1827,-86 217.8173,-86 217.8173,-122"/>
<text text-anchor="middle" x="121" y="-99.8" font-family="Times,serif" font-size="14.00" fill="#000000">UserSuggestionRoutingModule</text>
</g>
<!-- UserSuggestionRoutingModule&#45;&gt;UserSuggestionModule -->
<g id="edge6" class="edge">
<title>UserSuggestionRoutingModule&#45;&gt;UserSuggestionModule</title>
<path fill="none" stroke="#000000" d="M121,-122.2843C121,-143.3211 121,-175 121,-175 121,-175 402.4933,-175 402.4933,-175"/>
<polygon fill="#000000" stroke="#000000" points="402.4933,-178.5001 412.4933,-175 402.4932,-171.5001 402.4933,-178.5001"/>
</g>
</g>
</svg>
