<?xml version="1.0" encoding="UTF-8" standalone="no"?>
<!DOCTYPE svg PUBLIC "-//W3C//DTD SVG 1.1//EN"
 "http://www.w3.org/Graphics/SVG/1.1/DTD/svg11.dtd">
<!-- Generated by graphviz version 2.40.1 (20161225.0304)
 -->
<!-- Title: dependencies Pages: 1 -->
<svg width="996pt" height="211pt"
 viewBox="0.00 0.00 996.00 211.00" xmlns="http://www.w3.org/2000/svg" xmlns:xlink="http://www.w3.org/1999/xlink">
<g id="graph0" class="graph" transform="scale(1 1) rotate(0) translate(4 207)">
<title>dependencies</title>
<polygon fill="#ffffff" stroke="transparent" points="-4,4 -4,-207 992,-207 992,4 -4,4"/>
<text text-anchor="start" x="473.0091" y="-42.4" font-family="sans-serif" font-weight="bold" font-size="14.00" fill="#000000">Legend</text>
<polygon fill="#ffffb3" stroke="transparent" points="260,-10 260,-30 280,-30 280,-10 260,-10"/>
<text text-anchor="start" x="283.629" y="-15.4" font-family="sans-serif" font-size="14.00" fill="#000000"> &#160;Declarations</text>
<polygon fill="#8dd3c7" stroke="transparent" points="373,-10 373,-30 393,-30 393,-10 373,-10"/>
<text text-anchor="start" x="396.7251" y="-15.4" font-family="sans-serif" font-size="14.00" fill="#000000"> &#160;Module</text>
<polygon fill="#80b1d3" stroke="transparent" points="459,-10 459,-30 479,-30 479,-10 459,-10"/>
<text text-anchor="start" x="482.7812" y="-15.4" font-family="sans-serif" font-size="14.00" fill="#000000"> &#160;Bootstrap</text>
<polygon fill="#fdb462" stroke="transparent" points="556,-10 556,-30 576,-30 576,-10 556,-10"/>
<text text-anchor="start" x="579.6732" y="-15.4" font-family="sans-serif" font-size="14.00" fill="#000000"> &#160;Providers</text>
<polygon fill="#fb8072" stroke="transparent" points="652,-10 652,-30 672,-30 672,-10 652,-10"/>
<text text-anchor="start" x="675.7258" y="-15.4" font-family="sans-serif" font-size="14.00" fill="#000000"> &#160;Exports</text>
<g id="clust1" class="cluster">
<title>cluster_SubadminModule</title>
<polygon fill="none" stroke="#000000" stroke-dasharray="1,5" points="8,-70 8,-195 980,-195 980,-70 8,-70"/>
</g>
<g id="clust2" class="cluster">
<title>cluster_SubadminModule_declarations</title>
<polygon fill="none" stroke="#000000" points="436,-78 436,-130 972,-130 972,-78 436,-78"/>
</g>
<g id="clust6" class="cluster">
<title>cluster_SubadminModule_imports</title>
<polygon fill="none" stroke="#000000" points="16,-78 16,-130 428,-130 428,-78 16,-78"/>
</g>
<!-- SubadminAddEditComponent -->
<g id="node1" class="node">
<title>SubadminAddEditComponent</title>
<polygon fill="#ffffb3" stroke="#000000" points="963.5517,-122 778.4483,-122 778.4483,-86 963.5517,-86 963.5517,-122"/>
<text text-anchor="middle" x="871" y="-99.8" font-family="Times,serif" font-size="14.00" fill="#000000">SubadminAddEditComponent</text>
</g>
<!-- SubadminModule -->
<g id="node4" class="node">
<title>SubadminModule</title>
<polygon fill="#8dd3c7" stroke="#000000" points="505.3287,-187 502.3287,-191 481.3287,-191 478.3287,-187 388.6713,-187 388.6713,-151 505.3287,-151 505.3287,-187"/>
<text text-anchor="middle" x="447" y="-164.8" font-family="Times,serif" font-size="14.00" fill="#000000">SubadminModule</text>
</g>
<!-- SubadminAddEditComponent&#45;&gt;SubadminModule -->
<g id="edge1" class="edge">
<title>SubadminAddEditComponent&#45;&gt;SubadminModule</title>
<path fill="none" stroke="#000000" d="M871,-122.2843C871,-143.3211 871,-175 871,-175 871,-175 515.5102,-175 515.5102,-175"/>
<polygon fill="#000000" stroke="#000000" points="515.5103,-171.5001 505.5102,-175 515.5102,-178.5001 515.5103,-171.5001"/>
</g>
<!-- SubadminComponent -->
<g id="node2" class="node">
<title>SubadminComponent</title>
<polygon fill="#ffffb3" stroke="#000000" points="760.1108,-122 621.8892,-122 621.8892,-86 760.1108,-86 760.1108,-122"/>
<text text-anchor="middle" x="691" y="-99.8" font-family="Times,serif" font-size="14.00" fill="#000000">SubadminComponent</text>
</g>
<!-- SubadminComponent&#45;&gt;SubadminModule -->
<g id="edge2" class="edge">
<title>SubadminComponent&#45;&gt;SubadminModule</title>
<path fill="none" stroke="#000000" d="M691,-122.0225C691,-139.3734 691,-163 691,-163 691,-163 515.4441,-163 515.4441,-163"/>
<polygon fill="#000000" stroke="#000000" points="515.4441,-159.5001 505.4441,-163 515.444,-166.5001 515.4441,-159.5001"/>
</g>
<!-- SubadminListComponent -->
<g id="node3" class="node">
<title>SubadminListComponent</title>
<polygon fill="#ffffb3" stroke="#000000" points="603.8892,-122 444.1108,-122 444.1108,-86 603.8892,-86 603.8892,-122"/>
<text text-anchor="middle" x="524" y="-99.8" font-family="Times,serif" font-size="14.00" fill="#000000">SubadminListComponent</text>
</g>
<!-- SubadminListComponent&#45;&gt;SubadminModule -->
<g id="edge3" class="edge">
<title>SubadminListComponent&#45;&gt;SubadminModule</title>
<path fill="none" stroke="#000000" d="M474.6098,-122.1061C474.6098,-122.1061 474.6098,-140.991 474.6098,-140.991"/>
<polygon fill="#000000" stroke="#000000" points="471.1098,-140.9909 474.6098,-150.991 478.1098,-140.991 471.1098,-140.9909"/>
</g>
<!-- LoaderModule -->
<g id="node5" class="node">
<title>LoaderModule</title>
<polygon fill="#8dd3c7" stroke="#000000" points="419.6924,-122 416.6924,-126 395.6924,-126 392.6924,-122 320.3076,-122 320.3076,-86 419.6924,-86 419.6924,-122"/>
<text text-anchor="middle" x="370" y="-99.8" font-family="Times,serif" font-size="14.00" fill="#000000">LoaderModule</text>
</g>
<!-- LoaderModule&#45;&gt;SubadminModule -->
<g id="edge4" class="edge">
<title>LoaderModule&#45;&gt;SubadminModule</title>
<path fill="none" stroke="#000000" d="M404.216,-122.1061C404.216,-122.1061 404.216,-140.991 404.216,-140.991"/>
<polygon fill="#000000" stroke="#000000" points="400.7161,-140.9909 404.216,-150.991 407.7161,-140.991 400.7161,-140.9909"/>
</g>
<!-- SharedModule -->
<g id="node6" class="node">
<title>SharedModule</title>
<polygon fill="#8dd3c7" stroke="#000000" points="302.4231,-122 299.4231,-126 278.4231,-126 275.4231,-122 203.5769,-122 203.5769,-86 302.4231,-86 302.4231,-122"/>
<text text-anchor="middle" x="253" y="-99.8" font-family="Times,serif" font-size="14.00" fill="#000000">SharedModule</text>
</g>
<!-- SharedModule&#45;&gt;SubadminModule -->
<g id="edge5" class="edge">
<title>SharedModule&#45;&gt;SubadminModule</title>
<path fill="none" stroke="#000000" d="M253,-122.0225C253,-139.3734 253,-163 253,-163 253,-163 378.7936,-163 378.7936,-163"/>
<polygon fill="#000000" stroke="#000000" points="378.7936,-166.5001 388.7936,-163 378.7936,-159.5001 378.7936,-166.5001"/>
</g>
<!-- SubadminRoutingModule -->
<g id="node7" class="node">
<title>SubadminRoutingModule</title>
<polygon fill="#8dd3c7" stroke="#000000" points="185.9466,-122 182.9466,-126 161.9466,-126 158.9466,-122 24.0534,-122 24.0534,-86 185.9466,-86 185.9466,-122"/>
<text text-anchor="middle" x="105" y="-99.8" font-family="Times,serif" font-size="14.00" fill="#000000">SubadminRoutingModule</text>
</g>
<!-- SubadminRoutingModule&#45;&gt;SubadminModule -->
<g id="edge6" class="edge">
<title>SubadminRoutingModule&#45;&gt;SubadminModule</title>
<path fill="none" stroke="#000000" d="M105,-122.2843C105,-143.3211 105,-175 105,-175 105,-175 378.5967,-175 378.5967,-175"/>
<polygon fill="#000000" stroke="#000000" points="378.5967,-178.5001 388.5967,-175 378.5967,-171.5001 378.5967,-178.5001"/>
</g>
</g>
</svg>
