<?xml version="1.0" encoding="UTF-8" standalone="no"?>
<!DOCTYPE svg PUBLIC "-//W3C//DTD SVG 1.1//EN"
 "http://www.w3.org/Graphics/SVG/1.1/DTD/svg11.dtd">
<!-- Generated by graphviz version 2.40.1 (20161225.0304)
 -->
<!-- Title: dependencies Pages: 1 -->
<svg width="1389pt" height="211pt"
 viewBox="0.00 0.00 1389.00 211.00" xmlns="http://www.w3.org/2000/svg" xmlns:xlink="http://www.w3.org/1999/xlink">
<g id="graph0" class="graph" transform="scale(1 1) rotate(0) translate(4 207)">
<title>dependencies</title>
<polygon fill="#ffffff" stroke="transparent" points="-4,4 -4,-207 1385,-207 1385,4 -4,4"/>
<text text-anchor="start" x="669.5091" y="-42.4" font-family="sans-serif" font-weight="bold" font-size="14.00" fill="#000000">Legend</text>
<polygon fill="#ffffb3" stroke="transparent" points="456.5,-10 456.5,-30 476.5,-30 476.5,-10 456.5,-10"/>
<text text-anchor="start" x="480.129" y="-15.4" font-family="sans-serif" font-size="14.00" fill="#000000"> &#160;Declarations</text>
<polygon fill="#8dd3c7" stroke="transparent" points="569.5,-10 569.5,-30 589.5,-30 589.5,-10 569.5,-10"/>
<text text-anchor="start" x="593.2251" y="-15.4" font-family="sans-serif" font-size="14.00" fill="#000000"> &#160;Module</text>
<polygon fill="#80b1d3" stroke="transparent" points="655.5,-10 655.5,-30 675.5,-30 675.5,-10 655.5,-10"/>
<text text-anchor="start" x="679.2812" y="-15.4" font-family="sans-serif" font-size="14.00" fill="#000000"> &#160;Bootstrap</text>
<polygon fill="#fdb462" stroke="transparent" points="752.5,-10 752.5,-30 772.5,-30 772.5,-10 752.5,-10"/>
<text text-anchor="start" x="776.1732" y="-15.4" font-family="sans-serif" font-size="14.00" fill="#000000"> &#160;Providers</text>
<polygon fill="#fb8072" stroke="transparent" points="848.5,-10 848.5,-30 868.5,-30 868.5,-10 848.5,-10"/>
<text text-anchor="start" x="872.2258" y="-15.4" font-family="sans-serif" font-size="14.00" fill="#000000"> &#160;Exports</text>
<g id="clust1" class="cluster">
<title>cluster_ManageSurveyModule</title>
<polygon fill="none" stroke="#000000" stroke-dasharray="1,5" points="8,-70 8,-195 1373,-195 1373,-70 8,-70"/>
</g>
<g id="clust2" class="cluster">
<title>cluster_ManageSurveyModule_declarations</title>
<polygon fill="none" stroke="#000000" points="463,-78 463,-130 1365,-130 1365,-78 463,-78"/>
</g>
<g id="clust8" class="cluster">
<title>cluster_ManageSurveyModule_imports</title>
<polygon fill="none" stroke="#000000" points="16,-78 16,-130 455,-130 455,-78 16,-78"/>
</g>
<!-- ManageSurveyComponent -->
<g id="node1" class="node">
<title>ManageSurveyComponent</title>
<polygon fill="#ffffb3" stroke="#000000" points="1357.0786,-122 1190.9214,-122 1190.9214,-86 1357.0786,-86 1357.0786,-122"/>
<text text-anchor="middle" x="1274" y="-99.8" font-family="Times,serif" font-size="14.00" fill="#000000">ManageSurveyComponent</text>
</g>
<!-- ManageSurveyModule -->
<g id="node6" class="node">
<title>ManageSurveyModule</title>
<polygon fill="#8dd3c7" stroke="#000000" points="716.2963,-187 713.2963,-191 692.2963,-191 689.2963,-187 571.7037,-187 571.7037,-151 716.2963,-151 716.2963,-187"/>
<text text-anchor="middle" x="644" y="-164.8" font-family="Times,serif" font-size="14.00" fill="#000000">ManageSurveyModule</text>
</g>
<!-- ManageSurveyComponent&#45;&gt;ManageSurveyModule -->
<g id="edge1" class="edge">
<title>ManageSurveyComponent&#45;&gt;ManageSurveyModule</title>
<path fill="none" stroke="#000000" d="M1274,-122.2921C1274,-144.2057 1274,-178 1274,-178 1274,-178 726.269,-178 726.269,-178"/>
<polygon fill="#000000" stroke="#000000" points="726.269,-174.5001 716.269,-178 726.269,-181.5001 726.269,-174.5001"/>
</g>
<!-- SurveyAddEditComponent -->
<g id="node2" class="node">
<title>SurveyAddEditComponent</title>
<polygon fill="#ffffb3" stroke="#000000" points="1173.4312,-122 1004.5688,-122 1004.5688,-86 1173.4312,-86 1173.4312,-122"/>
<text text-anchor="middle" x="1089" y="-99.8" font-family="Times,serif" font-size="14.00" fill="#000000">SurveyAddEditComponent</text>
</g>
<!-- SurveyAddEditComponent&#45;&gt;ManageSurveyModule -->
<g id="edge2" class="edge">
<title>SurveyAddEditComponent&#45;&gt;ManageSurveyModule</title>
<path fill="none" stroke="#000000" d="M1089,-122.1061C1089,-141.3391 1089,-169 1089,-169 1089,-169 726.4873,-169 726.4873,-169"/>
<polygon fill="#000000" stroke="#000000" points="726.4874,-165.5001 716.4873,-169 726.4873,-172.5001 726.4874,-165.5001"/>
</g>
<!-- SurveyListComponent -->
<g id="node3" class="node">
<title>SurveyListComponent</title>
<polygon fill="#ffffb3" stroke="#000000" points="986.2688,-122 843.7312,-122 843.7312,-86 986.2688,-86 986.2688,-122"/>
<text text-anchor="middle" x="915" y="-99.8" font-family="Times,serif" font-size="14.00" fill="#000000">SurveyListComponent</text>
</g>
<!-- SurveyListComponent&#45;&gt;ManageSurveyModule -->
<g id="edge3" class="edge">
<title>SurveyListComponent&#45;&gt;ManageSurveyModule</title>
<path fill="none" stroke="#000000" d="M915,-122.027C915,-138.3976 915,-160 915,-160 915,-160 726.267,-160 726.267,-160"/>
<polygon fill="#000000" stroke="#000000" points="726.2671,-156.5001 716.267,-160 726.267,-163.5001 726.2671,-156.5001"/>
</g>
<!-- SurveyQuestionsComponent -->
<g id="node4" class="node">
<title>SurveyQuestionsComponent</title>
<polygon fill="#ffffb3" stroke="#000000" points="825.4818,-122 648.5182,-122 648.5182,-86 825.4818,-86 825.4818,-122"/>
<text text-anchor="middle" x="737" y="-99.8" font-family="Times,serif" font-size="14.00" fill="#000000">SurveyQuestionsComponent</text>
</g>
<!-- SurveyQuestionsComponent&#45;&gt;ManageSurveyModule -->
<g id="edge4" class="edge">
<title>SurveyQuestionsComponent&#45;&gt;ManageSurveyModule</title>
<path fill="none" stroke="#000000" d="M682.3285,-122.1061C682.3285,-122.1061 682.3285,-140.991 682.3285,-140.991"/>
<polygon fill="#000000" stroke="#000000" points="678.8286,-140.9909 682.3285,-150.991 685.8286,-140.991 678.8286,-140.9909"/>
</g>
<!-- SurveyReportComponent -->
<g id="node5" class="node">
<title>SurveyReportComponent</title>
<polygon fill="#ffffb3" stroke="#000000" points="630.5926,-122 471.4074,-122 471.4074,-86 630.5926,-86 630.5926,-122"/>
<text text-anchor="middle" x="551" y="-99.8" font-family="Times,serif" font-size="14.00" fill="#000000">SurveyReportComponent</text>
</g>
<!-- SurveyReportComponent&#45;&gt;ManageSurveyModule -->
<g id="edge5" class="edge">
<title>SurveyReportComponent&#45;&gt;ManageSurveyModule</title>
<path fill="none" stroke="#000000" d="M601.1991,-122.1061C601.1991,-122.1061 601.1991,-140.991 601.1991,-140.991"/>
<polygon fill="#000000" stroke="#000000" points="597.6992,-140.9909 601.1991,-150.991 604.6992,-140.991 597.6992,-140.9909"/>
</g>
<!-- LoaderModule -->
<g id="node7" class="node">
<title>LoaderModule</title>
<polygon fill="#8dd3c7" stroke="#000000" points="446.6924,-122 443.6924,-126 422.6924,-126 419.6924,-122 347.3076,-122 347.3076,-86 446.6924,-86 446.6924,-122"/>
<text text-anchor="middle" x="397" y="-99.8" font-family="Times,serif" font-size="14.00" fill="#000000">LoaderModule</text>
</g>
<!-- LoaderModule&#45;&gt;ManageSurveyModule -->
<g id="edge6" class="edge">
<title>LoaderModule&#45;&gt;ManageSurveyModule</title>
<path fill="none" stroke="#000000" d="M397,-122.027C397,-138.3976 397,-160 397,-160 397,-160 561.5608,-160 561.5608,-160"/>
<polygon fill="#000000" stroke="#000000" points="561.5608,-163.5001 571.5608,-160 561.5608,-156.5001 561.5608,-163.5001"/>
</g>
<!-- ManageSurveyRoutingModule -->
<g id="node8" class="node">
<title>ManageSurveyRoutingModule</title>
<polygon fill="#8dd3c7" stroke="#000000" points="329.9143,-122 326.9143,-126 305.9143,-126 302.9143,-122 140.0857,-122 140.0857,-86 329.9143,-86 329.9143,-122"/>
<text text-anchor="middle" x="235" y="-99.8" font-family="Times,serif" font-size="14.00" fill="#000000">ManageSurveyRoutingModule</text>
</g>
<!-- ManageSurveyRoutingModule&#45;&gt;ManageSurveyModule -->
<g id="edge7" class="edge">
<title>ManageSurveyRoutingModule&#45;&gt;ManageSurveyModule</title>
<path fill="none" stroke="#000000" d="M235,-122.1061C235,-141.3391 235,-169 235,-169 235,-169 561.8205,-169 561.8205,-169"/>
<polygon fill="#000000" stroke="#000000" points="561.8205,-172.5001 571.8205,-169 561.8205,-165.5001 561.8205,-172.5001"/>
</g>
<!-- SharedModule -->
<g id="node9" class="node">
<title>SharedModule</title>
<polygon fill="#8dd3c7" stroke="#000000" points="122.4231,-122 119.4231,-126 98.4231,-126 95.4231,-122 23.5769,-122 23.5769,-86 122.4231,-86 122.4231,-122"/>
<text text-anchor="middle" x="73" y="-99.8" font-family="Times,serif" font-size="14.00" fill="#000000">SharedModule</text>
</g>
<!-- SharedModule&#45;&gt;ManageSurveyModule -->
<g id="edge8" class="edge">
<title>SharedModule&#45;&gt;ManageSurveyModule</title>
<path fill="none" stroke="#000000" d="M73,-122.2921C73,-144.2057 73,-178 73,-178 73,-178 561.6825,-178 561.6825,-178"/>
<polygon fill="#000000" stroke="#000000" points="561.6825,-181.5001 571.6825,-178 561.6824,-174.5001 561.6825,-181.5001"/>
</g>
</g>
</svg>
