<?xml version="1.0" encoding="UTF-8" standalone="no"?>
<!DOCTYPE svg PUBLIC "-//W3C//DTD SVG 1.1//EN"
 "http://www.w3.org/Graphics/SVG/1.1/DTD/svg11.dtd">
<!-- Generated by graphviz version 2.40.1 (20161225.0304)
 -->
<!-- Title: dependencies Pages: 1 -->
<svg width="1341pt" height="211pt"
 viewBox="0.00 0.00 1341.00 211.00" xmlns="http://www.w3.org/2000/svg" xmlns:xlink="http://www.w3.org/1999/xlink">
<g id="graph0" class="graph" transform="scale(1 1) rotate(0) translate(4 207)">
<title>dependencies</title>
<polygon fill="#ffffff" stroke="transparent" points="-4,4 -4,-207 1337,-207 1337,4 -4,4"/>
<text text-anchor="start" x="645.5091" y="-42.4" font-family="sans-serif" font-weight="bold" font-size="14.00" fill="#000000">Legend</text>
<polygon fill="#ffffb3" stroke="transparent" points="432.5,-10 432.5,-30 452.5,-30 452.5,-10 432.5,-10"/>
<text text-anchor="start" x="456.129" y="-15.4" font-family="sans-serif" font-size="14.00" fill="#000000"> &#160;Declarations</text>
<polygon fill="#8dd3c7" stroke="transparent" points="545.5,-10 545.5,-30 565.5,-30 565.5,-10 545.5,-10"/>
<text text-anchor="start" x="569.2251" y="-15.4" font-family="sans-serif" font-size="14.00" fill="#000000"> &#160;Module</text>
<polygon fill="#80b1d3" stroke="transparent" points="631.5,-10 631.5,-30 651.5,-30 651.5,-10 631.5,-10"/>
<text text-anchor="start" x="655.2812" y="-15.4" font-family="sans-serif" font-size="14.00" fill="#000000"> &#160;Bootstrap</text>
<polygon fill="#fdb462" stroke="transparent" points="728.5,-10 728.5,-30 748.5,-30 748.5,-10 728.5,-10"/>
<text text-anchor="start" x="752.1732" y="-15.4" font-family="sans-serif" font-size="14.00" fill="#000000"> &#160;Providers</text>
<polygon fill="#fb8072" stroke="transparent" points="824.5,-10 824.5,-30 844.5,-30 844.5,-10 824.5,-10"/>
<text text-anchor="start" x="848.2258" y="-15.4" font-family="sans-serif" font-size="14.00" fill="#000000"> &#160;Exports</text>
<g id="clust1" class="cluster">
<title>cluster_ManageSubscriptionModule</title>
<polygon fill="none" stroke="#000000" stroke-dasharray="1,5" points="8,-70 8,-195 1325,-195 1325,-70 8,-70"/>
</g>
<g id="clust2" class="cluster">
<title>cluster_ManageSubscriptionModule_declarations</title>
<polygon fill="none" stroke="#000000" points="494,-78 494,-130 1317,-130 1317,-78 494,-78"/>
</g>
<g id="clust7" class="cluster">
<title>cluster_ManageSubscriptionModule_imports</title>
<polygon fill="none" stroke="#000000" points="16,-78 16,-130 486,-130 486,-78 16,-78"/>
</g>
<!-- ManageSubscriptionComponent -->
<g id="node1" class="node">
<title>ManageSubscriptionComponent</title>
<polygon fill="#ffffb3" stroke="#000000" points="1308.6951,-122 1111.3049,-122 1111.3049,-86 1308.6951,-86 1308.6951,-122"/>
<text text-anchor="middle" x="1210" y="-99.8" font-family="Times,serif" font-size="14.00" fill="#000000">ManageSubscriptionComponent</text>
</g>
<!-- ManageSubscriptionModule -->
<g id="node5" class="node">
<title>ManageSubscriptionModule</title>
<polygon fill="#8dd3c7" stroke="#000000" points="680.9129,-187 677.9129,-191 656.9129,-191 653.9129,-187 505.0871,-187 505.0871,-151 680.9129,-151 680.9129,-187"/>
<text text-anchor="middle" x="593" y="-164.8" font-family="Times,serif" font-size="14.00" fill="#000000">ManageSubscriptionModule</text>
</g>
<!-- ManageSubscriptionComponent&#45;&gt;ManageSubscriptionModule -->
<g id="edge1" class="edge">
<title>ManageSubscriptionComponent&#45;&gt;ManageSubscriptionModule</title>
<path fill="none" stroke="#000000" d="M1210,-122.2921C1210,-144.2057 1210,-178 1210,-178 1210,-178 690.7458,-178 690.7458,-178"/>
<polygon fill="#000000" stroke="#000000" points="690.7458,-174.5001 680.7458,-178 690.7458,-181.5001 690.7458,-174.5001"/>
</g>
<!-- SubscriptionAddEditComponent -->
<g id="node2" class="node">
<title>SubscriptionAddEditComponent</title>
<polygon fill="#ffffb3" stroke="#000000" points="1093.5475,-122 894.4525,-122 894.4525,-86 1093.5475,-86 1093.5475,-122"/>
<text text-anchor="middle" x="994" y="-99.8" font-family="Times,serif" font-size="14.00" fill="#000000">SubscriptionAddEditComponent</text>
</g>
<!-- SubscriptionAddEditComponent&#45;&gt;ManageSubscriptionModule -->
<g id="edge2" class="edge">
<title>SubscriptionAddEditComponent&#45;&gt;ManageSubscriptionModule</title>
<path fill="none" stroke="#000000" d="M994,-122.1061C994,-141.3391 994,-169 994,-169 994,-169 691.0012,-169 691.0012,-169"/>
<polygon fill="#000000" stroke="#000000" points="691.0012,-165.5001 681.0012,-169 691.0011,-172.5001 691.0012,-165.5001"/>
</g>
<!-- SubscriptionListComponent -->
<g id="node3" class="node">
<title>SubscriptionListComponent</title>
<polygon fill="#ffffb3" stroke="#000000" points="875.885,-122 702.115,-122 702.115,-86 875.885,-86 875.885,-122"/>
<text text-anchor="middle" x="789" y="-99.8" font-family="Times,serif" font-size="14.00" fill="#000000">SubscriptionListComponent</text>
</g>
<!-- SubscriptionListComponent&#45;&gt;ManageSubscriptionModule -->
<g id="edge3" class="edge">
<title>SubscriptionListComponent&#45;&gt;ManageSubscriptionModule</title>
<path fill="none" stroke="#000000" d="M789,-122.027C789,-138.3976 789,-160 789,-160 789,-160 690.9668,-160 690.9668,-160"/>
<polygon fill="#000000" stroke="#000000" points="690.9669,-156.5001 680.9668,-160 690.9668,-163.5001 690.9669,-156.5001"/>
</g>
<!-- SubscriptionViewComponent -->
<g id="node4" class="node">
<title>SubscriptionViewComponent</title>
<polygon fill="#ffffb3" stroke="#000000" points="684.4255,-122 501.5745,-122 501.5745,-86 684.4255,-86 684.4255,-122"/>
<text text-anchor="middle" x="593" y="-99.8" font-family="Times,serif" font-size="14.00" fill="#000000">SubscriptionViewComponent</text>
</g>
<!-- SubscriptionViewComponent&#45;&gt;ManageSubscriptionModule -->
<g id="edge4" class="edge">
<title>SubscriptionViewComponent&#45;&gt;ManageSubscriptionModule</title>
<path fill="none" stroke="#000000" d="M593,-122.1061C593,-122.1061 593,-140.991 593,-140.991"/>
<polygon fill="#000000" stroke="#000000" points="589.5001,-140.9909 593,-150.991 596.5001,-140.991 589.5001,-140.9909"/>
</g>
<!-- LoaderModule -->
<g id="node6" class="node">
<title>LoaderModule</title>
<polygon fill="#8dd3c7" stroke="#000000" points="477.6924,-122 474.6924,-126 453.6924,-126 450.6924,-122 378.3076,-122 378.3076,-86 477.6924,-86 477.6924,-122"/>
<text text-anchor="middle" x="428" y="-99.8" font-family="Times,serif" font-size="14.00" fill="#000000">LoaderModule</text>
</g>
<!-- LoaderModule&#45;&gt;ManageSubscriptionModule -->
<g id="edge5" class="edge">
<title>LoaderModule&#45;&gt;ManageSubscriptionModule</title>
<path fill="none" stroke="#000000" d="M428,-122.027C428,-138.3976 428,-160 428,-160 428,-160 495.1859,-160 495.1859,-160"/>
<polygon fill="#000000" stroke="#000000" points="495.1859,-163.5001 505.1859,-160 495.1859,-156.5001 495.1859,-163.5001"/>
</g>
<!-- ManageSubscriptionRoutingModule -->
<g id="node7" class="node">
<title>ManageSubscriptionRoutingModule</title>
<polygon fill="#8dd3c7" stroke="#000000" points="360.0307,-122 357.0307,-126 336.0307,-126 333.0307,-122 139.9693,-122 139.9693,-86 360.0307,-86 360.0307,-122"/>
<text text-anchor="middle" x="250" y="-99.8" font-family="Times,serif" font-size="14.00" fill="#000000">ManageSubscriptionRoutingModule</text>
</g>
<!-- ManageSubscriptionRoutingModule&#45;&gt;ManageSubscriptionModule -->
<g id="edge6" class="edge">
<title>ManageSubscriptionRoutingModule&#45;&gt;ManageSubscriptionModule</title>
<path fill="none" stroke="#000000" d="M250,-122.1061C250,-141.3391 250,-169 250,-169 250,-169 495.1144,-169 495.1144,-169"/>
<polygon fill="#000000" stroke="#000000" points="495.1144,-172.5001 505.1144,-169 495.1144,-165.5001 495.1144,-172.5001"/>
</g>
<!-- SharedModule -->
<g id="node8" class="node">
<title>SharedModule</title>
<polygon fill="#8dd3c7" stroke="#000000" points="122.4231,-122 119.4231,-126 98.4231,-126 95.4231,-122 23.5769,-122 23.5769,-86 122.4231,-86 122.4231,-122"/>
<text text-anchor="middle" x="73" y="-99.8" font-family="Times,serif" font-size="14.00" fill="#000000">SharedModule</text>
</g>
<!-- SharedModule&#45;&gt;ManageSubscriptionModule -->
<g id="edge7" class="edge">
<title>SharedModule&#45;&gt;ManageSubscriptionModule</title>
<path fill="none" stroke="#000000" d="M73,-122.2921C73,-144.2057 73,-178 73,-178 73,-178 495.0833,-178 495.0833,-178"/>
<polygon fill="#000000" stroke="#000000" points="495.0833,-181.5001 505.0833,-178 495.0832,-174.5001 495.0833,-181.5001"/>
</g>
</g>
</svg>
