<?xml version="1.0" encoding="UTF-8" standalone="no"?>
<!DOCTYPE svg PUBLIC "-//W3C//DTD SVG 1.1//EN"
 "http://www.w3.org/Graphics/SVG/1.1/DTD/svg11.dtd">
<!-- Generated by graphviz version 2.40.1 (20161225.0304)
 -->
<!-- Title: dependencies Pages: 1 -->
<svg width="887pt" height="211pt"
 viewBox="0.00 0.00 887.00 211.00" xmlns="http://www.w3.org/2000/svg" xmlns:xlink="http://www.w3.org/1999/xlink">
<g id="graph0" class="graph" transform="scale(1 1) rotate(0) translate(4 207)">
<title>dependencies</title>
<polygon fill="#ffffff" stroke="transparent" points="-4,4 -4,-207 883,-207 883,4 -4,4"/>
<text text-anchor="start" x="418.5091" y="-42.4" font-family="sans-serif" font-weight="bold" font-size="14.00" fill="#000000">Legend</text>
<polygon fill="#ffffb3" stroke="transparent" points="205.5,-10 205.5,-30 225.5,-30 225.5,-10 205.5,-10"/>
<text text-anchor="start" x="229.129" y="-15.4" font-family="sans-serif" font-size="14.00" fill="#000000"> &#160;Declarations</text>
<polygon fill="#8dd3c7" stroke="transparent" points="318.5,-10 318.5,-30 338.5,-30 338.5,-10 318.5,-10"/>
<text text-anchor="start" x="342.2251" y="-15.4" font-family="sans-serif" font-size="14.00" fill="#000000"> &#160;Module</text>
<polygon fill="#80b1d3" stroke="transparent" points="404.5,-10 404.5,-30 424.5,-30 424.5,-10 404.5,-10"/>
<text text-anchor="start" x="428.2812" y="-15.4" font-family="sans-serif" font-size="14.00" fill="#000000"> &#160;Bootstrap</text>
<polygon fill="#fdb462" stroke="transparent" points="501.5,-10 501.5,-30 521.5,-30 521.5,-10 501.5,-10"/>
<text text-anchor="start" x="525.1732" y="-15.4" font-family="sans-serif" font-size="14.00" fill="#000000"> &#160;Providers</text>
<polygon fill="#fb8072" stroke="transparent" points="597.5,-10 597.5,-30 617.5,-30 617.5,-10 597.5,-10"/>
<text text-anchor="start" x="621.2258" y="-15.4" font-family="sans-serif" font-size="14.00" fill="#000000"> &#160;Exports</text>
<g id="clust1" class="cluster">
<title>cluster_ManageContactModule</title>
<polygon fill="none" stroke="#000000" stroke-dasharray="1,5" points="8,-70 8,-195 871,-195 871,-70 8,-70"/>
</g>
<g id="clust2" class="cluster">
<title>cluster_ManageContactModule_declarations</title>
<polygon fill="none" stroke="#000000" points="467,-78 467,-130 863,-130 863,-78 467,-78"/>
</g>
<g id="clust5" class="cluster">
<title>cluster_ManageContactModule_imports</title>
<polygon fill="none" stroke="#000000" points="16,-78 16,-130 459,-130 459,-78 16,-78"/>
</g>
<!-- ManageContactComponent -->
<g id="node1" class="node">
<title>ManageContactComponent</title>
<polygon fill="#ffffb3" stroke="#000000" points="854.9678,-122 685.0322,-122 685.0322,-86 854.9678,-86 854.9678,-122"/>
<text text-anchor="middle" x="770" y="-99.8" font-family="Times,serif" font-size="14.00" fill="#000000">ManageContactComponent</text>
</g>
<!-- ManageContactModule -->
<g id="node3" class="node">
<title>ManageContactModule</title>
<polygon fill="#8dd3c7" stroke="#000000" points="475.1853,-187 472.1853,-191 451.1853,-191 448.1853,-187 326.8147,-187 326.8147,-151 475.1853,-151 475.1853,-187"/>
<text text-anchor="middle" x="401" y="-164.8" font-family="Times,serif" font-size="14.00" fill="#000000">ManageContactModule</text>
</g>
<!-- ManageContactComponent&#45;&gt;ManageContactModule -->
<g id="edge1" class="edge">
<title>ManageContactComponent&#45;&gt;ManageContactModule</title>
<path fill="none" stroke="#000000" d="M770,-122.1061C770,-141.3391 770,-169 770,-169 770,-169 485.2288,-169 485.2288,-169"/>
<polygon fill="#000000" stroke="#000000" points="485.2288,-165.5001 475.2288,-169 485.2287,-172.5001 485.2288,-165.5001"/>
</g>
<!-- ManageContactListComponent -->
<g id="node2" class="node">
<title>ManageContactListComponent</title>
<polygon fill="#ffffb3" stroke="#000000" points="666.7464,-122 475.2536,-122 475.2536,-86 666.7464,-86 666.7464,-122"/>
<text text-anchor="middle" x="571" y="-99.8" font-family="Times,serif" font-size="14.00" fill="#000000">ManageContactListComponent</text>
</g>
<!-- ManageContactListComponent&#45;&gt;ManageContactModule -->
<g id="edge2" class="edge">
<title>ManageContactListComponent&#45;&gt;ManageContactModule</title>
<path fill="none" stroke="#000000" d="M475.2512,-104C467.6567,-104 462.8444,-104 462.8444,-104 462.8444,-104 462.8444,-140.8939 462.8444,-140.8939"/>
<polygon fill="#000000" stroke="#000000" points="459.3444,-140.8938 462.8444,-150.8939 466.3444,-140.8939 459.3444,-140.8938"/>
</g>
<!-- LoaderModule -->
<g id="node4" class="node">
<title>LoaderModule</title>
<polygon fill="#8dd3c7" stroke="#000000" points="450.6924,-122 447.6924,-126 426.6924,-126 423.6924,-122 351.3076,-122 351.3076,-86 450.6924,-86 450.6924,-122"/>
<text text-anchor="middle" x="401" y="-99.8" font-family="Times,serif" font-size="14.00" fill="#000000">LoaderModule</text>
</g>
<!-- LoaderModule&#45;&gt;ManageContactModule -->
<g id="edge3" class="edge">
<title>LoaderModule&#45;&gt;ManageContactModule</title>
<path fill="none" stroke="#000000" d="M401,-122.1061C401,-122.1061 401,-140.991 401,-140.991"/>
<polygon fill="#000000" stroke="#000000" points="397.5001,-140.9909 401,-150.991 404.5001,-140.991 397.5001,-140.9909"/>
</g>
<!-- ManageContactRoutingModule -->
<g id="node5" class="node">
<title>ManageContactRoutingModule</title>
<polygon fill="#8dd3c7" stroke="#000000" points="333.8032,-122 330.8032,-126 309.8032,-126 306.8032,-122 140.1968,-122 140.1968,-86 333.8032,-86 333.8032,-122"/>
<text text-anchor="middle" x="237" y="-99.8" font-family="Times,serif" font-size="14.00" fill="#000000">ManageContactRoutingModule</text>
</g>
<!-- ManageContactRoutingModule&#45;&gt;ManageContactModule -->
<g id="edge4" class="edge">
<title>ManageContactRoutingModule&#45;&gt;ManageContactModule</title>
<path fill="none" stroke="#000000" d="M333.8919,-104C339.267,-104 342.5277,-104 342.5277,-104 342.5277,-104 342.5277,-140.8939 342.5277,-140.8939"/>
<polygon fill="#000000" stroke="#000000" points="339.0278,-140.8938 342.5277,-150.8939 346.0278,-140.8939 339.0278,-140.8938"/>
</g>
<!-- SharedModule -->
<g id="node6" class="node">
<title>SharedModule</title>
<polygon fill="#8dd3c7" stroke="#000000" points="122.4231,-122 119.4231,-126 98.4231,-126 95.4231,-122 23.5769,-122 23.5769,-86 122.4231,-86 122.4231,-122"/>
<text text-anchor="middle" x="73" y="-99.8" font-family="Times,serif" font-size="14.00" fill="#000000">SharedModule</text>
</g>
<!-- SharedModule&#45;&gt;ManageContactModule -->
<g id="edge5" class="edge">
<title>SharedModule&#45;&gt;ManageContactModule</title>
<path fill="none" stroke="#000000" d="M73,-122.1061C73,-141.3391 73,-169 73,-169 73,-169 316.5717,-169 316.5717,-169"/>
<polygon fill="#000000" stroke="#000000" points="316.5718,-172.5001 326.5717,-169 316.5717,-165.5001 316.5718,-172.5001"/>
</g>
</g>
</svg>
