<svg version="1.2" baseProfile="tiny-ps" xmlns="http://www.w3.org/2000/svg" viewBox="0 0 810 834" width="810" height="834">
	<title>Humaine-Logo - Website-svg</title>
	<defs>
		<linearGradient id="grd1" gradientUnits="userSpaceOnUse"  x1="406.46" y1="-0.167" x2="406.46" y2="813.017">
			<stop offset="0" stop-color="#2ee1f0"  />
			<stop offset="0.319" stop-color="#8347eb"  />
			<stop offset="0.649" stop-color="#d300fd"  />
			<stop offset="1" stop-color="#00deca"  />
		</linearGradient>
	</defs>
	<style>
		tspan { white-space:pre }
		.shp0 { fill: url(#grd1) } 
		.shp1 { fill: #ffffff } 
	</style>
	<g id="Layer_1">
		<g id="Layer">
			<path id="Path_42" class="shp0" d="M769.8 345.9L800.6 376.7C817 393.1 817 419.7 800.6 436.2L799.5 437.3C783 453.7 756.5 453.7 740 437.3L709.2 406.5L648.6 346L588.1 285.4L527.5 224.8L467 164.2L406.4 103.6L375.6 72.8C359.2 56.4 359.2 29.8 375.6 13.3L376.7 12.2C393.1 -4.2 419.7 -4.2 436.2 12.2L467 43.1L527.6 103.6L557.9 133.9C574.6 150.5 601.7 150.5 618.4 133.9L618.5 133.8C635.2 117.1 635.2 90.1 618.5 73.3L617.9 72.7C601.5 56.3 601.5 29.7 617.9 13.2L619 12.1C635.4 -4.3 662 -4.3 678.5 12.1L709.3 42.9L739.3 72.9L740.1 73.7L740.7 74.3L769.9 103.5L800.7 134.3C817.1 150.7 817.1 177.3 800.7 193.8L799.6 194.9C783.1 211.3 756.6 211.3 740.1 194.9L739.5 194.3C722.8 177.7 695.7 177.7 679 194.3L678.9 194.4C662.2 211.1 662.2 238.1 678.9 254.9L709.2 285.2L769.8 345.9L769.8 345.9ZM648.7 709.3L679.5 740.1C695.9 756.5 695.9 783.1 679.5 799.6L678.4 800.7C662 817.1 635.4 817.1 618.9 800.7L588.1 769.9L527.5 709.3L467 648.7L406.4 588.1L375.6 557.3C359.2 540.9 359.2 514.3 375.6 497.8L497.8 375.6C514.3 359.2 540.8 359.2 557.3 375.6L588.1 406.4L648.6 466.9L709.2 527.5L769.7 588.1L800.5 618.9C816.9 635.3 816.9 661.9 800.5 678.4L799.4 679.5C783 695.9 756.4 695.9 739.9 679.5L709.1 648.7L648.5 588.2L587.9 527.6L557.1 496.8C540.6 480.4 514 480.4 497.6 496.8L496.5 497.9C480.1 514.3 480.1 540.9 496.5 557.4L527.3 588.2L587.9 648.7L648.7 709.3L648.7 709.3ZM406.5 224.8L437.3 255.6C453.7 272 453.7 298.6 437.3 315.1L315.1 437.3C298.6 453.7 272.1 453.7 255.6 437.3L224.8 406.5L164.2 346L103.6 285.4L43 224.8L12.3 194C-4.1 177.6 -4.1 151 12.3 134.5L13.4 133.4C29.9 117 56.4 117 72.9 133.4L103.7 164.2L164.3 224.8L224.9 285.4L255.7 316.2C272.1 332.6 298.7 332.6 315.2 316.2L316.3 315.1C332.7 298.7 332.7 272.1 316.3 255.6L285.5 224.8L224.9 164.2L164.3 103.6L133.5 72.8C117.1 56.4 117.1 29.8 133.5 13.3L134.6 12.2C151 -4.2 177.6 -4.2 194.1 12.2L224.9 43L285.5 103.5L346.1 164.1L406.5 224.8L406.5 224.8ZM43.1 467L12.3 436.2C-4.1 419.8 -4.1 393.2 12.3 376.7L13.4 375.6C29.8 359.2 56.5 359.2 72.9 375.6L103.7 406.4L164.3 467L224.9 527.6L285.5 588.2L346.1 648.8L406.7 709.3L437.5 740.1C453.9 756.5 453.9 783.1 437.5 799.6L436.4 800.7C420 817.1 393.4 817.1 376.9 800.7L346.1 769.9L285.5 709.3L255 678.9C238.3 662.2 211.2 662.2 194.5 678.9L194.4 679C177.7 695.7 177.7 722.7 194.4 739.5L195 740.1C211.4 756.5 211.4 783.1 195 799.6L193.9 800.7C177.5 817.1 150.9 817.1 134.4 800.7L103.6 769.9L43 709.3L12.2 678.5C-4.2 662.1 -4.2 635.5 12.2 619L13.3 617.9C29.7 601.5 56.4 601.5 72.8 617.9L73.4 618.5C90.1 635.2 117.2 635.2 133.9 618.5L134 618.4C150.7 601.7 150.7 574.6 134 557.9L103.7 527.6L43.1 467L43.1 467Z" />
			<path id="Layer" class="shp1" d="M1305.9 9.2L1305.9 484.8L1241 484.8L1241 277.6L1011.2 277.6L1011.2 484.7L947 484.7L947 9.2L1011.2 9.2L1011.2 219.1L1241 219.1L1241 9.2L1305.9 9.2Z" />
			<path id="Layer" class="shp1" d="M1643.4 336.3L1643.4 162.3L1706.1 162.3L1706.1 484.6L1643.4 484.6L1643.4 436.3C1634.2 454.2 1620.2 467.9 1601.3 477.4C1582.5 486.9 1563.1 491.5 1543.3 491.5C1503.2 491.5 1472.5 479.1 1450.8 454.2C1429.2 429.4 1418.5 394.1 1419 348.6L1419 162.3L1481.7 162.3L1481.7 344.5C1481.7 371.1 1488 392.1 1500.4 407.2C1512.8 422.4 1530.1 430 1552.1 430C1577.8 430 1599.5 422.4 1617 407.2C1634.6 392.2 1643.4 368.5 1643.4 336.3Z" />
			<path id="Layer" class="shp1" d="M2181.7 216.9C2155.5 216.4 2134.7 225.1 2119.2 242.8C2103.8 260.5 2096 283.1 2096 310.8L2096 484.7L2033.3 484.7L2033.3 301.8C2033.3 275.6 2027 254.8 2014.3 239.7C2001.6 224.5 1984.7 216.9 1963.6 216.9C1938.8 216.9 1917.6 224.7 1900.1 240.3C1882.6 255.9 1873.9 279.4 1873.9 310.7L1873.9 484.6L1811.2 484.6L1811.2 162.3L1873.9 162.3L1873.9 210.6C1881.7 194.5 1894.5 181.8 1912.2 172.7C1929.9 163.5 1946.8 158.2 1962.9 156.8C1975.3 156.3 1987.1 157.1 1998.1 158.8C2039.1 165.2 2067.1 186.2 2082.4 221.5C2105.4 177.3 2142.7 155.3 2194.2 155.3C2234.3 155.3 2264.9 167.7 2286.4 192.6C2307.9 217.4 2318.5 252.7 2318.5 298.2L2318.5 484.5L2255.8 484.5L2255.8 302.5C2255.8 275.9 2249.3 254.9 2236.1 239.8C2222.8 224.4 2204.8 216.9 2181.7 216.9Z" />
			<path id="Layer" fill-rule="evenodd" class="shp1" d="M2674.5 434.9C2663.9 452.8 2648.3 466.8 2627.5 476.6C2606.8 486.5 2584.7 491.5 2561.3 491.5C2515.7 491.5 2477 475.9 2445.3 444.5C2413.5 413.3 2397.7 372.7 2397.7 323C2397.7 272.8 2413.6 232.3 2445.3 201.5C2477 170.7 2515.7 155.3 2561.3 155.3C2584.7 155.3 2607 160.2 2627.9 169.8C2648.8 179.4 2664.4 193 2674.5 210.5L2674.5 162.4L2736.6 162.4L2736.6 484.7L2674.5 484.7L2674.5 434.9ZM2673.8 322.5C2673.8 289.8 2663 264.1 2641.4 245.2C2619.8 226.4 2594.9 216.9 2566.9 216.9C2536.9 216.9 2512.1 226.6 2492 246.2C2472 265.8 2462 291.1 2462 322.5C2462 353.7 2472.1 379.6 2492.3 399.8C2512.5 420 2537.4 430.1 2566.8 430.1C2596.8 430.1 2622 420.5 2642.7 401.2C2663.4 381.9 2673.8 355.7 2673.8 322.5Z" />
			<path id="Layer" fill-rule="evenodd" class="shp1" d="M2872.6 84.4C2884.6 84.4 2894.7 80.4 2903.3 72.6C2911.9 64.8 2916.1 55.2 2916.1 43.7C2916.1 32.3 2911.8 22.6 2903.3 14.8C2894.8 7 2884.5 3 2872.6 3C2860.5 3 2850.3 7 2841.8 14.9C2833.2 22.7 2829 32.3 2829 43.8C2829 55.2 2833.2 64.9 2841.8 72.7C2850.4 80.5 2860.7 84.3 2872.6 84.4ZM2903.7 484.6L2903.7 162.3L2841.6 162.3L2841.6 484.6L2903.7 484.6Z" />
			<path id="Layer" class="shp1" d="M3071.4 310.7L3071.4 484.6L3008.7 484.6L3008.7 162.3L3071.4 162.3L3071.4 210.6C3080.6 192.7 3094.7 179 3113.8 169.5C3132.9 160 3152.3 155.4 3172.1 155.4C3212.2 155.4 3242.8 167.8 3264.3 192.7C3285.8 217.6 3296.4 252.8 3296.4 298.3L3296.4 484.6L3233.7 484.6L3233.7 302.5C3233.7 275.9 3227.4 254.9 3214.7 239.8C3202 224.6 3184.7 217 3162.6 217C3137.2 217 3115.7 224.7 3098.1 240.2C3080.3 255.4 3071.4 279 3071.4 310.7Z" />
			<path id="Layer" fill-rule="evenodd" class="shp1" d="M3700.8 322.5C3700.8 334.4 3700.5 342.7 3700.2 347.3L3438.6 347.3C3442.3 373.9 3453.7 395.3 3472.8 411.2C3491.9 427.1 3515.2 435 3542.8 435C3562.5 435 3580.7 430.6 3597.3 421.9C3613.8 413.2 3626.5 401 3635.2 385.3C3641.2 387.6 3650.4 391.2 3662.9 396.1C3675.3 401 3684 404.3 3689.1 406.1C3675.8 433.8 3655.7 454.9 3629 469.6C3602.4 484.3 3572.9 491.6 3540.6 491.6C3493.6 491.6 3454.4 476 3422.9 444.6C3391.4 413.4 3375.7 372.6 3375.7 322.4C3375.7 272.2 3391.5 231.9 3422.9 201.3C3454.4 170.7 3493.6 155.5 3540.6 155.5C3587.1 155.5 3625.4 170.9 3655.5 201.3C3685.7 232 3700.8 272.3 3700.8 322.5ZM3438.5 298.3L3638.6 298.3C3634.9 271.7 3624.3 250.5 3606.5 235.2C3588.8 219.8 3566.8 212 3540.6 212C3513.5 212 3490.5 219.7 3472 235.2C3453.4 250.6 3442.3 271.7 3438.5 298.3Z" />
			<path id="Layer" fill-rule="evenodd" class="shp1" d="M4210.2 363.9L4008.7 363.9L3962.5 484.6L3894 484.6L4074.8 9.1L4143.8 9.1L4324 484.6L4256.4 484.6L4210.2 363.9ZM4030.8 305.9L4188.2 305.9L4109.6 94.7L4030.8 305.9Z" />
			<path id="Layer" class="shp1" d="M4396.5 9.2L4460.7 9.2L4460.7 484.8L4396.5 484.8L4396.5 9.2Z" />
			<g id="Layer">
				<path id="Layer" fill-rule="evenodd" class="shp1" d="M1014.4 778.1L964.5 778.1L964.5 649.3L1014.4 649.3C1032.2 649.3 1046.3 655.4 1056.7 667.5C1067.1 679.6 1072.3 695.1 1072.3 713.9C1072.3 732.6 1067.1 747.9 1056.8 760C1046.5 772.1 1032.4 778.1 1014.4 778.1ZM1014.4 761.8C1027.4 761.8 1037.4 757.3 1044.4 748.4C1051.4 739.5 1055 728 1055 713.9C1055 699.7 1051.5 688.1 1044.4 679C1037.4 670 1027.4 665.5 1014.4 665.5L981.9 665.5L981.9 761.8L1014.4 761.8Z" />
				<path id="Layer" fill-rule="evenodd" class="shp1" d="M1178.7 734.2C1178.7 737.4 1178.6 739.7 1178.5 740.9L1107.7 740.9C1108.7 748.1 1111.8 753.9 1116.9 758.2C1122.1 762.5 1128.4 764.6 1135.9 764.6C1141.3 764.6 1146.2 763.4 1150.7 761C1155.2 758.6 1158.6 755.3 1161 751.1C1162.6 751.7 1165.1 752.7 1168.5 754C1171.9 755.3 1174.2 756.2 1175.6 756.7C1172 764.2 1166.6 769.9 1159.3 773.9C1152.1 777.9 1144.1 779.9 1135.4 779.9C1122.7 779.9 1112.1 775.7 1103.5 767.2C1095 758.7 1090.7 747.7 1090.7 734.1C1090.7 720.5 1095 709.6 1103.5 701.3C1112 693 1122.7 688.9 1135.4 688.9C1148 688.9 1158.4 693 1166.5 701.3C1174.6 709.7 1178.7 720.6 1178.7 734.2ZM1107.7 727.6L1161.9 727.6C1160.9 720.4 1158 714.7 1153.2 710.5C1148.4 706.3 1142.5 704.2 1135.4 704.2C1128 704.2 1121.9 706.3 1116.8 710.5C1111.7 714.7 1108.7 720.4 1107.7 727.6Z" />
				<path id="Layer" class="shp1" d="M1208 767.2C1199 758.7 1194.5 747.7 1194.5 734.2C1194.5 720.7 1199 709.8 1208 701.5C1217 693.2 1227.9 689 1240.7 689C1254.5 689 1265.7 693.7 1274.3 703L1261.4 713.8C1255.9 708.3 1249 705.6 1240.7 705.6C1232.6 705.6 1225.7 708.2 1220 713.5C1214.3 718.8 1211.4 725.7 1211.4 734.1C1211.4 742.7 1214.3 749.7 1220 755.2C1225.7 760.7 1232.6 763.4 1240.7 763.4C1249 763.4 1256 760.5 1261.4 754.8L1274.5 765.6C1265.8 775.1 1254.5 779.8 1240.7 779.8C1227.9 780 1217 775.7 1208 767.2Z" />
				<path id="Layer" fill-rule="evenodd" class="shp1" d="M1366 767.2C1357.1 775.7 1346.3 780 1333.6 780C1320.9 780 1310.1 775.8 1301.3 767.3C1292.5 758.8 1288 747.8 1288 734.2C1288 720.7 1292.4 709.8 1301.2 701.5C1310 693.2 1320.8 689 1333.6 689C1346.4 689 1357.3 693.2 1366.1 701.5C1374.9 709.8 1379.4 720.7 1379.4 734.2C1379.4 747.6 1374.9 758.6 1366 767.2ZM1313.1 755.4C1318.6 760.8 1325.5 763.5 1333.6 763.5C1341.7 763.5 1348.5 760.8 1354.1 755.4C1359.6 750 1362.4 742.9 1362.4 734.2C1362.4 725.6 1359.6 718.7 1354.1 713.5C1348.6 708.3 1341.7 705.7 1333.6 705.7C1325.5 705.7 1318.7 708.3 1313.1 713.5C1307.6 718.7 1304.8 725.6 1304.8 734.2C1304.8 742.9 1307.6 750 1313.1 755.4Z" />
				<path id="Layer" fill-rule="evenodd" class="shp1" d="M1470.9 764.6C1468 769.5 1463.8 773.2 1458.2 775.9C1452.6 778.6 1446.6 779.9 1440.3 779.9C1428 779.9 1417.5 775.7 1409 767.2C1400.5 758.7 1396.2 747.8 1396.2 734.3C1396.2 720.7 1400.4 709.8 1408.9 701.4C1417.4 693.1 1427.8 688.9 1440.1 688.9C1446.7 688.9 1452.8 690.2 1458.3 692.7C1463.8 695.3 1468 699 1470.9 703.8L1470.9 643.3L1487.9 643.3L1487.9 778L1470.9 778L1470.9 764.6ZM1462.3 755.4C1468 750.1 1470.8 743 1470.8 734.2C1470.8 725.4 1467.9 718.4 1462 713.3C1456.1 708.2 1449.4 705.6 1441.8 705.6C1433.8 705.6 1427.1 708.2 1421.7 713.5C1416.3 718.8 1413.6 725.7 1413.6 734.1C1413.6 742.6 1416.3 749.5 1421.7 755C1427.1 760.5 1433.8 763.2 1441.8 763.2C1449.8 763.3 1456.6 760.7 1462.3 755.4Z" />
				<path id="Layer" fill-rule="evenodd" class="shp1" d="M1524.8 669.7C1528 669.7 1530.8 668.6 1533.1 666.5C1535.4 664.4 1536.6 661.8 1536.6 658.7C1536.6 655.6 1535.4 653 1533.1 650.9C1530.8 648.8 1528 647.7 1524.8 647.7C1521.6 647.7 1518.8 648.8 1516.5 650.9C1514.2 653 1513 655.6 1513 658.7C1513 661.8 1514.2 664.4 1516.5 666.5C1518.8 668.7 1521.5 669.7 1524.8 669.7ZM1533.2 778.1L1533.2 690.8L1516.4 690.8L1516.4 778.1L1533.2 778.1Z" />
				<path id="Layer" class="shp1" d="M1578.6 731L1578.6 778.1L1561.6 778.1L1561.6 690.8L1578.6 690.8L1578.6 703.9C1581.1 699 1584.9 695.3 1590.1 692.8C1595.3 690.2 1600.5 689 1605.9 689C1616.7 689 1625.1 692.4 1630.8 699.1C1636.6 705.8 1639.5 715.4 1639.5 727.7L1639.5 778.2L1622.5 778.2L1622.5 728.9C1622.5 721.7 1620.8 716 1617.4 711.9C1614 707.8 1609.3 705.7 1603.3 705.7C1596.4 705.7 1590.6 707.8 1585.8 712C1581 716 1578.6 722.4 1578.6 731Z" />
				<path id="Layer" fill-rule="evenodd" class="shp1" d="M1679.9 790.6C1682.4 795.3 1686 799 1690.6 801.6C1695.2 804.2 1700.1 805.5 1705.1 805.5C1725.8 805.5 1736.1 792.3 1736.1 765.9C1736.1 765.7 1736.1 765.3 1736 764.9C1735.9 764.5 1735.9 764.1 1735.9 763.9C1733.4 768.9 1729.3 772.8 1723.5 775.7C1717.7 778.6 1711.6 780 1705.3 780C1693 780 1682.5 775.8 1673.9 767.5C1665.3 759.2 1661 748.3 1661 734.8C1661 721.2 1665.3 710.2 1673.9 701.7C1682.5 693.2 1693 689 1705.3 689C1711.7 689 1717.7 690.4 1723.3 693.1C1729 695.8 1733.2 699.6 1735.9 704.5L1735.9 690.9L1752.7 690.9L1752.7 764.9C1752.7 802.8 1736.8 821.7 1705 821.7C1696.8 821.7 1689.2 819.6 1682.2 815.5C1675.2 811.4 1669.7 805.6 1665.6 798.1C1666.5 797.7 1669 796.4 1673.1 794.2C1677.2 791.9 1679.5 790.7 1679.9 790.6ZM1735.7 734.6C1735.7 725.6 1732.9 718.6 1727.3 713.4C1721.7 708.2 1714.8 705.6 1706.7 705.6C1698.7 705.6 1692 708.3 1686.5 713.8C1681 719.3 1678.3 726.2 1678.3 734.5C1678.3 743.2 1681 750.2 1686.4 755.4C1691.8 760.6 1698.6 763.2 1706.7 763.2C1714.3 763.2 1721 760.6 1726.9 755.4C1732.8 750.3 1735.7 743.3 1735.7 734.6Z" />
				<path id="Layer" class="shp1" d="M1930.1 649.3L1930.1 778.1L1912.5 778.1L1912.5 722L1850.3 722L1850.3 778.1L1832.9 778.1L1832.9 649.3L1850.3 649.3L1850.3 706.1L1912.5 706.1L1912.5 649.3L1930.1 649.3Z" />
				<path id="Layer" class="shp1" d="M2021.5 737.9L2021.5 690.8L2038.5 690.8L2038.5 778.1L2021.5 778.1L2021.5 765C2019 769.9 2015.2 773.6 2010.1 776.1C2005 778.7 1999.8 779.9 1994.4 779.9C1983.6 779.9 1975.2 776.5 1969.4 769.8C1963.5 763.1 1960.7 753.5 1960.8 741.2L1960.8 690.7L1977.8 690.7L1977.8 740C1977.8 747.2 1979.5 752.9 1982.8 757C1986.2 761.1 1990.8 763.2 1996.8 763.2C2003.8 763.2 2009.6 761.1 2014.4 757C2019.1 753.1 2021.5 746.6 2021.5 737.9Z" />
				<path id="Layer" class="shp1" d="M2167.2 705.6C2160.1 705.5 2154.5 707.8 2150.3 712.6C2146.1 717.4 2144 723.5 2144 731L2144 778.1L2127 778.1L2127 728.6C2127 721.5 2125.3 715.9 2121.9 711.8C2118.5 707.7 2113.9 705.6 2108.2 705.6C2101.5 705.6 2095.7 707.7 2091 712C2086.3 716.2 2083.9 722.6 2083.9 731.1L2083.9 778.2L2066.9 778.2L2066.9 690.9L2083.9 690.9L2083.9 704C2086 699.6 2089.5 696.2 2094.3 693.7C2099.1 691.2 2103.7 689.8 2108 689.4C2111.4 689.3 2114.5 689.5 2117.5 690C2128.6 691.7 2136.2 697.4 2140.3 707C2146.5 695 2156.6 689.1 2170.6 689.1C2181.4 689.1 2189.8 692.5 2195.5 699.2C2201.3 705.9 2204.2 715.5 2204.2 727.8L2204.2 778.3L2187.2 778.3L2187.2 729C2187.2 721.8 2185.4 716.1 2181.9 712C2178.3 707.6 2173.4 705.6 2167.2 705.6Z" />
				<path id="Layer" fill-rule="evenodd" class="shp1" d="M2300.6 764.6C2297.7 769.5 2293.5 773.2 2287.9 775.9C2282.3 778.6 2276.3 779.9 2270 779.9C2257.7 779.9 2247.2 775.7 2238.6 767.2C2230 758.7 2225.7 747.8 2225.7 734.3C2225.7 720.7 2230 709.8 2238.6 701.4C2247.2 693.1 2257.7 688.9 2270 688.9C2276.4 688.9 2282.4 690.2 2288 692.8C2293.7 695.4 2297.9 699.1 2300.6 703.8L2300.6 690.7L2317.4 690.7L2317.4 778L2300.6 778L2300.6 764.6ZM2300.5 734.2C2300.5 725.4 2297.6 718.4 2291.7 713.3C2285.8 708.2 2279.1 705.6 2271.5 705.6C2263.4 705.6 2256.6 708.2 2251.2 713.5C2245.8 718.8 2243.1 725.7 2243.1 734.1C2243.1 742.6 2245.8 749.5 2251.3 755C2256.8 760.5 2263.5 763.2 2271.5 763.2C2279.6 763.2 2286.4 760.6 2292.1 755.4C2297.6 750.3 2300.5 743.2 2300.5 734.2Z" />
				<path id="Layer" class="shp1" d="M2362.9 731L2362.9 778.1L2345.9 778.1L2345.9 690.8L2362.9 690.8L2362.9 703.9C2365.4 699 2369.2 695.3 2374.4 692.8C2379.6 690.2 2384.8 689 2390.2 689C2401 689 2409.4 692.4 2415.1 699.1C2420.9 705.8 2423.8 715.4 2423.8 727.7L2423.8 778.2L2406.8 778.2L2406.8 728.9C2406.8 721.7 2405.1 716 2401.7 711.9C2398.3 707.8 2393.6 705.7 2387.6 705.7C2380.7 705.7 2374.9 707.8 2370.1 712C2365.3 716 2362.9 722.4 2362.9 731Z" />
				<path id="Layer" fill-rule="evenodd" class="shp1" d="M2459.5 669.7C2462.7 669.7 2465.5 668.6 2467.8 666.5C2470.1 664.4 2471.3 661.8 2471.3 658.7C2471.3 655.6 2470.1 653 2467.8 650.9C2465.5 648.8 2462.7 647.7 2459.5 647.7C2456.3 647.7 2453.5 648.8 2451.2 650.9C2448.9 653 2447.7 655.6 2447.7 658.7C2447.7 661.8 2448.9 664.4 2451.2 666.5C2453.5 668.7 2456.2 669.7 2459.5 669.7ZM2467.9 778.1L2467.9 690.8L2451.1 690.8L2451.1 778.1L2467.9 778.1Z" />
				<path id="Layer" class="shp1" d="M2519.8 690.8L2538.3 690.8L2538.3 705.2L2519.8 705.2L2519.8 778.1L2502.8 778.1L2502.8 705.2L2487.1 705.2L2487.1 690.8L2502.8 690.8L2502.8 657.9L2519.8 657.9L2519.8 690.8Z" />
				<path id="Layer" class="shp1" d="M2581.1 820.5L2563.3 820.5L2581.6 775.5L2546.7 690.8L2564.8 690.8L2591 754L2617.2 690.8L2635.3 690.8L2581.1 820.5Z" />
				<path id="Layer" class="shp1" d="M2682.2 649.3L2777.9 649.3L2777.9 665.7L2738.8 665.7L2738.8 778L2721.2 778L2721.2 665.8L2682.1 665.8L2682.1 649.3L2682.2 649.3Z" />
				<path id="Layer" class="shp1" d="M2814.3 731L2814.3 778.1L2797.3 778.1L2797.3 643.4L2814.3 643.4L2814.3 703.9C2816.7 699 2820.7 695.3 2826.4 692.8C2832.1 690.2 2837.6 689 2843.1 689C2854.1 689 2862.7 692.4 2869.1 699.2C2875.5 706 2878.6 715.5 2878.4 727.7L2878.4 778.2L2861.4 778.2L2861.4 728.9C2861.4 721.8 2859.5 716.2 2855.7 712C2851.9 707.8 2846.9 705.7 2840.8 705.7C2833.8 705.7 2827.7 707.8 2822.3 712C2817 716 2814.3 722.4 2814.3 731Z" />
				<path id="Layer" class="shp1" d="M2922.7 746.3L2922.7 778.1L2905.7 778.1L2905.7 690.8L2922.7 690.8L2922.7 710.4C2926.9 696.1 2935 688.9 2947 688.9C2953.8 688.9 2958.9 690 2962.1 692.3L2959.5 708.2C2955.4 706.2 2951.1 705.2 2946.6 705.2C2938.6 705.2 2932.6 709 2928.7 716.5C2924.7 724.1 2922.7 734 2922.7 746.3Z" />
				<path id="Layer" fill-rule="evenodd" class="shp1" d="M3049.5 767.2C3040.6 775.7 3029.8 780 3017.1 780C3004.4 780 2993.6 775.8 2984.8 767.3C2976 758.8 2971.5 747.8 2971.5 734.2C2971.5 720.7 2975.9 709.8 2984.7 701.5C2993.5 693.2 3004.3 689 3017.1 689C3029.9 689 3040.8 693.2 3049.6 701.5C3058.4 709.8 3062.9 720.7 3062.9 734.2C3062.9 747.6 3058.4 758.6 3049.5 767.2ZM2996.6 755.4C3002.1 760.8 3009 763.5 3017.1 763.5C3025.2 763.5 3032 760.8 3037.6 755.4C3043.1 750 3045.9 742.9 3045.9 734.2C3045.9 725.6 3043.1 718.7 3037.6 713.5C3032.1 708.3 3025.2 705.7 3017.1 705.7C3009 705.7 3002.2 708.3 2996.6 713.5C2991.1 718.7 2988.3 725.6 2988.3 734.2C2988.3 742.9 2991.1 750 2996.6 755.4Z" />
				<path id="Layer" class="shp1" d="M3145.1 737.9L3145.1 690.8L3162.1 690.8L3162.1 778.1L3145.1 778.1L3145.1 765C3142.6 769.9 3138.8 773.6 3133.7 776.1C3128.6 778.7 3123.4 779.9 3118 779.9C3107.2 779.9 3098.8 776.5 3093 769.8C3087.1 763.1 3084.3 753.5 3084.4 741.2L3084.4 690.7L3101.4 690.7L3101.4 740C3101.4 747.2 3103.1 752.9 3106.4 757C3109.8 761.1 3114.4 763.2 3120.4 763.2C3127.4 763.2 3133.2 761.1 3138 757C3142.7 753.1 3145.1 746.6 3145.1 737.9Z" />
				<path id="Layer" fill-rule="evenodd" class="shp1" d="M3203.6 790.6C3206.1 795.3 3209.7 799 3214.3 801.6C3219 804.2 3223.8 805.5 3228.8 805.5C3249.5 805.5 3259.8 792.3 3259.8 765.9C3259.8 765.7 3259.8 765.3 3259.7 764.9C3259.6 764.5 3259.6 764.1 3259.6 763.9C3257.1 768.9 3253 772.8 3247.2 775.7C3241.4 778.6 3235.3 780 3229 780C3216.7 780 3206.2 775.8 3197.6 767.5C3189 759.2 3184.7 748.3 3184.7 734.8C3184.7 721.2 3189 710.2 3197.6 701.7C3206.2 693.2 3216.7 689 3229 689C3235.4 689 3241.4 690.4 3247 693.1C3252.7 695.8 3256.9 699.6 3259.6 704.5L3259.6 690.9L3276.4 690.9L3276.4 764.9C3276.4 802.8 3260.5 821.7 3228.7 821.7C3220.5 821.7 3212.9 819.6 3205.9 815.5C3198.9 811.4 3193.4 805.6 3189.3 798.1C3190.2 797.7 3192.7 796.4 3196.8 794.2C3201 791.9 3203.2 790.7 3203.6 790.6ZM3259.4 734.6C3259.4 725.6 3256.6 718.6 3251 713.4C3245.4 708.2 3238.5 705.6 3230.4 705.6C3222.4 705.6 3215.7 708.3 3210.2 713.8C3204.7 719.3 3202 726.2 3202 734.5C3202 743.2 3204.7 750.2 3210.1 755.4C3215.5 760.6 3222.3 763.2 3230.4 763.2C3238 763.2 3244.7 760.6 3250.6 755.4C3256.5 750.3 3259.4 743.3 3259.4 734.6Z" />
				<path id="Layer" class="shp1" d="M3321.7 731L3321.7 778.1L3304.7 778.1L3304.7 643.4L3321.7 643.4L3321.7 703.9C3324.1 699 3328.1 695.3 3333.8 692.8C3339.5 690.2 3345 689 3350.5 689C3361.5 689 3370.1 692.4 3376.5 699.2C3382.9 706 3386 715.5 3385.8 727.7L3385.8 778.2L3368.8 778.2L3368.8 728.9C3368.8 721.8 3366.9 716.2 3363.1 712C3359.3 707.8 3354.3 705.7 3348.2 705.7C3341.2 705.7 3335.1 707.8 3329.7 712C3324.4 716 3321.7 722.4 3321.7 731Z" />
				<path id="Layer" fill-rule="evenodd" class="shp1" d="M3529.3 745.4L3474.7 745.4L3462.2 778.1L3443.7 778.1L3492.7 649.3L3511.4 649.3L3560.2 778.1L3541.9 778.1L3529.3 745.4ZM3480.7 729.7L3523.3 729.7L3502 672.5L3480.7 729.7Z" />
				<path id="Layer" class="shp1" d="M3593.4 746.3L3593.4 778.1L3576.4 778.1L3576.4 690.8L3593.4 690.8L3593.4 710.4C3597.6 696.1 3605.7 688.9 3617.7 688.9C3624.5 688.9 3629.6 690 3632.8 692.3L3630.2 708.2C3626.1 706.2 3621.8 705.2 3617.3 705.2C3609.3 705.2 3603.3 709 3599.4 716.5C3595.4 724.1 3593.4 734 3593.4 746.3Z" />
				<path id="Layer" class="shp1" d="M3673.7 690.8L3692.2 690.8L3692.2 705.2L3673.7 705.2L3673.7 778.1L3656.7 778.1L3656.7 705.2L3641 705.2L3641 690.8L3656.7 690.8L3656.7 657.9L3673.7 657.9L3673.7 690.8Z" />
				<path id="Layer" fill-rule="evenodd" class="shp1" d="M3719.9 669.7C3723.1 669.7 3725.9 668.6 3728.2 666.5C3730.5 664.4 3731.7 661.8 3731.7 658.7C3731.7 655.6 3730.5 653 3728.2 650.9C3725.9 648.8 3723.1 647.7 3719.9 647.7C3716.7 647.7 3713.9 648.8 3711.6 650.9C3709.3 653 3708.1 655.6 3708.1 658.7C3708.1 661.8 3709.3 664.4 3711.6 666.5C3713.9 668.7 3716.6 669.7 3719.9 669.7ZM3728.3 778.1L3728.3 690.8L3711.5 690.8L3711.5 778.1L3728.3 778.1Z" />
				<path id="Layer" class="shp1" d="M3829.8 778.1L3829.8 705.2L3781.6 705.2L3781.6 778.1L3764.4 778.1L3764.4 705.2L3747.6 705.2L3747.6 690.8L3764.4 690.8L3764.4 682C3764.4 669.9 3767.1 660.4 3772.6 653.6C3778.1 646.8 3786.5 643.3 3797.8 643.3L3807.3 643.3L3807.3 659.6L3797.8 659.6C3786.7 659.6 3781.3 667.1 3781.5 682L3781.5 690.8L3846.5 690.8L3846.5 778.1L3829.8 778.1L3829.8 778.1ZM3829.9 666.5C3827.6 664.4 3826.4 661.8 3826.4 658.7C3826.4 655.6 3827.6 653 3829.9 650.9C3832.2 648.8 3835 647.7 3838.2 647.7C3841.4 647.7 3844.2 648.8 3846.5 650.9C3848.8 653 3850 655.6 3850 658.7C3850 661.8 3848.8 664.4 3846.5 666.5C3844.2 668.6 3841.4 669.7 3838.2 669.7C3834.9 669.7 3832.2 668.7 3829.9 666.5Z" />
				<path id="Layer" class="shp1" d="M3882.3 767.2C3873.3 758.7 3868.8 747.7 3868.8 734.2C3868.8 720.7 3873.3 709.8 3882.3 701.5C3891.3 693.2 3902.2 689 3915 689C3928.8 689 3940 693.7 3948.6 703L3935.7 713.8C3930.2 708.3 3923.3 705.6 3915 705.6C3906.9 705.6 3900 708.2 3894.3 713.5C3888.6 718.8 3885.7 725.7 3885.7 734.1C3885.7 742.7 3888.6 749.7 3894.3 755.2C3900 760.7 3906.9 763.4 3915 763.4C3923.3 763.4 3930.3 760.5 3935.7 754.8L3948.8 765.6C3940.1 775.1 3928.8 779.8 3915 779.8C3902.1 780 3891.2 775.7 3882.3 767.2Z" />
				<path id="Layer" fill-rule="evenodd" class="shp1" d="M3978.7 669.7C3981.9 669.7 3984.7 668.6 3987 666.5C3989.3 664.4 3990.5 661.8 3990.5 658.7C3990.5 655.6 3989.3 653 3987 650.9C3984.7 648.8 3981.9 647.7 3978.7 647.7C3975.5 647.7 3972.7 648.8 3970.4 650.9C3968.1 653 3966.9 655.6 3966.9 658.7C3966.9 661.8 3968.1 664.4 3970.4 666.5C3972.7 668.7 3975.5 669.7 3978.7 669.7ZM3987.1 778.1L3987.1 690.8L3970.3 690.8L3970.3 778.1L3987.1 778.1Z" />
				<path id="Layer" fill-rule="evenodd" class="shp1" d="M4084.6 764.6C4081.7 769.5 4077.5 773.2 4071.9 775.9C4066.3 778.6 4060.3 779.9 4054 779.9C4041.7 779.9 4031.2 775.7 4022.6 767.2C4014 758.7 4009.7 747.8 4009.7 734.3C4009.7 720.7 4014 709.8 4022.6 701.4C4031.2 693.1 4041.7 688.9 4054 688.9C4060.4 688.9 4066.4 690.2 4072 692.8C4077.7 695.4 4081.9 699.1 4084.6 703.8L4084.6 690.7L4101.4 690.7L4101.4 778L4084.6 778L4084.6 764.6ZM4084.5 734.2C4084.5 725.4 4081.6 718.4 4075.7 713.3C4069.8 708.2 4063.1 705.6 4055.5 705.6C4047.4 705.6 4040.6 708.2 4035.2 713.5C4029.8 718.8 4027.1 725.7 4027.1 734.1C4027.1 742.6 4029.8 749.5 4035.3 755C4040.8 760.5 4047.5 763.2 4055.5 763.2C4063.6 763.2 4070.4 760.6 4076.1 755.4C4081.7 750.3 4084.5 743.2 4084.5 734.2Z" />
				<path id="Layer" class="shp1" d="M4129.9 643.4L4146.9 643.4L4146.9 778.1L4129.9 778.1L4129.9 643.4Z" />
				<path id="Layer" class="shp1" d="M4227.2 649.3L4244.6 649.3L4244.6 778.1L4227.2 778.1L4227.2 649.3Z" />
				<path id="Layer" class="shp1" d="M4293.4 731L4293.4 778.1L4276.4 778.1L4276.4 690.8L4293.4 690.8L4293.4 703.9C4295.9 699 4299.7 695.3 4304.9 692.8C4310.1 690.2 4315.3 689 4320.7 689C4331.5 689 4339.9 692.4 4345.6 699.1C4351.4 705.8 4354.3 715.4 4354.3 727.7L4354.3 778.2L4337.3 778.2L4337.3 728.9C4337.3 721.7 4335.6 716 4332.2 711.9C4328.8 707.8 4324.1 705.7 4318.1 705.7C4311.2 705.7 4305.4 707.8 4300.6 712C4295.8 716 4293.4 722.4 4293.4 731Z" />
				<path id="Layer" class="shp1" d="M4405.1 690.8L4423.6 690.8L4423.6 705.2L4405.1 705.2L4405.1 778.1L4388.1 778.1L4388.1 705.2L4372.4 705.2L4372.4 690.8L4388.1 690.8L4388.1 657.9L4405.1 657.9L4405.1 690.8Z" />
				<path id="Layer" fill-rule="evenodd" class="shp1" d="M4523.8 734.2C4523.8 737.4 4523.7 739.7 4523.6 740.9L4452.8 740.9C4453.8 748.1 4456.9 753.9 4462 758.2C4467.2 762.5 4473.5 764.6 4481 764.6C4486.4 764.6 4491.3 763.4 4495.8 761C4500.3 758.6 4503.7 755.3 4506.1 751.1C4507.7 751.7 4510.2 752.7 4513.6 754C4517 755.3 4519.3 756.2 4520.7 756.7C4517.1 764.2 4511.7 769.9 4504.4 773.9C4497.2 777.9 4489.2 779.9 4480.5 779.9C4467.8 779.9 4457.2 775.7 4448.6 767.2C4440.1 758.7 4435.8 747.7 4435.8 734.1C4435.8 720.5 4440.1 709.6 4448.6 701.3C4457.1 693 4467.8 688.9 4480.5 688.9C4493.1 688.9 4503.5 693 4511.6 701.3C4519.7 709.7 4523.8 720.6 4523.8 734.2ZM4452.8 727.6L4507 727.6C4506 720.4 4503.1 714.7 4498.3 710.5C4493.5 706.3 4487.6 704.2 4480.5 704.2C4473.1 704.2 4467 706.3 4461.9 710.5C4456.8 714.7 4453.8 720.4 4452.8 727.6Z" />
				<path id="Layer" class="shp1" d="M4545.5 643.4L4562.5 643.4L4562.5 778.1L4545.5 778.1L4545.5 643.4Z" />
				<path id="Layer" class="shp1" d="M4590.9 643.4L4607.9 643.4L4607.9 778.1L4590.9 778.1L4590.9 643.4Z" />
				<path id="Layer" fill-rule="evenodd" class="shp1" d="M4644.7 669.7C4647.9 669.7 4650.7 668.6 4653 666.5C4655.3 664.4 4656.5 661.8 4656.5 658.7C4656.5 655.6 4655.3 653 4653 650.9C4650.7 648.8 4647.9 647.7 4644.7 647.7C4641.5 647.7 4638.7 648.8 4636.4 650.9C4634.1 653 4632.9 655.6 4632.9 658.7C4632.9 661.8 4634.1 664.4 4636.4 666.5C4638.7 668.7 4641.4 669.7 4644.7 669.7ZM4653.1 778.1L4653.1 690.8L4636.3 690.8L4636.3 778.1L4653.1 778.1Z" />
				<path id="Layer" fill-rule="evenodd" class="shp1" d="M4694.6 790.6C4697.1 795.3 4700.7 799 4705.3 801.6C4710 804.2 4714.8 805.5 4719.8 805.5C4740.5 805.5 4750.8 792.3 4750.8 765.9C4750.8 765.7 4750.8 765.3 4750.7 764.9C4750.6 764.5 4750.6 764.1 4750.6 763.9C4748.1 768.9 4744 772.8 4738.2 775.7C4732.4 778.6 4726.3 780 4720 780C4707.7 780 4697.2 775.8 4688.6 767.5C4680 759.2 4675.7 748.3 4675.7 734.8C4675.7 721.2 4680 710.2 4688.6 701.7C4697.2 693.2 4707.7 689 4720 689C4726.4 689 4732.4 690.4 4738 693.1C4743.7 695.8 4747.9 699.6 4750.6 704.5L4750.6 690.9L4767.4 690.9L4767.4 764.9C4767.4 802.8 4751.5 821.7 4719.7 821.7C4711.5 821.7 4703.9 819.6 4696.9 815.5C4689.9 811.4 4684.4 805.6 4680.3 798.1C4681.2 797.7 4683.7 796.4 4687.8 794.2C4692 791.9 4694.2 790.7 4694.6 790.6ZM4750.5 734.6C4750.5 725.6 4747.7 718.6 4742.1 713.4C4736.5 708.2 4729.6 705.6 4721.5 705.6C4713.5 705.6 4706.8 708.3 4701.3 713.8C4695.8 719.3 4693.1 726.2 4693.1 734.5C4693.1 743.2 4695.8 750.2 4701.2 755.4C4706.6 760.6 4713.4 763.2 4721.5 763.2C4729.1 763.2 4735.8 760.6 4741.7 755.4C4747.5 750.3 4750.5 743.3 4750.5 734.6Z" />
				<path id="Layer" fill-rule="evenodd" class="shp1" d="M4877.9 734.2C4877.9 737.4 4877.8 739.7 4877.7 740.9L4806.9 740.9C4807.9 748.1 4811 753.9 4816.1 758.2C4821.3 762.5 4827.6 764.6 4835.1 764.6C4840.5 764.6 4845.4 763.4 4849.9 761C4854.4 758.6 4857.8 755.3 4860.2 751.1C4861.8 751.7 4864.3 752.7 4867.7 754C4871.1 755.3 4873.4 756.2 4874.8 756.7C4871.2 764.2 4865.8 769.9 4858.5 773.9C4851.3 777.9 4843.3 779.9 4834.6 779.9C4821.9 779.9 4811.3 775.7 4802.7 767.2C4794.2 758.7 4789.9 747.7 4789.9 734.1C4789.9 720.5 4794.2 709.6 4802.7 701.3C4811.2 693 4821.9 688.9 4834.6 688.9C4847.2 688.9 4857.6 693 4865.7 701.3C4873.8 709.7 4877.9 720.6 4877.9 734.2ZM4806.9 727.6L4861.1 727.6C4860.1 720.4 4857.2 714.7 4852.4 710.5C4847.6 706.3 4841.7 704.2 4834.6 704.2C4827.2 704.2 4821.1 706.3 4816 710.5C4810.9 714.7 4807.9 720.4 4806.9 727.6Z" />
				<path id="Layer" class="shp1" d="M4916.6 731L4916.6 778.1L4899.6 778.1L4899.6 690.8L4916.6 690.8L4916.6 703.9C4919.1 699 4922.9 695.3 4928.1 692.8C4933.3 690.2 4938.5 689 4943.9 689C4954.7 689 4963.1 692.4 4968.8 699.1C4974.6 705.8 4977.5 715.4 4977.5 727.7L4977.5 778.2L4960.5 778.2L4960.5 728.9C4960.5 721.7 4958.8 716 4955.4 711.9C4952 707.8 4947.3 705.7 4941.3 705.7C4934.4 705.7 4928.6 707.8 4923.8 712C4919 716 4916.6 722.4 4916.6 731Z" />
				<path id="Layer" class="shp1" d="M5012.4 767.2C5003.4 758.7 4998.9 747.7 4998.9 734.2C4998.9 720.7 5003.4 709.8 5012.4 701.5C5021.4 693.2 5032.3 689 5045.1 689C5058.9 689 5070.1 693.7 5078.7 703L5065.8 713.8C5060.3 708.3 5053.4 705.6 5045.1 705.6C5037 705.6 5030.1 708.2 5024.4 713.5C5018.7 718.8 5015.8 725.7 5015.8 734.1C5015.8 742.7 5018.7 749.7 5024.4 755.2C5030.1 760.7 5037 763.4 5045.1 763.4C5053.4 763.4 5060.4 760.5 5065.8 754.8L5078.9 765.6C5070.2 775.1 5058.9 779.8 5045.1 779.8C5032.3 780 5021.4 775.7 5012.4 767.2Z" />
				<path id="Layer" fill-rule="evenodd" class="shp1" d="M5180.4 734.2C5180.4 737.4 5180.3 739.7 5180.2 740.9L5109.4 740.9C5110.4 748.1 5113.5 753.9 5118.6 758.2C5123.8 762.5 5130.1 764.6 5137.6 764.6C5143 764.6 5147.9 763.4 5152.4 761C5156.9 758.6 5160.3 755.3 5162.7 751.1C5164.3 751.7 5166.8 752.7 5170.2 754C5173.6 755.3 5175.9 756.2 5177.3 756.7C5173.7 764.2 5168.3 769.9 5161 773.9C5153.8 777.9 5145.8 779.9 5137.1 779.9C5124.4 779.9 5113.8 775.7 5105.2 767.2C5096.7 758.7 5092.4 747.7 5092.4 734.1C5092.4 720.5 5096.7 709.6 5105.2 701.3C5113.7 693 5124.4 688.9 5137.1 688.9C5149.7 688.9 5160.1 693 5168.2 701.3C5176.3 709.7 5180.4 720.6 5180.4 734.2ZM5109.4 727.6L5163.6 727.6C5162.6 720.4 5159.7 714.7 5154.9 710.5C5150.1 706.3 5144.2 704.2 5137.1 704.2C5129.7 704.2 5123.6 706.3 5118.5 710.5C5113.4 714.7 5110.4 720.4 5109.4 727.6Z" />
			</g>
		</g>
	</g>
	<g id="Layer_2">
	</g>
</svg>