<svg xmlns="http://www.w3.org/2000/svg" width="33.008" height="28.105" viewBox="0 0 33.008 28.105">
  <g id="desktop" transform="translate(0 0)">
    <path id="Path_53085" data-name="Path 53085" d="M151.8,8.81H125.732a3.46,3.46,0,0,0-3.472,3.437V30.266a3.46,3.46,0,0,0,3.472,3.44H151.8a3.46,3.46,0,0,0,3.469-3.44V12.247A3.46,3.46,0,0,0,151.8,8.81Zm-27.856,3.437a1.751,1.751,0,0,1,1.789-1.754H151.8a1.773,1.773,0,0,1,1.8,1.754V30.266a1.754,1.754,0,0,1-1.786,1.757H125.745a1.776,1.776,0,0,1-1.789-1.757Z" transform="translate(-122.26 -8.81)" fill="#fff"/>
    <path id="Path_53086" data-name="Path 53086" d="M163.825,91.207H149.493a.843.843,0,1,0,0,1.683h14.332a.843.843,0,0,0,0-1.683Z" transform="translate(-140.153 -64.786)" fill="#fff"/>
  </g>
</svg>
