<svg xmlns="http://www.w3.org/2000/svg" xmlns:xlink="http://www.w3.org/1999/xlink" width="226.713" height="220.3" viewBox="0 0 226.713 220.3">
  <defs>
    <linearGradient id="linear-gradient" x1="0.822" y1="0.718" x2="0.281" y2="0.418" gradientUnits="objectBoundingBox">
      <stop offset="0" stop-color="#a3c6ff"/>
      <stop offset="1" stop-color="#d7e7ff"/>
    </linearGradient>
    <linearGradient id="linear-gradient-2" x1="0.51" y1="0.235" x2="0.494" y2="1.235" gradientUnits="objectBoundingBox">
      <stop offset="0" stop-color="#6d6afe"/>
      <stop offset="1" stop-color="#3fb0f7"/>
    </linearGradient>
    <linearGradient id="linear-gradient-3" x1="0.582" y1="0.383" x2="0.468" y2="0.545" xlink:href="#linear-gradient-2"/>
    <linearGradient id="linear-gradient-4" x1="0.672" y1="0.227" x2="0.412" y2="0.641" xlink:href="#linear-gradient-2"/>
    <linearGradient id="linear-gradient-5" x1="0.584" y1="0.855" x2="0.307" y2="-0.093" gradientUnits="objectBoundingBox">
      <stop offset="0" stop-color="#965cf2"/>
      <stop offset="1" stop-color="#ff8adc"/>
    </linearGradient>
    <linearGradient id="linear-gradient-6" x1="0.504" y1="0.991" x2="0.495" y2="-0.091" xlink:href="#linear-gradient-2"/>
    <linearGradient id="linear-gradient-7" x1="0.504" y1="0.985" x2="0.495" y2="-0.428" xlink:href="#linear-gradient-2"/>
    <linearGradient id="linear-gradient-8" x1="0.506" y1="0.997" x2="0.495" y2="-0.083" xlink:href="#linear-gradient-2"/>
    <linearGradient id="linear-gradient-9" x1="0.504" y1="0.989" x2="0.495" y2="-0.088" xlink:href="#linear-gradient-2"/>
    <linearGradient id="linear-gradient-10" x1="0.311" y1="0.638" x2="0.95" y2="0.415" xlink:href="#linear-gradient-5"/>
    <linearGradient id="linear-gradient-11" x1="0.354" y1="0.771" x2="0.54" y2="0.309" xlink:href="#linear-gradient-2"/>
    <linearGradient id="linear-gradient-12" x1="0.223" y1="0.568" x2="1.069" y2="0.396" gradientUnits="objectBoundingBox">
      <stop offset="0" stop-color="#1c8ef4"/>
      <stop offset="1" stop-color="#00cfdd"/>
    </linearGradient>
    <linearGradient id="linear-gradient-13" x1="0.426" y1="0.573" x2="0.621" y2="0.779" gradientUnits="objectBoundingBox">
      <stop offset="0" stop-color="#3e4795"/>
      <stop offset="1" stop-color="#273088"/>
    </linearGradient>
    <linearGradient id="linear-gradient-14" x1="1.055" y1="0.826" x2="0.561" y2="0.465" gradientUnits="objectBoundingBox">
      <stop offset="0" stop-color="#ffb89e"/>
      <stop offset="1" stop-color="#ffa799"/>
    </linearGradient>
    <linearGradient id="linear-gradient-15" x1="0.3" y1="0.187" x2="0.985" y2="0.872" gradientUnits="objectBoundingBox">
      <stop offset="0" stop-color="#ff8a78"/>
      <stop offset="1" stop-color="#ffa799"/>
    </linearGradient>
    <linearGradient id="linear-gradient-16" x1="0.403" y1="0.433" x2="0.571" y2="0.836" xlink:href="#linear-gradient-13"/>
    <linearGradient id="linear-gradient-17" x1="1.607" y1="0.746" x2="0.645" y2="0.474" xlink:href="#linear-gradient-14"/>
    <linearGradient id="linear-gradient-18" x1="0.172" y1="0.211" x2="1.355" y2="0.819" xlink:href="#linear-gradient-15"/>
    <linearGradient id="linear-gradient-19" x1="0.316" y1="0.217" x2="0.578" y2="0.79" xlink:href="#linear-gradient-14"/>
    <linearGradient id="linear-gradient-20" x1="0.503" y1="0.312" x2="0.476" y2="0.923" xlink:href="#linear-gradient-14"/>
    <linearGradient id="linear-gradient-21" x1="0.614" y1="0.761" x2="0.298" y2="0.065" xlink:href="#linear-gradient-12"/>
    <linearGradient id="linear-gradient-22" x1="0.509" y1="1.384" x2="0.497" y2="-0.212" xlink:href="#linear-gradient-12"/>
    <linearGradient id="linear-gradient-23" x1="0.909" y1="1.31" x2="0.61" y2="0.531" xlink:href="#linear-gradient-12"/>
    <linearGradient id="linear-gradient-24" x1="0.491" y1="1.382" x2="0.503" y2="-0.21" xlink:href="#linear-gradient-12"/>
    <linearGradient id="linear-gradient-25" x1="0.505" y1="1.408" x2="0.493" y2="-0.239" xlink:href="#linear-gradient-12"/>
    <linearGradient id="linear-gradient-26" x1="0.533" y1="0.337" x2="0.455" y2="0.925" xlink:href="#linear-gradient-14"/>
    <linearGradient id="linear-gradient-27" x1="0.485" y1="0.391" x2="0.258" y2="0.565" gradientUnits="objectBoundingBox">
      <stop offset="0" stop-color="#5a2d68"/>
      <stop offset="1" stop-color="#22043d"/>
    </linearGradient>
    <linearGradient id="linear-gradient-28" x1="0.592" y1="0.335" x2="0.431" y2="0.854" gradientUnits="objectBoundingBox">
      <stop offset="0" stop-color="#3874c2"/>
      <stop offset="1" stop-color="#214075"/>
    </linearGradient>
    <linearGradient id="linear-gradient-29" x1="0.816" y1="-0.976" x2="0.545" y2="0.391" xlink:href="#linear-gradient-28"/>
    <linearGradient id="linear-gradient-30" x1="0.57" y1="0.391" x2="-0.095" y2="0.584" xlink:href="#linear-gradient-28"/>
    <linearGradient id="linear-gradient-31" x1="0.373" y1="0.4" x2="-0.313" y2="0.599" xlink:href="#linear-gradient-28"/>
    <linearGradient id="linear-gradient-32" x1="0.805" y1="0.45" x2="0.451" y2="0.548" xlink:href="#linear-gradient-28"/>
    <linearGradient id="linear-gradient-33" x1="0.351" y1="-0.113" x2="0.587" y2="0.643" xlink:href="#linear-gradient-28"/>
    <linearGradient id="linear-gradient-34" x1="0.801" y1="0.379" x2="0.128" y2="0.574" xlink:href="#linear-gradient-28"/>
    <linearGradient id="linear-gradient-35" x1="0.724" y1="0.424" x2="0.443" y2="0.293" xlink:href="#linear-gradient-15"/>
    <linearGradient id="linear-gradient-36" x1="0.393" y1="0.766" x2="0.52" y2="0.417" xlink:href="#linear-gradient-12"/>
    <linearGradient id="linear-gradient-37" x1="0.394" y1="0.772" x2="0.508" y2="0.458" xlink:href="#linear-gradient-12"/>
    <linearGradient id="linear-gradient-38" x1="0.43" y1="0.766" x2="0.65" y2="0.163" xlink:href="#linear-gradient-12"/>
    <linearGradient id="linear-gradient-39" x1="0.338" y1="0.792" x2="0.587" y2="0.106" xlink:href="#linear-gradient-12"/>
    <linearGradient id="linear-gradient-40" x1="0.507" y1="0.48" x2="0.473" y2="0.72" xlink:href="#linear-gradient-15"/>
    <linearGradient id="linear-gradient-41" x1="0.486" y1="0.148" x2="0.515" y2="0.484" xlink:href="#linear-gradient-27"/>
    <linearGradient id="linear-gradient-42" x1="0.606" y1="0.322" x2="0.422" y2="0.783" xlink:href="#linear-gradient-14"/>
    <linearGradient id="linear-gradient-43" x1="0.828" y1="0.243" x2="0.167" y2="0.625" xlink:href="#linear-gradient-28"/>
    <linearGradient id="linear-gradient-44" x1="0.353" y1="1.005" x2="0.749" y2="-0.355" xlink:href="#linear-gradient-5"/>
    <linearGradient id="linear-gradient-45" x1="0.491" y1="0.784" x2="0.64" y2="-0.023" xlink:href="#linear-gradient-12"/>
    <linearGradient id="linear-gradient-46" x1="0.451" y1="0.774" x2="0.67" y2="0.171" xlink:href="#linear-gradient-12"/>
  </defs>
  <g id="Group_230" data-name="Group 230" transform="translate(-100.045 -158.255)">
    <circle id="Ellipse_242" data-name="Ellipse 242" cx="109.114" cy="109.114" r="109.114" transform="translate(107.477 158.255)" fill="#f3f8ff"/>
    <g id="Group_187" data-name="Group 187" transform="translate(100.045 166.958)">
      <g id="Group_185" data-name="Group 185" transform="translate(0 41.828)">
        <path id="Path_443" data-name="Path 443" d="M102.6,375.761c.751,2.479,5.107,2.133,9.057.89,1.434-.452,5.724-2.475,6.025-1.083.149.49-1.326,2.331-2.91,4.249-1.416,1.713-5.83,6.1-3.817,8.986,1.826,2.617,8.613-2.5,10.573-4.449,6.719-6.684,7.227-4.781,1.983,2.024a22.651,22.651,0,0,0-4.132,8.421c-.174,1.056-.063,1.972,1.13,1.948,1.364-.028,3.907-1.2,7.682-2.849,8.632-3.776,15.231-9.5,26.339.092-2.53-13.072-5.264-23.482-8.244-35.441-.664-2.665-1.407-5.459-2.188-8.041a40.032,40.032,0,0,0-3.452-8.7,7.924,7.924,0,0,0-.881-1.179l-.022-.022c-1.663-1.748-2.515.253-1.822,5.116.3,2.135.636,4.166,1.028,6.514.551,3.288.756,5.39.387,5.512-.412.131-1.329-2.364-3.424-8.144-2.7-7.456-6.51-16.608-8.4-15.315-.62.422-.836,2.819-.266,8.89,1.187,10.809-1.227,3.425-3.716-1.473-1.363-2.831-4.7-12.069-6.857-9.205-.9,1.2.134,5.308,1.093,8.47.219.722.433,1.394.621,1.971q.224.689.4,1.264c1.533,5.061.263,3.735-2.363-.32a28.7,28.7,0,0,0-3.843-5.057c-4.459-4.185-4.447.019-3.2,4.125.133.44.28.878.438,1.3.569,1.544,1.185,2.987,1.521,4.1.541,1.785.364,2.719-1.878,1.846a14.215,14.215,0,0,0-3.831-.867c-3.319-.314-4.848.442-5.5,3.493a4.2,4.2,0,0,0,.13,2.114c.64,2.113,2.668,4.3,5.086,5.854,2.2,1.419,4.271,2.471,4.729,3.981a2.168,2.168,0,0,1,.089.783c-.126,1.96-2.925,3.959-5.057,5.619C102.849,372.934,102.217,374.51,102.6,375.761Z" transform="translate(-100.045 -331.957)" fill-rule="evenodd" opacity="0.5" fill="url(#linear-gradient)"/>
        <path id="Path_444" data-name="Path 444" d="M104.822,398.337a108.671,108.671,0,0,1,21.241,12.221,51.874,51.874,0,0,0-9.167,5.234c3.41-1.542,6.943-3.029,10.328-4.388,3.865,2.847,7.632,5.908,11.3,9.1,1.384,1.205,2.809,2.5,4.252,3.849a74.291,74.291,0,0,0-11.127,9.2c4.253-2.71,8.076-5.635,12.292-8.1,5.171,4.9,10.514,10.371,15.1,14.822-3.8-5.979-10.487-13.359-16.644-19.061-1.406-5.587-4.339-16.981-6.6-21.541,1.094,4.021,3.3,14.038,4.649,19.778q-.588-.52-1.164-1.013a119.714,119.714,0,0,0-15.573-10.92l-.018-.053a80.081,80.081,0,0,0-5.344-11.773c1.321,3.806,2.786,7.319,4.01,11.025A97.518,97.518,0,0,0,104.822,398.337Z" transform="translate(-103.432 -377.149)" fill="#a1c3ff" fill-rule="evenodd" opacity="0.5"/>
      </g>
      <g id="Group_186" data-name="Group 186" transform="translate(2.603)">
        <path id="Path_445" data-name="Path 445" d="M136.658,205.671c-2.508-2.228-12.648-5.442-12.272-.335s7.031-.985,12.272.335Zm16.023,30.3a5.662,5.662,0,0,1-.105-.732c-4.758-2.156-12.244,1.588-11.31-3.283.9-4.682,8.724-.031,11.286,2.895-.166-4.03,1.949-12.307,5.816-9.761,4.088,2.691-3.555,5.409-5.46,10.2.043.059.085.118.122.175-.052-.029-.1-.056-.157-.083a6.151,6.151,0,0,0-.191.586Zm-2.915-8.693a6.162,6.162,0,0,1,.151-.644c.04.017.079.033.118.05q-.047-.059-.1-.12c1.487-4.933,8.836-8.31,4.532-10.627-4.065-2.188-5.444,6.188-4.935,10.2-2.783-2.689-11.044-6.673-11.526-1.914-.5,4.942,6.649.529,11.58,2.279a5.789,5.789,0,0,0,.179.773Zm-3.585-8.31a5.687,5.687,0,0,1-.3-.694c-5.2-1.054-11.633,4.745-12-.274-.36-4.9,8.955-2.141,11.928.058-1.248-3.778-1.413-12.547,3.036-11.075,4.861,1.608-2.669,6.58-2.665,11.984Zm-24.906-23.316c-2.508-2.228-12.648-5.442-12.272-.335s7.032-.985,12.272.335Zm8.841,4.52c-2.684-2.013-7.854-11.309-2.775-11.959s.436,7.087,2.775,11.959Zm6.233,5.233c-2.077-2.634-4.689-12.946.387-12.271s-1.4,6.962-.387,12.271Zm5.483,6.472c-.337-5.394,6.872-10.82,1.921-12.126S140.1,209,141.832,211.874Zm-.364-.419c-5.241-1.32-11.9,4.771-12.272-.335s9.765-1.893,12.272.335ZM130.426,200.48c-5.241-1.32-11.9,4.771-12.272-.335S127.919,198.252,130.426,200.48Z" transform="translate(-108.993 -188.171)" fill="#d6e6ff" fill-rule="evenodd" opacity="0.5"/>
        <path id="Path_446" data-name="Path 446" d="M153.647,232.846c-.611-1.81-1.286-3.613-2.023-5.395.322-2.136,1.315-6.436,4.257-9.123-3.249,1.922-4.15,6.462-4.363,8.869a77.21,77.21,0,0,0-3.748-7.752c-.08-2.023.05-6.714,2.6-10.026-2.993,2.565-2.97,7.5-2.73,9.8a64.3,64.3,0,0,0-4.279-6.66c-.212-1.895-.462-6.779,1.957-10.357-2.937,2.85-2.471,8.045-2.076,10.2a51.384,51.384,0,0,0-5.509-6.322c-.45-1.884-1.282-6.655.655-10.477-2.545,3.179-1.455,8.242-.792,10.346a40.792,40.792,0,0,0-6.409-5.058c-.937-1.76-2.89-6.087-2.013-10.214-1.612,3.655.62,8.164,1.82,10.093a33.652,33.652,0,0,0-10.941-4.45,15.913,15.913,0,0,0-3.691-.561q-.261-.025-.523-.045l.283.042a7.99,7.99,0,0,0-4.7,1.308,14.446,14.446,0,0,1,8.119-.606,35.72,35.72,0,0,1,11.4,5.252c-2.066-.786-7.047-2.164-10.366.186,4.037-1.756,8.9-.536,10.643.007a43.341,43.341,0,0,1,5.843,4.956c-2.129-.791-6.994-2.081-10.255.228,3.874-1.685,8.51-.629,10.418-.062a53.449,53.449,0,0,1,4.833,5.687c-2.019-.78-7.08-2.22-10.439.158,3.957-1.721,8.71-.582,10.536-.026a65.8,65.8,0,0,1,4.266,6.624c-2.2-.794-6.924-1.981-10.116.279,3.736-1.625,8.18-.7,10.2-.125a78.261,78.261,0,0,1,3.86,7.913c-2.054-1.167-6.446-3.1-9.943-1.441,3.926-.944,8.1.7,10.019,1.623.8,1.9,1.472,3.718,2.036,5.388q.51,1.508.985,3.107c-1.936-1.342-6.154-3.667-9.793-2.325,4-.595,8.025,1.42,9.847,2.508,3.479,11.774,5.424,26.721,3.54,38.409,3.507-12.611.4-29.055-2.376-38.637.511-2.1,1.881-6.29,5.045-8.7-3.4,1.623-4.7,6.044-5.125,8.428C154.273,234.767,153.952,233.749,153.647,232.846Z" transform="translate(-110.716 -189.942)" fill="#a1c3ff" fill-rule="evenodd" opacity="0.5"/>
      </g>
    </g>
    <g id="Group_194" data-name="Group 194" transform="translate(204.966 179.468)">
      <g id="Group_193" data-name="Group 193" transform="translate(0)">
        <path id="Path_447" data-name="Path 447" d="M599.555,258.163h29.893a1.627,1.627,0,0,1,1.643,1.863l-2.937,24.92a2.161,2.161,0,0,1-2.083,1.863H596.179a1.627,1.627,0,0,1-1.643-1.863l2.937-24.92A2.161,2.161,0,0,1,599.555,258.163Z" transform="translate(-555.598 -250.312)" fill="#783fd3" fill-rule="evenodd"/>
        <g id="Group_192" data-name="Group 192">
          <path id="Path_448" data-name="Path 448" d="M531.835,256.64v19.146a7.184,7.184,0,0,1-7.408,6.88h-56.3a7.181,7.181,0,0,1-7.408-6.88V256.64Z" transform="translate(-460.717 -249.232)" fill="#fff" fill-rule="evenodd"/>
          <path id="Path_449" data-name="Path 449" d="M468.125,231.175h56.3a7.43,7.43,0,0,1,7.408,7.408v2.411H460.717v-2.411A7.429,7.429,0,0,1,468.125,231.175Z" transform="translate(-460.717 -231.175)" fill-rule="evenodd" fill="url(#linear-gradient-2)"/>
          <g id="Group_188" data-name="Group 188" transform="translate(5.023 3.417)">
            <path id="Path_450" data-name="Path 450" d="M479.975,243.505a1.992,1.992,0,1,1-1.992,1.992A1.992,1.992,0,0,1,479.975,243.505Z" transform="translate(-477.983 -243.336)" fill="#fff" fill-rule="evenodd"/>
            <circle id="Ellipse_243" data-name="Ellipse 243" cx="1.991" cy="1.991" r="1.991" transform="translate(6.69 0.355) rotate(-5.111)" fill="#fff"/>
            <circle id="Ellipse_244" data-name="Ellipse 244" cx="1.991" cy="1.991" r="1.991" transform="translate(13.719 0.169)" fill="#fff"/>
          </g>
          <g id="Group_191" data-name="Group 191" transform="translate(2.734 11.546)">
            <g id="Group_189" data-name="Group 189" transform="translate(21.284 4.48)">
              <path id="Path_451" data-name="Path 451" d="M544.7,286.268h31.188A1.339,1.339,0,0,1,577.3,287.5v2.75a1.34,1.34,0,0,1-1.417,1.232H544.7a1.339,1.339,0,0,1-1.417-1.232V287.5A1.338,1.338,0,0,1,544.7,286.268Z" transform="translate(-543.281 -286.268)" fill="#5988fa" fill-rule="evenodd" opacity="0.2"/>
              <path id="Rectangle_127" data-name="Rectangle 127" d="M1.421,0H42.939A1.421,1.421,0,0,1,44.36,1.421v0a1.421,1.421,0,0,1-1.421,1.421H1.421A1.421,1.421,0,0,1,0,1.421v0A1.421,1.421,0,0,1,1.421,0Z" transform="translate(0 7.788)" fill="#5988fa" opacity="0.2"/>
            </g>
            <g id="Group_190" data-name="Group 190">
              <path id="Path_452" data-name="Path 452" d="M479.909,270.866a9.8,9.8,0,1,1-9.795,9.795,9.8,9.8,0,0,1,9.795-9.795Zm0,5.227a4.568,4.568,0,1,0,4.568,4.568A4.568,4.568,0,0,0,479.909,276.093Z" transform="translate(-470.114 -270.866)" fill-rule="evenodd" opacity="0.2" fill="url(#linear-gradient-3)"/>
              <path id="Path_453" data-name="Path 453" d="M488.852,283.478a6.126,6.126,0,1,1-6.126,6.126,6.126,6.126,0,0,1,6.126-6.126Zm0,2.629a3.5,3.5,0,1,0,3.5,3.5A3.5,3.5,0,0,0,488.852,286.107Z" transform="translate(-479.057 -279.809)" fill-rule="evenodd" fill="url(#linear-gradient-4)"/>
            </g>
          </g>
        </g>
        <path id="Path_454" data-name="Path 454" d="M616.207,258.563h9.553a1.675,1.675,0,0,1,1.67,1.67v22.343a1.675,1.675,0,0,1-1.67,1.67H595.482a1.675,1.675,0,0,1-1.67-1.67V257.16a2.618,2.618,0,0,1,2.61-2.61h12.614a2.994,2.994,0,0,1,2.871,1.722C613.249,258.323,613.545,258.563,616.207,258.563Z" transform="translate(-555.094 -247.75)" fill-rule="evenodd" fill="url(#linear-gradient-5)"/>
      </g>
      <path id="Path_455" data-name="Path 455" d="M478.243,320.6v1.927H468.125a7.181,7.181,0,0,1-7.408-6.88v-2.794h9.78A7.768,7.768,0,0,1,478.243,320.6Z" transform="translate(-460.717 -289.093)" fill="#5988fa" fill-rule="evenodd" opacity="0.2"/>
    </g>
    <g id="Group_196" data-name="Group 196" transform="translate(140.901 216.974)">
      <path id="Path_456" data-name="Path 456" d="M252.582,360.1H384.65c6.65,0,12.091,5.75,12.091,12.728v73.847c0,6.978-5.462,12.728-12.091,12.728H252.582c-6.629,0-12.09-5.728-12.09-12.728V372.832C240.492,365.832,245.932,360.1,252.582,360.1Z" transform="translate(-240.492 -360.104)" fill-rule="evenodd" fill="url(#linear-gradient-6)"/>
      <path id="Path_457" data-name="Path 457" d="M260.257,426a2.825,2.825,0,1,0,2.825,2.825A2.825,2.825,0,0,0,260.257,426Zm2.012,53.969c-.038-24.642-.161-44.051-.162-44.191a1.934,1.934,0,0,0-3.868.015c0,.138.122,18.792.171,42.606a11.664,11.664,0,0,0,3.859,1.57Zm12.063-63.109a2.825,2.825,0,1,0,2.825,2.825,2.825,2.825,0,0,0-2.825-2.825Zm2.022,63.349c-.015-26.62-.172-53.413-.173-53.571a1.934,1.934,0,0,0-3.867.015c0,.158.163,27.072.189,53.555Zm12.053-72.488a2.825,2.825,0,1,0,2.825,2.825,2.825,2.825,0,0,0-2.825-2.825Zm2.021,72.488c.026-27-.171-62.532-.172-62.71a1.934,1.934,0,0,0-3.868.016c0,.177.2,35.928.191,62.694Zm12.053-81.627a2.825,2.825,0,1,0,2.825,2.825,2.825,2.825,0,0,0-2.825-2.825Zm2,81.627c.1-24.8-.151-71.65-.152-71.849a1.933,1.933,0,1,0-3.867.016c0,.2.259,47.49.175,71.834Zm12.074-90.768a2.826,2.826,0,1,0,2.825,2.825,2.826,2.826,0,0,0-2.825-2.825Zm1.925,90.768c.258-15.474-.075-80.76-.077-80.99a1.933,1.933,0,1,0-3.867.016c0,.233.35,67.092.1,80.974Zm12.149-90.767a2.825,2.825,0,1,0,2.825,2.825,2.826,2.826,0,0,0-2.825-2.825Zm1.926,90.767c.258-15.474-.076-80.758-.077-80.989a1.934,1.934,0,1,0-3.867.015c0,.234.351,67.089.1,80.974ZM344.7,398.583a2.825,2.825,0,1,0,2.825,2.825,2.825,2.825,0,0,0-2.825-2.825Zm2,81.627c.1-24.8-.15-71.65-.151-71.849a1.934,1.934,0,1,0-3.867.016c0,.2.258,47.49.174,71.834Zm12.074-72.488a2.825,2.825,0,1,0,2.826,2.825,2.825,2.825,0,0,0-2.826-2.825ZM360.8,480.21c.026-27-.172-62.532-.172-62.71a1.934,1.934,0,0,0-3.868.016c0,.177.205,35.928.191,62.694ZM372.851,426a2.825,2.825,0,1,0,2.825,2.825A2.824,2.824,0,0,0,372.851,426Zm2.012,54.209c-.038-24.756-.162-44.29-.163-44.431a1.934,1.934,0,0,0-3.867.015c0,.141.129,19.744.175,44.416Zm12.062-45.069a2.825,2.825,0,1,0,2.826,2.825,2.824,2.824,0,0,0-2.826-2.825Zm2,45.069c-.049-21.884-.145-35.168-.145-35.291a1.934,1.934,0,0,0-3.868.015c0,.123.1,13.446.154,35.276ZM401,444.279a2.825,2.825,0,1,0,2.825,2.825A2.825,2.825,0,0,0,401,444.279Zm1.966,34.04c-.05-16.9-.118-24.16-.118-24.262a1.933,1.933,0,0,0-3.867.015c0,.105.073,7.841.128,25.872A11.686,11.686,0,0,0,402.966,478.319Z" transform="translate(-252.504 -380.907)" fill="#6d6afd" fill-rule="evenodd"/>
      <path id="Path_458" data-name="Path 458" d="M240.492,498.423c10.014-3.283,37.377-10.765,45.32-17.164,10.814-8.713,20.859-17.991,35.037-17.321,12.262.579,20.809,9.034,30.262,15.441,9.148,6.2,19.207,10.357,30.382,10.3a36.239,36.239,0,0,0,15.248-3.242v5.352a39.494,39.494,0,0,1-15.224,2.871c-12.789.071-22.626-6.081-32.236-12.6-9.017-6.12-17.836-12.239-28.707-12.753-11.949-.564-21.459,7.6-31.39,15.6-6,4.833-26.9,18.332-48.691,15.387Z" transform="translate(-240.492 -433.708)" fill="#6566e3" fill-rule="evenodd" opacity="0.5" style="mix-blend-mode: multiply;isolation: isolate"/>
      <path id="Path_459" data-name="Path 459" d="M240.492,487.19c8.084,1.032,17.6-1.579,26.049-5.238,19.047-8.245,36.141-30.1,54.308-29.247,12.262.579,20.809,9.033,30.262,15.441,9.148,6.2,19.207,10.357,30.382,10.3a36.24,36.24,0,0,0,15.248-3.242v5.975a36.794,36.794,0,0,1-15.224,3.136c-12.789.071-22.626-6.968-32.236-13.49-9.017-6.12-17.836-11.733-28.707-12.246-16.668-.786-34.347,19.789-52.706,26.938-8.2,3.195-17.839,5.453-27.375,4.351Z" transform="translate(-240.492 -425.75)" fill="aqua" fill-rule="evenodd"/>
      <path id="Path_460" data-name="Path 460" d="M475.911,484.052a13.595,13.595,0,1,1-13.594,13.594,13.595,13.595,0,0,1,13.594-13.594ZM471,492.129v11.138l12.9-5.569L471,492.129Zm4.913-4.779a10.3,10.3,0,1,0,10.3,10.3A10.3,10.3,0,0,0,475.911,487.35Z" transform="translate(-397.787 -447.995)" fill="#fff" fill-rule="evenodd" opacity="0.5"/>
      <g id="Group_195" data-name="Group 195" transform="translate(12.094 82.163)">
        <path id="Rectangle_128" data-name="Rectangle 128" d="M3.109,0H128.952a3.109,3.109,0,0,1,3.109,3.109v0a3.11,3.11,0,0,1-3.11,3.11H3.11A3.11,3.11,0,0,1,0,3.109v0A3.109,3.109,0,0,1,3.109,0Z" fill="#fff" opacity="0.5"/>
        <path id="Path_461" data-name="Path 461" d="M285.7,643.373h56.929a1.536,1.536,0,0,1,1.657,1.357v3.026a1.539,1.539,0,0,1-1.657,1.356H285.7a1.536,1.536,0,0,1-1.656-1.356v-3.026A1.534,1.534,0,0,1,285.7,643.373Z" transform="translate(-283.47 -643.133)" fill="#fff" fill-rule="evenodd"/>
      </g>
    </g>
    <g id="Group_197" data-name="Group 197" transform="translate(146.341 216.974)">
      <path id="Path_462" data-name="Path 462" d="M335.231,360.1v16.957a6.533,6.533,0,0,1-6.736,6.256H265.926a6.531,6.531,0,0,1-6.736-6.256V360.1Z" transform="translate(-259.19 -360.104)" fill-rule="evenodd" opacity="0.5" fill="url(#linear-gradient-7)" style="mix-blend-mode: multiply;isolation: isolate"/>
      <path id="Path_463" data-name="Path 463" d="M636.557,417.2H584.743a5.868,5.868,0,0,1-6.052-5.621V395.934a6.07,6.07,0,0,1,6.052-6.052h52.014a40.474,40.474,0,0,0-.2,4.066Z" transform="translate(-485.747 -381.219)" fill-rule="evenodd" opacity="0.5" fill="url(#linear-gradient-8)" style="mix-blend-mode: multiply;isolation: isolate"/>
      <path id="Path_464" data-name="Path 464" d="M591.616,530.342V548.9a6.829,6.829,0,0,1-6.931,6.668H531.031A6.826,6.826,0,0,1,524.1,548.9V530.342a7.079,7.079,0,0,1,6.931-7.18h53.654A7.08,7.08,0,0,1,591.616,530.342Z" transform="translate(-447.037 -475.728)" fill-rule="evenodd" opacity="0.5" fill="url(#linear-gradient-9)" style="mix-blend-mode: multiply;isolation: isolate"/>
    </g>
    <g id="Group_202" data-name="Group 202" transform="translate(142.867 206.311)">
      <path id="Path_465" data-name="Path 465" d="M323.291,330.186V347.6a6.533,6.533,0,0,1-6.736,6.256H253.986a6.531,6.531,0,0,1-6.736-6.256V330.186a6.756,6.756,0,0,1,6.736-6.736h62.569A6.756,6.756,0,0,1,323.291,330.186Z" transform="translate(-247.25 -323.45)" fill="#fff" fill-rule="evenodd"/>
      <g id="Group_201" data-name="Group 201" transform="translate(3.142 4.678)">
        <g id="Group_198" data-name="Group 198" transform="translate(22.013 4.074)">
          <path id="Path_466" data-name="Path 466" d="M335.9,353.536h42.666c1.2,0,2.174.734,2.174,1.626v3.629c0,.892-.982,1.626-2.174,1.626H335.9c-1.193,0-2.174-.732-2.174-1.626v-3.629C333.723,354.268,334.7,353.536,335.9,353.536Z" transform="translate(-333.723 -353.536)" fill="#86e4fd" fill-rule="evenodd"/>
          <rect id="Rectangle_129" data-name="Rectangle 129" width="30.907" height="3.158" rx="1.579" transform="translate(0 9.741)" fill="#86e4fd"/>
        </g>
        <g id="Group_200" data-name="Group 200">
          <circle id="Ellipse_245" data-name="Ellipse 245" cx="9.795" cy="9.795" r="9.795" transform="matrix(0.077, -0.997, 0.997, 0.077, 0, 19.532)" fill="#6d6afd" opacity="0.2"/>
          <g id="Group_199" data-name="Group 199" transform="translate(2.115 2.053)">
            <path id="Path_467" data-name="Path 467" d="M300.68,355.721a8.222,8.222,0,0,1,0,11.628l-5.814-5.814Z" transform="translate(-286.272 -353.064)" fill-rule="evenodd" fill="url(#linear-gradient-10)"/>
            <path id="Path_468" data-name="Path 468" d="M279.358,377.186a8.224,8.224,0,0,1-13.757-7.943l7.943,2.129Z" transform="translate(-265.322 -362.653)" fill-rule="evenodd" fill="url(#linear-gradient-11)"/>
            <path id="Path_469" data-name="Path 469" d="M274.224,346.589A8.2,8.2,0,0,1,280.038,349l-5.814,5.814-7.943-2.129A8.225,8.225,0,0,1,274.224,346.589Z" transform="translate(-266.002 -346.589)" fill-rule="evenodd" fill="url(#linear-gradient-12)"/>
          </g>
        </g>
      </g>
    </g>
    <g id="Group_206" data-name="Group 206" transform="translate(242.758 222.163)">
      <path id="Path_470" data-name="Path 470" d="M658.949,384v15.642a5.87,5.87,0,0,1-6.052,5.621H596.683a5.868,5.868,0,0,1-6.052-5.621V384a6.07,6.07,0,0,1,6.052-6.052H652.9A6.07,6.07,0,0,1,658.949,384Z" transform="translate(-590.631 -377.943)" fill="#fff" fill-rule="evenodd"/>
      <g id="Group_205" data-name="Group 205" transform="translate(4.01 3.335)">
        <g id="Group_203" data-name="Group 203">
          <path id="Path_471" data-name="Path 471" d="M625.564,415.706a10.324,10.324,0,0,1-19.945,5.344l4.12-1.1a6.059,6.059,0,0,0,11.705-3.136Z" transform="translate(-605.269 -408.056)" fill="#22d2fb" fill-rule="evenodd"/>
          <path id="Path_472" data-name="Path 472" d="M604.766,409.773a10.334,10.334,0,0,1,2.673-9.971l3.016,3.015a6.064,6.064,0,0,0-1.569,5.852Z" transform="translate(-604.416 -396.779)" fill="#12a3eb" fill-rule="evenodd"/>
          <path id="Path_473" data-name="Path 473" d="M622.108,389.409a10.326,10.326,0,0,1,9.972,7.65l-4.12,1.1a6.059,6.059,0,0,0-10.136-2.715l-3.016-3.015A10.291,10.291,0,0,1,622.108,389.409Z" transform="translate(-611.786 -389.409)" fill="#1c8df3" fill-rule="evenodd"/>
        </g>
        <g id="Group_204" data-name="Group 204" transform="translate(22.11 2.183)">
          <path id="Rectangle_130" data-name="Rectangle 130" d="M1.419,0H36.769a1.419,1.419,0,0,1,1.419,1.419v0a1.419,1.419,0,0,1-1.419,1.419H1.419A1.419,1.419,0,0,1,0,1.419v0A1.419,1.419,0,0,1,1.419,0Z" fill="#86e4fd"/>
          <path id="Rectangle_131" data-name="Rectangle 131" d="M1.419,0H36.769a1.419,1.419,0,0,1,1.419,1.419v0a1.419,1.419,0,0,1-1.419,1.419H1.419A1.419,1.419,0,0,1,0,1.419v0A1.419,1.419,0,0,1,1.419,0Z" transform="translate(0 6.433)" fill="#86e4fd"/>
          <path id="Rectangle_132" data-name="Rectangle 132" d="M1.418,0H21.139a1.418,1.418,0,0,1,1.418,1.418v0a1.419,1.419,0,0,1-1.419,1.419H1.419A1.419,1.419,0,0,1,0,1.418v0A1.418,1.418,0,0,1,1.418,0Z" transform="translate(0 13.44)" fill="#86e4fd"/>
        </g>
      </g>
    </g>
    <g id="Group_208" data-name="Group 208" transform="translate(226.877 260.066)">
      <path id="Path_474" data-name="Path 474" d="M603.555,515.417v18.557a6.829,6.829,0,0,1-6.931,6.668H542.97a6.826,6.826,0,0,1-6.931-6.668V515.417a7.08,7.08,0,0,1,6.931-7.18h53.654A7.08,7.08,0,0,1,603.555,515.417Z" transform="translate(-536.039 -508.237)" fill="#fff" fill-rule="evenodd"/>
      <g id="Group_207" data-name="Group 207" transform="translate(3.499 2.654)">
        <path id="Path_475" data-name="Path 475" d="M576.766,523.364v15.517a5.825,5.825,0,0,1-6,5.576H554.071a5.822,5.822,0,0,1-6-5.576V523.364a6.022,6.022,0,0,1,6-6h16.691A6.021,6.021,0,0,1,576.766,523.364Z" transform="translate(-548.067 -517.36)" fill="#e5efff" fill-rule="evenodd"/>
        <path id="Path_476" data-name="Path 476" d="M686.147,523.364v15.517a5.825,5.825,0,0,1-6,5.576H663.452a5.822,5.822,0,0,1-6-5.576V523.364a6.022,6.022,0,0,1,6-6h16.691A6.021,6.021,0,0,1,686.147,523.364Z" transform="translate(-625.629 -517.36)" fill="#e5efff" fill-rule="evenodd"/>
      </g>
    </g>
    <g id="Group_216" data-name="Group 216" transform="translate(237.853 253.387)">
      <g id="Group_211" data-name="Group 211" transform="translate(28.674 49.075)">
        <path id="Path_477" data-name="Path 477" d="M737.005,761.431c-4.672.947-11.464,1.654-15.759.791,8.725-9.735,20.969-5.854,22.552-4.193C744.19,759.379,742.142,760.39,737.005,761.431Z" transform="translate(-707.019 -726.215)" fill="#0a72cb" fill-rule="evenodd"/>
        <path id="Path_478" data-name="Path 478" d="M792.721,866.322a19.071,19.071,0,0,1,1.1,6.048c0,.9-.181,1.56-1.192,1.71a1.285,1.285,0,0,0-.863.414,1.077,1.077,0,0,0,.991,1.414,34.6,34.6,0,0,0,6.375-.182c1.416-.187.295-1.384-.277-4.523a3.123,3.123,0,0,1-.007-1.807,2.8,2.8,0,0,0-.193-2.869c-.523-.948-1.335-1.33-2.191-2.1C794.668,862.806,792.07,864.5,792.721,866.322Z" transform="translate(-756.965 -802.743)" fill-rule="evenodd" fill="url(#linear-gradient-13)"/>
        <g id="Group_209" data-name="Group 209" transform="translate(9.994 0.227)">
          <path id="Path_479" data-name="Path 479" d="M715.928,654.755a26.846,26.846,0,0,1,6.04,9.344,81.826,81.826,0,0,1,3.438,10.34c3.63,13.83,6.99,28.367,10.813,41.957.031,1.193-2.6,2.211-3.692,1.489-7.178-15.141-15.542-30.758-21.789-46.253-2.245-5.567-2.886-9.143-4.044-16.144l6.089-.55Z" transform="translate(-706.694 -654.755)" fill-rule="evenodd" fill="url(#linear-gradient-14)"/>
          <path id="Path_480" data-name="Path 480" d="M732.514,718.912c-7.179-15.141-15.529-30.74-21.776-46.236-2.245-5.567-2.886-9.143-4.044-16.144l3.364-.3,3.829,5.617c1.808,5.8,2.94,10.957,4.578,16.194,1.031,3.3,4.992,5.948,8.1,7.463l1.545.754.525,2.121c-.958,1.226-4.162,2.257-5.715,2.657,2.893,7.536,7.8,20.019,10.132,28.09A1.247,1.247,0,0,1,732.514,718.912Z" transform="translate(-706.694 -655.8)" fill-rule="evenodd" fill="url(#linear-gradient-15)"/>
        </g>
        <g id="Group_210" data-name="Group 210">
          <path id="Path_481" data-name="Path 481" d="M698.535,884.008a16.4,16.4,0,0,1,1.147,2.544c.365,1.727-.407,3.462-2.309,3.48l-12.443.119c.231-4.209,6.309-2.385,8.62-6.044C694.46,882.664,697.914,882.585,698.535,884.008Z" transform="translate(-681.267 -816.363)" fill-rule="evenodd" fill="url(#linear-gradient-16)"/>
          <path id="Path_482" data-name="Path 482" d="M673.583,654.432a29.077,29.077,0,0,0-.872,12.771c1.134,6.545,2.312,13.8,4.134,21.033,3.014,11.968,5.194,21.267,7.946,33.585.264,1.159,4,1.438,4.607-.229-1.162-15.888-2.5-35.493-1.138-50.852,3.5-5.1,2.995-9.03-1.564-15.943l-8.5-.825Z" transform="translate(-672.339 -653.974)" fill-rule="evenodd" fill="url(#linear-gradient-17)"/>
          <path id="Path_483" data-name="Path 483" d="M673.583,654.432a29.077,29.077,0,0,0-.872,12.771c1.134,6.545,2.312,13.8,4.134,21.033,3.014,11.968,5.194,21.267,7.946,33.585a.639.639,0,0,0,.077.188c-.766-9.789-1.65-19.416-4.129-29.878a23.643,23.643,0,0,0,7.027-.165,194.632,194.632,0,0,1,.494-21.225c3.5-5.1,2.995-9.03-1.564-15.943l-8.5-.825Z" transform="translate(-672.339 -653.974)" fill-rule="evenodd" fill="url(#linear-gradient-18)"/>
        </g>
      </g>
      <path id="Path_484" data-name="Path 484" d="M583.069,556.281c-1.3-1.25-1.75-1.407-2.452-3.062a7.644,7.644,0,0,0-2.928-3.14,24.764,24.764,0,0,1-2.591-2.662c-1.3-1.248-1.766-.093-.857,1.155l1.6,2.2c-.952,2.2-2.068,2.274-1.27,3.652a7.973,7.973,0,0,0,2.338,2.365c1.85,1.07,1.332-.277,3.848,2.065A4.881,4.881,0,0,0,583.069,556.281Z" transform="translate(-573.769 -528.96)" fill-rule="evenodd" fill="url(#linear-gradient-19)"/>
      <path id="Path_485" data-name="Path 485" d="M808.506,560.255l-1.78,1.829c1.945-.212,3.181-2.041,4.748-3.6,1.163-1.158,2.5-.686,4.021-.552a13.88,13.88,0,0,1-2.865,4.961c-2.973,3.281-4.211,2.336-6.165,3.768A14.23,14.23,0,0,0,804.291,569l-2.941-2.79a22.491,22.491,0,0,0,1.935-2.107c2.786-3.233,2.395-3.581,4.427-4.743S810.117,558.6,808.506,560.255Z" transform="translate(-735.146 -536.647)" fill-rule="evenodd" fill="url(#linear-gradient-20)"/>
      <path id="Path_486" data-name="Path 486" d="M670.893,561.094c2.633,17.164-2.672,31.229,2.5,53.343,13.93,5.957,25.8-7.575,34.589-2.955-3.365-5.1-13.675-32-15.6-39.2,5.457,4.6,10.059,1.921,14.26-2.606,1.676-1.806,5.449-6.763,6.789-8.2.115-1.086-2.3-3.58-3.655-3.119-3.367,3.908-8.087,8.2-10.953,7.935s-3.35-3.272-4.261-5.372c-4.559-10.512-7.51-10-13.424-11.437C673.418,547.609,669.945,554.917,670.893,561.094Z" transform="translate(-642.531 -530.593)" fill-rule="evenodd" fill="url(#linear-gradient-21)"/>
      <path id="Path_487" data-name="Path 487" d="M740.763,596.108l1.278,6.137c5.457,4.6,10.059,1.921,14.26-2.606,1.676-1.806,5.449-6.763,6.789-8.2-6.865,6.308-11.438,10.02-15.091,10.027C745.3,601.466,742.664,599.48,740.763,596.108Z" transform="translate(-692.184 -560.552)" fill-rule="evenodd" opacity="0.5" fill="url(#linear-gradient-22)" style="mix-blend-mode: multiply;isolation: isolate"/>
      <path id="Path_488" data-name="Path 488" d="M621.185,561.522c-2.819,6.192-7.862,9.976-11.691,10.558-7.112,1.081-12.946-9.252-17.178-13.806-.5-1.566,1.488-4.082,2.936-3.429,3.367,3.908,9.045,8.5,11.911,8.238s3.884-2.585,4.8-4.684c4.559-10.512,7.281-10,13.195-11.437C627.67,548.3,623.574,556.274,621.185,561.522Z" transform="translate(-586.865 -529.018)" fill-rule="evenodd" fill="url(#linear-gradient-23)"/>
      <path id="Path_489" data-name="Path 489" d="M616.9,591.219c-.268,1.551-.537,3.69-.765,5.065a13.272,13.272,0,0,1-6.446,3.368c-7.111,1.081-12.946-9.252-17.178-13.806,5.981,6.025,11,10.049,15.345,10.549C611.386,596.8,614.527,594.643,616.9,591.219Z" transform="translate(-587.056 -556.59)" fill-rule="evenodd" opacity="0.5" fill="url(#linear-gradient-24)" style="mix-blend-mode: multiply;isolation: isolate"/>
      <g id="Group_215" data-name="Group 215" transform="translate(33.09)">
        <path id="Path_490" data-name="Path 490" d="M716.116,564.989c-5.364-13.976-10.581-20.441-17.041-18.721l-2.09.556c1.546,2.373,1.685,3.292,1.2,5.31-1.222,5.13-1.908,9.569-.451,12.288C701.126,570.746,712.479,570.378,716.116,564.989Z" transform="translate(-694.182 -528.333)" fill-rule="evenodd" opacity="0.5" fill="url(#linear-gradient-25)" style="mix-blend-mode: multiply;isolation: isolate"/>
        <g id="Group_214" data-name="Group 214">
          <g id="Group_212" data-name="Group 212" transform="translate(0.058 5.474)">
            <path id="Path_491" data-name="Path 491" d="M688.942,504.812c-.328,1.444-1.84,7.511-.948,8.529.454.519,2.025.351,3.244.2l3.443-5.691-1.769-3.3L690.3,504.1Z" transform="translate(-687.716 -504.095)" fill-rule="evenodd" fill="url(#linear-gradient-26)"/>
            <path id="Path_492" data-name="Path 492" d="M691.21,504.812c-.063.278-.17.727-.3,1.277a4.511,4.511,0,0,0,2.845.685c-.041,2.79-1.192,4.494-1.447,6.891.4-.029.814-.078,1.192-.125l3.443-5.691-1.769-3.3-2.606-.454Z" transform="translate(-689.984 -504.095)" fill="#ffa698" fill-rule="evenodd"/>
          </g>
          <g id="Group_213" data-name="Group 213">
            <path id="Path_493" data-name="Path 493" d="M695.608,487.326c3.724-1.523,5.642.137,7.116,2.823,1.565,2.851,1.735,4.3,2.8,5.371,1.8,1.805,4.152,1.436,8.959,1.754,8.475.56,8.921,8.539,6.481,14.234-2.894,6.754-11.181,11.288-17.745,12.182-8.118,1.107-10.574-2.758-10.786-7.439-.191-4.231,3.362-7.906.6-10.912-1.43-1.559-2.869-1.592-2.82-4.441.037-2.161,2-4.912,1.586-7.984a5.057,5.057,0,0,1-1.5-.178c-4.862-1.407-2.917-8.868,2.394-7.225A6.628,6.628,0,0,1,695.608,487.326Z" transform="translate(-687.517 -485.276)" fill-rule="evenodd" fill="url(#linear-gradient-27)"/>
            <path id="Path_494" data-name="Path 494" d="M713.979,527.449a26.271,26.271,0,0,1-10.761,4.232c-8.118,1.107-10.574-2.758-10.786-7.439-.191-4.231,3.362-7.906.6-10.912-1.43-1.559-2.869-1.592-2.82-4.441.037-2.161,2-4.912,1.586-7.984a5.059,5.059,0,0,1-1.5-.178,3.665,3.665,0,0,1-2.743-4.182c1.11,2.606,2.912,3.288,5.816,3.25.611,3.994-.328,6.68.784,8.978,1.775,3.672,3.976,1.871,4.916,6.365.982,4.694-.92,7.492,1.123,11.066C702.6,530.4,709.965,528.519,713.979,527.449Z" transform="translate(-687.519 -493.267)" fill="#22043d" fill-rule="evenodd"/>
          </g>
        </g>
      </g>
    </g>
    <g id="Group_228" data-name="Group 228" transform="translate(124.209 241.768)">
      <g id="Group_217" data-name="Group 217" transform="translate(24.495 124.729)">
        <path id="Path_495" data-name="Path 495" d="M268.645,874.193c-.289,1.434-1.163,2.528-1.3,3.582a3.028,3.028,0,0,0,2.954,3.656l14.038.125c-.744-4.8-8.247-2.137-10.768-7.455l-3.267.184Z" transform="translate(-267.311 -874.101)" fill-rule="evenodd" fill="url(#linear-gradient-28)"/>
        <path id="Path_496" data-name="Path 496" d="M269.957,874.418a12.971,12.971,0,0,1-.8,2.178c1.315.913,6.484,1.684,7.651.084a7.911,7.911,0,0,1-1.88-2.149l-3.319-.021Z" transform="translate(-268.623 -874.326)" fill-rule="evenodd" opacity="0.5" fill="url(#linear-gradient-29)" style="mix-blend-mode: multiply;isolation: isolate"/>
      </g>
      <path id="Path_497" data-name="Path 497" d="M289.029,626.292c3.28,31.948,1.578,43.508-11.811,73.245-1.458,1.518-6.514.564-7.286-1.534,4.446-16.651,6.946-26.354,7.381-33.754,1.031-17.557-6.722-17.9-7.228-36.653Z" transform="translate(-244.675 -573.651)" fill-rule="evenodd" fill="url(#linear-gradient-30)"/>
      <path id="Path_498" data-name="Path 498" d="M284.09,627.477c1.48,14.417,1.745,45.905-14.158,71.366,4.446-16.651,6.946-26.354,7.381-33.754,1.031-17.557-6.722-17.9-7.228-36.653Z" transform="translate(-244.675 -574.491)" fill-rule="evenodd" opacity="0.3" fill="url(#linear-gradient-31)" style="mix-blend-mode: multiply;isolation: isolate"/>
      <g id="Group_218" data-name="Group 218" transform="translate(0 118.875)">
        <path id="Path_499" data-name="Path 499" d="M191.509,855.84c-.64,2.241-1.643,5.471-1.548,7.764.06,1.454,1.539.877,2.353,2.13a1.036,1.036,0,0,1-.906,1.482,45.659,45.659,0,0,1-7.515-.287c-1.5-.2-.439-1.45-.134-4.741a3.315,3.315,0,0,0-.162-1.894,2.93,2.93,0,0,1-.067-3.007c.627-1.357,1.917-1.608,2.992-3.31Z" transform="translate(-183.109 -853.978)" fill-rule="evenodd" fill="url(#linear-gradient-32)"/>
        <path id="Path_500" data-name="Path 500" d="M195.682,856.183c-.273.955-.551,2.155-.813,3.249-1.126-.144-4.583-1.047-5.676-3.682a14.485,14.485,0,0,0,1.643-1.772Z" transform="translate(-187.423 -853.978)" fill-rule="evenodd" opacity="0.5" fill="url(#linear-gradient-33)" style="mix-blend-mode: multiply;isolation: isolate"/>
      </g>
      <path id="Path_501" data-name="Path 501" d="M211.043,639.529a51.469,51.469,0,0,0-2.738,15.038c-.931,22.407-6.467,27.279-18.388,47.089a6.41,6.41,0,0,0,7.631,3.106c21.579-27.3,25.321-32.868,30.521-65.805Z" transform="translate(-187.936 -582.632)" fill-rule="evenodd" fill="url(#linear-gradient-34)"/>
      <g id="Group_221" data-name="Group 221" transform="translate(35.43 19.755)">
        <g id="Group_219" data-name="Group 219" transform="translate(35.47 18.538)">
          <path id="Path_502" data-name="Path 502" d="M428.751,590.4c-.166.25-1.4.582-1.718.776l-.2,3.576a8.477,8.477,0,0,1,1.7-.241c2.391.871,3.254-.052,4.707.261a4.916,4.916,0,0,0,2.312.231c.666-.094.93-.7.989-1.481a16.855,16.855,0,0,0,.133-4.085c-.168-.716-.237-.78-1.458-.823-.7-.025-1.419-.068-1.683.309-1.183.294-1.759-.342-2.854-.168C429.769,588.9,429.484,589.293,428.751,590.4Z" transform="translate(-426.832 -585.214)" fill="#ffa698" fill-rule="evenodd"/>
          <path id="Path_503" data-name="Path 503" d="M436.09,589.524c-.206.13-.3.373-.352.781-.133,1.086-.237,2.609-.311,3.717-.049.741.019,1.359.47,1.435-1.5-.2-.8-2.275-2.407-2.71a6.429,6.429,0,0,0-3.194.573c1.924-1.363,2-.917,3.566-1.63C434.3,591.49,435.288,589.726,436.09,589.524Z" transform="translate(-429.289 -585.871)" fill-rule="evenodd" fill="url(#linear-gradient-35)"/>
          <path id="Path_504" data-name="Path 504" d="M438.431,576.968c-.337.394-1.3,1.431-1.614,1.837-.7.914-1.6,1.5-1.883,2.713-.293,1.24,3.7.9,2.784-.693a2,2,0,0,1,.433-1.269A2.113,2.113,0,0,0,438.431,576.968Z" transform="translate(-432.566 -576.968)" fill="#ffa698" fill-rule="evenodd"/>
        </g>
        <g id="Group_220" data-name="Group 220">
          <path id="Path_505" data-name="Path 505" d="M317.036,524.017c5.139,13.719,10.009,13.232,24.773,12.615.531-.022.67,3.586.121,4.517-3.719,2.2-12.87,3.941-19.673,2.125-8.64-2.306-12.687-10.573-16.417-19.632-.765-2.655-1.978-10.544.78-10.4C312.193,513.543,314.928,518.391,317.036,524.017Z" transform="translate(-304.903 -513.243)" fill-rule="evenodd" fill="url(#linear-gradient-36)"/>
          <path id="Path_506" data-name="Path 506" d="M316.989,535.235c5.917,17.83,16.242,13.465,25.87,12.479-3.719,2.2-12.87,3.941-19.673,2.125-8.64-2.306-12.687-10.573-16.417-19.632-.765-2.655-1.117-8.429,1.527-7.629C316.109,524.945,315.1,529.535,316.989,535.235Z" transform="translate(-305.832 -519.81)" fill-rule="evenodd" opacity="0.35" fill="url(#linear-gradient-37)" style="mix-blend-mode: multiply;isolation: isolate"/>
        </g>
      </g>
      <path id="Path_507" data-name="Path 507" d="M246.162,528.979c-.072,7.565.51,15.094.075,22.491,8.23,1.764,14.757,3.272,22.712.562-.162-7.9.67-25.789-.985-33.017-.831-3.627-2.849-5.848-5.763-6.695a21.193,21.193,0,0,0-6.711-.766c-5.106.205-10.911,1.617-14.56,6.054C238.355,522.115,243.271,525.417,246.162,528.979Z" transform="translate(-223.597 -492.277)" fill-rule="evenodd" fill="url(#linear-gradient-38)"/>
      <path id="Path_508" data-name="Path 508" d="M260.662,557.782c-.072,7.565.51,15.094.075,22.491,2.724-2.411,4.972-17.256,1.584-28.118Z" transform="translate(-238.097 -521.081)" fill-rule="evenodd" opacity="0.5" fill="url(#linear-gradient-39)" style="mix-blend-mode: multiply;isolation: isolate"/>
      <g id="Group_222" data-name="Group 222" transform="translate(27.976 15.682)">
        <path id="Path_509" data-name="Path 509" d="M279.726,499.294a31.287,31.287,0,0,1-.449,4.313,4.83,4.83,0,0,0,5.09,3.63c1.9-.256,2.391-2.819,1.743-4.4-.093-.769-.128-1.419-.15-2.194l-4.787-1.4Z" transform="translate(-279.277 -499.244)" fill="#ffa698" fill-rule="evenodd"/>
        <path id="Path_510" data-name="Path 510" d="M280.631,499.294c-.024.456-.048.883-.077,1.3a6.78,6.78,0,0,0,6.461,2.245c-.093-.769-.128-1.419-.15-2.194l-4.787-1.4Z" transform="translate(-280.182 -499.244)" fill-rule="evenodd" fill="url(#linear-gradient-40)"/>
      </g>
      <path id="Path_511" data-name="Path 511" d="M268.159,459.211c-1.23.232-1.543-.183-1.829-1-.294-.846-.27-.613-.792-1.262a3.366,3.366,0,0,1-.539-.933,5.7,5.7,0,0,1-.185-2.475,5.819,5.819,0,0,0-.63-2.017c-.861-3.118,1.823-5.837,4.747-4.4,1.057-1.9,2.735-1.939,4.264-1.06,1.784-1.079,3.5-.959,4.708.429,2.347,2.691.149,5.371-1.466,6.092l-5.136,3.653Z" transform="translate(-240.483 -445.335)" fill-rule="evenodd" fill="url(#linear-gradient-41)"/>
      <path id="Path_512" data-name="Path 512" d="M269.967,468.953c-1.23.232-1.543-.183-1.829-1-.294-.846-.27-.613-.792-1.262a3.367,3.367,0,0,1-.539-.933,5.7,5.7,0,0,1-.185-2.475v-.032c.763,1.311,2.385,1.565,2.538-.278a3.536,3.536,0,0,0,1.437-2.348c.142-1.169.635-1.815,1.944-1.444,3.03.858,5.509,2.443,8.171-.082a4.419,4.419,0,0,1-2.466,3.224l-5.136,3.653Z" transform="translate(-242.292 -455.077)" fill="#22043d" fill-rule="evenodd"/>
      <g id="Group_223" data-name="Group 223" transform="translate(25.599 5.097)">
        <path id="Path_513" data-name="Path 513" d="M282.072,464.641c.224,3.18.728,6.437-.506,9.46a2.163,2.163,0,0,1-2.875,1.414,22.257,22.257,0,0,1-3.527-1.244c-1.67-.679-1.427-1.348-1.709-1.931a3.855,3.855,0,0,0-.546-.792c-.658-.773-1.759-1.24-1.8-2.333-.038-1.005.719-1.543,1.107-.855.541.963,1.773,2.589.842-2.485a3.151,3.151,0,0,0,1.477-1.9c.262-.812.543-1.447,1.51-.932C278.032,464.1,279.75,465.132,282.072,464.641Z" transform="translate(-271.108 -462.856)" fill-rule="evenodd" fill="url(#linear-gradient-42)"/>
        <path id="Path_514" data-name="Path 514" d="M282.244,464.641c.022.31.047.621.072.933-3.089.53-4.633-.827-6.6-2.081a8.96,8.96,0,0,1-1.895,2.543,11.7,11.7,0,0,1,.143,3.267c-.2.781-.621.67-1.072.195-.3-.319-.968-1.75-1.537-.843.192-.616.731-.84,1.038-.295.541.963,1.773,2.589.842-2.485a3.151,3.151,0,0,0,1.477-1.9c.262-.812.543-1.447,1.51-.932C278.2,464.1,279.922,465.132,282.244,464.641Z" transform="translate(-271.28 -462.856)" fill="#ffa698" fill-rule="evenodd"/>
      </g>
      <g id="Group_224" data-name="Group 224" transform="translate(26.758 18.955)">
        <path id="Path_515" data-name="Path 515" d="M291.834,529.555l.836,19.65,3.455,4.35,2.261-5.239-5.258-19.129c.543-1.606.364-1.974.054-2.211-.363-.278-.01-.31-1.221-.164-.8.1-1.613.178-1.5,1.041C290.555,528.516,291.128,528.994,291.834,529.555Z" transform="translate(-285.985 -522.004)" fill-rule="evenodd" fill="url(#linear-gradient-43)"/>
        <path id="Path_516" data-name="Path 516" d="M276.459,510.493c-.689.23-1.2.462-1.324.9-.416,1.524,2.216,5.824,3.93,6.227a6,6,0,0,1,2.094-2.394C278.323,514.4,276.769,513.005,276.459,510.493Z" transform="translate(-275.091 -510.493)" fill="#13ddec" fill-rule="evenodd"/>
        <path id="Path_517" data-name="Path 517" d="M297.723,511.184a2.009,2.009,0,0,1,1.056.285c.725.809.759,4.233-.4,6.179a9.308,9.308,0,0,0-2.718-1.9C298.2,514.226,297.976,512.752,297.723,511.184Z" transform="translate(-289.675 -510.983)" fill="#13ddec" fill-rule="evenodd"/>
      </g>
      <g id="Group_227" data-name="Group 227" transform="translate(11.697 22.384)">
        <g id="Group_225" data-name="Group 225" transform="translate(3.393 17.248)">
          <path id="Path_518" data-name="Path 518" d="M239,581.757l55.372-.185a4,4,0,0,1,2.5.858,3.71,3.71,0,0,1,1.43,2.908l-.089,20.422a3.865,3.865,0,0,1-3.92,3.8l-55.373.185a3.852,3.852,0,0,1-3.94-3.765l.09-20.422A3.868,3.868,0,0,1,239,581.757Z" transform="translate(-234.981 -581.572)" fill-rule="evenodd" fill="url(#linear-gradient-44)"/>
          <path id="Path_519" data-name="Path 519" d="M301.342,606.572c-.277-3.005-1.485-4.529-3.2-4.91a3.7,3.7,0,0,0-.827-.087c-1.729.014-3.627,1.243-4.249,4.444-.4,2.026-1.1,3.726-3.379,3.744-5.965-.113-2.292-13.836-7.957-13.788-4.878.041-2.963,9.09-5.315,13.2a3.2,3.2,0,0,1-2.855,1.721c-3.434-.071-3.3-4.727-3.518-6.81-1.009-9.63-2.209-10.681-4.309-10.664-2.2.035-3.2.282-3.822,9.576-.253,3.8-.782,7.069-4.184,7.173-3.789.031-3.727-3.539-5.143-5.936a3.906,3.906,0,0,0-3.239-2.179c-1.281.01-2.531.925-3.248,2.889-1.2,3.3-1.394,8.521-1.352,10.394l57.02-.277C301.589,612.172,301.581,609.17,301.342,606.572Z" transform="translate(-241.898 -589.974)" fill="#fff" fill-rule="evenodd"/>
        </g>
        <g id="Group_226" data-name="Group 226">
          <path id="Path_520" data-name="Path 520" d="M263.126,658.24c-.283-.1-.909-1.209-1.176-1.473l-3.515.69a8.445,8.445,0,0,1,.654,1.589,6.11,6.11,0,0,0,.242,2.844l.323.906c.376,1.052.471,1.091,1.786,1.223,1.888.189,5.392.372,4.989-1.008-1.64-.471-.793-2.293-1.233-3.31C264.831,658.855,264.38,658.676,263.126,658.24Z" transform="translate(-248.219 -617.645)" fill="#ffa698" fill-rule="evenodd"/>
          <path id="Path_521" data-name="Path 521" d="M237.049,531.868c-8.112,12.806-5.6,20.043,1.792,30.89-.8.4-4.284.857-5.265.4-11.079-9.636-12.364-20.353-7.749-31.637,1.009-2.468,3.386-8.46,6.647-9.161C236.44,521.506,239.929,527.9,237.049,531.868Z" transform="translate(-223.316 -522.282)" fill-rule="evenodd" fill="url(#linear-gradient-45)"/>
          <path id="Path_522" data-name="Path 522" d="M236.323,581.381c.757,1.254,1.6,2.547,2.519,3.895-.8.4-4.284.857-5.265.4-11.079-9.636-12.364-20.353-7.749-31.637C221.528,572.564,229.994,580.232,236.323,581.381Z" transform="translate(-223.316 -544.8)" fill-rule="evenodd" opacity="0.35" fill="url(#linear-gradient-46)" style="mix-blend-mode: multiply;isolation: isolate"/>
        </g>
        <path id="Path_523" data-name="Path 523" d="M448.206,594.771a4.912,4.912,0,0,0,2.312.232c.666-.094.93-.7.989-1.481a16.836,16.836,0,0,0,.133-4.085c-.168-.716-.237-.78-1.457-.823-.638-.023-1.294-.06-1.6.22a1.063,1.063,0,0,0-.18.251,1.577,1.577,0,0,0-.152.564C448.148,590.445,447.625,594.255,448.206,594.771Z" transform="translate(-382.593 -569.306)" fill="#ffa698" fill-rule="evenodd"/>
      </g>
    </g>
    <g id="Group_229" data-name="Group 229" transform="translate(111.294 370.641)">
      <path id="Path_524" data-name="Path 524" d="M246.446,896.261c59.5,0,107.732-1.772,107.732-3.957s-48.233-3.957-107.732-3.957-107.732,1.772-107.732,3.957S186.947,896.261,246.446,896.261Z" transform="translate(-138.714 -888.347)" fill="#a1c3ff" fill-rule="evenodd" opacity="0.35" style="mix-blend-mode: multiply;isolation: isolate"/>
      <path id="Path_525" data-name="Path 525" d="M250.184,899.681c48.017,0,86.942-.707,86.942-1.578s-38.925-1.578-86.942-1.578-86.942.706-86.942,1.578S202.167,899.681,250.184,899.681Z" transform="translate(-156.107 -894.146)" fill="#a1c3ff" fill-rule="evenodd" opacity="0.35" style="mix-blend-mode: multiply;isolation: isolate"/>
    </g>
  </g>
</svg>
