<?xml version="1.0"?>
<svg xmlns="http://www.w3.org/2000/svg" width="15.374" height="24.897" viewBox="0 0 15.374 24.897" fill="#ffffff">
  <g id="mobile" transform="translate(0 0)">
    <path id="Path_53083" data-name="Path 53083" d="M-96.445,8.81h-8.432a3.46,3.46,0,0,0-3.472,3.437V30.266a3.46,3.46,0,0,0,3.472,3.44h8.432a3.456,3.456,0,0,0,3.469-3.44V12.247A3.456,3.456,0,0,0-96.445,8.81Zm-10.222,3.437a1.751,1.751,0,0,1,.525-1.254,1.751,1.751,0,0,1,1.264-.5h8.432a1.773,1.773,0,0,1,1.786,1.754V30.266a1.754,1.754,0,0,1-.524,1.254,1.754,1.754,0,0,1-1.262.5h-8.432a1.776,1.776,0,0,1-1.789-1.757Z" transform="translate(108.35 -8.81)" fill="#ffffff"/>
    <path id="Path_53084" data-name="Path 53084" d="M-93.493,19.993h4.72a.853.853,0,0,0,.84-.843.853.853,0,0,0-.84-.84h-4.713a.853.853,0,0,0-.843.84A.853.853,0,0,0-93.493,19.993Z" transform="translate(98.825 -15.264)" fill="#ffffff"/>
    <path id="Path_53087" data-name="Path 53087" d="M-86.836,69.27A1.164,1.164,0,0,0-88,70.431a1.1,1.1,0,0,0,.349.818,1.151,1.151,0,0,0,.814.321,1.164,1.164,0,0,0,1.161-1.161A1.154,1.154,0,0,0-86.836,69.27Z" transform="translate(94.525 -49.885)" fill="#ffffff"/>
  </g>
</svg>
