<svg xmlns="http://www.w3.org/2000/svg" width="31.719" height="31.722" viewBox="0 0 31.719 31.722">
  <g id="savings-2" transform="translate(0 0)">
    <path id="Path_1884" data-name="Path 1884" d="M217.268,86.478v2.6a1.239,1.239,0,0,0,2.478,0V85.239A1.239,1.239,0,0,0,218.507,84h-1.239a1.239,1.239,0,1,0,0,2.478Z" transform="translate(-202.646 -78.796)" fill="#8347eb"/>
    <path id="Path_1885" data-name="Path 1885" d="M129.393,16.728a8.364,8.364,0,1,0-8.364-8.364A8.374,8.374,0,0,0,129.393,16.728Zm0-14.25a5.886,5.886,0,1,1-5.886,5.886A5.893,5.893,0,0,1,129.393,2.478Z" transform="translate(-113.531 0)" fill="#8347eb"/>
    <path id="Path_1886" data-name="Path 1886" d="M31.36,256.294A3.457,3.457,0,0,0,27,254.717c-1.194.453-2.654,1.007-4.243,1.445a3.687,3.687,0,0,0-.22-2.163,3.634,3.634,0,0,0-2.409-2.114,4.493,4.493,0,0,0-1.821-.105c-4.246.578-6.773-.858-9-2.125A9.383,9.383,0,0,0,4.733,248a11.755,11.755,0,0,0-3.84.676,1.239,1.239,0,0,0,.74,2.365,8.161,8.161,0,0,1,3.1-.563,7.5,7.5,0,0,1,3.349,1.332,15.9,15.9,0,0,0,8.37,2.578,16.258,16.258,0,0,0,2.192-.153,2.07,2.07,0,0,1,.821.037,1.149,1.149,0,0,1,.784.672,1.131,1.131,0,0,1,.02.914,1.606,1.606,0,0,1-.962.795,8.669,8.669,0,0,1-2.74.392,12.954,12.954,0,0,1-3.341-.393,1.239,1.239,0,1,0-.63,2.4,16.25,16.25,0,0,0,3.97.474h0a31.939,31.939,0,0,0,11.314-2.489,1.011,1.011,0,0,1,1.282.406.925.925,0,0,1-.381,1.239,23.947,23.947,0,0,1-12.022,3.2,25.765,25.765,0,0,1-11.886-3.35,5.608,5.608,0,0,0-3.929-.759v.006a1.238,1.238,0,1,0,.643,2.391,3.592,3.592,0,0,1,2.1.541,28.232,28.232,0,0,0,13.068,3.65,26.588,26.588,0,0,0,13.19-3.491,3.412,3.412,0,0,0,1.411-4.571Z" transform="translate(-0.023 -232.635)" fill="#8347eb"/>
  </g>
</svg>
