<?xml version="1.0" encoding="UTF-8" standalone="no"?>
<!DOCTYPE svg PUBLIC "-//W3C//DTD SVG 1.1//EN"
 "http://www.w3.org/Graphics/SVG/1.1/DTD/svg11.dtd">
<!-- Generated by graphviz version 2.40.1 (20161225.0304)
 -->
<!-- Title: dependencies Pages: 1 -->
<svg width="589pt" height="211pt"
 viewBox="0.00 0.00 589.00 211.00" xmlns="http://www.w3.org/2000/svg" xmlns:xlink="http://www.w3.org/1999/xlink">
<g id="graph0" class="graph" transform="scale(1 1) rotate(0) translate(4 207)">
<title>dependencies</title>
<polygon fill="#ffffff" stroke="transparent" points="-4,4 -4,-207 585,-207 585,4 -4,4"/>
<text text-anchor="start" x="269.5091" y="-42.4" font-family="sans-serif" font-weight="bold" font-size="14.00" fill="#000000">Legend</text>
<polygon fill="#ffffb3" stroke="transparent" points="56.5,-10 56.5,-30 76.5,-30 76.5,-10 56.5,-10"/>
<text text-anchor="start" x="80.129" y="-15.4" font-family="sans-serif" font-size="14.00" fill="#000000"> &#160;Declarations</text>
<polygon fill="#8dd3c7" stroke="transparent" points="169.5,-10 169.5,-30 189.5,-30 189.5,-10 169.5,-10"/>
<text text-anchor="start" x="193.2251" y="-15.4" font-family="sans-serif" font-size="14.00" fill="#000000"> &#160;Module</text>
<polygon fill="#80b1d3" stroke="transparent" points="255.5,-10 255.5,-30 275.5,-30 275.5,-10 255.5,-10"/>
<text text-anchor="start" x="279.2812" y="-15.4" font-family="sans-serif" font-size="14.00" fill="#000000"> &#160;Bootstrap</text>
<polygon fill="#fdb462" stroke="transparent" points="352.5,-10 352.5,-30 372.5,-30 372.5,-10 352.5,-10"/>
<text text-anchor="start" x="376.1732" y="-15.4" font-family="sans-serif" font-size="14.00" fill="#000000"> &#160;Providers</text>
<polygon fill="#fb8072" stroke="transparent" points="448.5,-10 448.5,-30 468.5,-30 468.5,-10 448.5,-10"/>
<text text-anchor="start" x="472.2258" y="-15.4" font-family="sans-serif" font-size="14.00" fill="#000000"> &#160;Exports</text>
<g id="clust1" class="cluster">
<title>cluster_SettingsModule</title>
<polygon fill="none" stroke="#000000" stroke-dasharray="1,5" points="8,-70 8,-195 573,-195 573,-70 8,-70"/>
</g>
<g id="clust2" class="cluster">
<title>cluster_SettingsModule_declarations</title>
<polygon fill="none" stroke="#000000" points="423,-78 423,-130 565,-130 565,-78 423,-78"/>
</g>
<g id="clust4" class="cluster">
<title>cluster_SettingsModule_imports</title>
<polygon fill="none" stroke="#000000" points="16,-78 16,-130 415,-130 415,-78 16,-78"/>
</g>
<!-- SettingsComponent -->
<g id="node1" class="node">
<title>SettingsComponent</title>
<polygon fill="#ffffb3" stroke="#000000" points="557.4468,-122 430.5532,-122 430.5532,-86 557.4468,-86 557.4468,-122"/>
<text text-anchor="middle" x="494" y="-99.8" font-family="Times,serif" font-size="14.00" fill="#000000">SettingsComponent</text>
</g>
<!-- SettingsModule -->
<g id="node2" class="node">
<title>SettingsModule</title>
<polygon fill="#8dd3c7" stroke="#000000" points="338.1639,-187 335.1639,-191 314.1639,-191 311.1639,-187 233.8361,-187 233.8361,-151 338.1639,-151 338.1639,-187"/>
<text text-anchor="middle" x="286" y="-164.8" font-family="Times,serif" font-size="14.00" fill="#000000">SettingsModule</text>
</g>
<!-- SettingsComponent&#45;&gt;SettingsModule -->
<g id="edge1" class="edge">
<title>SettingsComponent&#45;&gt;SettingsModule</title>
<path fill="none" stroke="#000000" d="M494,-122.1061C494,-141.3391 494,-169 494,-169 494,-169 348.2187,-169 348.2187,-169"/>
<polygon fill="#000000" stroke="#000000" points="348.2187,-165.5001 338.2187,-169 348.2187,-172.5001 348.2187,-165.5001"/>
</g>
<!-- LoaderModule -->
<g id="node3" class="node">
<title>LoaderModule</title>
<polygon fill="#8dd3c7" stroke="#000000" points="406.6924,-122 403.6924,-126 382.6924,-126 379.6924,-122 307.3076,-122 307.3076,-86 406.6924,-86 406.6924,-122"/>
<text text-anchor="middle" x="357" y="-99.8" font-family="Times,serif" font-size="14.00" fill="#000000">LoaderModule</text>
</g>
<!-- LoaderModule&#45;&gt;SettingsModule -->
<g id="edge2" class="edge">
<title>LoaderModule&#45;&gt;SettingsModule</title>
<path fill="none" stroke="#000000" d="M322.8678,-122.1061C322.8678,-122.1061 322.8678,-140.991 322.8678,-140.991"/>
<polygon fill="#000000" stroke="#000000" points="319.3679,-140.9909 322.8678,-150.991 326.3679,-140.991 319.3679,-140.9909"/>
</g>
<!-- SettingsRoutingModule -->
<g id="node4" class="node">
<title>SettingsRoutingModule</title>
<polygon fill="#8dd3c7" stroke="#000000" points="289.7814,-122 286.7814,-126 265.7814,-126 262.7814,-122 140.2186,-122 140.2186,-86 289.7814,-86 289.7814,-122"/>
<text text-anchor="middle" x="215" y="-99.8" font-family="Times,serif" font-size="14.00" fill="#000000">SettingsRoutingModule</text>
</g>
<!-- SettingsRoutingModule&#45;&gt;SettingsModule -->
<g id="edge3" class="edge">
<title>SettingsRoutingModule&#45;&gt;SettingsModule</title>
<path fill="none" stroke="#000000" d="M261.7795,-122.1061C261.7795,-122.1061 261.7795,-140.991 261.7795,-140.991"/>
<polygon fill="#000000" stroke="#000000" points="258.2795,-140.9909 261.7795,-150.991 265.2795,-140.991 258.2795,-140.9909"/>
</g>
<!-- SharedModule -->
<g id="node5" class="node">
<title>SharedModule</title>
<polygon fill="#8dd3c7" stroke="#000000" points="122.4231,-122 119.4231,-126 98.4231,-126 95.4231,-122 23.5769,-122 23.5769,-86 122.4231,-86 122.4231,-122"/>
<text text-anchor="middle" x="73" y="-99.8" font-family="Times,serif" font-size="14.00" fill="#000000">SharedModule</text>
</g>
<!-- SharedModule&#45;&gt;SettingsModule -->
<g id="edge4" class="edge">
<title>SharedModule&#45;&gt;SettingsModule</title>
<path fill="none" stroke="#000000" d="M73,-122.1061C73,-141.3391 73,-169 73,-169 73,-169 223.6215,-169 223.6215,-169"/>
<polygon fill="#000000" stroke="#000000" points="223.6216,-172.5001 233.6215,-169 223.6215,-165.5001 223.6216,-172.5001"/>
</g>
</g>
</svg>
