<?xml version="1.0" encoding="UTF-8" standalone="no"?>
<!DOCTYPE svg PUBLIC "-//W3C//DTD SVG 1.1//EN"
 "http://www.w3.org/Graphics/SVG/1.1/DTD/svg11.dtd">
<!-- Generated by graphviz version 2.40.1 (20161225.0304)
 -->
<!-- Title: dependencies Pages: 1 -->
<svg width="1758pt" height="211pt"
 viewBox="0.00 0.00 1758.00 211.00" xmlns="http://www.w3.org/2000/svg" xmlns:xlink="http://www.w3.org/1999/xlink">
<g id="graph0" class="graph" transform="scale(1 1) rotate(0) translate(4 207)">
<title>dependencies</title>
<polygon fill="#ffffff" stroke="transparent" points="-4,4 -4,-207 1754,-207 1754,4 -4,4"/>
<text text-anchor="start" x="854.0091" y="-42.4" font-family="sans-serif" font-weight="bold" font-size="14.00" fill="#000000">Legend</text>
<polygon fill="#ffffb3" stroke="transparent" points="641,-10 641,-30 661,-30 661,-10 641,-10"/>
<text text-anchor="start" x="664.629" y="-15.4" font-family="sans-serif" font-size="14.00" fill="#000000"> &#160;Declarations</text>
<polygon fill="#8dd3c7" stroke="transparent" points="754,-10 754,-30 774,-30 774,-10 754,-10"/>
<text text-anchor="start" x="777.7251" y="-15.4" font-family="sans-serif" font-size="14.00" fill="#000000"> &#160;Module</text>
<polygon fill="#80b1d3" stroke="transparent" points="840,-10 840,-30 860,-30 860,-10 840,-10"/>
<text text-anchor="start" x="863.7812" y="-15.4" font-family="sans-serif" font-size="14.00" fill="#000000"> &#160;Bootstrap</text>
<polygon fill="#fdb462" stroke="transparent" points="937,-10 937,-30 957,-30 957,-10 937,-10"/>
<text text-anchor="start" x="960.6732" y="-15.4" font-family="sans-serif" font-size="14.00" fill="#000000"> &#160;Providers</text>
<polygon fill="#fb8072" stroke="transparent" points="1033,-10 1033,-30 1053,-30 1053,-10 1033,-10"/>
<text text-anchor="start" x="1056.7258" y="-15.4" font-family="sans-serif" font-size="14.00" fill="#000000"> &#160;Exports</text>
<g id="clust1" class="cluster">
<title>cluster_ManageLocationModule</title>
<polygon fill="none" stroke="#000000" stroke-dasharray="1,5" points="8,-70 8,-195 1742,-195 1742,-70 8,-70"/>
</g>
<g id="clust2" class="cluster">
<title>cluster_ManageLocationModule_declarations</title>
<polygon fill="none" stroke="#000000" points="473,-78 473,-130 1734,-130 1734,-78 473,-78"/>
</g>
<g id="clust10" class="cluster">
<title>cluster_ManageLocationModule_imports</title>
<polygon fill="none" stroke="#000000" points="16,-78 16,-130 465,-130 465,-78 16,-78"/>
</g>
<!-- CityAddEditComponent -->
<g id="node1" class="node">
<title>CityAddEditComponent</title>
<polygon fill="#ffffb3" stroke="#000000" points="1726.3906,-122 1573.6094,-122 1573.6094,-86 1726.3906,-86 1726.3906,-122"/>
<text text-anchor="middle" x="1650" y="-99.8" font-family="Times,serif" font-size="14.00" fill="#000000">CityAddEditComponent</text>
</g>
<!-- ManageLocationModule -->
<g id="node8" class="node">
<title>ManageLocationModule</title>
<polygon fill="#8dd3c7" stroke="#000000" points="901.4017,-187 898.4017,-191 877.4017,-191 874.4017,-187 746.5983,-187 746.5983,-151 901.4017,-151 901.4017,-187"/>
<text text-anchor="middle" x="824" y="-164.8" font-family="Times,serif" font-size="14.00" fill="#000000">ManageLocationModule</text>
</g>
<!-- CityAddEditComponent&#45;&gt;ManageLocationModule -->
<g id="edge1" class="edge">
<title>CityAddEditComponent&#45;&gt;ManageLocationModule</title>
<path fill="none" stroke="#000000" d="M1650,-122.0109C1650,-144.4852 1650,-180 1650,-180 1650,-180 911.3368,-180 911.3368,-180"/>
<polygon fill="#000000" stroke="#000000" points="911.3369,-176.5001 901.3368,-180 911.3368,-183.5001 911.3369,-176.5001"/>
</g>
<!-- CountryAddEditComponent -->
<g id="node2" class="node">
<title>CountryAddEditComponent</title>
<polygon fill="#ffffb3" stroke="#000000" points="1555.1609,-122 1380.8391,-122 1380.8391,-86 1555.1609,-86 1555.1609,-122"/>
<text text-anchor="middle" x="1468" y="-99.8" font-family="Times,serif" font-size="14.00" fill="#000000">CountryAddEditComponent</text>
</g>
<!-- CountryAddEditComponent&#45;&gt;ManageLocationModule -->
<g id="edge2" class="edge">
<title>CountryAddEditComponent&#45;&gt;ManageLocationModule</title>
<path fill="none" stroke="#000000" d="M1468,-122.1289C1468,-142.5724 1468,-173 1468,-173 1468,-173 911.3614,-173 911.3614,-173"/>
<polygon fill="#000000" stroke="#000000" points="911.3614,-169.5001 901.3614,-173 911.3613,-176.5001 911.3614,-169.5001"/>
</g>
<!-- ManageCityComponent -->
<g id="node3" class="node">
<title>ManageCityComponent</title>
<polygon fill="#ffffb3" stroke="#000000" points="1362.0393,-122 1211.9607,-122 1211.9607,-86 1362.0393,-86 1362.0393,-122"/>
<text text-anchor="middle" x="1287" y="-99.8" font-family="Times,serif" font-size="14.00" fill="#000000">ManageCityComponent</text>
</g>
<!-- ManageCityComponent&#45;&gt;ManageLocationModule -->
<g id="edge3" class="edge">
<title>ManageCityComponent&#45;&gt;ManageLocationModule</title>
<path fill="none" stroke="#000000" d="M1287,-122.2667C1287,-140.5552 1287,-166 1287,-166 1287,-166 911.2351,-166 911.2351,-166"/>
<polygon fill="#000000" stroke="#000000" points="911.2352,-162.5001 901.2351,-166 911.2351,-169.5001 911.2352,-162.5001"/>
</g>
<!-- ManageCountryComponent -->
<g id="node4" class="node">
<title>ManageCountryComponent</title>
<polygon fill="#ffffb3" stroke="#000000" points="1194.3089,-122 1021.6911,-122 1021.6911,-86 1194.3089,-86 1194.3089,-122"/>
<text text-anchor="middle" x="1108" y="-99.8" font-family="Times,serif" font-size="14.00" fill="#000000">ManageCountryComponent</text>
</g>
<!-- ManageCountryComponent&#45;&gt;ManageLocationModule -->
<g id="edge4" class="edge">
<title>ManageCountryComponent&#45;&gt;ManageLocationModule</title>
<path fill="none" stroke="#000000" d="M1108,-122.0091C1108,-138.0494 1108,-159 1108,-159 1108,-159 911.2291,-159 911.2291,-159"/>
<polygon fill="#000000" stroke="#000000" points="911.2291,-155.5001 901.2291,-159 911.2291,-162.5001 911.2291,-155.5001"/>
</g>
<!-- ManageLocationComponent -->
<g id="node5" class="node">
<title>ManageLocationComponent</title>
<polygon fill="#ffffb3" stroke="#000000" points="1004.1839,-122 827.8161,-122 827.8161,-86 1004.1839,-86 1004.1839,-122"/>
<text text-anchor="middle" x="916" y="-99.8" font-family="Times,serif" font-size="14.00" fill="#000000">ManageLocationComponent</text>
</g>
<!-- ManageLocationComponent&#45;&gt;ManageLocationModule -->
<g id="edge5" class="edge">
<title>ManageLocationComponent&#45;&gt;ManageLocationModule</title>
<path fill="none" stroke="#000000" d="M864.5544,-122.1061C864.5544,-122.1061 864.5544,-140.991 864.5544,-140.991"/>
<polygon fill="#000000" stroke="#000000" points="861.0544,-140.9909 864.5544,-150.991 868.0544,-140.991 861.0544,-140.9909"/>
</g>
<!-- ManageStateComponent -->
<g id="node6" class="node">
<title>ManageStateComponent</title>
<polygon fill="#ffffb3" stroke="#000000" points="810.4144,-122 655.5856,-122 655.5856,-86 810.4144,-86 810.4144,-122"/>
<text text-anchor="middle" x="733" y="-99.8" font-family="Times,serif" font-size="14.00" fill="#000000">ManageStateComponent</text>
</g>
<!-- ManageStateComponent&#45;&gt;ManageLocationModule -->
<g id="edge6" class="edge">
<title>ManageStateComponent&#45;&gt;ManageLocationModule</title>
<path fill="none" stroke="#000000" d="M778.5032,-122.1061C778.5032,-122.1061 778.5032,-140.991 778.5032,-140.991"/>
<polygon fill="#000000" stroke="#000000" points="775.0032,-140.9909 778.5032,-150.991 782.0032,-140.991 775.0032,-140.9909"/>
</g>
<!-- StateAddEditComponent -->
<g id="node7" class="node">
<title>StateAddEditComponent</title>
<polygon fill="#ffffb3" stroke="#000000" points="637.266,-122 480.734,-122 480.734,-86 637.266,-86 637.266,-122"/>
<text text-anchor="middle" x="559" y="-99.8" font-family="Times,serif" font-size="14.00" fill="#000000">StateAddEditComponent</text>
</g>
<!-- StateAddEditComponent&#45;&gt;ManageLocationModule -->
<g id="edge7" class="edge">
<title>StateAddEditComponent&#45;&gt;ManageLocationModule</title>
<path fill="none" stroke="#000000" d="M559,-122.0091C559,-138.0494 559,-159 559,-159 559,-159 736.6387,-159 736.6387,-159"/>
<polygon fill="#000000" stroke="#000000" points="736.6387,-162.5001 746.6387,-159 736.6386,-155.5001 736.6387,-162.5001"/>
</g>
<!-- LoaderModule -->
<g id="node9" class="node">
<title>LoaderModule</title>
<polygon fill="#8dd3c7" stroke="#000000" points="456.6924,-122 453.6924,-126 432.6924,-126 429.6924,-122 357.3076,-122 357.3076,-86 456.6924,-86 456.6924,-122"/>
<text text-anchor="middle" x="407" y="-99.8" font-family="Times,serif" font-size="14.00" fill="#000000">LoaderModule</text>
</g>
<!-- LoaderModule&#45;&gt;ManageLocationModule -->
<g id="edge8" class="edge">
<title>LoaderModule&#45;&gt;ManageLocationModule</title>
<path fill="none" stroke="#000000" d="M407,-122.2667C407,-140.5552 407,-166 407,-166 407,-166 736.5428,-166 736.5428,-166"/>
<polygon fill="#000000" stroke="#000000" points="736.5428,-169.5001 746.5428,-166 736.5427,-162.5001 736.5428,-169.5001"/>
</g>
<!-- ManageLocationRoutingModule -->
<g id="node10" class="node">
<title>ManageLocationRoutingModule</title>
<polygon fill="#8dd3c7" stroke="#000000" points="339.5196,-122 336.5196,-126 315.5196,-126 312.5196,-122 140.4804,-122 140.4804,-86 339.5196,-86 339.5196,-122"/>
<text text-anchor="middle" x="240" y="-99.8" font-family="Times,serif" font-size="14.00" fill="#000000">ManageLocationRoutingModule</text>
</g>
<!-- ManageLocationRoutingModule&#45;&gt;ManageLocationModule -->
<g id="edge9" class="edge">
<title>ManageLocationRoutingModule&#45;&gt;ManageLocationModule</title>
<path fill="none" stroke="#000000" d="M240,-122.1289C240,-142.5724 240,-173 240,-173 240,-173 736.7507,-173 736.7507,-173"/>
<polygon fill="#000000" stroke="#000000" points="736.7507,-176.5001 746.7507,-173 736.7507,-169.5001 736.7507,-176.5001"/>
</g>
<!-- SharedModule -->
<g id="node11" class="node">
<title>SharedModule</title>
<polygon fill="#8dd3c7" stroke="#000000" points="122.4231,-122 119.4231,-126 98.4231,-126 95.4231,-122 23.5769,-122 23.5769,-86 122.4231,-86 122.4231,-122"/>
<text text-anchor="middle" x="73" y="-99.8" font-family="Times,serif" font-size="14.00" fill="#000000">SharedModule</text>
</g>
<!-- SharedModule&#45;&gt;ManageLocationModule -->
<g id="edge10" class="edge">
<title>SharedModule&#45;&gt;ManageLocationModule</title>
<path fill="none" stroke="#000000" d="M73,-122.0109C73,-144.4852 73,-180 73,-180 73,-180 736.4584,-180 736.4584,-180"/>
<polygon fill="#000000" stroke="#000000" points="736.4585,-183.5001 746.4584,-180 736.4584,-176.5001 736.4585,-183.5001"/>
</g>
</g>
</svg>
