<?xml version="1.0" encoding="UTF-8" standalone="no"?>
<!DOCTYPE svg PUBLIC "-//W3C//DTD SVG 1.1//EN"
 "http://www.w3.org/Graphics/SVG/1.1/DTD/svg11.dtd">
<!-- Generated by graphviz version 2.40.1 (20161225.0304)
 -->
<!-- Title: dependencies Pages: 1 -->
<svg width="901pt" height="211pt"
 viewBox="0.00 0.00 901.00 211.00" xmlns="http://www.w3.org/2000/svg" xmlns:xlink="http://www.w3.org/1999/xlink">
<g id="graph0" class="graph" transform="scale(1 1) rotate(0) translate(4 207)">
<title>dependencies</title>
<polygon fill="#ffffff" stroke="transparent" points="-4,4 -4,-207 897,-207 897,4 -4,4"/>
<text text-anchor="start" x="425.5091" y="-42.4" font-family="sans-serif" font-weight="bold" font-size="14.00" fill="#000000">Legend</text>
<polygon fill="#ffffb3" stroke="transparent" points="212.5,-10 212.5,-30 232.5,-30 232.5,-10 212.5,-10"/>
<text text-anchor="start" x="236.129" y="-15.4" font-family="sans-serif" font-size="14.00" fill="#000000"> &#160;Declarations</text>
<polygon fill="#8dd3c7" stroke="transparent" points="325.5,-10 325.5,-30 345.5,-30 345.5,-10 325.5,-10"/>
<text text-anchor="start" x="349.2251" y="-15.4" font-family="sans-serif" font-size="14.00" fill="#000000"> &#160;Module</text>
<polygon fill="#80b1d3" stroke="transparent" points="411.5,-10 411.5,-30 431.5,-30 431.5,-10 411.5,-10"/>
<text text-anchor="start" x="435.2812" y="-15.4" font-family="sans-serif" font-size="14.00" fill="#000000"> &#160;Bootstrap</text>
<polygon fill="#fdb462" stroke="transparent" points="508.5,-10 508.5,-30 528.5,-30 528.5,-10 508.5,-10"/>
<text text-anchor="start" x="532.1732" y="-15.4" font-family="sans-serif" font-size="14.00" fill="#000000"> &#160;Providers</text>
<polygon fill="#fb8072" stroke="transparent" points="604.5,-10 604.5,-30 624.5,-30 624.5,-10 604.5,-10"/>
<text text-anchor="start" x="628.2258" y="-15.4" font-family="sans-serif" font-size="14.00" fill="#000000"> &#160;Exports</text>
<g id="clust1" class="cluster">
<title>cluster_EmailModule</title>
<polygon fill="none" stroke="#000000" stroke-dasharray="1,5" points="8,-70 8,-195 885,-195 885,-70 8,-70"/>
</g>
<g id="clust2" class="cluster">
<title>cluster_EmailModule_declarations</title>
<polygon fill="none" stroke="#000000" points="412,-78 412,-130 877,-130 877,-78 412,-78"/>
</g>
<g id="clust6" class="cluster">
<title>cluster_EmailModule_imports</title>
<polygon fill="none" stroke="#000000" points="16,-78 16,-130 404,-130 404,-78 16,-78"/>
</g>
<!-- EmailAddEditComponent -->
<g id="node1" class="node">
<title>EmailAddEditComponent</title>
<polygon fill="#ffffb3" stroke="#000000" points="869.2119,-122 706.7881,-122 706.7881,-86 869.2119,-86 869.2119,-122"/>
<text text-anchor="middle" x="788" y="-99.8" font-family="Times,serif" font-size="14.00" fill="#000000">EmailAddEditComponent</text>
</g>
<!-- EmailModule -->
<g id="node4" class="node">
<title>EmailModule</title>
<polygon fill="#8dd3c7" stroke="#000000" points="453.4888,-187 450.4888,-191 429.4888,-191 426.4888,-187 360.5112,-187 360.5112,-151 453.4888,-151 453.4888,-187"/>
<text text-anchor="middle" x="407" y="-164.8" font-family="Times,serif" font-size="14.00" fill="#000000">EmailModule</text>
</g>
<!-- EmailAddEditComponent&#45;&gt;EmailModule -->
<g id="edge1" class="edge">
<title>EmailAddEditComponent&#45;&gt;EmailModule</title>
<path fill="none" stroke="#000000" d="M788,-122.2843C788,-143.3211 788,-175 788,-175 788,-175 463.7181,-175 463.7181,-175"/>
<polygon fill="#000000" stroke="#000000" points="463.7181,-171.5001 453.7181,-175 463.718,-178.5001 463.7181,-171.5001"/>
</g>
<!-- EmailComponent -->
<g id="node2" class="node">
<title>EmailComponent</title>
<polygon fill="#ffffb3" stroke="#000000" points="689.2716,-122 574.7284,-122 574.7284,-86 689.2716,-86 689.2716,-122"/>
<text text-anchor="middle" x="632" y="-99.8" font-family="Times,serif" font-size="14.00" fill="#000000">EmailComponent</text>
</g>
<!-- EmailComponent&#45;&gt;EmailModule -->
<g id="edge2" class="edge">
<title>EmailComponent&#45;&gt;EmailModule</title>
<path fill="none" stroke="#000000" d="M632,-122.0225C632,-139.3734 632,-163 632,-163 632,-163 463.6201,-163 463.6201,-163"/>
<polygon fill="#000000" stroke="#000000" points="463.6202,-159.5001 453.6201,-163 463.6201,-166.5001 463.6202,-159.5001"/>
</g>
<!-- EmailListComponent -->
<g id="node3" class="node">
<title>EmailListComponent</title>
<polygon fill="#ffffb3" stroke="#000000" points="556.0505,-122 419.9495,-122 419.9495,-86 556.0505,-86 556.0505,-122"/>
<text text-anchor="middle" x="488" y="-99.8" font-family="Times,serif" font-size="14.00" fill="#000000">EmailListComponent</text>
</g>
<!-- EmailListComponent&#45;&gt;EmailModule -->
<g id="edge3" class="edge">
<title>EmailListComponent&#45;&gt;EmailModule</title>
<path fill="none" stroke="#000000" d="M436.6098,-122.1061C436.6098,-122.1061 436.6098,-140.991 436.6098,-140.991"/>
<polygon fill="#000000" stroke="#000000" points="433.1098,-140.9909 436.6098,-150.991 440.1098,-140.991 433.1098,-140.9909"/>
</g>
<!-- EmailRoutingModule -->
<g id="node5" class="node">
<title>EmailRoutingModule</title>
<polygon fill="#8dd3c7" stroke="#000000" points="396.1066,-122 393.1066,-126 372.1066,-126 369.1066,-122 257.8934,-122 257.8934,-86 396.1066,-86 396.1066,-122"/>
<text text-anchor="middle" x="327" y="-99.8" font-family="Times,serif" font-size="14.00" fill="#000000">EmailRoutingModule</text>
</g>
<!-- EmailRoutingModule&#45;&gt;EmailModule -->
<g id="edge4" class="edge">
<title>EmailRoutingModule&#45;&gt;EmailModule</title>
<path fill="none" stroke="#000000" d="M378.2795,-122.1061C378.2795,-122.1061 378.2795,-140.991 378.2795,-140.991"/>
<polygon fill="#000000" stroke="#000000" points="374.7795,-140.9909 378.2795,-150.991 381.7795,-140.991 374.7795,-140.9909"/>
</g>
<!-- LoaderModule -->
<g id="node6" class="node">
<title>LoaderModule</title>
<polygon fill="#8dd3c7" stroke="#000000" points="239.6924,-122 236.6924,-126 215.6924,-126 212.6924,-122 140.3076,-122 140.3076,-86 239.6924,-86 239.6924,-122"/>
<text text-anchor="middle" x="190" y="-99.8" font-family="Times,serif" font-size="14.00" fill="#000000">LoaderModule</text>
</g>
<!-- LoaderModule&#45;&gt;EmailModule -->
<g id="edge5" class="edge">
<title>LoaderModule&#45;&gt;EmailModule</title>
<path fill="none" stroke="#000000" d="M190,-122.0225C190,-139.3734 190,-163 190,-163 190,-163 350.4481,-163 350.4481,-163"/>
<polygon fill="#000000" stroke="#000000" points="350.4481,-166.5001 360.4481,-163 350.448,-159.5001 350.4481,-166.5001"/>
</g>
<!-- SharedModule -->
<g id="node7" class="node">
<title>SharedModule</title>
<polygon fill="#8dd3c7" stroke="#000000" points="122.4231,-122 119.4231,-126 98.4231,-126 95.4231,-122 23.5769,-122 23.5769,-86 122.4231,-86 122.4231,-122"/>
<text text-anchor="middle" x="73" y="-99.8" font-family="Times,serif" font-size="14.00" fill="#000000">SharedModule</text>
</g>
<!-- SharedModule&#45;&gt;EmailModule -->
<g id="edge6" class="edge">
<title>SharedModule&#45;&gt;EmailModule</title>
<path fill="none" stroke="#000000" d="M73,-122.2843C73,-143.3211 73,-175 73,-175 73,-175 350.207,-175 350.207,-175"/>
<polygon fill="#000000" stroke="#000000" points="350.2071,-178.5001 360.207,-175 350.207,-171.5001 350.2071,-178.5001"/>
</g>
</g>
</svg>
