<?xml version="1.0" encoding="UTF-8" standalone="no"?>
<!DOCTYPE svg PUBLIC "-//W3C//DTD SVG 1.1//EN"
 "http://www.w3.org/Graphics/SVG/1.1/DTD/svg11.dtd">
<!-- Generated by graphviz version 2.40.1 (20161225.0304)
 -->
<!-- Title: dependencies Pages: 1 -->
<svg width="534pt" height="211pt"
 viewBox="0.00 0.00 534.00 211.00" xmlns="http://www.w3.org/2000/svg" xmlns:xlink="http://www.w3.org/1999/xlink">
<g id="graph0" class="graph" transform="scale(1 1) rotate(0) translate(4 207)">
<title>dependencies</title>
<polygon fill="#ffffff" stroke="transparent" points="-4,4 -4,-207 530,-207 530,4 -4,4"/>
<text text-anchor="start" x="242.0091" y="-42.4" font-family="sans-serif" font-weight="bold" font-size="14.00" fill="#000000">Legend</text>
<polygon fill="#ffffb3" stroke="transparent" points="29,-10 29,-30 49,-30 49,-10 29,-10"/>
<text text-anchor="start" x="52.629" y="-15.4" font-family="sans-serif" font-size="14.00" fill="#000000"> &#160;Declarations</text>
<polygon fill="#8dd3c7" stroke="transparent" points="142,-10 142,-30 162,-30 162,-10 142,-10"/>
<text text-anchor="start" x="165.7251" y="-15.4" font-family="sans-serif" font-size="14.00" fill="#000000"> &#160;Module</text>
<polygon fill="#80b1d3" stroke="transparent" points="228,-10 228,-30 248,-30 248,-10 228,-10"/>
<text text-anchor="start" x="251.7812" y="-15.4" font-family="sans-serif" font-size="14.00" fill="#000000"> &#160;Bootstrap</text>
<polygon fill="#fdb462" stroke="transparent" points="325,-10 325,-30 345,-30 345,-10 325,-10"/>
<text text-anchor="start" x="348.6732" y="-15.4" font-family="sans-serif" font-size="14.00" fill="#000000"> &#160;Providers</text>
<polygon fill="#fb8072" stroke="transparent" points="421,-10 421,-30 441,-30 441,-10 421,-10"/>
<text text-anchor="start" x="444.7258" y="-15.4" font-family="sans-serif" font-size="14.00" fill="#000000"> &#160;Exports</text>
<g id="clust1" class="cluster">
<title>cluster_VideoUploadModule</title>
<polygon fill="none" stroke="#000000" stroke-dasharray="1,5" points="8,-70 8,-195 518,-195 518,-70 8,-70"/>
</g>
<g id="clust2" class="cluster">
<title>cluster_VideoUploadModule_declarations</title>
<polygon fill="none" stroke="#000000" points="338,-78 338,-130 510,-130 510,-78 338,-78"/>
</g>
<g id="clust4" class="cluster">
<title>cluster_VideoUploadModule_imports</title>
<polygon fill="none" stroke="#000000" points="16,-78 16,-130 330,-130 330,-78 16,-78"/>
</g>
<!-- VideoUploadComponent -->
<g id="node1" class="node">
<title>VideoUploadComponent</title>
<polygon fill="#ffffb3" stroke="#000000" points="502.2562,-122 345.7438,-122 345.7438,-86 502.2562,-86 502.2562,-122"/>
<text text-anchor="middle" x="424" y="-99.8" font-family="Times,serif" font-size="14.00" fill="#000000">VideoUploadComponent</text>
</g>
<!-- VideoUploadModule -->
<g id="node2" class="node">
<title>VideoUploadModule</title>
<polygon fill="#8dd3c7" stroke="#000000" points="339.4734,-187 336.4734,-191 315.4734,-191 312.4734,-187 204.5266,-187 204.5266,-151 339.4734,-151 339.4734,-187"/>
<text text-anchor="middle" x="272" y="-164.8" font-family="Times,serif" font-size="14.00" fill="#000000">VideoUploadModule</text>
</g>
<!-- VideoUploadComponent&#45;&gt;VideoUploadModule -->
<g id="edge1" class="edge">
<title>VideoUploadComponent&#45;&gt;VideoUploadModule</title>
<path fill="none" stroke="#000000" d="M345.5571,-104C336.5665,-104 330.5414,-104 330.5414,-104 330.5414,-104 330.5414,-140.8939 330.5414,-140.8939"/>
<polygon fill="#000000" stroke="#000000" points="327.0415,-140.8938 330.5414,-150.8939 334.0415,-140.8939 327.0415,-140.8938"/>
</g>
<!-- LoaderModule -->
<g id="node3" class="node">
<title>LoaderModule</title>
<polygon fill="#8dd3c7" stroke="#000000" points="321.6924,-122 318.6924,-126 297.6924,-126 294.6924,-122 222.3076,-122 222.3076,-86 321.6924,-86 321.6924,-122"/>
<text text-anchor="middle" x="272" y="-99.8" font-family="Times,serif" font-size="14.00" fill="#000000">LoaderModule</text>
</g>
<!-- LoaderModule&#45;&gt;VideoUploadModule -->
<g id="edge2" class="edge">
<title>LoaderModule&#45;&gt;VideoUploadModule</title>
<path fill="none" stroke="#000000" d="M272,-122.1061C272,-122.1061 272,-140.991 272,-140.991"/>
<polygon fill="#000000" stroke="#000000" points="268.5001,-140.9909 272,-150.991 275.5001,-140.991 268.5001,-140.9909"/>
</g>
<!-- VideoUploadRoutingModule -->
<g id="node4" class="node">
<title>VideoUploadRoutingModule</title>
<polygon fill="#8dd3c7" stroke="#000000" points="204.0912,-122 201.0912,-126 180.0912,-126 177.0912,-122 23.9088,-122 23.9088,-86 204.0912,-86 204.0912,-122"/>
<text text-anchor="middle" x="114" y="-99.8" font-family="Times,serif" font-size="14.00" fill="#000000">VideoUploadRoutingModule</text>
</g>
<!-- VideoUploadRoutingModule&#45;&gt;VideoUploadModule -->
<g id="edge3" class="edge">
<title>VideoUploadRoutingModule&#45;&gt;VideoUploadModule</title>
<path fill="none" stroke="#000000" d="M204.28,-104C209.962,-104 213.4586,-104 213.4586,-104 213.4586,-104 213.4586,-140.8939 213.4586,-140.8939"/>
<polygon fill="#000000" stroke="#000000" points="209.9587,-140.8938 213.4586,-150.8939 216.9587,-140.8939 209.9587,-140.8938"/>
</g>
</g>
</svg>
