<?xml version="1.0" encoding="UTF-8" standalone="no"?>
<!DOCTYPE svg PUBLIC "-//W3C//DTD SVG 1.1//EN"
 "http://www.w3.org/Graphics/SVG/1.1/DTD/svg11.dtd">
<!-- Generated by graphviz version 2.40.1 (20161225.0304)
 -->
<!-- Title: dependencies Pages: 1 -->
<svg width="911pt" height="211pt"
 viewBox="0.00 0.00 911.00 211.00" xmlns="http://www.w3.org/2000/svg" xmlns:xlink="http://www.w3.org/1999/xlink">
<g id="graph0" class="graph" transform="scale(1 1) rotate(0) translate(4 207)">
<title>dependencies</title>
<polygon fill="#ffffff" stroke="transparent" points="-4,4 -4,-207 907,-207 907,4 -4,4"/>
<text text-anchor="start" x="430.5091" y="-42.4" font-family="sans-serif" font-weight="bold" font-size="14.00" fill="#000000">Legend</text>
<polygon fill="#ffffb3" stroke="transparent" points="217.5,-10 217.5,-30 237.5,-30 237.5,-10 217.5,-10"/>
<text text-anchor="start" x="241.129" y="-15.4" font-family="sans-serif" font-size="14.00" fill="#000000"> &#160;Declarations</text>
<polygon fill="#8dd3c7" stroke="transparent" points="330.5,-10 330.5,-30 350.5,-30 350.5,-10 330.5,-10"/>
<text text-anchor="start" x="354.2251" y="-15.4" font-family="sans-serif" font-size="14.00" fill="#000000"> &#160;Module</text>
<polygon fill="#80b1d3" stroke="transparent" points="416.5,-10 416.5,-30 436.5,-30 436.5,-10 416.5,-10"/>
<text text-anchor="start" x="440.2812" y="-15.4" font-family="sans-serif" font-size="14.00" fill="#000000"> &#160;Bootstrap</text>
<polygon fill="#fdb462" stroke="transparent" points="513.5,-10 513.5,-30 533.5,-30 533.5,-10 513.5,-10"/>
<text text-anchor="start" x="537.1732" y="-15.4" font-family="sans-serif" font-size="14.00" fill="#000000"> &#160;Providers</text>
<polygon fill="#fb8072" stroke="transparent" points="609.5,-10 609.5,-30 629.5,-30 629.5,-10 609.5,-10"/>
<text text-anchor="start" x="633.2258" y="-15.4" font-family="sans-serif" font-size="14.00" fill="#000000"> &#160;Exports</text>
<g id="clust1" class="cluster">
<title>cluster_ActivityTrackingModule</title>
<polygon fill="none" stroke="#000000" stroke-dasharray="1,5" points="8,-70 8,-195 895,-195 895,-70 8,-70"/>
</g>
<g id="clust2" class="cluster">
<title>cluster_ActivityTrackingModule_declarations</title>
<polygon fill="none" stroke="#000000" points="475,-78 475,-130 887,-130 887,-78 475,-78"/>
</g>
<g id="clust5" class="cluster">
<title>cluster_ActivityTrackingModule_imports</title>
<polygon fill="none" stroke="#000000" points="16,-78 16,-130 467,-130 467,-78 16,-78"/>
</g>
<!-- ActivityTrackingComponent -->
<g id="node1" class="node">
<title>ActivityTrackingComponent</title>
<polygon fill="#ffffb3" stroke="#000000" points="878.7492,-122 701.2508,-122 701.2508,-86 878.7492,-86 878.7492,-122"/>
<text text-anchor="middle" x="790" y="-99.8" font-family="Times,serif" font-size="14.00" fill="#000000">ActivityTrackingComponent</text>
</g>
<!-- ActivityTrackingModule -->
<g id="node3" class="node">
<title>ActivityTrackingModule</title>
<polygon fill="#8dd3c7" stroke="#000000" points="435.9664,-187 432.9664,-191 411.9664,-191 408.9664,-187 280.0336,-187 280.0336,-151 435.9664,-151 435.9664,-187"/>
<text text-anchor="middle" x="358" y="-164.8" font-family="Times,serif" font-size="14.00" fill="#000000">ActivityTrackingModule</text>
</g>
<!-- ActivityTrackingComponent&#45;&gt;ActivityTrackingModule -->
<g id="edge1" class="edge">
<title>ActivityTrackingComponent&#45;&gt;ActivityTrackingModule</title>
<path fill="none" stroke="#000000" d="M790,-122.2843C790,-143.3211 790,-175 790,-175 790,-175 445.9818,-175 445.9818,-175"/>
<polygon fill="#000000" stroke="#000000" points="445.9818,-171.5001 435.9818,-175 445.9817,-178.5001 445.9818,-171.5001"/>
</g>
<!-- ListActivityTrackingComponent -->
<g id="node2" class="node">
<title>ListActivityTrackingComponent</title>
<polygon fill="#ffffb3" stroke="#000000" points="682.528,-122 483.472,-122 483.472,-86 682.528,-86 682.528,-122"/>
<text text-anchor="middle" x="583" y="-99.8" font-family="Times,serif" font-size="14.00" fill="#000000">ListActivityTrackingComponent</text>
</g>
<!-- ListActivityTrackingComponent&#45;&gt;ActivityTrackingModule -->
<g id="edge2" class="edge">
<title>ListActivityTrackingComponent&#45;&gt;ActivityTrackingModule</title>
<path fill="none" stroke="#000000" d="M583,-122.0225C583,-139.3734 583,-163 583,-163 583,-163 446.0626,-163 446.0626,-163"/>
<polygon fill="#000000" stroke="#000000" points="446.0627,-159.5001 436.0626,-163 446.0626,-166.5001 446.0627,-159.5001"/>
</g>
<!-- ActivityTrackingRoutingModule -->
<g id="node4" class="node">
<title>ActivityTrackingRoutingModule</title>
<polygon fill="#8dd3c7" stroke="#000000" points="458.5842,-122 455.5842,-126 434.5842,-126 431.5842,-122 257.4158,-122 257.4158,-86 458.5842,-86 458.5842,-122"/>
<text text-anchor="middle" x="358" y="-99.8" font-family="Times,serif" font-size="14.00" fill="#000000">ActivityTrackingRoutingModule</text>
</g>
<!-- ActivityTrackingRoutingModule&#45;&gt;ActivityTrackingModule -->
<g id="edge3" class="edge">
<title>ActivityTrackingRoutingModule&#45;&gt;ActivityTrackingModule</title>
<path fill="none" stroke="#000000" d="M358,-122.1061C358,-122.1061 358,-140.991 358,-140.991"/>
<polygon fill="#000000" stroke="#000000" points="354.5001,-140.9909 358,-150.991 361.5001,-140.991 354.5001,-140.9909"/>
</g>
<!-- LoaderModule -->
<g id="node5" class="node">
<title>LoaderModule</title>
<polygon fill="#8dd3c7" stroke="#000000" points="239.6924,-122 236.6924,-126 215.6924,-126 212.6924,-122 140.3076,-122 140.3076,-86 239.6924,-86 239.6924,-122"/>
<text text-anchor="middle" x="190" y="-99.8" font-family="Times,serif" font-size="14.00" fill="#000000">LoaderModule</text>
</g>
<!-- LoaderModule&#45;&gt;ActivityTrackingModule -->
<g id="edge4" class="edge">
<title>LoaderModule&#45;&gt;ActivityTrackingModule</title>
<path fill="none" stroke="#000000" d="M190,-122.0225C190,-139.3734 190,-163 190,-163 190,-163 269.9019,-163 269.9019,-163"/>
<polygon fill="#000000" stroke="#000000" points="269.902,-166.5001 279.9019,-163 269.9019,-159.5001 269.902,-166.5001"/>
</g>
<!-- SharedModule -->
<g id="node6" class="node">
<title>SharedModule</title>
<polygon fill="#8dd3c7" stroke="#000000" points="122.4231,-122 119.4231,-126 98.4231,-126 95.4231,-122 23.5769,-122 23.5769,-86 122.4231,-86 122.4231,-122"/>
<text text-anchor="middle" x="73" y="-99.8" font-family="Times,serif" font-size="14.00" fill="#000000">SharedModule</text>
</g>
<!-- SharedModule&#45;&gt;ActivityTrackingModule -->
<g id="edge5" class="edge">
<title>SharedModule&#45;&gt;ActivityTrackingModule</title>
<path fill="none" stroke="#000000" d="M73,-122.2843C73,-143.3211 73,-175 73,-175 73,-175 269.7455,-175 269.7455,-175"/>
<polygon fill="#000000" stroke="#000000" points="269.7456,-178.5001 279.7455,-175 269.7455,-171.5001 269.7456,-178.5001"/>
</g>
</g>
</svg>
